<?xml version="1.0" encoding="utf-8"?>
<!-- Generator: Adobe Illustrator 16.0.0, SVG Export Plug-In . SVG Version: 6.00 Build 0)  -->
<!DOCTYPE svg PUBLIC "-//W3C//DTD SVG 1.1//EN" "http://www.w3.org/Graphics/SVG/1.1/DTD/svg11.dtd">
<svg version="1.1" id="Layer_1" xmlns="http://www.w3.org/2000/svg" xmlns:xlink="http://www.w3.org/1999/xlink" x="0px" y="0px"
	 width="612.697px" height="74.161px" viewBox="2285.99 551.834 612.697 74.161"
	  xml:space="preserve">
<path fill="none" d="M2724.211,561.483c0,0.218,0,0.437,0,0.654c1.067-0.023,1.623,0.379,2.364,0.652
	c0.513-0.054,1.024-0.108,1.536-0.163c0.271,0.173,0.549,0.962,0.828,1.145c0.275,0,0.552,0,0.828,0
	c0.117,0.271,0.235,0.544,0.354,0.816c0.701-0.185,0.858,0.413,1.418,0.652c0.656,0.282,1.302-0.85,1.892,0
	c0.039,0.272,0.08,0.544,0.118,0.816c0.237,0.242,0.729-0.056,0.945,0.164c0.14,0.14,0.11,0.689,0.236,0.815
	c0.395,0.056,0.788,0.109,1.183,0.164c0.532,0.284,0.981,1.192,1.537,1.47c0.473,0.055,0.946,0.109,1.418,0.163
	c0.519,0.406,0.202,1.152,1.063,1.308c0.856-0.794,2.282,0.458,2.956,0.652c0.19-0.436,0.685-1.001,0.945-0.815
	c0.414,0.395,0.516,1.156,0.946,1.47c0.877-0.879,4.1-0.886,4.255,0.816c1.105,0.169,1.906,0.883,2.719,1.307
	c0.175,0.09,0.271-0.449,0.355-0.49c0.074-0.036,0.439,0.316,0.473,0.326c0.314-0.054,0.63-0.107,0.945-0.163
	c1.314,0.561,0.607,1.246,2.246,0.49c0.816-0.378,1.788,0.878,2.482,0.49c0.039-0.164,0.078-0.327,0.117-0.49
	c0.04,0,0.079,0,0.119,0c0.238-0.175,0.354-0.185,0.59,0c0.434-0.398,0.396-0.971,1.064-1.144c0.322,0.402,0.709,0.998,1.182,1.144
	c0.275-0.304,0.982-0.619,1.184-0.49c0.373,0.166,0.52,0.412,0.709,0.816c0.039,0,0.078,0,0.117,0c0.137-0.691,0.272-0.6,0.592-0.98
	c0.474,0.15,1.017,0.391,1.3,0.816c0.039,0.164,0.079,0.327,0.118,0.49c0.275-0.055,0.552-0.108,0.827-0.163
	c0.283,0.125,0.698,1.189,0.946,0.815c0.186-0.245-0.1-0.265,0.354-0.49c0.295-0.229,0.569,0.029,0.945,0.164
	c0.049,0.584-0.056,0.411,0.236,0.653c0.27-0.342,0.831-0.773,1.064-0.653c0.763,0.372,1.121,1.755,1.418,2.776
	c0.418-0.606,0.468-1.582,1.183-1.796c0.562,0.592,1.675,1.208,2.364,1.47c0.394,0.055,0.788,0.109,1.182,0.163
	c0.354,0.279,0.121,0.634,0.709,0.817c0.194-0.364,0.203-0.491,0.473-0.327c0.146,0.249,0.255,0.683,0.355,0.979
	c0.697,0.077,0.572,0.45,0.945,0.653c0.314-0.055,0.631-0.109,0.945-0.164c0.158,0.272,0.315,0.544,0.473,0.816
	c0.563,0.329,1.276-0.355,1.655-0.49c0.211,0.53,0.245,0.74,0.827,0.817c0.618-0.767,1.686,0.315,2.482,0.489
	c0.66-1.036,1.257-1.552,2.363-1.144c0.086-0.402,0.17-0.571,0.354-0.816c0.251,0.545,0.394,0.655,1.063,0.653
	c0.098,0.53-0.058,0.249,0.237,0.49c0-0.055,0-0.108,0-0.163c0.155-0.224,0.25-0.521,0.354-0.817
	c0.207,0.104,0.114,0.032,0.235,0.164c0.317,0.146,0.306,0.168,0.474,0.49c0.387-0.263,0.515-0.452,0.709-0.979
	c0.129,0.148,0.011-0.013,0.118,0.163c0.44,0.506,0.292,0.814,1.183,0.816c0.666,0.382,1.396-1.235,2.127-1.47
	c0.223,0.291,0.095,0.302,0.354,0.164c0.572-0.195,1.021-0.705,1.301-1.308c0.413,0.268,0.917,0.66,1.183,1.144
	c0.541-0.36,0.714-0.975,1.182-1.308c0.305,0.535,0.443,0.667,1.182,0.654c0.297-0.308,1.714-1.23,1.773-1.145
	c0.258,0.287,0.27,0.597,0.591,0.816c0.196-0.44,0.6-1.236,0.946-1.47c0.192,0.363,0.2,0.491,0.472,0.327
	c0.477-0.17,0.799-0.646,1.182-0.817c0.666-0.297,1.239,0.333,1.537,0.164c0.44-0.686,0.291-1.148,1.3-1.145
	c0.43,0.202,0.676-0.568,1.301,0c0.283-0.254,0.556-0.791,1.063-0.325c0.5,0.249,0.479,0.713,0.946,0.979c0-0.055,0-0.108,0-0.164
	c0.367-0.497,0.714-1.116,1.063-1.633c0.591,0.002,1.67,0.396,1.893,0.326c0.069-0.022,0.316-0.475,0.354-0.49
	c0.489-0.193,0.679,0.612,0.946,0.326c0.551-0.606,0.646-0.854,1.773-0.816c0.654-0.564,1.854-0.322,2.601-0.652
	c0.155-0.069,0.553-0.441,0.709-0.49c0.354,0.054,0.709,0.107,1.063,0.163c0.302-0.104,0.659-0.813,1.063-0.653
	c0.276,0.109,0.389,0.737,0.946,0.653c0.988-0.148,2.108-0.313,3.072,0c0.863,0.279,2.354-0.304,2.838,0
	c0.136,0.192,0.217,0.463,0.354,0.654c0.079-0.164,0.158-0.327,0.236-0.49c0.334-0.143,0.32,0.41,0.474,0.49
	c0.591-0.056,1.183-0.109,1.773-0.164c0.108,0.047,0.455,0.445,0.591,0.489c0.445,0.146,0.555-0.322,0.827-0.326
	c0.131-0.003,0.286,0.3,0.354,0.326c0.734,0.285,1.576-0.224,2.011-0.326c0.43-0.104,0.777,0.384,1.063,0.489
	c0.354-0.055,0.709-0.108,1.063-0.164c0.137,0.094,0.074,0.351,0.354,0.49c0.146-0.506,0.044-0.37,0.473-0.49
	c0.649,0.861,2.296,0.838,3.548,0.816c0.174-0.479,0.127-0.526,0.591-0.653c0.103,0.167,2.786,1.188,3.546,1.47
	c0.693,0.258,1.462-0.18,1.892-0.326c0.972-0.334,1.248,0.6,2.127,0.326c1.218-0.378,1.511,1.158,2.602,0.816
	c0.834-0.261,2.212,0.976,2.482,0.653c0.179-0.167,0.232-0.245,0.354-0.49c1.095,0.842,2.85-0.24,3.665,1.96
	c0.274-0.218,0.552-0.436,0.827-0.653c0.039,0.164,0.078,0.327,0.117,0.49c0.182,0.156,0.221-0.155,0.236-0.163
	c0.773-0.391,0.318,0.229,0.946,0.163c0,0,0.153-0.294,0.235-0.326c0.183,0.116,0.402,0.569,0.592,0.653
	c0.394-0.054,0.788-0.108,1.182-0.163c0.352,0.119,0.643,0.577,1.182,0.49c0.04,0,0.079,0,0.118,0
	c0.919-0.26,2.879-0.739,4.138-0.327c2.025,0.663,4.689,1.104,6.62,1.797c0.912,0.328,1.72-0.487,2.482-0.326
	c1.097,0.231,2.655,0.456,3.9,0.816c0.421,0.122,4.347-0.626,4.61-0.816c0.079-0.218,0.157-0.436,0.236-0.653
	c0.201-0.11,0.488,0.298,0.591,0.326c1.135,0.315,2.198-1.817,2.838-2.124c0.387-0.185,0.849,0.539,1.418,0.327
	c1.315-0.488,0.247-1.192,1.892-0.49c0.879,0.375,1.969-0.979,2.246-0.652c0.311,0.327,0.216,0.507,0.709,0.652
	c0.041-0.218,0.08-0.436,0.119-0.652c0.094,0.167,0.042,0.045,0.118,0.327c0.207,0.356,0.144,0.586,0.473,0.816
	c0-0.055,0-0.108,0-0.164c0.205-0.297,0.339-0.752,0.474-1.144c0.765,0.308,0.771,0.54,1.418,0c0,0.109,0,0.218,0,0.327
	c0.334,0.75,0.117,2.84,0.117,3.92c0,3.266,0,6.533,0,9.8c0,12.194,0,24.393,0,36.587c-204.249,0-408.561,0-612.811,0
	c0-24.008,0-48.022,0-72.03c0.535-0.092,1.091-0.351,1.537-0.489c0.623-0.194,1.143,0.245,1.535,0.327
	c0.345,0.069,0.517-0.272,0.709-0.327c0.765-0.22,0.75,0.702,1.537,0.489c0.248-0.066,0.539-0.436,0.946-0.326
	c0.134,0.035,0.354,0.381,0.591,0.326c0.178-0.041,0.534-0.578,0.709-0.653c0.981-0.423,1.795,0.446,2.364,0.653
	c0.745,0.271,1.309-0.333,1.773-0.489c1.655,0.108,3.31,0.218,4.965,0.327c0.362,0.117,0.993,0.601,1.301,0.652
	c0.388,0.066,0.523-0.54,1.064-0.327c0.405,0.16,0.956,0.796,1.418,0.98c1.112,0.444,2.549-0.256,3.782,0.164
	c0.557,0.188,1.336,0.629,1.892,0.815c0.59,0.2,1.201-0.128,1.655-0.163c0.859-0.065,1.708,0.135,2.246,0.327
	c0.967,0.347,1.854-0.279,2.719-0.327c0.213,0.625,0.27,0.792,0.946,0.817c0.075-0.042,0.011-0.191,0.237-0.164
	c0.209,0.025,0.658,0.545,1.182,0.327c0.281-0.117,0.429-0.635,0.945-0.49c0.039,0,0.08,0,0.118,0
	c0.189,0.095,0.421,0.697,0.591,0.816c0.534,0.375,0.805-0.281,1.42,0c0.039,0.108,0.078,0.218,0.117,0.327
	c0.663,0.313,2.107-0.014,2.602-0.163c0.865,0.054,1.733,0.107,2.601,0.163c0.841-0.39,1.431,0.186,2.246-0.163
	c0.403-0.172,0.587-0.472,1.3-0.49c0.309,0.578,0.655,0.679,1.418,0.653c0.719-1.193,1.748,0.247,2.838-0.163
	c0.215-0.081,0.461-0.507,0.945-0.327c0.311,0.116,1.616,0.757,2.246,0.327c0.039-0.164,0.079-0.327,0.118-0.49
	c0.201-0.063,1.004,0.559,1.3,0.653c1.037,0.328,2.17,0.078,3.073,0.326c0.591-0.108,1.182-0.218,1.772-0.326
	c0.523,0.164,0.891,0.592,1.655,0.652c0.146-0.294,0.306-0.404,0.474-0.652c1.184,0.563,1.258,0.227,2.719,0.164
	c0.212,0.529,0.246,0.739,0.826,0.815c0.754-0.651,2.188,0.587,2.838,0.817c0.276,0.098,0.616-0.142,0.709-0.164
	c0.577-0.142,0.722,0.463,1.3,0.327c0.502-0.118,1.341-0.585,2.128-0.327c0.99,0.326,2.167,0.68,3.31,0.816c0,0.218,0,0.436,0,0.653
	c1.067-0.022,1.622,0.379,2.365,0.653c0.512-0.055,1.024-0.109,1.536-0.163c0.271,0.172,0.548,0.96,0.828,1.143
	c0.275,0,0.552,0,0.826,0c0.118,0.272,0.237,0.544,0.354,0.817c0.702-0.184,0.86,0.413,1.419,0.653c0.656,0.281,1.302-0.851,1.892,0
	c0.039,0.271,0.078,0.544,0.118,0.815c0.237,0.242,0.729-0.055,0.945,0.164c0.14,0.141,0.108,0.69,0.236,0.816
	c0.395,0.054,0.787,0.107,1.183,0.164c0.532,0.283,0.981,1.191,1.537,1.47c0.473,0.054,0.945,0.108,1.418,0.164
	c0.517,0.405,0.202,1.151,1.063,1.307c0.857-0.794,2.282,0.457,2.957,0.653c0.189-0.437,0.684-1.001,0.944-0.816
	c0.414,0.396,0.515,1.156,0.946,1.471c0.876-0.88,4.1-0.887,4.255,0.815c1.104,0.168,1.906,0.884,2.719,1.308
	c0.173,0.09,0.271-0.449,0.355-0.49c0.073-0.035,0.438,0.316,0.473,0.327c0.315-0.056,0.63-0.109,0.945-0.164
	c1.313,0.56,0.606,1.247,2.246,0.489c0.816-0.377,1.788,0.879,2.481,0.49c0.039-0.164,0.079-0.327,0.118-0.49
	c0.04,0,0.079,0,0.118,0c0.238-0.175,0.353-0.185,0.591,0c0.432-0.397,0.396-0.971,1.063-1.144c0.322,0.403,0.709,0.999,1.183,1.144
	c0.274-0.303,0.982-0.618,1.182-0.489c0.374,0.167,0.521,0.413,0.709,0.816c0.04,0,0.079,0,0.118,0
	c0.137-0.691,0.271-0.599,0.592-0.979c0.475,0.149,1.018,0.391,1.3,0.816c0.04,0.164,0.079,0.327,0.118,0.49
	c0.275-0.054,0.552-0.108,0.828-0.163c0.283,0.126,0.697,1.19,0.945,0.816c0.185-0.245-0.101-0.266,0.354-0.49
	c0.296-0.229,0.569,0.029,0.945,0.164c0.05,0.584-0.057,0.411,0.236,0.653c0.269-0.342,0.832-0.774,1.064-0.653
	c0.762,0.372,1.122,1.754,1.418,2.776c0.419-0.607,0.469-1.582,1.184-1.797c0.562,0.592,1.675,1.209,2.363,1.471
	c0.395,0.054,0.788,0.107,1.182,0.163c0.354,0.278,0.121,0.634,0.709,0.816c0.193-0.364,0.202-0.491,0.474-0.327
	c0.146,0.249,0.255,0.683,0.354,0.98c0.697,0.078,0.572,0.45,0.945,0.653c0.315-0.055,0.631-0.108,0.946-0.163
	c0.156,0.271,0.314,0.544,0.473,0.816c0.563,0.328,1.275-0.355,1.655-0.489c0.212,0.53,0.246,0.739,0.827,0.816
	c0.619-0.766,1.686,0.316,2.482,0.49c0.661-1.036,1.257-1.553,2.364-1.144c0.086-0.402,0.171-0.571,0.354-0.816
	c0.251,0.545,0.395,0.654,1.064,0.653c0.098,0.529-0.059,0.25,0.235,0.489c0-0.055,0-0.108,0-0.163
	c0.156-0.224,0.25-0.52,0.354-0.816c0.207,0.103,0.115,0.031,0.236,0.163c0.316,0.146,0.306,0.168,0.473,0.49
	c0.387-0.264,0.515-0.452,0.709-0.98c0.04,0,0.079,0,0.118,0c0,0.055,0,0.109,0,0.164c0.439,0.507,0.292,0.814,1.183,0.816
	c0.667,0.382,1.397-1.235,2.128-1.471c0.223,0.29,0.094,0.303,0.354,0.163c0.571-0.193,1.021-0.704,1.301-1.306
	c0.412,0.267,0.917,0.66,1.182,1.143c0.542-0.36,0.714-0.974,1.184-1.307c0.305,0.535,0.442,0.667,1.182,0.653
	c0.297-0.309,1.714-1.229,1.772-1.144c0.259,0.286,0.271,0.596,0.592,0.816c0.197-0.441,0.599-1.236,0.945-1.471
	c0.193,0.365,0.202,0.492,0.474,0.327c0.478-0.17,0.799-0.646,1.182-0.816c0.666-0.297,1.239,0.333,1.537,0.164
	c0.44-0.686,0.291-1.148,1.3-1.145c0.429,0.202,0.675-0.568,1.301,0c0.283-0.254,0.556-0.792,1.063-0.327
	c0.499,0.249,0.479,0.714,0.946,0.98c0-0.055,0-0.109,0-0.164c0.368-0.497,0.714-1.116,1.063-1.633
	c0.591,0.003,1.67,0.396,1.893,0.327c0.071-0.022,0.316-0.476,0.354-0.49c0.489-0.192,0.68,0.612,0.946,0.327
	c0.55-0.606,0.646-0.854,1.773-0.817c0.655-0.565,1.854-0.323,2.601-0.653c0.155-0.068,0.555-0.441,0.71-0.489
	c0.354,0.054,0.709,0.108,1.063,0.163c0.301-0.104,0.66-0.813,1.063-0.653c0.275,0.107,0.39,0.737,0.945,0.653
	c0.989-0.149,2.11-0.313,3.073,0c0.863,0.278,2.353-0.305,2.837,0c0.136,0.19,0.218,0.463,0.354,0.652
	c0.079-0.164,0.158-0.326,0.237-0.49c0.333-0.142,0.321,0.41,0.473,0.49c0.592-0.054,1.182-0.107,1.773-0.164
	c0.109,0.047,0.456,0.447,0.591,0.49c0.445,0.146,0.555-0.323,0.828-0.327c0.13-0.002,0.286,0.3,0.354,0.327
	c0.734,0.285,1.576-0.223,2.009-0.327c0.431-0.102,0.778,0.384,1.064,0.49c0.354-0.055,0.709-0.109,1.063-0.164
	c0.137,0.093,0.074,0.351,0.354,0.49c0.146-0.506,0.044-0.369,0.473-0.49c0.649,0.861,2.296,0.837,3.548,0.817
	c0.174-0.479,0.127-0.526,0.591-0.653c0.103,0.167,2.787,1.188,3.547,1.47c0.692,0.257,1.462-0.179,1.892-0.327
	c0.972-0.334,1.248,0.601,2.127,0.327c1.219-0.378,1.512,1.158,2.602,0.816c0.834-0.262,2.211,0.976,2.482,0.653
	c0.18-0.167,0.231-0.244,0.354-0.489c1.094,0.842,2.851-0.24,3.664,1.96c0.274-0.218,0.552-0.437,0.827-0.653
	c0.04,0.163,0.079,0.326,0.117,0.49c0.182,0.155,0.222-0.156,0.237-0.164c0.773-0.391,0.318,0.229,0.946,0.164
	c0,0,0.154-0.294,0.236-0.327c0.183,0.116,0.402,0.57,0.591,0.653c0.394-0.056,0.788-0.109,1.183-0.163
	c0.352,0.119,0.643,0.575,1.183,0.489c0.039,0,0.079,0,0.118,0c0.92-0.26,2.879-0.738,4.138-0.326
	c2.024,0.662,4.688,1.104,6.62,1.797c0.913,0.327,1.72-0.488,2.482-0.327c1.098,0.231,2.655,0.456,3.9,0.816
	c0.421,0.122,4.346-0.626,4.609-0.816c0.08-0.218,0.158-0.436,0.236-0.653c0.2-0.111,0.49,0.298,0.592,0.326
	c1.135,0.316,2.196-1.817,2.836-2.123c0.388-0.186,0.849,0.538,1.418,0.327c1.316-0.488,0.248-1.192,1.893-0.49
	c0.879,0.375,1.969-0.979,2.246-0.653c0.311,0.327,0.214,0.508,0.709,0.653c0.04-0.218,0.079-0.436,0.118-0.653
	c0.096,0.167,0.042,0.045,0.118,0.326c0.207,0.358,0.143,0.587,0.474,0.817c0-0.055,0-0.109,0-0.163
	c0.205-0.297,0.339-0.752,0.473-1.145c0.765,0.309,0.772,0.54,1.418,0c0.22,0.679,0.268,0.25,0.591,0.49
	c0.082,0.126,0.155,0.365,0.237,0.49c0.205-0.216,0.189-0.282,0.354-0.163c0.107,0.152,0.156,0.287,0.236,0.49
	c0.433-0.192,0.959-0.607,1.3-0.163c0.18,0.243,0.292,0.575,0.473,0.815c0.101-0.237,0.214-0.468,0.354-0.652
	c0.888,1.073,2.352-0.519,3.073-0.817c0.435,0,0.867,0,1.302,0c0.275-0.19,0.278-0.959,0.591-1.143c0.434,0,0.866,0,1.3,0
	c0.197-0.327,0.395-0.654,0.592-0.98c0.709-0.055,1.418-0.108,2.128-0.164c0.13-0.113,0.188-0.704,0.354-0.815
	c0.512-0.056,1.023-0.109,1.535-0.164c0.414-0.211,0.608-0.992,0.946-1.308c0.459-0.427,1.075-0.402,1.537-0.816
	c0.118-0.217,0.236-0.436,0.355-0.653c0.377-0.214,0.482,0.298,0.59,0.327c0.41,0.11,0.193-0.364,0.354-0.49
	c0.705-0.552,1.857,0.252,2.482,0c0.208-0.084,0.239-0.637,0.473-0.327c0.31,0.274,0.393,0.354,0.473,0.98
	c0.61-0.134,0.577-0.599,0.946-0.816c0.802-0.476,2.164,0.638,2.72,0.816c0.742,0.241,1.008-0.484,1.418-0.653
	c0.852-0.352,0.973,0.889,1.892,0.49c0.194-0.084,0.517-0.566,0.709-0.653c0.749-0.055,1.497-0.108,2.246-0.164
	c0.158-0.271,0.315-0.544,0.473-0.816c0.434-0.108,0.866-0.218,1.3-0.326c0.177-0.129,0.398-0.707,0.592-0.817
	c0.592,0,1.183,0,1.773,0c0.744-0.282,1.766-0.701,2.601-0.979c0.354,0,0.71,0,1.063,0c0.278-0.129,0.566-0.675,0.828-0.816
	c0.748-0.108,1.497-0.218,2.246-0.327c0.641-0.25,1.374-0.915,2.01-1.144c0.561-0.202,1.693,0.258,1.893,0.653
	c0.259-0.115,0.201-0.535,0.354-0.653c0.434,0.054,0.866,0.108,1.301,0.163c0.216-0.091,0.576-0.565,0.827-0.653
	c0.716-0.25,1.083,0.689,1.893,0.326c0.272-0.123,0.569-0.699,0.827-0.816c0.271-0.123,0.623,0.142,0.709,0.163
	c0,0,2.127-0.488,2.127-0.49c0.157-0.271,0.315-0.544,0.474-0.816c0.512,0.055,1.024,0.109,1.537,0.164
	c0.118-0.218,0.235-0.437,0.354-0.653c0.522-0.268,0.578,0.507,1.183,0.327c0.879-0.264,2.028-0.825,2.955-1.144
	c1.024-0.055,2.05-0.109,3.073-0.163c0.226,0.074,1.164,0.714,1.3,0.652c0.559-0.251,0.684-0.773,1.655-0.815
	c0.236,0.271,0.474,0.544,0.709,0.815c0.111-0.628,0.236-0.581,0.593-0.815c0,0.108,0,0.218,0,0.327
	c0.108,0.214-0.043,0.205,0.117,0.489c0.244,0.302,1.269,0.388,1.418,0.327c0.193-0.244,0.414-0.55,0.592-0.816
	c0.621,0.047,0.887,0.348,1.3,0.489c0.61,0.21,0.86-0.222,1.3-0.325c0.199,0.37,0.475,0.654,0.828,0.815
	c0.079-0.074,2.818-1.464,2.837-1.47c0.104-0.182,0.118,0.164,0.118,0.164c0.282,0.254,0.346,0.477,0.709,0.652
	c0.16-0.205,0.207-0.223,0.473-0.326c0,0.164,0,0.326,0,0.489c0.693-0.107,1.447-1.123,2.128-0.652
	c0.461,0.215,0.493,0.519,1.063,0.652c0.268-0.359,0.597-0.563,1.064-0.652c0-0.164,0-0.327,0-0.49
	c0.669,0.055,1.34,0.109,2.009,0.163c0.066,0.262,0.095,0.393,0.119,0.816c0.275,0,0.551,0,0.826,0
	c0.002-0.703,1.93-0.8,2.483-1.307c0,0.164,0,0.327,0,0.49c0.358-0.012,0.324-0.123,0.473,0c0.212,0.201,0.293,0.423,0.474,0.654
	c0-0.056,0-0.109,0-0.164c0.254-0.22,0.424-0.45,0.709-0.653c0-0.163,0-0.327,0-0.49c0.655,0.007,1.474-0.231,1.892-0.653
	c-0.217-0.256-0.165-0.144-0.237-0.652c0.039,0,0.079,0,0.118,0c0.44,0.465,0.785,0.423,1.063,1.143
	c0.742-0.479,1.463-1.238,2.246-1.633c0.328-0.165,0.938,0.084,1.064,0c0.039-0.164,0.079-0.327,0.118-0.49
	c0.512-0.055,1.023-0.108,1.537-0.164c0.591-0.381,1.182-0.762,1.772-1.144c0.59,0.055,1.182,0.109,1.773,0.164
	c0.732-0.268,1.109-0.467,1.891-0.164c0.807-1.662,0.891-0.009,1.893-0.49c0.103-0.05,0.369-0.604,0.473-0.653
	c0.405-0.188,0.472,0.386,0.827,0.326l0.354-0.326c0.828,0.055,1.655,0.108,2.482,0.163c0.253-0.096,0.608-0.553,0.828-0.652
	c1.035-0.475,1.896,0.764,3.072,0.327c0.119-0.044,0.5-0.466,0.592-0.49c0.241-0.066,1.231,0.49,1.891,0.49
	c1.064-0.109,2.128-0.219,3.191-0.327c1.265,0.423,2.859,0.853,4.138,1.307c0.63,0,1.261,0,1.892,0
	c0.816,0.311,2.102,1.012,3.191,0.49c0.231,0.153,0.334,0.695,0.591,0.817c0.158-0.056,0.315-0.109,0.473-0.164
	c0.479,0.187,1.24,0.572,1.893,0.815c0.394,0,0.788,0,1.182,0c1.664,0.552,3.752,1.106,5.438,1.47
	c0.33,0.071,1.138-0.163,1.654-0.163c0.737,0,1.327,0.152,1.773,0.327c0.947,0.37,1.871-0.281,2.719-0.327
	c0.212,0.625,0.27,0.792,0.946,0.816c0.073-0.042,0.011-0.19,0.235-0.164c0.211,0.026,0.659,0.545,1.184,0.327
	c0.281-0.117,0.429-0.636,0.945-0.49c0.04,0,0.079,0,0.117,0c0.189,0.096,0.422,0.698,0.592,0.816c0.533,0.375,0.804-0.281,1.418,0
	c0.039,0.108,0.079,0.218,0.117,0.327c0.664,0.313,2.107-0.014,2.602-0.164c0.867,0.055,1.734,0.108,2.602,0.164
	c0.84-0.391,1.431,0.185,2.246-0.164c0.401-0.172,0.586-0.472,1.301-0.49c0.308,0.578,0.654,0.679,1.418,0.653
	c0.718-1.193,1.747,0.247,2.837-0.164c0.215-0.081,0.462-0.508,0.944-0.327c0.312,0.116,1.617,0.756,2.248,0.327
	c0.039-0.164,0.078-0.327,0.117-0.49c0.201-0.063,1.004,0.559,1.301,0.653c1.037,0.329,2.17,0.079,3.072,0.327
	c0.592-0.109,1.182-0.219,1.773-0.327c0.522,0.164,0.89,0.591,1.654,0.652c0.146-0.293,0.307-0.404,0.474-0.652
	c1.183,0.563,1.258,0.226,2.719,0.163c0.212,0.529,0.246,0.739,0.828,0.816c0.753-0.651,2.188,0.587,2.837,0.816
	c0.277,0.098,0.617-0.142,0.709-0.163c0.578-0.142,0.722,0.463,1.3,0.327c0.502-0.118,1.341-0.585,2.127-0.327
	C2721.891,560.992,2723.068,561.347,2724.211,561.483z M2620.186,558.87c-0.121,0.132-0.032,0.059-0.236,0.164
	c0,0.055,0,0.109,0,0.163c0.118,0,0.236,0,0.354,0C2620.229,558.91,2620.28,559.038,2620.186,558.87z M2623.377,559.033
	c0.043,0.339,0.028,0.314,0.117,0.49c0-0.055,0-0.109,0-0.163c0.04,0,0.079,0,0.118,0c0-0.055,0-0.108,0-0.164
	C2623.534,559.142,2623.455,559.088,2623.377,559.033z"/>
<path fill="rgba(255,255,255,0.0)" d="M2898.801,576.122"/>
</svg>
