<?xml version="1.0" encoding="utf-8"?>
<!-- Generator: Adobe Illustrator 16.0.0, SVG Export Plug-In . SVG Version: 6.00 Build 0)  -->
<!DOCTYPE svg PUBLIC "-//W3C//DTD SVG 1.1//EN" "http://www.w3.org/Graphics/SVG/1.1/DTD/svg11.dtd">
<svg version="1.1" id="Layer_1" xmlns="http://www.w3.org/2000/svg" xmlns:xlink="http://www.w3.org/1999/xlink" x="0px" y="0px"
	 width="466.912px" height="77.506px" viewBox="0 0 466.912 77.506" enable-background="new 0 0 466.912 77.506"
	 xml:space="preserve">
<path fill="#FFFFFF" d="M466.899,43.614c-0.123-0.62-0.143-0.866-0.479-0.956c-0.358,0.898-0.975-0.37-1.437-0.574
	c-0.382,1.217-0.727,1.821-1.367,1.342c-0.05,0.471-0.1,0.67-0.205,0.955c-0.146-0.638-0.228-0.767-0.616-0.765
	c-0.057-0.62,0.034-0.294-0.137-0.573c0,0.064,0,0.127,0,0.191c-0.089,0.261-0.143,0.607-0.205,0.957
	c-0.118-0.119-0.065-0.038-0.137-0.191c-0.182-0.17-0.176-0.197-0.272-0.574c-0.224,0.309-0.297,0.529-0.409,1.148
	c-0.025,0-0.047,0-0.069,0c0-0.064,0-0.129,0-0.193c-0.255-0.592-0.169-0.953-0.684-0.955c-0.388-0.449-0.808,1.449-1.23,1.725
	c-0.133-0.34-0.057-0.354-0.207-0.19c-0.33,0.228-0.59,0.825-0.752,1.53c-0.238-0.313-0.529-0.774-0.684-1.34
	c-0.313,0.424-0.413,1.143-0.685,1.532c-0.176-0.627-0.256-0.781-0.683-0.764c-0.172,0.361-0.993,1.44-1.024,1.341
	c-0.15-0.335-0.158-0.698-0.345-0.957c-0.112,0.518-0.345,1.45-0.545,1.726c-0.111-0.428-0.116-0.577-0.275-0.384
	c-0.274,0.199-0.461,0.756-0.682,0.957c-0.385,0.35-0.718-0.391-0.889-0.191c-0.257,0.803-0.169,1.347-0.753,1.342
	c-0.249-0.236-0.391,0.667-0.752,0c-0.165,0.297-0.321,0.93-0.615,0.384c-0.289-0.292-0.277-0.836-0.549-1.15
	c0,0.065,0,0.129,0,0.193c-0.213,0.583-0.411,1.31-0.614,1.915c-0.341-0.004-0.966-0.463-1.094-0.383
	c-0.042,0.025-0.184,0.557-0.205,0.574c-0.285,0.227-0.394-0.717-0.548-0.384c-0.318,0.71-0.374,1.001-1.026,0.959
	c-0.378,0.663-1.071,0.378-1.505,0.765c-0.089,0.081-0.32,0.518-0.41,0.574c-0.205-0.063-0.408-0.125-0.615-0.189
	c-0.173,0.119-0.382,0.952-0.615,0.765c-0.157-0.126-0.225-0.864-0.546-0.765c-0.572,0.172-1.222,0.365-1.778,0
	c-0.499-0.328-1.36,0.356-1.641,0c-0.079-0.224-0.128-0.545-0.205-0.766c-0.046,0.191-0.093,0.381-0.139,0.574
	c-0.191,0.166-0.185-0.48-0.271-0.574c-0.343,0.063-0.684,0.125-1.026,0.191c-0.063-0.055-0.265-0.523-0.342-0.575
	c-0.259-0.17-0.32,0.38-0.48,0.385c-0.075,0.002-0.165-0.353-0.204-0.385c-0.426-0.333-0.911,0.263-1.163,0.385
	c-0.249,0.118-0.449-0.451-0.614-0.575c-0.206,0.064-0.41,0.127-0.616,0.191c-0.079-0.107-0.041-0.41-0.205-0.574
	c-0.083,0.596-0.023,0.434-0.272,0.574c-0.377-1.009-1.328-0.98-2.052-0.957c-0.101,0.562-0.075,0.616-0.344,0.766
	c-0.059-0.196-1.61-1.393-2.051-1.725c-0.401-0.301-0.845,0.209-1.095,0.384c-0.562,0.392-0.723-0.704-1.231-0.384
	c-0.704,0.443-0.872-1.357-1.506-0.957c-0.48,0.309-1.277-1.145-1.434-0.766c-0.104,0.197-0.135,0.287-0.206,0.574
	c-0.634-0.988-1.649,0.281-2.12-2.3c-0.158,0.255-0.319,0.511-0.479,0.766c-0.023-0.19-0.046-0.382-0.067-0.575
	c-0.106-0.181-0.129,0.184-0.139,0.193c-0.447,0.459-0.183-0.268-0.546-0.193c0,0-0.091,0.346-0.138,0.385
	c-0.105-0.137-0.232-0.668-0.343-0.766c-0.227,0.064-0.455,0.127-0.684,0.19c-0.202-0.138-0.372-0.675-0.682-0.573
	c-0.024,0-0.047,0-0.069,0c-0.533,0.305-1.667,0.865-2.396,0.383c-1.171-0.776-2.713-1.297-3.829-2.109
	c-0.528-0.382-0.993,0.572-1.436,0.384c-0.635-0.271-1.536-0.534-2.257-0.956c-0.243-0.143-2.514,0.734-2.665,0.956
	c-0.046,0.255-0.093,0.511-0.137,0.767c-0.117,0.133-0.284-0.35-0.345-0.383c-0.655-0.369-1.27,2.133-1.64,2.491
	c-0.226,0.218-0.491-0.632-0.821-0.384c-0.763,0.572-0.144,1.397-1.096,0.574c-0.508-0.439-1.138,1.148-1.299,0.767
	c-0.179-0.384-0.124-0.596-0.41-0.767c-0.023,0.254-0.045,0.511-0.069,0.767c-0.055-0.196-0.024-0.054-0.068-0.382
	c-0.119-0.422-0.081-0.688-0.273-0.959c0,0.064,0,0.127,0,0.19c-0.117,0.349-0.196,0.882-0.272,1.344
	c-0.443-0.363-0.448-0.634-0.821,0c-0.129-0.796-0.155-0.292-0.342-0.575c-0.048-0.148-0.09-0.428-0.138-0.575
	c-0.12,0.253-0.11,0.331-0.205,0.191c-0.063-0.179-0.09-0.336-0.137-0.575c-0.252,0.227-0.555,0.714-0.753,0.191
	c-0.104-0.284-0.168-0.674-0.272-0.955c-0.058,0.278-0.125,0.549-0.205,0.764c-0.513-1.259-1.36,0.608-1.778,0.959
	c-0.252,0-0.501,0-0.754,0c-0.158,0.223-0.161,1.125-0.341,1.341c-0.252,0-0.502,0-0.753,0c-0.114,0.384-0.227,0.767-0.342,1.15
	c-0.411,0.063-0.821,0.126-1.232,0.192c-0.074,0.133-0.108,0.824-0.204,0.955c-0.298,0.066-0.593,0.127-0.889,0.191
	c-0.241,0.248-0.353,1.165-0.548,1.536c-0.265,0.498-0.621,0.47-0.889,0.956c-0.07,0.252-0.138,0.51-0.207,0.767
	c-0.218,0.25-0.279-0.349-0.341-0.384c-0.238-0.131-0.112,0.428-0.205,0.576c-0.407,0.646-1.074-0.298-1.436,0
	c-0.12,0.097-0.139,0.746-0.274,0.383c-0.178-0.322-0.227-0.416-0.272-1.15c-0.354,0.155-0.335,0.703-0.548,0.957
	c-0.465,0.559-1.252-0.748-1.573-0.957c-0.43-0.285-0.584,0.567-0.821,0.768c-0.493,0.411-0.563-1.043-1.094-0.576
	c-0.112,0.098-0.299,0.664-0.411,0.766c-0.432,0.064-0.865,0.126-1.3,0.193c-0.089,0.317-0.182,0.639-0.271,0.955
	c-0.253,0.128-0.502,0.257-0.752,0.385c-0.104,0.15-0.23,0.828-0.344,0.958c-0.344,0-0.684,0-1.024,0
	c-0.433,0.33-1.021,0.822-1.505,1.147c-0.205,0-0.411,0-0.615,0c-0.162,0.149-0.328,0.79-0.481,0.957
	c-0.431,0.126-0.864,0.256-1.298,0.384c-0.37,0.293-0.795,1.073-1.162,1.342c-0.325,0.237-0.979-0.302-1.096-0.767
	c-0.149,0.135-0.117,0.628-0.204,0.767c-0.253-0.063-0.501-0.126-0.753-0.191c-0.126,0.105-0.335,0.663-0.48,0.767
	c-0.414,0.293-0.625-0.809-1.094-0.383c-0.159,0.145-0.33,0.82-0.479,0.957c-0.154,0.145-0.359-0.166-0.41-0.191
	c0,0-1.23,0.572-1.23,0.576c-0.091,0.316-0.182,0.637-0.273,0.956c-0.297-0.064-0.592-0.128-0.889-0.192
	c-0.068,0.254-0.137,0.512-0.205,0.766c-0.302,0.314-0.334-0.594-0.685-0.383c-0.51,0.309-1.174,0.969-1.71,1.342
	c-0.592,0.064-1.186,0.128-1.777,0.19c-0.13-0.087-0.674-0.838-0.752-0.764c-0.323,0.294-0.396,0.905-0.959,0.954
	c-0.137-0.316-0.272-0.638-0.409-0.954c-0.063,0.735-0.137,0.681-0.344,0.954c0-0.125,0-0.255,0-0.383
	c-0.063-0.251,0.024-0.24-0.068-0.572c-0.142-0.355-0.735-0.457-0.82-0.385c-0.112,0.287-0.24,0.645-0.344,0.957
	c-0.359-0.055-0.513-0.407-0.751-0.572c-0.354-0.246-0.497,0.259-0.753,0.381c-0.114-0.434-0.274-0.768-0.479-0.957
	c-0.045,0.088-1.631,1.717-1.642,1.725c-0.06,0.214-0.068-0.193-0.068-0.193c-0.163-0.297-0.2-0.557-0.41-0.764
	c-0.093,0.24-0.12,0.261-0.273,0.383c0-0.192,0-0.383,0-0.573c-0.401,0.124-0.837,1.317-1.231,0.764
	c-0.267-0.251-0.285-0.607-0.614-0.764c-0.156,0.419-0.347,0.659-0.616,0.764c0,0.192,0,0.384,0,0.575
	c-0.388-0.064-0.775-0.127-1.162-0.191c-0.039-0.306-0.056-0.459-0.07-0.957c-0.159,0-0.317,0-0.478,0
	c-0.002,0.824-1.116,0.939-1.437,1.533c0-0.193,0-0.384,0-0.576c-0.207,0.016-0.187,0.146-0.272,0
	c-0.123-0.235-0.17-0.495-0.274-0.766c0,0.065,0,0.127,0,0.192c-0.146,0.257-0.245,0.527-0.41,0.766c0,0.19,0,0.384,0,0.575
	c-0.379-0.009-0.853,0.271-1.095,0.767c0.126,0.3,0.096,0.167,0.138,0.765c-0.023,0-0.045,0-0.069,0
	c-0.254-0.547-0.453-0.497-0.614-1.342c-0.431,0.563-0.848,1.453-1.299,1.915c-0.191,0.194-0.545-0.099-0.616,0
	c-0.023,0.192-0.046,0.385-0.069,0.575c-0.296,0.064-0.593,0.128-0.89,0.194c-0.341,0.445-0.684,0.893-1.025,1.34
	c-0.342-0.064-0.683-0.127-1.025-0.191c-0.425,0.314-0.643,0.549-1.095,0.191c-0.467,1.949-0.516,0.012-1.095,0.576
	c-0.06,0.057-0.212,0.709-0.272,0.766c-0.236,0.221-0.272-0.451-0.48-0.383l-0.204,0.383c-0.479-0.064-0.957-0.127-1.436-0.191
	c-0.147,0.111-0.353,0.648-0.48,0.766c-0.599,0.557-1.095-0.896-1.776-0.385c-0.069,0.053-0.291,0.547-0.344,0.576
	c-0.139,0.078-0.712-0.576-1.094-0.576c-0.615,0.129-1.231,0.258-1.846,0.385c-0.732-0.498-1.656-1.002-2.396-1.533
	c-0.363,0-0.729,0-1.095,0c-0.472-0.363-1.215-1.186-1.846-0.574c-0.134-0.18-0.192-0.816-0.342-0.959
	c-0.092,0.064-0.183,0.129-0.273,0.193c-0.277-0.221-0.718-0.673-1.095-0.958c-0.229,0-0.456,0-0.684,0
	c-0.961-0.647-2.171-1.299-3.146-1.725c-0.191-0.083-0.658,0.192-0.958,0.192c-0.427,0-0.768-0.18-1.025-0.385
	c-0.549-0.434-1.083,0.33-1.574,0.385c-0.121-0.733-0.154-0.929-0.546-0.958c-0.043,0.049-0.007,0.223-0.137,0.192
	c-0.122-0.03-0.38-0.64-0.685-0.384c-0.162,0.138-0.247,0.746-0.546,0.574c-0.024,0-0.046,0-0.068,0
	c-0.11-0.11-0.244-0.818-0.343-0.957c-0.31-0.439-0.466,0.33-0.821,0c-0.023-0.125-0.046-0.255-0.067-0.383
	c-0.387-0.368-1.22,0.016-1.506,0.191c-0.502-0.063-1.005-0.126-1.505-0.191c-0.485,0.459-0.828-0.217-1.3,0.191
	c-0.232,0.203-0.339,0.553-0.753,0.575c-0.179-0.679-0.379-0.794-0.82-0.765c-0.416,1.398-1.011-0.29-1.643,0.191
	c-0.123,0.095-0.265,0.596-0.545,0.383c-0.18-0.135-0.936-0.887-1.301-0.383c-0.021,0.191-0.045,0.383-0.068,0.574
	c-0.116,0.076-0.58-0.654-0.752-0.766c-0.6-0.385-1.256-0.092-1.777-0.383c-0.343,0.127-0.684,0.256-1.026,0.383
	c-0.301-0.191-0.515-0.692-0.957-0.765c-0.084,0.345-0.177,0.475-0.273,0.765c-0.684-0.659-0.728-0.265-1.572-0.19
	c-0.123-0.62-0.142-0.867-0.479-0.958c-0.436,0.766-1.266-0.688-1.643-0.957c-0.159-0.115-0.355,0.166-0.408,0.191
	c-0.334,0.167-0.418-0.543-0.753-0.384c-0.291,0.138-0.775,0.687-1.231,0.384c-0.586-0.396-1.266-0.812-1.928-0.972
	c0-0.255,0-0.511,0-0.767c-0.617,0.027-0.938-0.444-1.368-0.766c-0.298,0.064-0.592,0.128-0.89,0.192
	c-0.157-0.203-0.316-1.129-0.478-1.343c-0.161,0-0.319,0-0.48,0c-0.068-0.318-0.136-0.64-0.205-0.958
	c-0.405,0.218-0.498-0.483-0.821-0.765c-0.379-0.332-0.753,0.998-1.094,0c-0.023-0.318-0.047-0.639-0.069-0.956
	c-0.137-0.284-0.422,0.064-0.545-0.193c-0.082-0.163-0.065-0.808-0.139-0.956c-0.227-0.066-0.455-0.127-0.683-0.193
	c-0.309-0.333-0.568-1.396-0.89-1.723c-0.275-0.064-0.549-0.129-0.821-0.191c-0.3-0.479-0.117-1.354-0.614-1.534
	c-0.496,0.933-1.321-0.538-1.711-0.766c-0.109,0.511-0.396,1.175-0.548,0.958c-0.239-0.465-0.297-1.359-0.546-1.727
	c-0.511,1.031-2.373,1.041-2.463-0.955c-0.641-0.199-1.104-1.036-1.574-1.535c-0.102-0.105-0.156,0.527-0.205,0.576
	c-0.044,0.042-0.254-0.371-0.272-0.384c-0.184,0.064-0.365,0.127-0.548,0.191c-0.761-0.657-0.351-1.462-1.299-0.575
	c-0.473,0.445-1.034-1.029-1.437-0.574c-0.022,0.193-0.044,0.385-0.068,0.574c-0.023,0-0.046,0-0.07,0
	c-0.136,0.206-0.203,0.219-0.341,0c-0.251,0.469-0.229,1.14-0.615,1.342c-0.187-0.473-0.411-1.169-0.683-1.342
	c-0.16,0.357-0.567,0.727-0.685,0.575c-0.215-0.194-0.3-0.482-0.411-0.956c-0.021,0-0.044,0-0.066,0
	c-0.081,0.811-0.159,0.701-0.344,1.149c-0.273-0.177-0.588-0.457-0.751-0.958c-0.024-0.191-0.046-0.383-0.069-0.574
	c-0.16,0.064-0.319,0.125-0.479,0.191c-0.163-0.146-0.403-1.396-0.547-0.957c-0.107,0.287,0.058,0.31-0.204,0.575
	c-0.172,0.269-0.33-0.034-0.548-0.191c-0.026-0.686,0.032-0.483-0.137-0.767c-0.156,0.4-0.48,0.906-0.615,0.767
	c-0.441-0.437-0.648-2.06-0.82-3.257c-0.241,0.712-0.271,1.854-0.685,2.105c-0.323-0.694-0.968-1.416-1.367-1.724
	c-0.229-0.064-0.456-0.128-0.684-0.19c-0.205-0.326-0.07-0.743-0.409-0.959c-0.111,0.426-0.118,0.576-0.274,0.384
	c-0.086-0.292-0.147-0.8-0.206-1.147c-0.402-0.091-0.33-0.527-0.546-0.767c-0.183,0.065-0.364,0.129-0.547,0.191
	c-0.09-0.317-0.182-0.638-0.273-0.956c-0.325-0.387-0.738,0.416-0.958,0.574c-0.122-0.621-0.142-0.867-0.479-0.957
	c-0.357,0.898-0.975-0.371-1.436-0.574c-0.381,1.217-0.727,1.82-1.367,1.341c-0.049,0.472-0.098,0.67-0.205,0.958
	c-0.145-0.639-0.227-0.77-0.614-0.766c-0.057-0.621,0.033-0.293-0.138-0.574c0,0.063,0,0.126,0,0.19
	c-0.089,0.261-0.145,0.61-0.205,0.958c-0.119-0.122-0.066-0.037-0.136-0.192c-0.183-0.17-0.178-0.196-0.274-0.575
	c-0.223,0.308-0.297,0.531-0.409,1.148c-0.076-0.173-0.008,0.016-0.069-0.189c-0.255-0.594-0.169-0.955-0.684-0.959
	c-0.387-0.448-0.81,1.45-1.232,1.726c-0.127-0.341-0.055-0.355-0.204-0.193c-0.331,0.231-0.589,0.828-0.752,1.534
	c-0.239-0.313-0.53-0.775-0.685-1.341c-0.313,0.423-0.413,1.143-0.684,1.534c-0.177-0.629-0.257-0.783-0.684-0.769
	c-0.171,0.362-0.991,1.444-1.025,1.344c-0.148-0.337-0.155-0.698-0.342-0.958c-0.113,0.518-0.347,1.451-0.547,1.725
	c-0.111-0.426-0.116-0.575-0.273-0.383c-0.275,0.199-0.461,0.758-0.684,0.959c-0.385,0.347-0.718-0.393-0.89-0.193
	c-0.254,0.805-0.167,1.348-0.75,1.344c-0.249-0.238-0.392,0.664-0.753,0c-0.164,0.297-0.32,0.927-0.614,0.381
	c-0.291-0.291-0.277-0.836-0.549-1.148c0,0.064,0,0.127,0,0.191c-0.213,0.584-0.412,1.31-0.615,1.916
	c-0.342-0.002-0.966-0.463-1.095-0.381c-0.04,0.024-0.183,0.555-0.205,0.573c-0.283,0.228-0.392-0.717-0.548-0.382
	c-0.318,0.71-0.372,1.001-1.025,0.957c-0.378,0.662-1.072,0.377-1.505,0.766c-0.09,0.08-0.32,0.516-0.41,0.574
	c-0.205-0.063-0.41-0.127-0.615-0.191c-0.174,0.12-0.381,0.953-0.615,0.766c-0.16-0.127-0.225-0.864-0.547-0.766
	c-0.571,0.174-1.22,0.367-1.776,0c-0.501-0.328-1.363,0.355-1.643,0c-0.079-0.226-0.126-0.543-0.206-0.767
	c-0.045,0.192-0.092,0.384-0.137,0.573c-0.192,0.169-0.184-0.48-0.274-0.573c-0.342,0.064-0.684,0.126-1.026,0.192
	c-0.064-0.056-0.264-0.522-0.341-0.574c-0.259-0.172-0.322,0.377-0.48,0.382c-0.076,0.003-0.165-0.351-0.205-0.382
	c-0.425-0.335-0.911,0.261-1.164,0.382c-0.248,0.122-0.449-0.449-0.615-0.573c-0.205,0.064-0.409,0.127-0.616,0.193
	c-0.078-0.11-0.043-0.41-0.205-0.576c-0.083,0.594-0.025,0.435-0.273,0.576c-0.376-1.012-1.328-0.982-2.053-0.959
	c-0.099,0.563-0.074,0.617-0.342,0.767c-0.058-0.196-1.611-1.394-2.051-1.724c-0.402-0.303-0.846,0.21-1.095,0.383
	c-0.562,0.392-0.721-0.704-1.23-0.383c-0.704,0.443-0.874-1.358-1.506-0.957c-0.481,0.306-1.278-1.144-1.435-0.766
	c-0.104,0.195-0.134,0.285-0.206,0.573c-0.633-0.987-1.649,0.281-2.12-2.298c-0.16,0.253-0.319,0.511-0.479,0.766
	c-0.024-0.191-0.045-0.384-0.069-0.576c-0.105-0.182-0.127,0.184-0.137,0.192c-0.446,0.458-0.184-0.267-0.547-0.192
	c0,0-0.088,0.347-0.137,0.385c-0.105-0.137-0.231-0.668-0.342-0.768c-0.228,0.064-0.455,0.127-0.683,0.191
	c-0.204-0.14-0.372-0.678-0.684-0.573c-0.023,0-0.046,0-0.068,0c-0.533,0.305-1.667,0.866-2.395,0.382
	c-1.172-0.778-2.713-1.294-3.829-2.107c-0.527-0.386-0.994,0.572-1.436,0.383c-0.636-0.271-1.537-0.535-2.257-0.959
	c-0.244-0.141-2.515,0.736-2.667,0.959c-0.046,0.254-0.091,0.512-0.138,0.766c-0.117,0.131-0.282-0.349-0.341-0.382
	c-0.657-0.371-1.272,2.132-1.642,2.491c-0.225,0.217-0.492-0.632-0.821-0.383c-0.76,0.571-0.143,1.398-1.094,0.574
	c-0.508-0.439-1.138,1.148-1.3,0.764c-0.179-0.383-0.125-0.594-0.411-0.764c-0.023,0.254-0.046,0.51-0.068,0.764
	c-0.054-0.195-0.024-0.053-0.068-0.383c-0.12-0.418-0.084-0.688-0.274-0.957c0,0.064,0,0.127,0,0.191
	c-0.118,0.35-0.196,0.883-0.274,1.342c-0.442-0.361-0.447-0.633-0.821,0c0-0.127,0-0.256,0-0.383
	c-0.192-0.879-0.067-3.332-0.067-4.6c0-3.83,0-7.66,0-11.494c0-14.302,0-16.099,0-30.402c118.17,0,158.89,0,277.06,0
	 M351.027,66.226c0.07-0.154,0.02-0.068,0.136-0.191c0-0.064,0-0.128,0-0.191c-0.068,0-0.136,0-0.204,0
	C351.003,66.181,350.972,66.031,351.027,66.226z M349.181,66.036c-0.026-0.397-0.018-0.368-0.067-0.575c0,0.065,0,0.128,0,0.191
	c-0.024,0-0.047,0-0.068,0c0,0.064,0,0.127,0,0.192C349.09,65.909,349.135,65.973,349.181,66.036z"/>
<path fill="#FFFFFF" d="M12.309,53.656c0-0.18,0-0.363,0-0.543c-0.437,0.019-0.665-0.316-0.97-0.543
	c-0.21,0.045-0.42,0.09-0.63,0.134c-0.113-0.145-0.226-0.8-0.341-0.952c-0.113,0-0.226,0-0.34,0
	c-0.047-0.225-0.096-0.453-0.146-0.678C9.594,51.226,9.53,50.73,9.302,50.53c-0.271-0.233-0.534,0.708-0.776,0
	c-0.017-0.226-0.033-0.451-0.05-0.679c-0.097-0.201-0.298,0.045-0.387-0.135c-0.058-0.117-0.045-0.574-0.097-0.68
	c-0.162-0.047-0.324-0.091-0.485-0.135c-0.219-0.238-0.403-0.994-0.632-1.223c-0.194-0.046-0.387-0.092-0.581-0.136
	c-0.214-0.338-0.085-0.96-0.438-1.089c-0.35,0.66-0.935-0.379-1.211-0.543c-0.081,0.361-0.281,0.834-0.388,0.678
	c-0.171-0.327-0.213-0.961-0.391-1.221c-0.36,0.73-1.681,0.734-1.745-0.68c-0.454-0.14-0.783-0.734-1.116-1.088
	c-0.07-0.072-0.111,0.375-0.146,0.409c-0.028,0.03-0.179-0.263-0.193-0.271c-0.131,0.044-0.26,0.088-0.389,0.135
	c-0.539-0.467-0.248-1.035-0.921-0.408c-0.333,0.314-0.733-0.73-1.017-0.407c-0.018,0.137-0.032,0.272-0.048,0.407
	c-0.018,0-0.032,0-0.049,0c-0.099,0.146-0.146,0.155-0.242,0c-0.178,0.333-0.164,0.808-0.438,0.953
	c-0.132-0.337-0.29-0.832-0.484-0.953c-0.114,0.253-0.405,0.516-0.486,0.408c-0.153-0.138-0.213-0.342-0.291-0.679
	c-0.017,0-0.033,0-0.048,0c-0.056,0.575-0.111,0.497-0.242,0.815c-0.196-0.124-0.417-0.325-0.535-0.679
	c-0.017-0.138-0.031-0.273-0.048-0.409c-0.112,0.047-0.226,0.09-0.339,0.136c-0.117-0.104-0.288-0.989-0.389-0.679
	c-0.076,0.204,0.041,0.221-0.146,0.408c-0.12,0.19-0.233-0.023-0.387-0.135c-0.021-0.486,0.022-0.343-0.097-0.544
	c-0.111,0.282-0.342,0.643-0.437,0.544c-0.313-0.312-0.462-1.461-0.583-2.311c-0.171,0.503-0.191,1.315-0.484,1.493
	c-0.23-0.492-0.687-1.003-0.971-1.222c-0.161-0.047-0.322-0.093-0.483-0.137c-0.145-0.23-0.05-0.526-0.293-0.679
	c-0.078,0.3-0.082,0.409-0.192,0.271c-0.062-0.205-0.105-0.566-0.145-0.814c-0.289-0.064-0.236-0.373-0.39-0.543
	c-0.13,0.047-0.259,0.09-0.388,0.138c-0.066-0.228-0.13-0.453-0.195-0.681c-0.232-0.273-0.525,0.295-0.68,0.408
	c-0.085-0.441-0.1-0.614-0.339-0.679c-0.252,0.637-0.691-0.265-1.019-0.409c-0.271,0.865-0.516,1.293-0.968,0.955
	c-0.036,0.332-0.071,0.473-0.146,0.676c-0.104-0.453-0.163-0.545-0.438-0.543c-0.04-0.441,0.024-0.207-0.097-0.408
	c0,0.047,0,0.091,0,0.137c-0.063,0.186-0.102,0.432-0.145,0.679c-0.084-0.087-0.047-0.026-0.096-0.135
	c-0.131-0.123-0.127-0.14-0.196-0.409c-0.157,0.219-0.21,0.375-0.29,0.813c-0.054-0.121-0.005,0.012-0.048-0.133
	c-0.182-0.422-0.122-0.678-0.486-0.68c-0.273-0.318-0.57,1.028-0.872,1.223c-0.091-0.242-0.04-0.252-0.145-0.137
	c-0.236,0.162-0.418,0.587-0.535,1.088c-0.169-0.225-0.376-0.55-0.485-0.951c-0.224,0.301-0.293,0.812-0.484,1.088
	c-0.125-0.444-0.183-0.557-0.485-0.543c-0.124,0.254-0.704,1.022-0.729,0.95c-0.106-0.239-0.11-0.497-0.242-0.679
	c-0.082,0.367-0.246,1.029-0.389,1.223c-0.078-0.302-0.082-0.408-0.195-0.271c-0.194,0.142-0.326,0.538-0.483,0.679
	c-0.275,0.247-0.511-0.276-0.631-0.137c-0.182,0.572-0.121,0.956-0.535,0.953c-0.178-0.168-0.277,0.473-0.534,0
	c-0.117,0.211-0.228,0.656-0.437,0.27c-0.206-0.205-0.197-0.594-0.388-0.813c0,0.046,0,0.089,0,0.136
	c-0.15,0.412-0.293,0.928-0.436,1.359c-0.242-0.004-0.686-0.33-0.776-0.272c-0.029,0.019-0.13,0.395-0.146,0.409
	c-0.202,0.16-0.28-0.51-0.389-0.272c-0.228,0.505-0.265,0.71-0.728,0.681c-0.269,0.469-0.762,0.268-1.068,0.541
	c-0.063,0.06-0.227,0.369-0.291,0.408c-0.145-0.044-0.291-0.088-0.436-0.133c-0.125,0.083-0.272,0.676-0.438,0.542
	c-0.112-0.091-0.158-0.614-0.387-0.542c-0.405,0.122-0.864,0.259-1.26,0c-0.354-0.233-0.964,0.252-1.164,0
	c-0.058-0.162-0.089-0.386-0.146-0.546c-0.032,0.137-0.065,0.272-0.097,0.409c-0.137,0.115-0.132-0.342-0.195-0.409
	c-0.241,0.046-0.484,0.089-0.728,0.136c-0.044-0.038-0.186-0.37-0.242-0.406c-0.183-0.123-0.227,0.268-0.34,0.271
	c-0.054,0.003-0.117-0.249-0.146-0.271c-0.299-0.238-0.646,0.186-0.823,0.271s-0.32-0.321-0.437-0.409
	c-0.145,0.046-0.291,0.092-0.437,0.139c-0.055-0.08-0.03-0.292-0.145-0.408c-0.06,0.421-0.018,0.308-0.194,0.408
	c-0.267-0.719-0.942-0.697-1.455-0.681c-0.072,0.399-0.053,0.438-0.244,0.544c-0.042-0.139-1.144-0.988-1.454-1.223
	c-0.284-0.214-0.6,0.149-0.777,0.271c-0.396,0.277-0.51-0.498-0.871-0.271c-0.499,0.316-0.621-0.962-1.068-0.68
	c-0.34,0.217-0.906-0.811-1.018-0.542c-0.073,0.14-0.096,0.203-0.146,0.409c-0.448-0.703-1.168,0.199-1.503-1.633
	c-0.114,0.182-0.226,0.364-0.339,0.545c-0.017-0.139-0.032-0.273-0.048-0.408c-0.074-0.133-0.091,0.13-0.097,0.135
	c-0.318,0.325-0.131-0.19-0.389-0.135c0,0-0.064,0.243-0.097,0.27c-0.076-0.096-0.165-0.473-0.242-0.543
	c-0.163,0.043-0.324,0.091-0.487,0.137c-0.144-0.102-0.263-0.481-0.484-0.409c-0.017,0-0.033,0-0.048,0
	c-0.376,0.216-1.181,0.614-1.697,0.271c-0.831-0.551-1.924-0.916-2.716-1.493c-0.375-0.274-0.706,0.403-1.019,0.271
	c-0.449-0.192-1.09-0.379-1.6-0.68c-0.174-0.101-1.784,0.521-1.892,0.68c-0.032,0.18-0.064,0.364-0.097,0.543
	c-0.083,0.094-0.201-0.246-0.242-0.27c-0.466-0.262-0.904,1.512-1.165,1.767c-0.16,0.153-0.349-0.446-0.583-0.271
	c-0.538,0.405-0.101,0.99-0.775,0.407c-0.361-0.313-0.807,0.813-0.922,0.542c-0.125-0.271-0.088-0.421-0.291-0.542
	c-0.017,0.181-0.033,0.362-0.049,0.542c-0.038-0.139-0.018-0.036-0.048-0.271c-0.084-0.296-0.06-0.488-0.195-0.678
	c0,0.044,0,0.09,0,0.135c-0.083,0.247-0.139,0.627-0.195,0.953c-0.313-0.256-0.316-0.449-0.582,0c0-0.092,0-0.183,0-0.272
	c-0.137-0.624-0.047-2.36-0.047-3.26c0-2.716,0-5.436,0-8.151c0-10.143,0-20.289,0-30.432c83.796,0,167.62,0,251.417,0
	c0,19.97,0,27.895,0,47.861c-0.22,0.078-0.448,0.293-0.63,0.41c-0.258,0.16-0.468-0.203-0.631-0.273
	c-0.142-0.057-0.211,0.227-0.292,0.273c-0.314,0.182-0.307-0.584-0.63-0.41c-0.103,0.057-0.221,0.363-0.388,0.271
	c-0.056-0.027-0.146-0.314-0.243-0.271c-0.074,0.035-0.22,0.48-0.291,0.545c-0.403,0.353-0.738-0.372-0.97-0.545
	c-0.306-0.223-0.537,0.278-0.729,0.41c-0.679-0.091-1.358-0.182-2.038-0.273c-0.148-0.098-0.408-0.5-0.534-0.542
	c-0.161-0.056-0.216,0.448-0.438,0.272c-0.165-0.133-0.392-0.662-0.581-0.816c-0.457-0.369-1.046,0.214-1.551-0.135
	c-0.229-0.158-0.548-0.525-0.777-0.68c-0.242-0.166-0.492,0.107-0.679,0.135c-0.353,0.056-0.7-0.111-0.921-0.27
	c-0.396-0.289-0.761,4.567-1.115,4.607c-0.086-0.521-0.111-0.659-0.389-0.68c-0.029,0.035-0.004,0.158-0.097,0.137
	c-0.087-0.021-0.272-0.454-0.485-0.273c-0.117,0.098-0.176,0.529-0.388,0.408c-0.018,0-0.033,0-0.048,0
	c-0.078-0.078-0.173,2.658-0.242,2.56c-0.221-0.313-0.33,0.233-0.583,0c-0.017-0.09-0.033-0.181-0.048-0.272
	c-0.273-0.261-0.863,0.012-1.068,0.136c-0.353-0.044-0.711-0.09-1.065-0.136c-0.346,0.324-0.586,1.652-0.922,1.941
	c-0.166,0.143-0.24,0.393-0.533,0.408c-0.128-0.48-0.27-0.565-0.583-0.543c-0.295,0.992-0.717-0.206-1.165,0.135
	c-0.087,0.068-0.189,0.422-0.387,0.273c-0.126-0.099-0.663-0.63-0.921-0.273c-0.017,0.139-0.032,0.273-0.048,0.408
	c-0.084,0.053-0.414-0.463-0.534-0.543c-0.426-0.271-0.89-0.063-1.261-0.271c-0.242,0.089-0.483,0.181-0.728,0.271
	c-0.215-0.135-0.367-0.492-0.681-0.543c-0.058,0.246-0.123,0.337-0.192,0.543c-0.485-0.467-0.518-0.189-1.115-0.135
	c-0.086-0.442-0.101-0.615-0.34-0.678c-0.309,0.542-0.898-0.49-1.164-0.682c-0.113-0.081-0.253,0.117-0.292,0.136
	c-0.236,0.12-0.296-0.384-0.533-0.271c-0.205,0.098-0.549,0.486-0.873,0.271c-0.406-0.271-0.89-0.564-1.358-0.679
	c0-0.182,0-0.361,0-0.544c-0.437,0.021-0.665-0.314-0.97-0.542c-0.21,0.043-0.419,0.091-0.632,0.135
	c-0.11-0.145-0.224-0.799-0.338-0.953c-0.115,0-0.227,0-0.34,0c-0.048-0.225-0.097-0.451-0.146-0.677
	c-0.287,0.152-0.354-0.345-0.583-0.546c1.01,0.879-0.534-2.691-0.775,0c-0.017-0.225-0.096,1.052-0.112,0.826
	c-0.097-0.201-0.298,0.047-0.388-0.135c-0.057-0.119-0.044-0.574-0.097-0.68c-0.162-0.045-0.323-0.088-0.486-0.136
	c-0.219-0.235-0.341,0.175-0.568-0.055c-0.194-0.046-0.387-0.091-0.582-0.137c-0.211-0.338-0.085-0.959-0.437-1.088
	c-0.35,0.659-0.937-0.38-1.213-0.542c-0.079,0.361-0.28,0.831-0.386,0.678c-0.17-0.329-0.212-0.961-0.389-1.225
	c-0.361,0.732-1.682,0.738-1.746-0.676c-0.454-0.141-0.783-0.736-1.116-1.09c-0.072-0.072-0.112,0.376-0.145,0.408
	c-0.03,0.03-0.18-0.262-0.194-0.271c-0.131,0.047-0.26,0.092-0.39,0.137c-0.537-0.467-0.248-1.037-0.92-0.406
	c-0.334,0.313-0.733-0.731-1.018-0.409c-0.016,0.137-0.032,0.273-0.047,0.409c-0.018,0-0.033,0-0.048,0
	c-0.099,0.146-0.146,0.153-0.244,0c-0.178,0.331-0.163,0.807-0.437,0.95c-0.132-0.336-0.291-0.829-0.485-0.95
	c-0.113,0.251-0.403,0.514-0.484,0.406c-0.154-0.139-0.214-0.344-0.292-0.679c-0.016,0-0.032,0-0.048,0
	c-0.057,0.575-0.112,0.497-0.242,0.813c-0.196-0.123-0.418-0.323-0.535-0.678c-0.015-0.137-0.032-0.273-0.048-0.409
	c-0.112,0.046-0.227,0.091-0.34,0.136c-0.117-0.104-0.286-0.99-0.388-0.678c-0.075,0.202,0.042,0.22-0.146,0.408
	c-0.121,0.19-0.233-0.025-0.388-0.139c-0.02-0.485,0.024-0.341-0.097-0.542c-0.11,0.284-0.341,0.645-0.437,0.542
	c-0.313-0.309-0.461-1.457-0.582-2.309c-0.173,0.504-0.192,1.317-0.487,1.494c-0.229-0.492-0.687-1.006-0.969-1.224
	c-0.162-0.044-0.322-0.09-0.484-0.136c-0.145-0.229-0.05-0.524-0.292-0.679c-0.079,0.302-0.083,0.409-0.194,0.273
	c-0.061-0.207-0.104-0.569-0.145-0.815c-0.287-0.066-0.236-0.374-0.389-0.545c-0.13,0.047-0.259,0.09-0.389,0.137
	c-0.064-0.227-0.129-0.453-0.195-0.68c-0.231-0.273-0.523,0.295-0.678,0.407c-0.087-0.442-0.102-0.614-0.341-0.679
	c-0.252,0.638-0.691-0.265-1.017-0.409c-0.271,0.864-0.516,1.294-0.97,0.952c-0.035,0.336-0.07,0.474-0.144,0.68
	c-0.104-0.455-0.164-0.545-0.438-0.544c-0.04-0.44,0.023-0.209-0.097-0.407c0,0.044,0,0.09,0,0.135
	c-0.064,0.188-0.103,0.433-0.145,0.68c-0.085-0.085-0.046-0.027-0.097-0.135c-0.128-0.121-0.124-0.141-0.194-0.408
	c-0.159,0.217-0.211,0.375-0.291,0.814c-0.015,0-0.032,0-0.048,0c0-0.045,0-0.091,0-0.137c-0.181-0.421-0.12-0.678-0.485-0.678
	c-0.274-0.318-0.572,1.027-0.873,1.224c-0.089-0.242-0.039-0.252-0.145-0.138c-0.234,0.162-0.418,0.587-0.534,1.087
	c-0.169-0.22-0.376-0.549-0.484-0.949c-0.224,0.298-0.294,0.81-0.486,1.086c-0.125-0.444-0.183-0.555-0.485-0.542
	c-0.122,0.256-0.704,1.023-0.728,0.949c-0.107-0.236-0.111-0.494-0.243-0.678c-0.081,0.367-0.246,1.027-0.389,1.223
	c-0.078-0.303-0.083-0.408-0.194-0.27c-0.196,0.139-0.327,0.535-0.487,0.679c-0.273,0.245-0.508-0.278-0.63-0.137
	c-0.18,0.57-0.118,0.956-0.532,0.952c-0.178-0.17-0.277,0.472-0.535,0c-0.117,0.211-0.227,0.658-0.437,0.271
	c-0.205-0.206-0.196-0.593-0.387-0.815c0,0.047,0,0.092,0,0.137c-0.153,0.413-0.294,0.929-0.437,1.357
	c-0.242-0.002-0.684-0.328-0.776-0.27c-0.028,0.019-0.13,0.395-0.146,0.406c-0.2,0.16-0.277-0.508-0.388-0.271
	c-0.227,0.504-0.266,0.711-0.729,0.681c-0.27,0.47-0.761,0.271-1.066,0.544c-0.065,0.057-0.229,0.367-0.292,0.406
	c-0.146-0.043-0.292-0.089-0.437-0.135c-0.123,0.085-0.272,0.676-0.436,0.544c-0.114-0.09-0.161-0.614-0.387-0.544
	c-0.406,0.123-0.866,0.262-1.262,0c-0.354-0.23-0.965,0.253-1.163,0c-0.056-0.16-0.089-0.385-0.146-0.542
	c-0.033,0.137-0.065,0.271-0.097,0.407c-0.138,0.117-0.132-0.342-0.194-0.407c-0.243,0.042-0.485,0.088-0.729,0.135
	c-0.045-0.039-0.187-0.372-0.243-0.408c-0.183-0.12-0.228,0.271-0.339,0.273c-0.054,0.001-0.119-0.25-0.146-0.273
	c-0.301-0.237-0.646,0.185-0.823,0.273c-0.178,0.081-0.319-0.321-0.437-0.409c-0.146,0.045-0.292,0.09-0.436,0.136
	c-0.056-0.077-0.032-0.291-0.146-0.407c-0.061,0.42-0.019,0.307-0.194,0.407c-0.266-0.717-0.942-0.696-1.456-0.681
	c-0.072,0.4-0.054,0.439-0.243,0.545c-0.042-0.14-1.145-0.988-1.456-1.223c-0.283-0.214-0.599,0.148-0.775,0.271
	c-0.4,0.279-0.513-0.498-0.873-0.271c-0.501,0.314-0.621-0.965-1.066-0.679c-0.341,0.217-0.907-0.813-1.019-0.544
	c-0.075,0.14-0.095,0.203-0.146,0.408c-0.448-0.702-1.169,0.2-1.502-1.633c-0.113,0.183-0.226,0.365-0.34,0.545
	c-0.017-0.137-0.032-0.271-0.049-0.408c-0.072-0.131-0.089,0.131-0.097,0.137c-0.317,0.326-0.13-0.189-0.389-0.137
	c0,0-0.063,0.244-0.097,0.271c-0.076-0.096-0.165-0.475-0.242-0.543c-0.162,0.045-0.323,0.09-0.485,0.135
	c-0.145-0.1-0.266-0.479-0.487-0.407c-0.015,0-0.031,0-0.048,0c-0.377,0.216-1.181,0.613-1.697,0.271
	c-0.829-0.55-1.923-0.916-2.714-1.493c-0.376-0.273-0.707,0.405-1.02,0.271c-0.45-0.191-1.088-0.377-1.601-0.68
	c-0.173-0.102-1.782,0.521-1.891,0.68c-0.033,0.182-0.065,0.363-0.097,0.544c-0.082,0.095-0.203-0.247-0.243-0.271
	c-0.466-0.263-0.902,1.512-1.164,1.767c-0.16,0.154-0.349-0.448-0.581-0.272c-0.54,0.408-0.102,0.992-0.776,0.408
	c-0.361-0.312-0.807,0.815-0.921,0.543c-0.127-0.273-0.088-0.421-0.291-0.543c-0.018,0.18-0.033,0.362-0.048,0.543
	c-0.04-0.139-0.018-0.037-0.048-0.27c-0.086-0.299-0.06-0.489-0.195-0.68c0,0.044,0,0.09,0,0.135
	c-0.085,0.246-0.139,0.626-0.195,0.953c-0.314-0.256-0.317-0.449-0.583,0c-0.09-0.566-0.109-0.209-0.242-0.408
	c-0.033-0.105-0.065-0.304-0.097-0.409c-0.083,0.181-0.078,0.235-0.146,0.136c-0.045-0.128-0.065-0.238-0.097-0.408
	c-0.178,0.161-0.395,0.504-0.535,0.136c-0.074-0.202-0.12-0.478-0.193-0.679c-0.042,0.197-0.088,0.388-0.146,0.543
	c-0.364-0.894-0.965,0.432-1.26,0.68c-0.181,0-0.357,0-0.534,0c-0.115,0.158-0.117,0.799-0.243,0.952c-0.179,0-0.356,0-0.534,0
	c-0.081,0.271-0.163,0.544-0.245,0.814c-0.288,0.046-0.579,0.09-0.871,0.136c-0.055,0.094-0.077,0.586-0.145,0.679
	c-0.211,0.046-0.421,0.089-0.632,0.137c-0.17,0.176-0.249,0.823-0.388,1.086c-0.189,0.356-0.442,0.337-0.632,0.679
	c-0.048,0.183-0.097,0.365-0.146,0.546c-0.154,0.177-0.197-0.249-0.241-0.272c-0.17-0.091-0.08,0.304-0.146,0.407
	c-0.289,0.461-0.761-0.209-1.019,0c-0.085,0.071-0.098,0.53-0.193,0.273c-0.128-0.229-0.161-0.296-0.194-0.815
	c-0.251,0.109-0.237,0.496-0.39,0.678c-0.328,0.396-0.887-0.53-1.115-0.678c-0.305-0.201-0.414,0.402-0.582,0.542
	c-0.349,0.292-0.397-0.739-0.775-0.407c-0.081,0.069-0.214,0.471-0.291,0.543c-0.308,0.045-0.614,0.091-0.921,0.138
	c-0.067,0.226-0.13,0.453-0.195,0.678c-0.178,0.089-0.355,0.181-0.533,0.271c-0.074,0.108-0.165,0.59-0.243,0.681
	c-0.242,0-0.485,0-0.728,0c-0.305,0.233-0.724,0.583-1.066,0.813c-0.146,0-0.292,0-0.436,0c-0.116,0.109-0.232,0.562-0.34,0.68
	c-0.307,0.09-0.614,0.181-0.921,0.27c-0.263,0.209-0.563,0.765-0.824,0.955c-0.229,0.166-0.695-0.216-0.776-0.546
	c-0.106,0.096-0.083,0.446-0.145,0.546c-0.179-0.046-0.356-0.092-0.535-0.137c-0.088,0.075-0.236,0.47-0.339,0.543
	c-0.292,0.208-0.443-0.573-0.776-0.271c-0.112,0.104-0.233,0.583-0.34,0.68c-0.111,0.102-0.255-0.117-0.291-0.136
	c0,0-0.872,0.407-0.872,0.409c-0.066,0.226-0.13,0.452-0.196,0.678c-0.209-0.043-0.42-0.09-0.629-0.137
	c-0.049,0.182-0.097,0.363-0.146,0.545c-0.215,0.225-0.238-0.422-0.485-0.271c-0.36,0.218-0.832,0.685-1.213,0.95
	c-0.419,0.046-0.84,0.092-1.26,0.136c-0.093-0.062-0.478-0.595-0.533-0.542c-0.231,0.209-0.282,0.643-0.681,0.678
	c-0.097-0.226-0.195-0.453-0.292-0.678c-0.046,0.521-0.097,0.482-0.242,0.678c0-0.09,0-0.182,0-0.271
	c-0.045-0.18,0.017-0.171-0.048-0.408c-0.1-0.25-0.521-0.322-0.583-0.271c-0.079,0.201-0.17,0.458-0.243,0.679
	c-0.255-0.041-0.365-0.29-0.534-0.408c-0.251-0.174-0.354,0.186-0.533,0.269c-0.083-0.306-0.196-0.544-0.341-0.677
	c-0.033,0.063-1.156,1.218-1.163,1.223c-0.044,0.152-0.048-0.135-0.048-0.135c-0.118-0.213-0.143-0.396-0.293-0.543
	c-0.065,0.17-0.083,0.184-0.192,0.271c0-0.139,0-0.272,0-0.407c-0.285,0.088-0.593,0.934-0.872,0.543
	c-0.19-0.18-0.204-0.434-0.437-0.543c-0.111,0.299-0.245,0.469-0.437,0.543c0,0.137,0,0.271,0,0.406
	c-0.274-0.045-0.549-0.09-0.823-0.135c-0.027-0.216-0.039-0.326-0.049-0.678c-0.114,0-0.226,0-0.339,0
	c0,0.585-0.792,0.665-1.018,1.088c0-0.141,0-0.275,0-0.41c-0.148,0.011-0.133,0.104-0.195,0c-0.086-0.168-0.121-0.351-0.195-0.546
	c0,0.048,0,0.093,0,0.139c-0.104,0.183-0.173,0.374-0.291,0.542c0,0.137,0,0.275,0,0.41c-0.269-0.006-0.604,0.191-0.776,0.543
	c0.089,0.213,0.068,0.119,0.097,0.542c-0.016,0-0.031,0-0.048,0c-0.18-0.387-0.321-0.351-0.436-0.951
	c-0.304,0.401-0.6,1.031-0.922,1.358c-0.132,0.139-0.383-0.069-0.436,0c-0.017,0.139-0.031,0.273-0.048,0.408
	c-0.21,0.045-0.419,0.09-0.631,0.135c-0.243,0.32-0.485,0.636-0.729,0.954c-0.242-0.046-0.484-0.091-0.728-0.138
	c-0.302,0.223-0.456,0.389-0.776,0.138c-0.33,1.382-0.364,0.007-0.776,0.407c-0.042,0.041-0.152,0.504-0.194,0.543
	c-0.167,0.158-0.195-0.319-0.34-0.27l-0.146,0.27c-0.339-0.045-0.678-0.09-1.018-0.134c-0.104,0.079-0.251,0.46-0.34,0.542
	c-0.425,0.396-0.777-0.635-1.26-0.271c-0.048,0.037-0.205,0.387-0.242,0.408c-0.099,0.057-0.506-0.408-0.775-0.408
	c-0.438,0.091-0.874,0.182-1.31,0.271c-0.52-0.353-1.172-0.711-1.697-1.088c-0.259,0-0.517,0-0.776,0
	c-0.336-0.258-0.862-0.842-1.309-0.408c-0.096-0.127-0.137-0.577-0.242-0.68c-0.066,0.047-0.13,0.091-0.195,0.137
	c-0.195-0.154-0.508-0.477-0.776-0.678c-0.162,0-0.324,0-0.485,0c-0.682-0.459-1.539-0.922-2.231-1.222
	c-0.136-0.06-0.467,0.135-0.678,0.135c-0.304,0-0.546-0.127-0.729-0.272c-0.389-0.308-0.766,0.234-1.115,0.272
	c-0.087-0.521-0.111-0.658-0.389-0.679c-0.03,0.034-0.004,0.158-0.097,0.135c-0.085-0.021-0.271-0.452-0.485-0.27
	c-0.115,0.096-0.177,0.527-0.389,0.406c-0.016,0-0.032,0-0.048,0c-0.077-0.078-0.173-0.58-0.241-0.678
	c-0.222-0.313-0.331,0.231-0.583,0c-0.017-0.091-0.032-0.182-0.048-0.273c-0.272-0.259-0.863,0.012-1.067,0.139
	c-0.354-0.047-0.712-0.091-1.066-0.139c-0.346,0.326-0.587-0.153-0.923,0.139c-0.164,0.142-0.24,0.392-0.533,0.407
	c-0.127-0.481-0.27-0.564-0.583-0.544c-0.294,0.992-0.717-0.205-1.164,0.137c-0.087,0.066-0.189,0.422-0.388,0.271
	c-0.127-0.098-0.664-0.627-0.922-0.271c-0.017,0.137-0.031,0.271-0.046,0.407c-0.085,0.054-0.414-0.464-0.535-0.542
	c-0.426-0.275-0.891-0.066-1.262-0.273c-0.242,0.091-0.484,0.182-0.728,0.273c-0.216-0.137-0.365-0.492-0.679-0.544
	c-0.061,0.243-0.125,0.337-0.195,0.544c-0.483-0.471-0.515-0.189-1.115-0.137c-0.085-0.44-0.101-0.613-0.34-0.68
	c-0.31,0.543-0.897-0.488-1.164-0.679c-0.113-0.08-0.253,0.118-0.292,0.136c-0.237,0.119-0.295-0.386-0.532-0.271
	c-0.207,0.098-0.55,0.486-0.873,0.271C13.209,54.073,12.727,53.776,12.309,53.656z M54.937,55.838
	c0.048-0.109,0.012-0.049,0.097-0.137c0-0.043,0-0.091,0-0.135c-0.048,0-0.097,0-0.146,0C54.917,55.804,54.897,55.7,54.937,55.838z
	 M53.627,55.703c-0.019-0.283-0.012-0.261-0.048-0.408c0,0.045,0,0.092,0,0.135c-0.017,0-0.032,0-0.048,0c0,0.045,0,0.092,0,0.139
	C53.562,55.612,53.595,55.658,53.627,55.703z"/>
</svg>
