<?xml version="1.0" encoding="utf-8"?>
<!-- Generator: Adobe Illustrator 16.0.0, SVG Export Plug-In . SVG Version: 6.00 Build 0)  -->
<!DOCTYPE svg PUBLIC "-//W3C//DTD SVG 1.1//EN" "http://www.w3.org/Graphics/SVG/1.1/DTD/svg11.dtd">
<svg version="1.1" id="Layer_1" xmlns="http://www.w3.org/2000/svg" xmlns:xlink="http://www.w3.org/1999/xlink" x="0px" y="0px"
	 width="526.248px" height="45.84px" viewBox="-59.336 0 526.248 45.84" enable-background="new -59.336 0 526.248 45.84"
	 xml:space="preserve">
<path fill="#FFFFFF" d="M807.276,9.631c-0.203-0.895-0.236-1.25-0.797-1.38c-0.596,1.297-1.621-0.534-2.389-0.829
	c-0.637,1.757-1.211,2.63-2.277,1.938c-0.082,0.68-0.166,0.967-0.34,1.379c-0.244-0.921-0.381-1.107-1.027-1.104
	c-0.094-0.896,0.059-0.424-0.227-0.828c0,0.093,0,0.183,0,0.276c-0.148,0.376-0.238,0.877-0.342,1.382
	c-0.197-0.172-0.109-0.055-0.229-0.276c-0.301-0.245-0.291-0.285-0.453-0.829c-0.371,0.446-0.494,0.764-0.68,1.658
	c-0.043,0-0.078,0-0.117,0c0-0.093,0-0.186,0-0.279c-0.424-0.854-0.279-1.376-1.137-1.379c-0.646-0.648-1.344,2.093-2.049,2.49
	c-0.221-0.491-0.094-0.51-0.346-0.275c-0.547,0.329-0.98,1.191-1.25,2.21c-0.398-0.452-0.881-1.119-1.139-1.935
	c-0.52,0.612-0.688,1.65-1.139,2.212c-0.293-0.905-0.426-1.128-1.137-1.103c-0.285,0.522-1.652,2.08-1.705,1.936
	c-0.25-0.483-0.264-1.008-0.574-1.382c-0.188,0.748-0.572,2.094-0.906,2.492c-0.186-0.618-0.193-0.833-0.459-0.554
	c-0.455,0.288-0.768,1.091-1.135,1.382c-0.639,0.505-1.193-0.564-1.479-0.276c-0.428,1.159-0.281,1.945-1.254,1.938
	c-0.414-0.341-0.65,0.963-1.25,0c-0.275,0.429-0.537,1.343-1.025,0.554c-0.48-0.421-0.461-1.207-0.914-1.661
	c0,0.095,0,0.187,0,0.279c-0.354,0.842-0.684,1.891-1.021,2.765c-0.568-0.005-1.609-0.668-1.822-0.553
	c-0.068,0.037-0.303,0.804-0.34,0.829c-0.475,0.327-0.654-1.035-0.912-0.554c-0.529,1.025-0.623,1.445-1.709,1.385
	c-0.629,0.958-1.781,0.546-2.504,1.104c-0.148,0.117-0.533,0.747-0.682,0.829c-0.342-0.09-0.68-0.181-1.025-0.273
	c-0.289,0.172-0.635,1.375-1.023,1.104c-0.262-0.182-0.375-1.248-0.908-1.104c-0.953,0.248-2.035,0.527-2.961,0
	c-0.83-0.474-2.264,0.515-2.73,0c-0.133-0.323-0.213-0.787-0.342-1.106c-0.076,0.276-0.156,0.55-0.23,0.83
	c-0.32,0.239-0.309-0.694-0.453-0.83c-0.57,0.09-1.137,0.181-1.709,0.276c-0.105-0.079-0.439-0.756-0.568-0.831
	c-0.43-0.245-0.531,0.549-0.799,0.556c-0.125,0.003-0.275-0.509-0.34-0.556c-0.709-0.48-1.518,0.379-1.936,0.556
	c-0.414,0.171-0.748-0.651-1.023-0.831c-0.342,0.093-0.682,0.184-1.025,0.276c-0.131-0.155-0.068-0.592-0.342-0.829
	c-0.139,0.86-0.037,0.626-0.453,0.829c-0.627-1.457-2.211-1.416-3.414-1.382c-0.168,0.811-0.127,0.89-0.574,1.105
	c-0.096-0.283-2.68-2.011-3.412-2.49c-0.668-0.434-1.406,0.302-1.822,0.554c-0.936,0.565-1.203-1.017-2.049-0.554
	c-1.174,0.64-1.453-1.96-2.508-1.382c-0.799,0.446-2.127-1.653-2.387-1.105c-0.172,0.285-0.223,0.415-0.342,0.829
	c-1.055-1.427-2.746,0.406-3.529-3.321c-0.264,0.368-0.531,0.737-0.797,1.105c-0.039-0.275-0.076-0.551-0.111-0.831
	c-0.178-0.261-0.217,0.265-0.232,0.279c-0.744,0.663-0.303-0.387-0.906-0.279c0,0-0.152,0.499-0.23,0.556
	c-0.176-0.198-0.387-0.965-0.572-1.105c-0.375,0.093-0.756,0.183-1.137,0.275c-0.336-0.199-0.619-0.975-1.135-0.828
	c-0.041,0-0.076,0-0.115,0c-0.887,0.44-2.775,1.25-3.988,0.553c-1.947-1.121-4.514-1.873-6.371-3.046
	c-0.881-0.552-1.654,0.826-2.391,0.554c-1.057-0.391-2.557-0.771-3.756-1.381c-0.406-0.206-4.186,1.061-4.438,1.381
	c-0.076,0.368-0.154,0.737-0.227,1.107c-0.195,0.191-0.475-0.505-0.574-0.553c-1.092-0.533-2.113,3.08-2.729,3.598
	c-0.377,0.314-0.818-0.913-1.367-0.554c-1.27,0.826-0.238,2.018-1.824,0.829c-0.846-0.635-1.893,1.658-2.162,1.107
	c-0.297-0.554-0.207-0.86-0.684-1.107c-0.037,0.367-0.074,0.737-0.113,1.107c-0.092-0.284-0.041-0.078-0.115-0.551
	c-0.199-0.609-0.135-0.994-0.455-1.385c0,0.093,0,0.183,0,0.275c-0.195,0.503-0.328,1.273-0.453,1.94
	c-0.738-0.525-0.746-0.916-1.367,0c-0.215-1.149-0.258-0.422-0.568-0.831c-0.08-0.214-0.15-0.618-0.23-0.831
	c-0.199,0.365-0.184,0.478-0.34,0.276c-0.105-0.258-0.15-0.485-0.229-0.831c-0.42,0.327-0.924,1.031-1.254,0.276
	c-0.172-0.411-0.277-0.973-0.453-1.379c-0.096,0.402-0.207,0.792-0.342,1.103c-0.854-1.818-2.264,0.878-2.959,1.385
	c-0.42,0-0.834,0-1.256,0c-0.264,0.321-0.268,1.625-0.566,1.936c-0.418,0-0.836,0-1.254,0c-0.189,0.554-0.377,1.107-0.568,1.661
	c-0.686,0.092-1.367,0.182-2.051,0.278c-0.125,0.192-0.182,1.19-0.34,1.379c-0.496,0.096-0.988,0.184-1.48,0.276
	c-0.4,0.358-0.586,1.683-0.912,2.218c-0.439,0.719-1.033,0.678-1.479,1.38c-0.117,0.364-0.229,0.736-0.344,1.107
	c-0.363,0.361-0.467-0.503-0.568-0.554c-0.396-0.189-0.188,0.618-0.34,0.832c-0.68,0.932-1.789-0.43-2.391,0
	c-0.201,0.14-0.23,1.078-0.457,0.553c-0.297-0.465-0.377-0.601-0.453-1.661c-0.59,0.224-0.559,1.016-0.912,1.382
	c-0.773,0.807-2.084-1.081-2.619-1.382c-0.715-0.412-0.973,0.819-1.367,1.108c-0.82,0.594-0.938-1.506-1.82-0.832
	c-0.186,0.141-0.496,0.959-0.684,1.106c-0.719,0.093-1.439,0.182-2.164,0.279c-0.148,0.458-0.303,0.922-0.451,1.379
	c-0.422,0.185-0.836,0.371-1.252,0.556c-0.172,0.217-0.383,1.196-0.572,1.383c-0.572,0-1.139,0-1.705,0
	c-0.721,0.477-1.701,1.187-2.506,1.657c-0.342,0-0.684,0-1.023,0c-0.27,0.216-0.545,1.141-0.801,1.382
	c-0.719,0.182-1.439,0.369-2.16,0.555c-0.617,0.423-1.322,1.549-1.936,1.938c-0.541,0.342-1.629-0.437-1.822-1.107
	c-0.25,0.194-0.197,0.907-0.34,1.107c-0.422-0.092-0.836-0.183-1.254-0.276c-0.211,0.152-0.557,0.957-0.801,1.106
	c-0.689,0.423-1.039-1.168-1.82-0.553c-0.264,0.209-0.549,1.185-0.797,1.382c-0.258,0.209-0.598-0.24-0.684-0.277
	c0,0-2.049,0.826-2.049,0.832c-0.15,0.457-0.301,0.92-0.453,1.381c-0.496-0.094-0.986-0.184-1.48-0.277
	c-0.113,0.367-0.229,0.738-0.342,1.105c-0.502,0.453-0.555-0.857-1.139-0.553c-0.848,0.445-1.953,1.398-2.846,1.938
	c-0.986,0.094-1.973,0.184-2.959,0.275c-0.217-0.127-1.121-1.211-1.252-1.104c-0.537,0.424-0.658,1.307-1.596,1.377
	c-0.229-0.455-0.453-0.92-0.682-1.377c-0.105,1.063-0.227,0.982-0.572,1.377c0-0.18,0-0.367,0-0.553
	c-0.104-0.361,0.041-0.346-0.113-0.826c-0.236-0.512-1.225-0.66-1.365-0.555c-0.188,0.414-0.4,0.93-0.572,1.381
	c-0.598-0.078-0.854-0.588-1.252-0.826c-0.588-0.355-0.826,0.375-1.252,0.551c-0.189-0.627-0.457-1.109-0.797-1.383
	c-0.074,0.127-2.713,2.48-2.732,2.49c-0.098,0.311-0.113-0.279-0.113-0.279c-0.271-0.428-0.334-0.803-0.684-1.102
	c-0.152,0.348-0.199,0.377-0.453,0.553c0-0.277,0-0.553,0-0.828c-0.668,0.18-1.395,1.902-2.051,1.104
	c-0.443-0.363-0.475-0.877-1.021-1.104c-0.262,0.605-0.578,0.951-1.027,1.104c0,0.277,0,0.553,0,0.83
	c-0.645-0.094-1.291-0.184-1.934-0.277c-0.064-0.441-0.092-0.662-0.117-1.381c-0.266,0-0.529,0-0.795,0
	c-0.002,1.189-1.859,1.355-2.391,2.213c0-0.279,0-0.553,0-0.832c-0.346,0.023-0.311,0.211-0.453,0
	c-0.207-0.34-0.283-0.715-0.457-1.105c0,0.096,0,0.184,0,0.279c-0.244,0.371-0.41,0.762-0.684,1.105c0,0.273,0,0.553,0,0.83
	c-0.631-0.014-1.42,0.393-1.822,1.107c0.209,0.432,0.158,0.24,0.23,1.104c-0.041,0-0.076,0-0.117,0
	c-0.422-0.789-0.754-0.717-1.021-1.938c-0.717,0.813-1.41,2.098-2.162,2.766c-0.318,0.279-0.906-0.143-1.025,0
	c-0.039,0.277-0.076,0.555-0.115,0.83c-0.494,0.094-0.986,0.186-1.48,0.281c-0.568,0.643-1.139,1.289-1.707,1.934
	c-0.568-0.092-1.137-0.184-1.707-0.275c-0.707,0.453-1.07,0.793-1.822,0.275c-0.777,2.814-0.857,0.018-1.822,0.832
	c-0.1,0.082-0.354,1.023-0.453,1.105c-0.395,0.318-0.455-0.65-0.799-0.553l-0.34,0.553c-0.797-0.092-1.594-0.184-2.391-0.275
	c-0.246,0.16-0.588,0.936-0.801,1.105c-0.996,0.803-1.82-1.295-2.957-0.557c-0.115,0.076-0.482,0.791-0.57,0.832
	c-0.23,0.113-1.186-0.832-1.822-0.832c-1.023,0.188-2.049,0.373-3.07,0.557c-1.221-0.719-2.758-1.447-3.988-2.215
	c-0.605,0-1.213,0-1.822,0c-0.785-0.523-2.021-1.711-3.072-0.828c-0.223-0.26-0.32-1.18-0.568-1.385
	c-0.154,0.092-0.305,0.186-0.455,0.279c-0.461-0.318-1.195-0.973-1.822-1.385c-0.381,0-0.76,0-1.139,0
	c-1.598-0.934-3.613-1.875-5.236-2.49c-0.318-0.119-1.096,0.279-1.596,0.279c-0.711,0-1.277-0.26-1.705-0.557
	c-0.914-0.625-1.805,0.477-2.623,0.557c-0.199-1.061-0.256-1.342-0.906-1.385c-0.072,0.072-0.012,0.322-0.229,0.279
	c-0.203-0.045-0.633-0.924-1.139-0.555c-0.271,0.199-0.412,1.078-0.91,0.828c-0.041,0-0.076,0-0.113,0
	c-0.184-0.158-0.406-1.182-0.57-1.381c-0.514-0.635-0.775,0.477-1.367,0c-0.039-0.182-0.076-0.369-0.111-0.553
	c-0.645-0.531-2.031,0.021-2.508,0.275c-0.834-0.092-1.672-0.182-2.504-0.275c-0.809,0.662-1.379-0.313-2.164,0.275
	c-0.387,0.295-0.564,0.799-1.254,0.832c-0.297-0.98-0.629-1.146-1.365-1.105c-0.691,2.02-1.682-0.418-2.732,0.277
	c-0.205,0.137-0.441,0.859-0.908,0.553c-0.299-0.195-1.557-1.281-2.166-0.553c-0.035,0.275-0.074,0.553-0.113,0.828
	c-0.193,0.111-0.965-0.943-1.252-1.105c-0.998-0.555-2.09-0.133-2.957-0.553c-0.572,0.184-1.139,0.369-1.709,0.553
	c-0.502-0.275-0.857-1-1.592-1.104c-0.141,0.498-0.295,0.686-0.457,1.104c-1.137-0.951-1.211-0.381-2.617-0.273
	c-0.203-0.896-0.234-1.254-0.797-1.385c-0.725,1.105-2.107-0.994-2.734-1.381c-0.266-0.166-0.592,0.238-0.68,0.275
	c-0.557,0.242-0.695-0.783-1.252-0.555c-0.486,0.199-1.293,0.992-2.051,0.555c-0.977-0.57-2.107-1.172-3.209-1.402
	c0-0.369,0-0.738,0-1.107c-1.027,0.039-1.563-0.642-2.277-1.105c-0.496,0.093-0.984,0.185-1.48,0.277
	c-0.262-0.293-0.527-1.63-0.795-1.938c-0.268,0-0.531,0-0.799,0c-0.115-0.46-0.229-0.924-0.344-1.384
	c-0.674,0.314-0.828-0.698-1.365-1.104c-0.631-0.479-1.254,1.441-1.82,0c-0.041-0.46-0.078-0.922-0.117-1.38
	c-0.227-0.411-0.701,0.093-0.906-0.279c-0.137-0.235-0.109-1.167-0.23-1.381c-0.377-0.096-0.758-0.183-1.137-0.279
	c-0.514-0.481-0.945-2.017-1.48-2.488c-0.459-0.093-0.914-0.186-1.367-0.276c-0.5-0.691-0.195-1.954-1.021-2.215
	c-0.826,1.347-2.201-0.777-2.85-1.105c-0.182,0.738-0.658,1.696-0.91,1.383c-0.4-0.671-0.496-1.963-0.91-2.493
	c-0.85,1.489-3.949,1.503-4.1-1.379c-1.066-0.288-1.836-1.496-2.619-2.217c-0.17-0.152-0.262,0.762-0.342,0.832
	c-0.072,0.061-0.422-0.536-0.453-0.554c-0.307,0.093-0.609,0.183-0.912,0.276c-1.268-0.949-0.584-2.111-2.162-0.831
	c-0.787,0.643-1.721-1.486-2.391-0.829c-0.039,0.279-0.074,0.556-0.115,0.829c-0.039,0-0.076,0-0.115,0
	c-0.227,0.297-0.34,0.316-0.568,0c-0.418,0.677-0.381,1.646-1.025,1.938c-0.309-0.683-0.684-1.688-1.135-1.938
	c-0.266,0.516-0.945,1.049-1.139,0.831c-0.359-0.281-0.5-0.697-0.686-1.38c-0.035,0-0.074,0-0.109,0
	c-0.137,1.17-0.266,1.012-0.572,1.66c-0.457-0.255-0.98-0.66-1.25-1.383c-0.041-0.276-0.076-0.553-0.115-0.829
	c-0.268,0.093-0.533,0.18-0.799,0.276c-0.271-0.212-0.672-2.015-0.91-1.382c-0.178,0.414,0.096,0.447-0.34,0.83
	c-0.287,0.388-0.549-0.049-0.912-0.276c-0.043-0.99,0.055-0.698-0.229-1.107c-0.26,0.578-0.799,1.309-1.023,1.107
	c-0.734-0.63-1.078-2.974-1.365-4.703c-0.402,1.028-0.449,2.678-1.139,3.041c-0.539-1.003-1.611-2.045-2.275-2.489
	c-0.381-0.093-0.76-0.185-1.139-0.275c-0.342-0.471-0.117-1.073-0.682-1.385c-0.184,0.615-0.195,0.832-0.457,0.554
	c-0.143-0.421-0.244-1.155-0.342-1.657c-0.67-0.131-0.551-0.762-0.91-1.107c-0.303,0.094-0.605,0.186-0.91,0.276
	c-0.148-0.458-0.301-0.921-0.455-1.381c-0.541-0.558-1.229,0.601-1.594,0.83c-0.203-0.897-0.236-1.252-0.797-1.382
	c-0.594,1.297-1.623-0.536-2.389-0.829c-0.635,1.757-1.211,2.628-2.277,1.937c-0.08,0.681-0.162,0.967-0.34,1.383
	c-0.242-0.922-0.377-1.111-1.023-1.105c-0.094-0.896,0.055-0.423-0.229-0.829c0,0.09,0,0.182,0,0.275
	c-0.148,0.376-0.24,0.881-0.342,1.383c-0.197-0.176-0.109-0.053-0.227-0.277c-0.303-0.246-0.295-0.284-0.457-0.831
	c-0.369,0.444-0.492,0.768-0.68,1.659c-0.127-0.25-0.014,0.022-0.117-0.274c-0.422-0.857-0.279-1.379-1.135-1.385
	c-0.645-0.647-1.35,2.094-2.053,2.492c-0.211-0.492-0.092-0.514-0.34-0.279c-0.551,0.334-0.98,1.196-1.252,2.215
	c-0.398-0.451-0.883-1.12-1.139-1.936c-0.521,0.61-0.688,1.649-1.139,2.215c-0.293-0.908-0.428-1.131-1.139-1.109
	c-0.283,0.523-1.648,2.085-1.705,1.94c-0.248-0.487-0.258-1.008-0.568-1.384c-0.189,0.748-0.578,2.096-0.912,2.491
	c-0.184-0.615-0.193-0.831-0.455-0.553c-0.459,0.288-0.768,1.095-1.139,1.385c-0.639,0.501-1.193-0.566-1.48-0.279
	c-0.422,1.162-0.277,1.946-1.248,1.94c-0.414-0.344-0.65,0.959-1.252,0c-0.273,0.429-0.533,1.338-1.023,0.55
	c-0.484-0.42-0.461-1.207-0.914-1.659c0,0.093,0,0.184,0,0.277c-0.354,0.843-0.686,1.891-1.023,2.767
	c-0.568-0.003-1.607-0.668-1.822-0.55c-0.066,0.036-0.305,0.801-0.34,0.828c-0.473,0.329-0.652-1.035-0.914-0.552
	c-0.529,1.025-0.619,1.446-1.705,1.382c-0.629,0.956-1.785,0.544-2.506,1.105c-0.15,0.116-0.533,0.745-0.684,0.829
	c-0.34-0.092-0.682-0.183-1.023-0.276c-0.289,0.173-0.635,1.376-1.023,1.105c-0.266-0.183-0.373-1.248-0.91-1.105
	c-0.953,0.251-2.031,0.53-2.957,0c-0.836-0.474-2.27,0.513-2.734,0c-0.131-0.326-0.211-0.784-0.344-1.107
	c-0.074,0.278-0.152,0.554-0.227,0.828c-0.32,0.244-0.307-0.694-0.455-0.828c-0.57,0.093-1.139,0.182-1.707,0.278
	c-0.107-0.081-0.441-0.754-0.568-0.829c-0.432-0.249-0.537,0.544-0.801,0.551c-0.127,0.004-0.275-0.506-0.34-0.551
	c-0.707-0.484-1.516,0.376-1.938,0.551c-0.412,0.176-0.746-0.649-1.023-0.828c-0.342,0.093-0.68,0.183-1.025,0.279
	c-0.129-0.159-0.072-0.592-0.34-0.832c-0.139,0.857-0.043,0.627-0.455,0.832c-0.627-1.461-2.209-1.418-3.416-1.385
	c-0.166,0.813-0.123,0.892-0.57,1.107c-0.096-0.284-2.682-2.013-3.412-2.489c-0.67-0.437-1.41,0.303-1.824,0.553
	c-0.936,0.565-1.199-1.017-2.047-0.553c-1.172,0.64-1.455-1.961-2.508-1.382c-0.799,0.441-2.127-1.651-2.387-1.105
	c-0.174,0.282-0.225,0.412-0.344,0.828c-1.055-1.425-2.744,0.406-3.529-3.318c-0.266,0.365-0.531,0.737-0.797,1.105
	c-0.041-0.276-0.076-0.554-0.115-0.832c-0.174-0.262-0.211,0.265-0.227,0.278c-0.744,0.662-0.307-0.385-0.912-0.278
	c0,0-0.146,0.5-0.227,0.556c-0.176-0.197-0.385-0.964-0.568-1.108c-0.381,0.093-0.758,0.184-1.137,0.276
	c-0.34-0.202-0.619-0.979-1.139-0.828c-0.039,0-0.076,0-0.113,0c-0.887,0.44-2.773,1.25-3.986,0.551
	c-1.949-1.124-4.516-1.868-6.373-3.043c-0.877-0.557-1.654,0.826-2.389,0.553c-1.061-0.392-2.559-0.773-3.758-1.385
	c-0.406-0.203-4.186,1.063-4.438,1.385c-0.078,0.367-0.152,0.739-0.229,1.105c-0.195,0.189-0.471-0.503-0.568-0.551
	c-1.096-0.536-2.119,3.078-2.734,3.597c-0.375,0.313-0.818-0.912-1.367-0.553c-1.266,0.825-0.238,2.02-1.822,0.829
	c-0.846-0.635-1.895,1.658-2.162,1.103c-0.299-0.553-0.207-0.857-0.684-1.103c-0.039,0.367-0.078,0.736-0.115,1.103
	c-0.088-0.282-0.039-0.076-0.111-0.553c-0.201-0.604-0.141-0.993-0.457-1.382c0,0.093,0,0.184,0,0.276
	c-0.197,0.505-0.326,1.275-0.457,1.938c-0.736-0.521-0.742-0.914-1.367,0c0-0.183,0-0.369,0-0.553
	c-0.32-1.269-0.111-4.812-0.111-6.642c0-5.531,0-11.061,0-16.597c0-20.651,0-23.246,0-43.9c196.695,0,264.477,0,461.17,0
	 M614.405,42.282c0.117-0.223,0.033-0.098,0.227-0.275c0-0.094,0-0.186,0-0.277c-0.113,0-0.227,0-0.34,0
	C614.364,42.218,614.313,42.001,614.405,42.282z M611.333,42.009c-0.043-0.574-0.027-0.531-0.111-0.832c0,0.096,0,0.186,0,0.277
	c-0.041,0-0.078,0-0.113,0c0,0.094,0,0.184,0,0.277C611.18,41.825,611.257,41.917,611.333,42.009z"/>
<path fill="#FFFFFF" d="M50.604,24.132c0-0.259,0-0.524,0-0.784c-0.728,0.026-1.107-0.457-1.614-0.784
	c-0.35,0.065-0.7,0.13-1.048,0.193c-0.189-0.209-0.375-1.155-0.568-1.375c-0.188,0-0.375,0-0.565,0
	c-0.079-0.324-0.159-0.654-0.242-0.979c-0.479,0.22-0.587-0.497-0.967-0.786c-0.451-0.337-0.889,1.022-1.291,0
	c-0.028-0.326-0.056-0.651-0.083-0.98c-0.161-0.291-0.496,0.065-0.645-0.195c-0.096-0.169-0.075-0.829-0.161-0.981
	c-0.27-0.067-0.54-0.131-0.808-0.194c-0.365-0.344-0.67-1.436-1.052-1.766c-0.322-0.066-0.645-0.132-0.968-0.196
	c-0.355-0.488-0.141-1.386-0.729-1.572c-0.582,0.953-1.555-0.547-2.015-0.784c-0.134,0.521-0.467,1.204-0.646,0.979
	c-0.285-0.472-0.355-1.388-0.65-1.763c-0.599,1.055-2.797,1.061-2.904-0.981c-0.754-0.202-1.302-1.061-1.858-1.571
	c-0.117-0.104-0.185,0.542-0.242,0.591c-0.047,0.043-0.298-0.379-0.322-0.391c-0.219,0.063-0.433,0.127-0.647,0.195
	c-0.896-0.674-0.412-1.495-1.533-0.59c-0.556,0.454-1.221-1.055-1.694-0.588c-0.029,0.197-0.053,0.394-0.08,0.588
	c-0.029,0-0.054,0-0.081,0c-0.165,0.212-0.243,0.225-0.403,0c-0.296,0.481-0.272,1.167-0.729,1.376
	c-0.219-0.486-0.482-1.202-0.806-1.376c-0.19,0.365-0.674,0.745-0.809,0.59c-0.255-0.199-0.355-0.494-0.484-0.98
	c-0.027,0-0.056,0-0.081,0c-0.094,0.831-0.185,0.718-0.403,1.178c-0.327-0.179-0.695-0.47-0.891-0.98
	c-0.027-0.199-0.051-0.395-0.08-0.591c-0.187,0.067-0.375,0.129-0.564,0.196c-0.194-0.149-0.479-1.428-0.646-0.98
	c-0.127,0.295,0.067,0.319-0.242,0.589c-0.2,0.275-0.389-0.034-0.645-0.194C20.37,7.543,20.442,7.75,20.243,7.46
	c-0.185,0.408-0.57,0.928-0.728,0.786c-0.522-0.45-0.77-2.11-0.971-3.336c-0.286,0.726-0.319,1.899-0.807,2.156
	c-0.383-0.71-1.143-1.448-1.616-1.764c-0.267-0.068-0.536-0.134-0.804-0.198c-0.241-0.333-0.083-0.76-0.489-0.98
	c-0.13,0.433-0.135,0.591-0.319,0.391c-0.103-0.296-0.176-0.818-0.241-1.176c-0.48-0.093-0.393-0.539-0.649-0.784
	c-0.215,0.067-0.431,0.13-0.645,0.199c-0.11-0.329-0.216-0.654-0.324-0.983c-0.387-0.395-0.874,0.426-1.132,0.589
	c-0.141-0.637-0.167-0.887-0.564-0.98c-0.42,0.919-1.151-0.382-1.695-0.591C8.809,2.038,8.4,2.656,7.648,2.168
	C7.588,2.647,7.53,2.85,7.405,3.143C7.233,2.489,7.134,2.357,6.676,2.359C6.61,1.722,6.716,2.06,6.514,1.77c0,0.068,0,0.131,0,0.197
	c-0.106,0.268-0.17,0.624-0.242,0.98c-0.14-0.125-0.079-0.038-0.159-0.195C5.895,2.575,5.903,2.551,5.787,2.162
	c-0.262,0.316-0.35,0.542-0.481,1.173C5.216,3.16,5.296,3.352,5.224,3.143c-0.302-0.609-0.203-0.979-0.81-0.981
	C3.961,1.702,3.466,3.647,2.964,3.927C2.811,3.577,2.897,3.564,2.722,3.73C2.329,3.964,2.025,4.577,1.831,5.301
	C1.55,4.976,1.204,4.507,1.023,3.927C0.651,4.362,0.535,5.099,0.217,5.498C0.01,4.857-0.087,4.695-0.591,4.714
	c-0.206,0.367-1.171,1.477-1.213,1.372c-0.176-0.345-0.184-0.718-0.403-0.98c-0.135,0.53-0.409,1.486-0.647,1.766
	c-0.13-0.436-0.135-0.589-0.324-0.391C-3.5,6.686-3.719,7.258-3.983,7.461c-0.458,0.357-0.85-0.399-1.05-0.197
	c-0.302,0.826-0.202,1.38-0.89,1.376c-0.297-0.242-0.462,0.683-0.889,0c-0.195,0.305-0.379,0.948-0.728,0.389
	c-0.342-0.296-0.328-0.857-0.646-1.174c0,0.066,0,0.128,0,0.196c-0.25,0.595-0.488,1.34-0.726,1.963
	c-0.403-0.005-1.142-0.477-1.292-0.394c-0.048,0.027-0.215,0.57-0.242,0.591c-0.335,0.231-0.466-0.736-0.647-0.394
	c-0.379,0.729-0.441,1.025-1.211,0.983c-0.447,0.677-1.268,0.386-1.777,0.781c-0.106,0.086-0.377,0.533-0.484,0.59
	c-0.241-0.063-0.483-0.127-0.725-0.192c-0.209,0.12-0.453,0.976-0.73,0.783c-0.188-0.131-0.264-0.887-0.645-0.783
	c-0.674,0.176-1.438,0.374-2.098,0c-0.588-0.337-1.604,0.364-1.937,0c-0.096-0.234-0.149-0.557-0.242-0.788
	c-0.053,0.197-0.109,0.393-0.161,0.591c-0.228,0.166-0.221-0.494-0.324-0.591c-0.402,0.066-0.807,0.128-1.211,0.196
	c-0.074-0.055-0.31-0.534-0.403-0.586c-0.304-0.178-0.378,0.386-0.566,0.391c-0.09,0.004-0.195-0.36-0.243-0.391
	c-0.498-0.344-1.075,0.268-1.37,0.391c-0.295,0.123-0.533-0.464-0.728-0.591c-0.241,0.066-0.483,0.133-0.728,0.201
	c-0.092-0.116-0.049-0.422-0.241-0.589c-0.099,0.607-0.029,0.444-0.323,0.589c-0.443-1.038-1.568-1.007-2.422-0.983
	c-0.119,0.577-0.088,0.633-0.405,0.785c-0.069-0.2-1.904-1.427-2.421-1.765c-0.472-0.309-0.998,0.215-1.293,0.392
	c-0.66,0.401-0.848-0.719-1.449-0.392c-0.831,0.457-1.034-1.389-1.777-0.981c-0.567,0.313-1.508-1.17-1.695-0.783
	c-0.121,0.202-0.16,0.293-0.242,0.591c-0.745-1.016-1.944,0.288-2.502-2.358c-0.189,0.262-0.376,0.526-0.565,0.787
	c-0.027-0.201-0.052-0.395-0.08-0.589c-0.123-0.192-0.152,0.188-0.161,0.194c-0.529,0.47-0.218-0.275-0.646-0.194
	c0,0-0.106,0.351-0.162,0.389c-0.126-0.138-0.274-0.682-0.402-0.784C-43.732,5.171-44,5.24-44.272,5.306
	c-0.239-0.146-0.438-0.695-0.806-0.591c-0.027,0-0.054,0-0.081,0c-0.626,0.312-1.966,0.887-2.825,0.391
	c-1.383-0.795-3.203-1.323-4.521-2.156c-0.624-0.396-1.174,0.583-1.696,0.391c-0.748-0.278-1.814-0.547-2.663-0.981
	c-0.289-0.145-2.97,0.752-3.149,0.981c-0.053,0.26-0.106,0.526-0.161,0.784c-0.137,0.135-0.334-0.355-0.403-0.389
	c-0.775-0.378-1.504,2.183-1.938,2.551c-0.266,0.222-0.581-0.645-0.969-0.391c-0.896,0.585-0.169,1.43-1.291,0.588
	c-0.602-0.453-1.343,1.174-1.535,0.782c-0.209-0.392-0.147-0.607-0.484-0.782c-0.027,0.261-0.055,0.523-0.081,0.782
	c-0.063-0.2-0.03-0.052-0.081-0.392c-0.141-0.427-0.099-0.705-0.324-0.979c0,0.063,0,0.13,0,0.195
	c-0.139,0.357-0.231,0.905-0.324,1.376c-0.522-0.37-0.526-0.649-0.969,0c0-0.133,0-0.264,0-0.394
	c-0.228-0.901-0.079-3.408-0.079-4.707c0-3.922,0-7.849,0-11.771c0-14.646,0-29.297,0-43.942c139.48,0,279.006,0,418.489,0
	c0,28.835,0,40.279,0,69.11c-0.367,0.113-0.746,0.423-1.049,0.592c-0.43,0.231-0.781-0.293-1.051-0.395
	c-0.236-0.082-0.352,0.327-0.486,0.395c-0.523,0.262-0.512-0.843-1.049-0.592c-0.172,0.082-0.369,0.524-0.646,0.392
	c-0.094-0.04-0.242-0.454-0.404-0.392c-0.123,0.051-0.365,0.694-0.482,0.787c-0.672,0.509-1.229-0.538-1.615-0.787
	c-0.51-0.321-0.895,0.402-1.213,0.592c-1.131-0.131-2.262-0.262-3.393-0.395c-0.246-0.141-0.68-0.722-0.889-0.782
	c-0.266-0.081-0.359,0.647-0.729,0.394c-0.275-0.192-0.652-0.957-0.967-1.179c-0.762-0.533-1.74,0.309-2.582-0.194
	c-0.381-0.229-0.912-0.759-1.293-0.982c-0.404-0.239-0.82,0.155-1.131,0.195c-0.588,0.081-1.166-0.161-1.533-0.389
	c-0.66-0.417-1.268,6.595-1.855,6.653c-0.145-0.753-0.186-0.952-0.648-0.981c-0.049,0.051-0.006,0.229-0.16,0.198
	c-0.146-0.031-0.453-0.656-0.809-0.395c-0.195,0.141-0.293,0.764-0.645,0.589c-0.029,0-0.055,0-0.082,0
	c-0.129-0.113-0.287,3.838-0.402,3.696c-0.369-0.453-0.549,0.337-0.971,0c-0.027-0.13-0.055-0.261-0.08-0.394
	c-0.455-0.376-1.438,0.017-1.779,0.196c-0.586-0.063-1.182-0.129-1.771-0.196c-0.576,0.468-0.977,2.386-1.537,2.803
	c-0.275,0.206-0.398,0.567-0.885,0.589c-0.213-0.694-0.449-0.816-0.971-0.784c-0.49,1.433-1.193-0.297-1.939,0.195
	c-0.145,0.099-0.314,0.609-0.643,0.395c-0.211-0.143-1.104-0.91-1.535-0.395c-0.027,0.2-0.053,0.395-0.08,0.589
	c-0.141,0.076-0.689-0.668-0.889-0.784c-0.709-0.391-1.482-0.09-2.1-0.391c-0.404,0.128-0.805,0.261-1.211,0.391
	c-0.357-0.194-0.609-0.71-1.133-0.784c-0.096,0.355-0.205,0.486-0.32,0.784c-0.809-0.674-0.861-0.273-1.855-0.194
	c-0.145-0.639-0.17-0.889-0.566-0.979c-0.514,0.782-1.496-0.708-1.938-0.984c-0.188-0.117-0.422,0.169-0.486,0.196
	c-0.393,0.174-0.492-0.554-0.887-0.391c-0.34,0.141-0.914,0.703-1.451,0.391c-0.678-0.391-1.48-0.815-2.262-0.98
	c0-0.262,0-0.521,0-0.785c-0.727,0.029-1.107-0.454-1.613-0.783c-0.352,0.062-0.699,0.131-1.053,0.194
	c-0.184-0.208-0.371-1.153-0.563-1.376c-0.191,0-0.377,0-0.566,0c-0.08-0.325-0.16-0.652-0.242-0.978
	c-0.479,0.22-0.59-0.498-0.971-0.788c1.682,1.269-0.889-3.886-1.289,0c-0.027-0.324-0.16,1.519-0.188,1.193
	c-0.16-0.291-0.496,0.068-0.645-0.194c-0.096-0.172-0.074-0.829-0.16-0.981c-0.271-0.065-0.537-0.127-0.809-0.196
	c-0.365-0.34-0.568,0.252-0.947-0.079c-0.322-0.066-0.645-0.131-0.969-0.197c-0.352-0.488-0.141-1.385-0.727-1.571
	c-0.582,0.952-1.561-0.548-2.02-0.783c-0.133,0.522-0.467,1.2-0.643,0.979c-0.283-0.475-0.354-1.387-0.648-1.768
	c-0.6,1.058-2.799,1.066-2.904-0.976c-0.756-0.203-1.303-1.063-1.859-1.573c-0.119-0.104-0.186,0.542-0.24,0.589
	c-0.051,0.043-0.299-0.378-0.322-0.392c-0.219,0.067-0.434,0.132-0.648,0.197c-0.895-0.674-0.414-1.498-1.533-0.586
	c-0.557,0.451-1.219-1.056-1.693-0.591c-0.027,0.197-0.055,0.395-0.08,0.591c-0.029,0-0.055,0-0.08,0
	c-0.164,0.21-0.242,0.221-0.404,0c-0.297,0.478-0.271,1.165-0.729,1.372c-0.219-0.485-0.484-1.197-0.809-1.372
	c-0.188,0.362-0.67,0.742-0.805,0.586c-0.256-0.2-0.357-0.496-0.486-0.98c-0.025,0-0.053,0-0.08,0
	c-0.096,0.831-0.188,0.718-0.402,1.175c-0.326-0.178-0.697-0.467-0.893-0.979c-0.023-0.197-0.053-0.395-0.08-0.591
	c-0.186,0.066-0.377,0.131-0.566,0.196c-0.193-0.151-0.477-1.43-0.646-0.979c-0.125,0.292,0.07,0.317-0.242,0.589
	c-0.201,0.275-0.387-0.037-0.645-0.2c-0.033-0.701,0.041-0.492-0.162-0.783c-0.182,0.41-0.566,0.931-0.727,0.783
	c-0.52-0.446-0.768-2.104-0.969-3.333c-0.287,0.728-0.318,1.902-0.811,2.157c-0.381-0.71-1.143-1.452-1.611-1.767
	c-0.27-0.063-0.537-0.13-0.807-0.196c-0.242-0.33-0.084-0.757-0.484-0.98c-0.133,0.436-0.141,0.591-0.324,0.395
	c-0.1-0.299-0.174-0.822-0.24-1.178c-0.479-0.096-0.393-0.54-0.648-0.787c-0.215,0.067-0.43,0.129-0.646,0.197
	c-0.107-0.327-0.215-0.654-0.324-0.981c-0.385-0.395-0.871,0.426-1.129,0.588c-0.145-0.639-0.17-0.887-0.566-0.98
	c-0.42,0.921-1.152-0.382-1.693-0.591c-0.451,1.248-0.859,1.869-1.615,1.375c-0.059,0.485-0.117,0.684-0.24,0.981
	c-0.172-0.657-0.271-0.787-0.729-0.786c-0.066-0.636,0.037-0.302-0.162-0.588c0,0.063,0,0.13,0,0.195
	c-0.107,0.271-0.172,0.625-0.242,0.981c-0.141-0.123-0.076-0.04-0.16-0.195c-0.215-0.175-0.207-0.203-0.324-0.589
	c-0.264,0.313-0.352,0.542-0.484,1.176c-0.025,0-0.053,0-0.08,0c0-0.064,0-0.131,0-0.197c-0.301-0.608-0.201-0.979-0.809-0.979
	c-0.455-0.46-0.951,1.483-1.453,1.767c-0.148-0.35-0.064-0.364-0.24-0.199c-0.391,0.234-0.697,0.848-0.889,1.57
	c-0.283-0.317-0.627-0.793-0.807-1.371c-0.373,0.43-0.49,1.169-0.811,1.568c-0.209-0.642-0.303-0.801-0.809-0.783
	c-0.201,0.37-1.17,1.478-1.209,1.371c-0.18-0.341-0.186-0.713-0.406-0.979c-0.135,0.53-0.408,1.483-0.646,1.766
	c-0.129-0.438-0.137-0.59-0.322-0.39c-0.326,0.201-0.545,0.773-0.811,0.98c-0.455,0.354-0.846-0.402-1.049-0.198
	c-0.299,0.824-0.197,1.381-0.885,1.375c-0.297-0.245-0.463,0.681-0.893,0c-0.193,0.305-0.377,0.951-0.727,0.391
	c-0.34-0.297-0.326-0.856-0.645-1.177c0,0.067,0,0.132,0,0.197c-0.256,0.597-0.49,1.341-0.727,1.96
	c-0.404-0.003-1.139-0.474-1.293-0.389c-0.045,0.027-0.215,0.57-0.242,0.586c-0.332,0.231-0.461-0.733-0.645-0.392
	c-0.377,0.728-0.443,1.026-1.213,0.982c-0.449,0.679-1.266,0.391-1.775,0.786c-0.108,0.082-0.381,0.53-0.486,0.586
	c-0.243-0.062-0.485-0.128-0.727-0.194c-0.205,0.123-0.453,0.976-0.727,0.786c-0.189-0.13-0.268-0.887-0.645-0.786
	c-0.676,0.178-1.441,0.378-2.1,0c-0.589-0.333-1.606,0.365-1.936,0c-0.094-0.231-0.149-0.556-0.243-0.783
	c-0.055,0.198-0.107,0.392-0.16,0.588c-0.229,0.169-0.221-0.494-0.323-0.588c-0.405,0.061-0.808,0.127-1.213,0.195
	c-0.075-0.057-0.311-0.538-0.405-0.59c-0.304-0.173-0.379,0.391-0.564,0.395c-0.09,0.001-0.198-0.361-0.242-0.395
	c-0.501-0.342-1.075,0.267-1.371,0.395c-0.296,0.117-0.531-0.464-0.727-0.591c-0.243,0.065-0.486,0.13-0.727,0.196
	c-0.093-0.111-0.053-0.42-0.243-0.588c-0.1,0.606-0.031,0.443-0.322,0.588c-0.442-1.035-1.569-1.005-2.422-0.982
	c-0.121,0.578-0.09,0.634-0.405,0.787c-0.069-0.202-1.905-1.427-2.424-1.766c-0.472-0.309-0.997,0.214-1.29,0.392
	c-0.666,0.403-0.854-0.719-1.453-0.392c-0.834,0.454-1.033-1.393-1.775-0.98c-0.568,0.313-1.51-1.174-1.695-0.785
	c-0.124,0.202-0.157,0.293-0.243,0.589c-0.746-1.014-1.946,0.289-2.501-2.358c-0.189,0.264-0.376,0.527-0.566,0.787
	c-0.027-0.198-0.054-0.392-0.081-0.59c-0.12-0.188-0.148,0.189-0.161,0.198c-0.527,0.471-0.216-0.274-0.647-0.198
	c0,0-0.105,0.353-0.161,0.392c-0.127-0.138-0.275-0.685-0.403-0.784c-0.269,0.064-0.537,0.129-0.808,0.194
	c-0.24-0.144-0.442-0.692-0.81-0.588c-0.025,0-0.051,0-0.08,0c-0.628,0.312-1.966,0.886-2.825,0.391
	c-1.38-0.794-3.2-1.323-4.518-2.156c-0.627-0.395-1.177,0.585-1.697,0.391c-0.75-0.276-1.812-0.544-2.664-0.981
	c-0.288-0.146-2.966,0.753-3.148,0.981c-0.054,0.262-0.108,0.524-0.161,0.786c-0.136,0.137-0.338-0.357-0.405-0.391
	c-0.775-0.379-1.501,2.183-1.937,2.551c-0.266,0.223-0.581-0.647-0.967-0.394c-0.898,0.589-0.169,1.433-1.292,0.589
	c-0.601-0.45-1.343,1.178-1.534,0.784c-0.212-0.395-0.146-0.607-0.484-0.784c-0.029,0.26-0.054,0.523-0.08,0.784
	c-0.065-0.2-0.029-0.054-0.081-0.389c-0.143-0.432-0.099-0.707-0.324-0.981c0,0.063,0,0.13,0,0.195
	c-0.142,0.355-0.23,0.904-0.324,1.376c-0.522-0.369-0.527-0.648-0.97,0c-0.15-0.818-0.181-0.302-0.403-0.589
	c-0.054-0.152-0.108-0.438-0.161-0.591c-0.139,0.261-0.13,0.34-0.243,0.196c-0.075-0.185-0.108-0.344-0.161-0.589
	c-0.297,0.233-0.657,0.728-0.891,0.196c-0.123-0.292-0.199-0.689-0.322-0.98c-0.07,0.285-0.147,0.56-0.242,0.784
	c-0.606-1.29-1.607,0.624-2.098,0.981c-0.3,0-0.594,0-0.889,0c-0.192,0.229-0.194,1.154-0.405,1.375c-0.298,0-0.593,0-0.888,0
	c-0.134,0.391-0.271,0.786-0.407,1.176c-0.479,0.066-0.963,0.129-1.449,0.196c-0.092,0.135-0.129,0.846-0.242,0.98
	c-0.352,0.066-0.7,0.128-1.051,0.197c-0.283,0.254-0.415,1.189-0.646,1.568c-0.315,0.515-0.736,0.486-1.051,0.98
	c-0.08,0.264-0.161,0.527-0.244,0.788c-0.256,0.255-0.328-0.359-0.4-0.393c-0.284-0.131-0.133,0.438-0.244,0.588
	c-0.481,0.666-1.266-0.302-1.696,0c-0.142,0.103-0.162,0.766-0.321,0.395c-0.213-0.332-0.268-0.427-0.323-1.178
	c-0.417,0.158-0.394,0.716-0.648,0.979c-0.546,0.571-1.477-0.766-1.856-0.979c-0.507-0.291-0.688,0.581-0.969,0.783
	c-0.581,0.422-0.661-1.067-1.29-0.588c-0.134,0.1-0.356,0.68-0.484,0.784c-0.513,0.065-1.022,0.131-1.533,0.199
	c-0.112,0.326-0.217,0.654-0.325,0.979c-0.297,0.128-0.592,0.261-0.887,0.391c-0.123,0.156-0.275,0.852-0.405,0.983
	c-0.403,0-0.808,0-1.211,0c-0.507,0.337-1.205,0.842-1.774,1.174c-0.243,0-0.486,0-0.727,0c-0.192,0.158-0.386,0.811-0.566,0.981
	c-0.511,0.13-1.022,0.261-1.534,0.389c-0.437,0.302-0.938,1.104-1.372,1.379c-0.381,0.24-1.156-0.312-1.292-0.789
	c-0.176,0.139-0.138,0.645-0.241,0.789c-0.298-0.066-0.593-0.133-0.89-0.198c-0.147,0.109-0.393,0.679-0.565,0.784
	c-0.487,0.3-0.738-0.828-1.292-0.392c-0.187,0.15-0.389,0.842-0.566,0.981c-0.185,0.147-0.425-0.169-0.484-0.196
	c0,0-1.451,0.588-1.451,0.591c-0.11,0.326-0.216,0.653-0.326,0.979c-0.349-0.062-0.7-0.129-1.048-0.197
	c-0.083,0.262-0.161,0.524-0.243,0.787c-0.358,0.324-0.396-0.609-0.808-0.391c-0.599,0.314-1.385,0.988-2.019,1.372
	c-0.698,0.066-1.398,0.132-2.098,0.196c-0.154-0.089-0.796-0.859-0.887-0.783c-0.385,0.302-0.47,0.928-1.133,0.979
	c-0.161-0.326-0.325-0.654-0.485-0.979c-0.077,0.753-0.161,0.697-0.403,0.979c0-0.129,0-0.262,0-0.392
	c-0.075-0.26,0.028-0.247-0.081-0.59c-0.166-0.361-0.866-0.465-0.969-0.391c-0.132,0.291-0.283,0.662-0.405,0.98
	c-0.425-0.06-0.608-0.419-0.888-0.59c-0.417-0.251-0.59,0.268-0.887,0.388c-0.137-0.441-0.326-0.785-0.567-0.977
	c-0.056,0.09-1.924,1.758-1.936,1.766c-0.073,0.22-0.081-0.195-0.081-0.195c-0.196-0.307-0.238-0.572-0.488-0.784
	c-0.108,0.245-0.139,0.265-0.32,0.391c0-0.201,0-0.394,0-0.588c-0.475,0.127-0.987,1.348-1.452,0.784
	c-0.317-0.259-0.339-0.626-0.727-0.784c-0.185,0.432-0.408,0.677-0.728,0.784c0,0.197,0,0.392,0,0.586
	c-0.457-0.065-0.915-0.129-1.371-0.194c-0.045-0.312-0.064-0.471-0.082-0.979c-0.189,0-0.376,0-0.565,0
	c0,0.844-1.319,0.96-1.695,1.571c0-0.203,0-0.398,0-0.592c-0.247,0.016-0.221,0.149-0.324,0c-0.143-0.243-0.201-0.506-0.324-0.789
	c0,0.069,0,0.134,0,0.201c-0.174,0.264-0.288,0.54-0.483,0.782c0,0.198,0,0.398,0,0.592c-0.447-0.008-1.006,0.276-1.292,0.784
	c0.148,0.308,0.113,0.172,0.161,0.783c-0.026,0-0.051,0-0.08,0c-0.299-0.559-0.535-0.506-0.726-1.374
	c-0.505,0.58-0.999,1.489-1.536,1.961c-0.22,0.2-0.638-0.1-0.726,0c-0.027,0.2-0.051,0.395-0.08,0.589
	c-0.351,0.065-0.699,0.13-1.051,0.195c-0.405,0.462-0.807,0.918-1.213,1.377c-0.402-0.066-0.806-0.131-1.21-0.198
	c-0.502,0.321-0.759,0.561-1.292,0.198c-0.549,1.995-0.606,0.01-1.292,0.588c-0.07,0.06-0.252,0.728-0.322,0.784
	c-0.278,0.229-0.324-0.461-0.566-0.389l-0.242,0.389c-0.564-0.064-1.129-0.13-1.695-0.193c-0.172,0.114-0.417,0.664-0.566,0.783
	c-0.707,0.571-1.293-0.917-2.097-0.393c-0.081,0.054-0.341,0.559-0.403,0.59c-0.165,0.082-0.843-0.59-1.29-0.59
	c-0.729,0.132-1.455,0.263-2.181,0.393c-0.865-0.51-1.952-1.026-2.825-1.571c-0.431,0-0.861,0-1.292,0
	c-0.559-0.372-1.434-1.215-2.179-0.589c-0.159-0.184-0.229-0.834-0.403-0.982c-0.11,0.068-0.216,0.131-0.324,0.198
	c-0.324-0.223-0.846-0.688-1.292-0.979c-0.269,0-0.539,0-0.807,0c-1.135-0.663-2.562-1.331-3.714-1.764
	c-0.227-0.086-0.777,0.195-1.128,0.195c-0.506,0-0.91-0.183-1.213-0.394c-0.647-0.444-1.275,0.338-1.856,0.394
	c-0.145-0.751-0.185-0.951-0.647-0.98c-0.049,0.049-0.007,0.229-0.162,0.194c-0.143-0.031-0.451-0.653-0.808-0.389
	c-0.192,0.138-0.294,0.762-0.646,0.587c-0.027,0-0.053,0-0.081,0c-0.128-0.113-0.288-0.838-0.4-0.979
	c-0.369-0.451-0.55,0.334-0.971,0c-0.028-0.131-0.054-0.262-0.081-0.395c-0.454-0.374-1.437,0.017-1.776,0.2
	c-0.59-0.068-1.186-0.131-1.775-0.2c-0.576,0.471-0.977-0.222-1.536,0.2c-0.273,0.205-0.399,0.565-0.887,0.588
	c-0.212-0.695-0.448-0.815-0.97-0.785c-0.489,1.433-1.193-0.296-1.937,0.197c-0.146,0.096-0.316,0.609-0.646,0.391
	c-0.211-0.141-1.104-0.905-1.535-0.391c-0.027,0.197-0.051,0.392-0.077,0.588c-0.142,0.078-0.688-0.67-0.89-0.783
	c-0.709-0.397-1.482-0.096-2.1-0.395c-0.403,0.131-0.806,0.262-1.211,0.395c-0.359-0.197-0.607-0.71-1.131-0.785
	c-0.1,0.351-0.208,0.486-0.324,0.785c-0.805-0.68-0.858-0.273-1.856-0.197c-0.142-0.636-0.168-0.886-0.566-0.981
	c-0.515,0.784-1.493-0.705-1.937-0.98c-0.188-0.116-0.421,0.17-0.485,0.196c-0.394,0.172-0.492-0.557-0.885-0.392
	c-0.345,0.141-0.916,0.703-1.453,0.392C52.103,24.734,51.3,24.305,50.604,24.132z M121.559,27.282
	c0.08-0.158,0.021-0.07,0.161-0.197c0-0.062,0-0.131,0-0.195c-0.081,0-0.161,0-0.243,0
	C121.526,27.234,121.492,27.083,121.559,27.282z M119.378,27.087c-0.031-0.409-0.02-0.376-0.081-0.589c0,0.065,0,0.133,0,0.195
	c-0.027,0-0.053,0-0.081,0c0,0.065,0,0.132,0,0.2C119.27,26.956,119.325,27.023,119.378,27.087z"/>
</svg>
