<?xml version="1.0" encoding="utf-8"?>
<!-- Generator: Adobe Illustrator 16.0.0, SVG Export Plug-In . SVG Version: 6.00 Build 0)  -->
<!DOCTYPE svg PUBLIC "-//W3C//DTD SVG 1.1//EN" "http://www.w3.org/Graphics/SVG/1.1/DTD/svg11.dtd">
<svg version="1.1" id="Layer_1" xmlns="http://www.w3.org/2000/svg" xmlns:xlink="http://www.w3.org/1999/xlink" x="0px" y="0px"
	 width="612.697px" height="74.161px" viewBox="0 0 612.697 74.161" enable-background="new 0 0 612.697 74.161"
	 xml:space="preserve">
<path fill="#FFFFFF" d="M434.793,66.191c-0.786,0.259-1.625-0.209-2.127-0.326c-0.578-0.137-0.723,0.469-1.3,0.326
	c-0.093-0.021-0.433-0.261-0.709-0.162c-0.649,0.229-2.084,1.467-2.838,0.815c-0.581,0.077-0.615,0.287-0.827,0.816
	c-1.461-0.063-1.536-0.4-2.72,0.163c-0.167-0.248-0.328-0.359-0.474-0.652c-0.765,0.061-1.132,0.488-1.654,0.652
	c-0.591-0.108-1.181-0.219-1.772-0.327c-0.902,0.248-2.035-0.002-3.072,0.327c-0.297,0.094-1.1,0.716-1.301,0.652
	c-0.039-0.163-0.078-0.326-0.117-0.49c-0.631-0.429-1.936,0.212-2.248,0.327c-0.482,0.182-0.729-0.246-0.944-0.327
	c-1.09-0.41-2.118,1.029-2.837-0.163c-0.764-0.026-1.109,0.074-1.418,0.652c-0.715-0.018-0.9-0.317-1.301-0.489
	c-0.815-0.35-1.406,0.227-2.246-0.164c-0.868,0.056-1.735,0.108-2.602,0.164c-0.496-0.15-1.938-0.478-2.603-0.164
	c-0.038,0.108-0.078,0.219-0.117,0.326c-0.614,0.281-0.885-0.375-1.418,0c-0.17,0.118-0.403,0.721-0.592,0.816
	c-0.038,0-0.077,0-0.117,0c-0.516,0.146-0.664-0.373-0.944-0.49c-0.525-0.218-0.974,0.301-1.185,0.327
	c-0.224,0.026-0.162-0.122-0.235-0.164c-0.676,0.024-0.734,0.191-0.945,0.816c-0.849-0.046-1.772-0.697-2.72-0.327
	c-0.446,0.175-1.036,0.327-1.772,0.327c-0.517,0-1.324-0.234-1.654-0.163c-1.686,0.363-3.773,0.918-5.438,1.47
	c-0.395,0-0.788,0-1.183,0c-0.653,0.243-1.414,0.628-1.893,0.815c-0.158-0.056-0.315-0.108-0.474-0.164
	c-0.257,0.122-0.359,0.664-0.591,0.816c-1.089-0.521-2.375,0.18-3.19,0.49c-0.631,0-1.263,0-1.893,0
	c-1.279,0.454-2.873,0.884-4.138,1.307c-1.063-0.107-2.127-0.218-3.19-0.326c-0.66,0-1.65,0.556-1.892,0.489
	c-0.092-0.023-0.474-0.445-0.592-0.489c-1.177-0.438-2.037,0.802-3.072,0.326c-0.22-0.099-0.575-0.556-0.828-0.651
	c-0.827,0.055-1.653,0.107-2.481,0.163l-0.354-0.326c-0.354-0.061-0.422,0.514-0.827,0.326c-0.104-0.049-0.369-0.604-0.473-0.653
	c-1.002-0.481-1.086,1.172-1.893-0.49c-0.782,0.304-1.159,0.104-1.892-0.164c-0.591,0.056-1.183,0.109-1.772,0.164
	c-0.59-0.382-1.182-0.763-1.772-1.144c-0.514-0.057-1.024-0.109-1.537-0.164c-0.038-0.163-0.079-0.326-0.118-0.49
	c-0.125-0.084-0.735,0.165-1.063,0c-0.783-0.395-1.504-1.154-2.246-1.633c-0.278,0.72-0.623,0.678-1.063,1.143
	c-0.038,0-0.078,0-0.117,0c0.072-0.508,0.02-0.396,0.236-0.651c-0.418-0.422-1.236-0.66-1.892-0.653c0-0.163,0-0.327,0-0.49
	c-0.285-0.203-0.455-0.433-0.709-0.652c0-0.056,0-0.108,0-0.164c-0.181,0.23-0.263,0.453-0.474,0.653
	c-0.149,0.123-0.115,0.013-0.474,0c0,0.163,0,0.326,0,0.49c-0.553-0.507-2.48-0.604-2.482-1.307c-0.275,0-0.552,0-0.826,0
	c-0.024,0.423-0.053,0.554-0.119,0.815c-0.669,0.055-1.34,0.108-2.009,0.163c0-0.163,0-0.325,0-0.489
	c-0.467-0.09-0.796-0.293-1.064-0.652c-0.569,0.133-0.602,0.437-1.063,0.652c-0.681,0.471-1.435-0.545-2.128-0.652
	c0,0.163,0,0.325,0,0.489c-0.266-0.104-0.313-0.121-0.473-0.326c-0.363,0.175-0.427,0.397-0.709,0.651c0,0-0.015,0.347-0.118,0.164
	c-0.019-0.006-2.758-1.396-2.837-1.47c-0.353,0.161-0.629,0.445-0.828,0.815c-0.439-0.104-0.689-0.535-1.3-0.325
	c-0.413,0.141-0.679,0.442-1.3,0.489c-0.179-0.267-0.399-0.572-0.593-0.816c-0.148-0.061-1.174,0.025-1.418,0.327
	c-0.159,0.284-0.009,0.275-0.116,0.489c0,0.108,0,0.219,0,0.327c-0.357-0.234-0.482-0.188-0.593-0.815
	c-0.235,0.271-0.474,0.544-0.709,0.815c-0.972-0.042-1.097-0.564-1.655-0.815c-0.136-0.062-1.074,0.578-1.3,0.652
	c-1.023-0.055-2.05-0.108-3.073-0.163c-0.927-0.319-2.076-0.88-2.955-1.145c-0.605-0.18-0.661,0.596-1.184,0.327
	c-0.118-0.216-0.235-0.435-0.354-0.652c-0.514,0.055-1.025,0.108-1.537,0.163c-0.159-0.271-0.317-0.545-0.475-0.815
	c0-0.002-2.127-0.49-2.127-0.49c-0.086,0.021-0.438,0.286-0.709,0.163c-0.258-0.117-0.555-0.693-0.827-0.815
	c-0.81-0.363-1.177,0.575-1.893,0.325c-0.251-0.088-0.611-0.562-0.827-0.652c-0.435,0.055-0.866,0.108-1.301,0.163
	c-0.153-0.118-0.095-0.538-0.354-0.653c-0.199,0.395-1.332,0.854-1.893,0.653c-0.636-0.229-1.369-0.895-2.01-1.145
	c-0.749-0.109-1.498-0.219-2.246-0.327c-0.262-0.141-0.55-0.687-0.828-0.815c-0.354,0-0.709,0-1.063,0
	c-0.836-0.278-1.857-0.697-2.602-0.979c-0.59,0-1.181,0-1.773,0c-0.193-0.11-0.414-0.688-0.592-0.816
	c-0.434-0.108-0.865-0.219-1.3-0.326c-0.158-0.272-0.315-0.545-0.473-0.816c-0.749-0.056-1.497-0.108-2.246-0.164
	c-0.192-0.087-0.515-0.568-0.709-0.652c-0.919-0.399-1.04,0.842-1.893,0.489c-0.409-0.169-0.676-0.894-1.418-0.652
	c-0.556,0.178-1.918,1.292-2.72,0.815c-0.369-0.217-0.336-0.682-0.946-0.815c-0.079,0.626-0.163,0.706-0.473,0.979
	c-0.233,0.311-0.265-0.243-0.473-0.327c-0.625-0.252-1.777,0.553-2.482,0c-0.161-0.126,0.056-0.6-0.354-0.49
	c-0.108,0.029-0.214,0.541-0.591,0.327c-0.118-0.217-0.236-0.436-0.354-0.652c-0.462-0.414-1.078-0.39-1.537-0.816
	c-0.338-0.315-0.532-1.097-0.946-1.308c-0.512-0.056-1.022-0.108-1.535-0.164c-0.166-0.111-0.224-0.702-0.354-0.815
	c-0.71-0.056-1.419-0.108-2.128-0.164c-0.197-0.325-0.396-0.652-0.592-0.979c-0.435,0-0.866,0-1.3,0
	c-0.313-0.185-0.316-0.953-0.592-1.144c-0.435,0-0.867,0-1.302,0c-0.721-0.298-2.185-1.89-3.073-0.816
	c-0.14-0.185-0.253-0.415-0.354-0.652c-0.182,0.24-0.293,0.572-0.473,0.815c-0.342,0.443-0.867,0.028-1.301-0.163
	c-0.08,0.203-0.129,0.338-0.236,0.489c-0.164,0.119-0.148,0.054-0.354-0.162c-0.082,0.125-0.155,0.363-0.237,0.489
	c-0.323,0.24-0.371-0.188-0.591,0.49c-0.646-0.54-0.653-0.309-1.418,0c-0.134-0.393-0.268-0.848-0.473-1.145
	c0-0.055,0-0.108,0-0.163c-0.331,0.229-0.268,0.459-0.475,0.816c-0.076,0.281-0.021,0.159-0.117,0.326
	c-0.039-0.217-0.078-0.435-0.118-0.653c-0.495,0.146-0.398,0.326-0.709,0.653c-0.277,0.326-1.367-1.028-2.246-0.653
	c-1.646,0.702-0.577-0.002-1.894-0.489c-0.568-0.211-1.029,0.513-1.418,0.326c-0.64-0.306-1.701-2.438-2.836-2.122
	c-0.102,0.027-0.392,0.437-0.592,0.325c-0.078-0.217-0.156-0.435-0.236-0.652c-0.263-0.19-4.188-0.938-4.608-0.816
	c-1.245,0.36-2.802,0.585-3.9,0.816c-0.762,0.16-1.568-0.654-2.481-0.327c-1.933,0.692-4.597,1.135-6.62,1.797
	c-1.259,0.412-3.218-0.066-4.138-0.326c-0.039,0-0.079,0-0.118,0c-0.54-0.086-0.831,0.37-1.184,0.489
	c-0.395-0.054-0.789-0.107-1.183-0.163c-0.189,0.083-0.408,0.537-0.592,0.653c-0.082-0.033-0.235-0.327-0.235-0.327
	c-0.628-0.065-0.173,0.555-0.946,0.164c-0.016-0.009-0.055-0.319-0.237-0.164c-0.038,0.164-0.077,0.327-0.116,0.489
	c-0.275-0.216-0.554-0.435-0.827-0.652c-0.813,2.2-2.57,1.118-3.664,1.96c-0.123-0.245-0.175-0.322-0.354-0.489
	c-0.271-0.323-1.647,0.915-2.481,0.653c-1.091-0.342-1.384,1.193-2.603,0.815c-0.879-0.273-1.154,0.661-2.127,0.327
	c-0.43-0.147-1.2-0.584-1.892-0.327c-0.761,0.282-3.444,1.304-3.548,1.471c-0.464-0.127-0.416-0.175-0.591-0.653
	c-1.252-0.021-2.899-0.044-3.548,0.817c-0.429-0.121-0.327,0.016-0.473-0.49c-0.28,0.139-0.217,0.396-0.354,0.49
	c-0.354-0.056-0.709-0.109-1.063-0.164c-0.286,0.105-0.634,0.592-1.064,0.489c-0.433-0.104-1.274-0.611-2.009-0.327
	c-0.068,0.027-0.225,0.329-0.354,0.327c-0.273-0.004-0.383-0.473-0.828-0.327c-0.135,0.043-0.482,0.443-0.592,0.49
	c-0.591-0.057-1.181-0.109-1.772-0.164c-0.151,0.08-0.14,0.633-0.473,0.49c-0.079-0.164-0.158-0.326-0.237-0.49
	c-0.136,0.189-0.218,0.462-0.354,0.652c-0.484,0.305-1.975-0.278-2.838,0c-0.963,0.313-2.084,0.148-3.072,0
	c-0.556-0.084-0.67,0.546-0.945,0.653c-0.403,0.159-0.762-0.55-1.063-0.653c-0.354,0.055-0.709,0.109-1.063,0.163
	c-0.155-0.048-0.555-0.421-0.71-0.489c-0.747-0.33-1.946-0.088-2.602-0.653c-1.127,0.037-1.223-0.211-1.772-0.816
	c-0.267-0.285-0.457,0.519-0.946,0.327c-0.038-0.015-0.283-0.469-0.354-0.49c-0.224-0.069-1.303,0.324-1.894,0.327
	c-0.349-0.518-0.694-1.136-1.063-1.633c0-0.056,0-0.109,0-0.164c-0.468,0.266-0.447,0.73-0.946,0.979
	c-0.507,0.465-0.78-0.073-1.063-0.327c-0.627,0.568-0.873-0.202-1.302,0c-1.009,0.003-0.86-0.459-1.3-1.145
	c-0.298-0.169-0.871,0.461-1.537,0.164c-0.383-0.17-0.704-0.646-1.182-0.816c-0.272-0.165-0.281-0.038-0.475,0.327
	c-0.346-0.235-0.748-1.03-0.945-1.471c-0.32,0.22-0.332,0.529-0.592,0.815c-0.058,0.085-1.475-0.835-1.771-1.144
	c-0.74-0.014-0.877,0.118-1.182,0.653c-0.471-0.333-0.643-0.947-1.185-1.308c-0.265,0.483-0.77,0.876-1.182,1.144
	c-0.28-0.603-0.73-1.113-1.302-1.307c-0.26-0.14-0.131-0.127-0.354,0.163c-0.73-0.236-1.461-1.853-2.128-1.471
	c-0.892,0.002-0.744,0.309-1.183,0.815c0,0.056,0,0.109,0,0.164c-0.039,0-0.078,0-0.118,0c-0.194-0.527-0.322-0.716-0.709-0.979
	c-0.167,0.322-0.157,0.344-0.474,0.49c-0.121,0.132-0.028,0.06-0.235,0.163c-0.104-0.296-0.198-0.593-0.354-0.816
	c0-0.055,0-0.108,0-0.163c-0.294,0.239-0.137-0.04-0.234,0.489c-0.67-0.001-0.813,0.107-1.064,0.653
	c-0.184-0.245-0.268-0.414-0.354-0.816c-1.107,0.409-1.703-0.108-2.364-1.145c-0.796,0.175-1.863,1.257-2.482,0.49
	c-0.581,0.077-0.614,0.286-0.827,0.816c-0.38-0.134-1.092-0.817-1.654-0.489c-0.159,0.272-0.317,0.545-0.473,0.816
	c-0.315-0.056-0.632-0.108-0.946-0.163c-0.373,0.203-0.248,0.574-0.945,0.652c-0.099,0.297-0.208,0.731-0.354,0.98
	c-0.271,0.164-0.28,0.037-0.474-0.327c-0.588,0.182-0.354,0.538-0.709,0.816c-0.394,0.056-0.787,0.108-1.182,0.163
	c-0.688,0.262-1.802,0.879-2.363,1.471c-0.715-0.215-0.765-1.19-1.185-1.797c-0.295,1.021-0.655,2.403-1.418,2.775
	c-0.231,0.121-0.795-0.311-1.063-0.652c-0.293,0.241-0.187,0.068-0.236,0.652c-0.376,0.136-0.649,0.394-0.944,0.164
	c-0.455-0.224-0.17-0.245-0.354-0.49c-0.248-0.373-0.662,0.69-0.945,0.816c-0.275-0.055-0.553-0.109-0.827-0.163
	c-0.039,0.163-0.078,0.326-0.118,0.49c-0.282,0.425-0.825,0.667-1.3,0.815c-0.321-0.38-0.455-0.287-0.593-0.979
	c-0.038,0-0.077,0-0.118,0c-0.188,0.403-0.334,0.648-0.709,0.816c-0.199,0.129-0.907-0.187-1.182-0.489
	c-0.474,0.145-0.861,0.741-1.183,1.144c-0.667-0.173-0.632-0.747-1.063-1.144c-0.238,0.185-0.353,0.175-0.591,0
	c-0.039,0-0.078,0-0.118,0c-0.039-0.163-0.078-0.326-0.117-0.49c-0.693-0.389-1.666,0.867-2.481,0.49
	c-1.64-0.758-0.933-0.071-2.246,0.489c-0.315-0.056-0.63-0.108-0.945-0.164c-0.034,0.011-0.399,0.361-0.473,0.326
	c-0.084-0.041-0.182-0.58-0.354-0.489c-0.813,0.424-1.615,1.14-2.72,1.308c-0.154,1.702-3.379,1.695-4.255,0.815
	c-0.431,0.314-0.531,1.074-0.945,1.471c-0.261,0.185-0.756-0.379-0.944-0.816c-0.675,0.196-2.101,1.447-2.957,0.653
	c-0.861,0.156-0.546,0.902-1.063,1.307c-0.473,0.057-0.945,0.11-1.418,0.164c-0.556,0.279-1.005,1.188-1.537,1.471
	c-0.396,0.057-0.788,0.109-1.183,0.164c-0.128,0.126-0.097,0.675-0.236,0.815c-0.216,0.219-0.708-0.078-0.945,0.164
	c-0.04,0.271-0.079,0.544-0.118,0.815c-0.59,0.851-1.235-0.281-1.892,0c-0.559,0.239-0.717,0.837-1.419,0.652
	c-0.117,0.273-0.236,0.545-0.354,0.817c-0.274,0-0.552,0-0.826,0c-0.28,0.183-0.557,0.971-0.828,1.143
	c-0.512-0.054-1.023-0.107-1.536-0.163c-0.743,0.274-1.298,0.676-2.364,0.653c0,0.217,0,0.436,0,0.653
	c-1.144,0.136-2.32,0.49-3.311,0.815c-0.787,0.259-1.626-0.209-2.128-0.327c-0.578-0.136-0.724,0.47-1.3,0.327
	c-0.094-0.021-0.434-0.262-0.709-0.164c-0.65,0.23-2.084,1.469-2.838,0.817c-0.58,0.076-0.614,0.286-0.826,0.815
	c-1.461-0.063-1.535-0.399-2.719,0.164c-0.168-0.248-0.328-0.358-0.475-0.652c-0.764,0.06-1.132,0.488-1.654,0.652
	c-0.591-0.108-1.182-0.219-1.772-0.326c-0.903,0.248-2.036-0.002-3.073,0.326c-0.296,0.094-1.099,0.716-1.3,0.652
	c-0.039-0.163-0.079-0.326-0.118-0.489c-0.63-0.431-1.935,0.211-2.246,0.326c-0.484,0.181-0.729-0.246-0.945-0.326
	c-1.09-0.41-2.118,1.029-2.838-0.163c-0.763-0.026-1.108,0.074-1.418,0.652c-0.713-0.018-0.896-0.317-1.3-0.489
	c-0.815-0.35-1.405,0.227-2.246-0.163c-0.868,0.056-1.735,0.108-2.601,0.163c-0.495-0.149-1.939-0.477-2.603-0.163
	c-0.039,0.108-0.077,0.219-0.116,0.326c-0.615,0.281-0.887-0.375-1.42,0c-0.171,0.119-0.402,0.722-0.592,0.816
	c-0.037,0-0.078,0-0.117,0c-0.517,0.146-0.664-0.373-0.945-0.49c-0.524-0.218-0.973,0.302-1.182,0.327
	c-0.227,0.027-0.162-0.122-0.237-0.164c-0.677,0.025-0.733,0.192-0.946,0.817c-0.865-0.048-1.752-0.674-2.719-0.327
	c-0.538,0.192-1.388,0.392-2.246,0.327c-0.454-0.035-1.065-0.363-1.655-0.163c-0.556,0.186-1.335,0.627-1.892,0.814
	c-1.233,0.42-2.67-0.279-3.782,0.164c-0.462,0.185-1.013,0.82-1.418,0.98c-0.541,0.213-0.677-0.394-1.064-0.327
	c-0.308,0.051-0.938,0.535-1.301,0.652c-1.655,0.108-3.31,0.219-4.965,0.327c-0.464-0.156-1.028-0.761-1.773-0.489
	c-0.569,0.207-1.383,1.076-2.364,0.652c-0.175-0.074-0.53-0.611-0.709-0.652c-0.236-0.056-0.457,0.291-0.591,0.326
	c-0.407,0.109-0.698-0.261-0.946-0.326c-0.787-0.213-0.771,0.709-1.537,0.489c-0.191-0.056-0.363-0.396-0.709-0.327
	c-0.392,0.082-0.911,0.521-1.534,0.327c-0.446-0.139-1.003-0.397-1.537-0.489c0-24.008,0-48.022,0-72.03
	c204.25,0,408.562,0,612.811,0c0,12.194,0,24.393,0,36.587c0,3.267,0,6.534,0,9.8c0,1.08,0.218,3.17-0.116,3.92
	c0,0.109,0,0.219,0,0.327c-0.647-0.54-0.653-0.308-1.418,0c-0.136-0.392-0.27-0.847-0.475-1.144c0-0.057,0-0.109,0-0.164
	c-0.329,0.229-0.266,0.46-0.473,0.815c-0.076,0.282-0.024,0.16-0.118,0.327c-0.039-0.216-0.078-0.434-0.119-0.651
	c-0.493,0.145-0.397,0.324-0.709,0.651c-0.276,0.327-1.367-1.026-2.246-0.651c-1.645,0.702-0.577-0.002-1.892-0.49
	c-0.569-0.212-1.031,0.512-1.418,0.327c-0.641-0.308-1.703-2.439-2.838-2.124c-0.104,0.028-0.391,0.436-0.592,0.326
	c-0.078-0.218-0.156-0.436-0.235-0.653c-0.264-0.19-4.189-0.938-4.61-0.816c-1.245,0.36-2.803,0.585-3.9,0.816
	c-0.762,0.161-1.569-0.654-2.481-0.326c-1.931,0.693-4.595,1.134-6.62,1.797c-1.259,0.412-3.219-0.066-4.138-0.327
	c-0.039,0-0.078,0-0.118,0c-0.539-0.087-0.83,0.371-1.182,0.49c-0.395-0.055-0.788-0.108-1.182-0.163
	c-0.19,0.084-0.409,0.537-0.593,0.653c-0.082-0.032-0.235-0.326-0.235-0.326c-0.627-0.065-0.173,0.554-0.945,0.163
	c-0.016-0.008-0.055-0.319-0.236-0.163c-0.039,0.163-0.078,0.326-0.117,0.49c-0.274-0.217-0.553-0.436-0.826-0.653
	c-0.815,2.2-2.57,1.118-3.666,1.96c-0.121-0.245-0.175-0.323-0.354-0.49c-0.27-0.322-1.648,0.914-2.482,0.653
	c-1.091-0.342-1.384,1.194-2.602,0.816c-0.879-0.274-1.155,0.66-2.127,0.326c-0.43-0.146-1.199-0.584-1.893-0.326
	c-0.76,0.281-3.442,1.303-3.545,1.47c-0.465-0.127-0.418-0.174-0.592-0.653c-1.252-0.021-2.898-0.045-3.548,0.816
	c-0.429-0.12-0.327,0.016-0.473-0.49c-0.28,0.139-0.218,0.396-0.354,0.49c-0.354-0.057-0.709-0.109-1.063-0.164
	c-0.286,0.104-0.633,0.593-1.063,0.489c-0.435-0.103-1.276-0.611-2.011-0.326c-0.068,0.025-0.223,0.329-0.354,0.326
	c-0.272-0.004-0.383-0.473-0.827-0.326c-0.136,0.044-0.483,0.441-0.591,0.489c-0.59-0.056-1.183-0.108-1.773-0.164
	c-0.154,0.08-0.141,0.633-0.475,0.489c-0.078-0.163-0.156-0.325-0.235-0.489c-0.138,0.19-0.218,0.462-0.354,0.653
	c-0.483,0.305-1.975-0.278-2.838,0c-0.964,0.313-2.084,0.148-3.072,0c-0.557-0.084-0.67,0.544-0.945,0.653
	c-0.404,0.16-0.762-0.549-1.063-0.653c-0.354,0.057-0.709,0.109-1.063,0.163c-0.156-0.049-0.554-0.421-0.709-0.49
	c-0.747-0.329-1.947-0.088-2.602-0.651c-1.127,0.038-1.222-0.21-1.772-0.816c-0.268-0.286-0.457,0.52-0.946,0.326
	c-0.038-0.015-0.285-0.468-0.354-0.49c-0.223-0.069-1.302,0.324-1.893,0.326c-0.349-0.517-0.696-1.136-1.063-1.633
	c0-0.056,0-0.109,0-0.164c-0.468,0.266-0.446,0.73-0.946,0.979c-0.507,0.466-0.78-0.071-1.063-0.325
	c-0.625,0.567-0.871-0.202-1.301,0c-1.009,0.003-0.86-0.459-1.3-1.146c-0.298-0.169-0.871,0.461-1.537,0.164
	c-0.383-0.171-0.705-0.646-1.183-0.816c-0.271-0.164-0.279-0.036-0.472,0.326c-0.346-0.233-0.75-1.029-0.946-1.47
	c-0.32,0.219-0.332,0.529-0.591,0.816c-0.059,0.085-1.476-0.837-1.772-1.146c-0.739-0.013-0.877,0.119-1.182,0.654
	c-0.469-0.333-0.642-0.948-1.183-1.308c-0.266,0.483-0.77,0.876-1.183,1.144c-0.28-0.603-0.729-1.113-1.301-1.308
	c-0.26-0.139-0.132-0.127-0.354,0.164c-0.731-0.235-1.461-1.853-2.127-1.471c-0.892,0.002-0.743,0.311-1.183,0.816
	c-0.107,0.176,0.011,0.015-0.118,0.163c-0.194-0.527-0.322-0.716-0.709-0.979c-0.169,0.322-0.157,0.345-0.475,0.49
	c-0.121,0.132-0.028,0.06-0.235,0.164c-0.104-0.296-0.198-0.593-0.354-0.817c0-0.055,0-0.107,0-0.163
	c-0.295,0.241-0.139-0.04-0.237,0.49c-0.669-0.002-0.812,0.108-1.063,0.653c-0.185-0.245-0.269-0.414-0.354-0.816
	c-1.105,0.408-1.703-0.107-2.363-1.144c-0.795,0.174-1.863,1.256-2.481,0.489c-0.582,0.076-0.616,0.287-0.827,0.816
	c-0.379-0.135-1.092-0.818-1.654-0.49c-0.158,0.272-0.315,0.545-0.474,0.816c-0.313-0.055-0.631-0.109-0.944-0.164
	c-0.373,0.203-0.248,0.576-0.945,0.653c-0.101,0.296-0.209,0.729-0.355,0.979c-0.27,0.164-0.278,0.037-0.473-0.327
	c-0.588,0.184-0.355,0.538-0.709,0.817c-0.394,0.054-0.788,0.108-1.182,0.163c-0.689,0.262-1.803,0.878-2.364,1.47
	c-0.715-0.214-0.765-1.189-1.183-1.796c-0.297,1.021-0.655,2.404-1.418,2.776c-0.233,0.12-0.795-0.312-1.064-0.653
	c-0.292,0.242-0.188,0.069-0.236,0.653c-0.376,0.135-0.65,0.393-0.945,0.164c-0.453-0.226-0.168-0.245-0.354-0.49
	c-0.248-0.374-0.663,0.69-0.946,0.815c-0.274-0.056-0.552-0.108-0.827-0.163c-0.038,0.162-0.078,0.325-0.117,0.489
	c-0.283,0.426-0.826,0.666-1.301,0.816c-0.319-0.38-0.455-0.289-0.592-0.98c-0.039,0-0.078,0-0.117,0
	c-0.188,0.404-0.336,0.65-0.709,0.816c-0.201,0.129-0.908-0.186-1.184-0.49c-0.473,0.146-0.859,0.742-1.182,1.145
	c-0.668-0.174-0.63-0.746-1.064-1.145c-0.236,0.186-0.352,0.175-0.59,0c-0.04,0-0.079,0-0.119,0
	c-0.039-0.163-0.078-0.326-0.117-0.49c-0.693-0.388-1.666,0.868-2.481,0.49c-1.64-0.756-0.933-0.07-2.246,0.49
	c-0.315-0.056-0.631-0.109-0.945-0.163c-0.034,0.01-0.398,0.362-0.473,0.326c-0.084-0.041-0.18-0.58-0.354-0.49
	c-0.813,0.424-1.614,1.138-2.72,1.307c-0.154,1.702-3.378,1.695-4.255,0.816c-0.43,0.313-0.531,1.075-0.945,1.47
	c-0.261,0.187-0.756-0.379-0.945-0.814c-0.674,0.193-2.101,1.445-2.956,0.651c-0.861,0.156-0.544,0.902-1.063,1.309
	c-0.472,0.054-0.945,0.107-1.418,0.163c-0.556,0.277-1.005,1.186-1.537,1.47c-0.395,0.055-0.788,0.107-1.183,0.164
	c-0.126,0.126-0.097,0.675-0.236,0.814c-0.216,0.221-0.708-0.077-0.945,0.164c-0.038,0.272-0.079,0.544-0.118,0.816
	c-0.59,0.85-1.235-0.282-1.892,0c-0.56,0.239-0.717,0.837-1.418,0.651c-0.119,0.272-0.237,0.546-0.354,0.816
	c-0.275,0-0.553,0-0.827,0c-0.279,0.184-0.558,0.972-0.828,1.146c-0.512-0.056-1.022-0.109-1.536-0.163
	c-0.74,0.272-1.297,0.675-2.363,0.651c0,0.217,0,0.437,0,0.654C436.994,65.484,435.817,65.839,434.793,66.191z M334.23,67.634
	c-0.118,0-0.236,0-0.354,0c0,0.054,0,0.107,0,0.163c0.204,0.104,0.115,0.031,0.236,0.164
	C334.206,67.793,334.155,67.921,334.23,67.634z M337.538,67.635c0-0.057,0-0.109,0-0.164c-0.039,0-0.078,0-0.118,0
	c0-0.054,0-0.108,0-0.163c-0.089,0.176-0.073,0.151-0.116,0.49C337.382,67.743,337.46,67.689,337.538,67.635z"/>
</svg>
