<?xml version="1.0" encoding="utf-8"?>
<!-- Generator: Adobe Illustrator 16.0.0, SVG Export Plug-In . SVG Version: 6.00 Build 0)  -->
<!DOCTYPE svg PUBLIC "-//W3C//DTD SVG 1.1//EN" "http://www.w3.org/Graphics/SVG/1.1/DTD/svg11.dtd">
<svg version="1.1" id="Layer_1" xmlns="http://www.w3.org/2000/svg" xmlns:xlink="http://www.w3.org/1999/xlink" x="0px" y="0px"
	 width="5184px" height="626px" viewBox="0 0 5184 626" enable-background="new 0 0 5184 626" xml:space="preserve">
<path fill-rule="evenodd" clip-rule="evenodd" fill="#FFF" d="M2724.212,561.483c0,0.218,0,0.436,0,0.654
	c1.067-0.023,1.622,0.379,2.364,0.653c0.512-0.054,1.024-0.109,1.536-0.163c0.271,0.172,0.549,0.961,0.828,1.144
	c0.276,0,0.552,0,0.828,0c0.118,0.272,0.236,0.544,0.355,0.816c0.701-0.184,0.858,0.414,1.418,0.653c0.656,0.282,1.302-0.85,1.892,0
	c0.039,0.272,0.079,0.544,0.118,0.816c0.237,0.242,0.729-0.055,0.945,0.164c0.14,0.14,0.11,0.69,0.236,0.816
	c0.395,0.055,0.788,0.109,1.183,0.164c0.532,0.284,0.981,1.192,1.537,1.47c0.473,0.054,0.946,0.109,1.418,0.163
	c0.518,0.406,0.202,1.152,1.063,1.307c0.857-0.794,2.282,0.458,2.956,0.653c0.191-0.436,0.685-1.001,0.946-0.816
	c0.413,0.395,0.515,1.156,0.946,1.47c0.877-0.879,4.099-0.886,4.255,0.816c1.105,0.169,1.906,0.883,2.719,1.307
	c0.174,0.09,0.271-0.449,0.355-0.49c0.074-0.036,0.439,0.316,0.473,0.326c0.314-0.054,0.63-0.108,0.945-0.163
	c1.314,0.56,0.608,1.246,2.246,0.49c0.817-0.378,1.788,0.878,2.482,0.49c0.04-0.164,0.079-0.327,0.118-0.49c0.04,0,0.079,0,0.119,0
	c0.238-0.175,0.353-0.184,0.59,0c0.433-0.398,0.396-0.971,1.064-1.144c0.323,0.403,0.709,0.999,1.182,1.144
	c0.275-0.304,0.983-0.619,1.183-0.49c0.374,0.166,0.52,0.412,0.709,0.816c0.04,0,0.079,0,0.118,0
	c0.137-0.691,0.272-0.599,0.591-0.98c0.474,0.15,1.017,0.39,1.3,0.816c0.039,0.164,0.079,0.327,0.118,0.49
	c0.276-0.054,0.552-0.108,0.828-0.163c0.283,0.125,0.698,1.19,0.946,0.816c0.185-0.245-0.1-0.265,0.354-0.49
	c0.295-0.23,0.569,0.029,0.945,0.164c0.049,0.584-0.056,0.411,0.236,0.653c0.269-0.342,0.831-0.774,1.064-0.653
	c0.763,0.372,1.122,1.755,1.418,2.776c0.419-0.606,0.468-1.582,1.183-1.796c0.561,0.592,1.675,1.208,2.364,1.47
	c0.394,0.055,0.788,0.109,1.182,0.163c0.354,0.279,0.121,0.634,0.709,0.817c0.194-0.364,0.203-0.491,0.473-0.327
	c0.146,0.249,0.255,0.683,0.355,0.98c0.697,0.077,0.573,0.45,0.946,0.653c0.314-0.055,0.63-0.109,0.945-0.164
	c0.158,0.272,0.315,0.544,0.473,0.816c0.563,0.329,1.276-0.355,1.655-0.49c0.211,0.53,0.245,0.74,0.827,0.817
	c0.618-0.766,1.685,0.316,2.482,0.49c0.661-1.036,1.257-1.552,2.364-1.144c0.086-0.402,0.17-0.571,0.354-0.816
	c0.251,0.545,0.394,0.655,1.064,0.653c0.098,0.53-0.058,0.249,0.237,0.49c0-0.054,0-0.108,0-0.163
	c0.155-0.223,0.25-0.52,0.354-0.817c0.208,0.104,0.115,0.032,0.236,0.164c0.317,0.146,0.306,0.168,0.473,0.49
	c0.387-0.263,0.515-0.452,0.709-0.979c0.129,0.148,0.011-0.013,0.119,0.163c0.44,0.506,0.292,0.814,1.182,0.816
	c0.667,0.382,1.396-1.235,2.128-1.47c0.222,0.291,0.094,0.302,0.354,0.164c0.572-0.195,1.021-0.705,1.301-1.307
	c0.413,0.267,0.917,0.66,1.182,1.143c0.542-0.36,0.714-0.974,1.182-1.307c0.305,0.535,0.444,0.667,1.182,0.654
	c0.297-0.308,1.714-1.23,1.773-1.144c0.258,0.287,0.27,0.596,0.591,0.816c0.197-0.44,0.6-1.236,0.946-1.47
	c0.193,0.364,0.201,0.491,0.472,0.327c0.477-0.17,0.799-0.646,1.182-0.817c0.666-0.297,1.239,0.333,1.537,0.164
	c0.44-0.685,0.291-1.148,1.3-1.144c0.429,0.202,0.675-0.569,1.301,0c0.283-0.254,0.555-0.791,1.063-0.326
	c0.5,0.249,0.479,0.713,0.946,0.98c0-0.055,0-0.109,0-0.164c0.368-0.497,0.714-1.116,1.064-1.633c0.59,0.002,1.67,0.395,1.892,0.326
	c0.07-0.022,0.317-0.475,0.354-0.49c0.489-0.193,0.678,0.612,0.946,0.326c0.551-0.606,0.646-0.854,1.773-0.816
	c0.655-0.565,1.854-0.323,2.601-0.653c0.155-0.069,0.553-0.441,0.709-0.49c0.354,0.054,0.709,0.108,1.063,0.163
	c0.302-0.103,0.66-0.813,1.064-0.653c0.276,0.109,0.389,0.737,0.946,0.653c0.989-0.148,2.109-0.312,3.073,0
	c0.863,0.279,2.353-0.304,2.837,0c0.136,0.192,0.217,0.463,0.354,0.654c0.079-0.164,0.158-0.327,0.236-0.49
	c0.334-0.142,0.321,0.41,0.474,0.49c0.591-0.055,1.182-0.109,1.773-0.164c0.109,0.047,0.455,0.446,0.591,0.49
	c0.445,0.145,0.555-0.323,0.827-0.327c0.131-0.002,0.286,0.3,0.354,0.327c0.734,0.285,1.576-0.224,2.01-0.327
	c0.43-0.103,0.778,0.384,1.064,0.49c0.354-0.055,0.709-0.109,1.064-0.164c0.136,0.093,0.074,0.35,0.354,0.49
	c0.145-0.506,0.044-0.37,0.473-0.49c0.649,0.861,2.296,0.838,3.547,0.816c0.174-0.479,0.127-0.526,0.591-0.653
	c0.103,0.167,2.786,1.188,3.546,1.47c0.693,0.257,1.462-0.18,1.892-0.327c0.971-0.334,1.248,0.6,2.127,0.327
	c1.218-0.378,1.511,1.158,2.601,0.816c0.834-0.261,2.212,0.976,2.483,0.653c0.179-0.167,0.232-0.245,0.354-0.49
	c1.095,0.842,2.85-0.24,3.665,1.96c0.275-0.218,0.552-0.436,0.827-0.653c0.04,0.164,0.079,0.327,0.118,0.49
	c0.182,0.156,0.221-0.155,0.236-0.163c0.773-0.391,0.318,0.228,0.946,0.163c0,0,0.154-0.294,0.236-0.326
	c0.182,0.116,0.402,0.569,0.591,0.653c0.394-0.054,0.788-0.108,1.182-0.163c0.351,0.119,0.643,0.577,1.182,0.49
	c0.04,0,0.079,0,0.118,0c0.919-0.26,2.879-0.739,4.138-0.327c2.025,0.663,4.689,1.104,6.62,1.797
	c0.912,0.328,1.719-0.487,2.482-0.326c1.097,0.231,2.656,0.456,3.901,0.816c0.421,0.122,4.346-0.626,4.61-0.816
	c0.079-0.218,0.157-0.436,0.236-0.654c0.201-0.11,0.489,0.298,0.591,0.327c1.135,0.315,2.198-1.818,2.838-2.124
	c0.387-0.185,0.849,0.539,1.418,0.327c1.316-0.489,0.247-1.193,1.892-0.49c0.879,0.375,1.968-0.98,2.246-0.653
	c0.31,0.327,0.215,0.507,0.709,0.653c0.04-0.218,0.079-0.436,0.119-0.653c0.094,0.167,0.042,0.045,0.118,0.327
	c0.207,0.357,0.143,0.586,0.473,0.817c0-0.055,0-0.109,0-0.164c0.205-0.297,0.339-0.752,0.473-1.144c0.765,0.308,0.772,0.54,1.418,0
	c0,0.109,0,0.218,0,0.327c0.335,0.75,0.118,2.84,0.118,3.92c0,3.266,0,6.533,0,9.8c0,12.194,0,24.393,0,36.587
	c-204.249,0-408.561,0-612.811,0c0-24.008,0-48.023,0-72.03c0.535-0.092,1.091-0.351,1.537-0.49
	c0.623-0.194,1.143,0.246,1.536,0.327c0.344,0.07,0.516-0.272,0.709-0.327c0.764-0.219,0.75,0.702,1.537,0.49
	c0.248-0.067,0.538-0.436,0.946-0.327c0.134,0.036,0.354,0.381,0.591,0.327c0.177-0.041,0.534-0.578,0.709-0.654
	c0.981-0.423,1.794,0.447,2.364,0.654c0.745,0.27,1.308-0.333,1.773-0.49c1.655,0.109,3.31,0.218,4.965,0.327
	c0.362,0.118,0.993,0.601,1.301,0.653c0.388,0.066,0.523-0.54,1.064-0.327c0.406,0.16,0.956,0.796,1.418,0.98
	c1.113,0.445,2.549-0.256,3.783,0.164c0.556,0.189,1.335,0.629,1.891,0.816c0.59,0.2,1.201-0.128,1.655-0.163
	c0.86-0.066,1.708,0.134,2.246,0.327c0.967,0.346,1.855-0.28,2.719-0.327c0.213,0.625,0.27,0.792,0.946,0.817
	c0.075-0.042,0.011-0.191,0.237-0.164c0.21,0.025,0.659,0.545,1.182,0.327c0.281-0.117,0.429-0.635,0.946-0.49
	c0.039,0,0.079,0,0.118,0c0.189,0.095,0.421,0.697,0.591,0.816c0.534,0.375,0.804-0.281,1.419,0
	c0.039,0.109,0.079,0.218,0.118,0.327c0.663,0.314,2.107-0.013,2.601-0.163c0.866,0.054,1.734,0.108,2.601,0.163
	c0.84-0.389,1.431,0.186,2.246-0.163c0.403-0.172,0.587-0.471,1.3-0.49c0.308,0.578,0.655,0.679,1.418,0.653
	c0.718-1.193,1.747,0.247,2.837-0.163c0.215-0.081,0.462-0.507,0.946-0.327c0.31,0.116,1.616,0.757,2.246,0.327
	c0.039-0.164,0.079-0.327,0.118-0.49c0.201-0.063,1.004,0.559,1.3,0.653c1.037,0.329,2.17,0.079,3.073,0.327
	c0.591-0.109,1.182-0.218,1.773-0.327c0.523,0.164,0.89,0.592,1.655,0.653c0.146-0.294,0.306-0.405,0.473-0.653
	c1.184,0.563,1.258,0.227,2.719,0.164c0.212,0.53,0.246,0.74,0.827,0.816c0.754-0.652,2.188,0.587,2.837,0.817
	c0.277,0.098,0.617-0.141,0.709-0.164c0.578-0.141,0.722,0.463,1.3,0.327c0.502-0.118,1.341-0.585,2.128-0.327
	c0.99,0.326,2.167,0.68,3.31,0.817c0,0.217,0,0.435,0,0.653c1.067-0.023,1.622,0.379,2.365,0.653
	c0.512-0.055,1.024-0.109,1.536-0.163c0.271,0.172,0.548,0.96,0.828,1.143c0.276,0,0.552,0,0.827,0
	c0.118,0.272,0.237,0.544,0.354,0.817c0.703-0.184,0.86,0.413,1.419,0.653c0.657,0.282,1.302-0.85,1.892,0
	c0.039,0.272,0.078,0.544,0.118,0.816c0.237,0.242,0.729-0.055,0.945,0.164c0.14,0.14,0.109,0.69,0.236,0.816
	c0.395,0.054,0.788,0.108,1.183,0.164c0.532,0.284,0.981,1.192,1.537,1.47c0.473,0.054,0.945,0.109,1.418,0.164
	c0.517,0.405,0.202,1.152,1.064,1.307c0.857-0.794,2.282,0.457,2.956,0.653c0.19-0.436,0.684-1.001,0.945-0.816
	c0.414,0.395,0.515,1.156,0.946,1.47c0.876-0.879,4.099-0.886,4.255,0.816c1.104,0.168,1.906,0.884,2.719,1.307
	c0.173,0.09,0.271-0.449,0.355-0.49c0.073-0.035,0.439,0.317,0.473,0.327c0.315-0.055,0.63-0.109,0.945-0.164
	c1.314,0.56,0.607,1.247,2.246,0.49c0.817-0.377,1.788,0.878,2.482,0.49c0.039-0.164,0.079-0.327,0.118-0.49c0.04,0,0.079,0,0.118,0
	c0.239-0.175,0.353-0.185,0.591,0c0.432-0.398,0.396-0.971,1.064-1.144c0.322,0.403,0.709,0.999,1.182,1.144
	c0.275-0.303,0.983-0.619,1.182-0.49c0.374,0.167,0.521,0.413,0.709,0.817c0.04,0,0.079,0,0.118,0
	c0.137-0.692,0.271-0.599,0.592-0.98c0.474,0.15,1.017,0.391,1.3,0.817c0.04,0.164,0.079,0.327,0.118,0.49
	c0.276-0.054,0.552-0.109,0.828-0.163c0.283,0.126,0.697,1.19,0.945,0.816c0.185-0.245-0.1-0.265,0.354-0.49
	c0.296-0.23,0.569,0.029,0.945,0.164c0.05,0.584-0.056,0.411,0.237,0.653c0.268-0.342,0.831-0.774,1.064-0.653
	c0.762,0.372,1.122,1.754,1.418,2.776c0.419-0.607,0.469-1.582,1.183-1.796c0.562,0.591,1.675,1.208,2.364,1.47
	c0.394,0.054,0.788,0.108,1.182,0.163c0.353,0.279,0.121,0.634,0.709,0.817c0.193-0.365,0.202-0.492,0.473-0.327
	c0.146,0.249,0.255,0.682,0.354,0.98c0.697,0.078,0.572,0.45,0.945,0.653c0.315-0.054,0.631-0.108,0.946-0.163
	c0.157,0.272,0.315,0.544,0.473,0.817c0.563,0.328,1.276-0.356,1.655-0.49c0.212,0.531,0.246,0.74,0.828,0.817
	c0.619-0.766,1.685,0.316,2.482,0.49c0.661-1.036,1.257-1.553,2.364-1.144c0.086-0.402,0.171-0.571,0.354-0.816
	c0.251,0.545,0.394,0.654,1.064,0.653c0.098,0.53-0.058,0.25,0.236,0.49c0-0.055,0-0.109,0-0.163c0.156-0.224,0.25-0.52,0.354-0.817
	c0.207,0.103,0.115,0.031,0.236,0.163c0.317,0.146,0.306,0.168,0.473,0.49c0.387-0.263,0.515-0.452,0.709-0.98
	c0.04,0,0.079,0,0.118,0c0,0.055,0,0.109,0,0.164c0.44,0.507,0.292,0.814,1.183,0.816c0.667,0.382,1.397-1.235,2.128-1.47
	c0.222,0.29,0.094,0.302,0.354,0.163c0.571-0.194,1.021-0.704,1.301-1.306c0.412,0.267,0.917,0.66,1.182,1.143
	c0.542-0.361,0.714-0.974,1.183-1.307c0.305,0.535,0.443,0.667,1.182,0.653c0.297-0.308,1.714-1.229,1.773-1.143
	c0.258,0.286,0.27,0.596,0.591,0.816c0.197-0.441,0.599-1.236,0.945-1.47c0.194,0.365,0.203,0.492,0.474,0.327
	c0.477-0.17,0.799-0.646,1.182-0.817c0.666-0.297,1.239,0.333,1.537,0.164c0.44-0.685,0.291-1.148,1.3-1.144
	c0.428,0.202,0.674-0.569,1.3,0c0.284-0.254,0.556-0.792,1.064-0.327c0.499,0.249,0.479,0.714,0.946,0.98c0-0.054,0-0.109,0-0.164
	c0.368-0.497,0.714-1.116,1.063-1.633c0.59,0.003,1.67,0.396,1.892,0.327c0.071-0.022,0.317-0.475,0.354-0.49
	c0.489-0.192,0.679,0.613,0.946,0.327c0.55-0.606,0.646-0.854,1.773-0.817c0.655-0.565,1.854-0.323,2.601-0.653
	c0.155-0.069,0.554-0.442,0.71-0.49c0.354,0.054,0.709,0.109,1.063,0.163c0.301-0.103,0.66-0.813,1.064-0.653
	c0.275,0.108,0.389,0.737,0.945,0.653c0.989-0.149,2.11-0.312,3.073,0c0.863,0.279,2.353-0.304,2.837,0
	c0.136,0.191,0.218,0.463,0.354,0.653c0.079-0.164,0.158-0.326,0.237-0.49c0.333-0.142,0.321,0.41,0.473,0.49
	c0.591-0.054,1.182-0.108,1.773-0.164c0.11,0.047,0.456,0.447,0.591,0.49c0.445,0.145,0.555-0.323,0.828-0.327
	c0.13-0.002,0.286,0.3,0.354,0.327c0.734,0.285,1.576-0.223,2.009-0.327c0.43-0.102,0.778,0.384,1.064,0.49
	c0.354-0.055,0.709-0.109,1.063-0.164c0.136,0.093,0.074,0.351,0.354,0.49c0.145-0.506,0.044-0.369,0.473-0.49
	c0.649,0.861,2.296,0.837,3.547,0.817c0.174-0.479,0.128-0.526,0.591-0.653c0.103,0.167,2.787,1.188,3.547,1.47
	c0.692,0.257,1.462-0.179,1.891-0.327c0.972-0.334,1.248,0.6,2.128,0.327c1.218-0.378,1.511,1.158,2.601,0.816
	c0.834-0.261,2.211,0.976,2.483,0.654c0.179-0.167,0.231-0.245,0.354-0.49c1.094,0.842,2.85-0.24,3.664,1.96
	c0.275-0.218,0.552-0.436,0.827-0.653c0.04,0.163,0.079,0.326,0.118,0.49c0.181,0.155,0.221-0.156,0.237-0.164
	c0.773-0.391,0.318,0.229,0.946,0.164c0,0,0.154-0.294,0.236-0.327c0.183,0.116,0.402,0.57,0.591,0.653
	c0.394-0.055,0.788-0.109,1.183-0.163c0.351,0.119,0.642,0.576,1.182,0.49c0.039,0,0.079,0,0.118,0
	c0.92-0.26,2.879-0.739,4.138-0.327c2.025,0.663,4.689,1.104,6.62,1.797c0.913,0.327,1.72-0.488,2.483-0.327
	c1.097,0.232,2.655,0.456,3.9,0.817c0.421,0.122,4.346-0.626,4.61-0.817c0.079-0.218,0.158-0.435,0.236-0.653
	c0.2-0.111,0.49,0.298,0.591,0.326c1.135,0.316,2.197-1.817,2.837-2.123c0.387-0.186,0.848,0.538,1.418,0.327
	c1.316-0.488,0.247-1.192,1.892-0.49c0.879,0.375,1.969-0.98,2.246-0.653c0.31,0.327,0.214,0.507,0.709,0.653
	c0.04-0.218,0.079-0.436,0.118-0.653c0.096,0.167,0.042,0.044,0.118,0.326c0.207,0.358,0.143,0.587,0.474,0.817
	c0-0.055,0-0.109,0-0.163c0.205-0.297,0.339-0.752,0.473-1.144c0.765,0.308,0.772,0.54,1.418,0c0.22,0.678,0.267,0.25,0.591,0.49
	c0.081,0.126,0.155,0.365,0.237,0.49c0.205-0.216,0.189-0.282,0.354-0.163c0.108,0.152,0.157,0.287,0.236,0.49
	c0.433-0.192,0.96-0.607,1.3-0.163c0.18,0.243,0.292,0.575,0.473,0.816c0.101-0.238,0.214-0.468,0.355-0.653
	c0.887,1.073,2.351-0.518,3.073-0.817c0.434,0,0.867,0,1.301,0c0.276-0.191,0.279-0.959,0.591-1.143c0.434,0,0.867,0,1.3,0
	c0.197-0.327,0.395-0.654,0.592-0.98c0.709-0.055,1.418-0.109,2.128-0.164c0.13-0.114,0.187-0.704,0.354-0.816
	c0.512-0.055,1.024-0.109,1.536-0.164c0.414-0.211,0.608-0.992,0.946-1.307c0.459-0.427,1.075-0.403,1.537-0.817
	c0.118-0.217,0.236-0.435,0.355-0.653c0.377-0.214,0.483,0.298,0.59,0.327c0.41,0.11,0.193-0.364,0.354-0.49
	c0.706-0.552,1.858,0.252,2.483,0c0.208-0.084,0.239-0.637,0.473-0.327c0.309,0.274,0.392,0.354,0.473,0.98
	c0.61-0.134,0.577-0.598,0.946-0.816c0.801-0.476,2.164,0.637,2.719,0.816c0.743,0.241,1.008-0.484,1.418-0.653
	c0.852-0.352,0.973,0.889,1.892,0.49c0.194-0.084,0.516-0.566,0.709-0.653c0.749-0.055,1.497-0.109,2.246-0.164
	c0.158-0.272,0.315-0.544,0.473-0.817c0.433-0.108,0.866-0.217,1.3-0.326c0.176-0.129,0.398-0.707,0.591-0.817
	c0.592,0,1.183,0,1.774,0c0.744-0.282,1.765-0.701,2.6-0.98c0.354,0,0.71,0,1.064,0c0.278-0.129,0.566-0.674,0.828-0.816
	c0.748-0.109,1.497-0.218,2.246-0.327c0.641-0.25,1.374-0.915,2.01-1.144c0.56-0.202,1.693,0.258,1.892,0.653
	c0.259-0.115,0.201-0.535,0.354-0.653c0.433,0.054,0.866,0.109,1.3,0.163c0.216-0.091,0.577-0.565,0.828-0.653
	c0.715-0.25,1.083,0.689,1.892,0.326c0.273-0.123,0.57-0.699,0.827-0.816c0.271-0.123,0.624,0.141,0.709,0.163
	c0,0,2.127-0.489,2.128-0.49c0.157-0.272,0.315-0.544,0.473-0.817c0.512,0.055,1.025,0.109,1.537,0.164
	c0.118-0.218,0.236-0.436,0.354-0.653c0.522-0.268,0.578,0.507,1.182,0.327c0.88-0.264,2.029-0.825,2.956-1.144
	c1.024-0.054,2.049-0.109,3.073-0.163c0.225,0.075,1.164,0.714,1.3,0.653c0.558-0.251,0.683-0.774,1.655-0.816
	c0.236,0.272,0.473,0.544,0.709,0.816c0.111-0.628,0.236-0.581,0.592-0.816c0,0.109,0,0.218,0,0.327
	c0.109,0.214-0.042,0.205,0.118,0.49c0.244,0.301,1.268,0.387,1.418,0.327c0.193-0.244,0.414-0.55,0.591-0.817
	c0.621,0.047,0.887,0.348,1.3,0.49c0.611,0.21,0.86-0.222,1.3-0.326c0.199,0.371,0.475,0.655,0.828,0.816
	c0.079-0.074,2.818-1.464,2.837-1.47c0.104-0.181,0.118,0.164,0.118,0.164c0.283,0.254,0.346,0.477,0.709,0.653
	c0.161-0.206,0.208-0.223,0.473-0.327c0,0.164,0,0.327,0,0.49c0.694-0.108,1.448-1.123,2.128-0.653
	c0.461,0.215,0.494,0.519,1.063,0.653c0.267-0.36,0.597-0.563,1.064-0.653c0-0.164,0-0.327,0-0.49
	c0.669,0.055,1.34,0.109,2.009,0.163c0.066,0.262,0.095,0.393,0.119,0.817c0.276,0,0.551,0,0.827,0
	c0.001-0.704,1.929-0.8,2.483-1.307c0,0.164,0,0.327,0,0.49c0.359-0.012,0.324-0.123,0.473,0c0.212,0.201,0.293,0.423,0.473,0.654
	c0-0.055,0-0.109,0-0.164c0.255-0.219,0.424-0.45,0.709-0.653c0-0.163,0-0.327,0-0.49c0.656,0.007,1.474-0.232,1.892-0.653
	c-0.217-0.256-0.165-0.144-0.237-0.653c0.039,0,0.079,0,0.118,0c0.44,0.465,0.785,0.423,1.064,1.143
	c0.742-0.48,1.463-1.239,2.246-1.633c0.328-0.165,0.937,0.084,1.064,0c0.039-0.164,0.079-0.327,0.118-0.49
	c0.512-0.055,1.024-0.109,1.537-0.164c0.591-0.381,1.182-0.762,1.773-1.144c0.59,0.055,1.182,0.109,1.773,0.164
	c0.733-0.267,1.11-0.467,1.891-0.164c0.806-1.662,0.89-0.009,1.892-0.49c0.103-0.05,0.369-0.605,0.473-0.654
	c0.405-0.188,0.472,0.386,0.827,0.327l0.355-0.327c0.828,0.055,1.655,0.109,2.482,0.164c0.253-0.096,0.609-0.553,0.828-0.653
	c1.036-0.474,1.897,0.764,3.073,0.327c0.119-0.044,0.5-0.465,0.591-0.49c0.242-0.066,1.232,0.49,1.891,0.49
	c1.064-0.109,2.128-0.218,3.191-0.327c1.265,0.423,2.86,0.853,4.138,1.307c0.63,0,1.261,0,1.892,0
	c0.816,0.31,2.101,1.012,3.191,0.49c0.232,0.153,0.334,0.695,0.591,0.817c0.158-0.055,0.315-0.109,0.473-0.164
	c0.478,0.187,1.24,0.573,1.892,0.816c0.394,0,0.788,0,1.182,0c1.664,0.552,3.752,1.106,5.438,1.47
	c0.33,0.071,1.138-0.163,1.655-0.163c0.737,0,1.327,0.152,1.773,0.327c0.947,0.37,1.871-0.282,2.719-0.327
	c0.212,0.625,0.27,0.792,0.946,0.816c0.074-0.042,0.011-0.19,0.236-0.164c0.21,0.026,0.659,0.545,1.183,0.327
	c0.281-0.117,0.429-0.636,0.945-0.49c0.04,0,0.079,0,0.118,0c0.189,0.096,0.421,0.698,0.591,0.816c0.534,0.375,0.804-0.281,1.418,0
	c0.039,0.109,0.079,0.218,0.118,0.327c0.663,0.314,2.107-0.013,2.601-0.164c0.867,0.055,1.734,0.109,2.601,0.164
	c0.84-0.39,1.431,0.185,2.246-0.164c0.402-0.172,0.587-0.471,1.301-0.49c0.308,0.578,0.654,0.679,1.418,0.653
	c0.718-1.193,1.747,0.247,2.837-0.164c0.215-0.081,0.462-0.507,0.945-0.327c0.311,0.116,1.617,0.756,2.247,0.327
	c0.039-0.164,0.079-0.327,0.118-0.49c0.201-0.063,1.004,0.559,1.3,0.653c1.037,0.329,2.17,0.079,3.073,0.327
	c0.591-0.109,1.182-0.218,1.773-0.327c0.523,0.164,0.89,0.591,1.655,0.653c0.146-0.293,0.306-0.405,0.473-0.653
	c1.183,0.563,1.258,0.226,2.719,0.163c0.212,0.53,0.246,0.74,0.828,0.817c0.753-0.652,2.188,0.587,2.837,0.816
	c0.277,0.098,0.617-0.141,0.709-0.163c0.578-0.141,0.722,0.463,1.3,0.327c0.502-0.118,1.341-0.585,2.127-0.327
	C2721.891,560.992,2723.068,561.347,2724.212,561.483z M2620.186,558.87c-0.121,0.131-0.032,0.058-0.236,0.164
	c0,0.054,0,0.109,0,0.163c0.118,0,0.236,0,0.354,0C2620.229,558.91,2620.28,559.038,2620.186,558.87z M2623.377,559.033
	c0.044,0.339,0.029,0.314,0.118,0.49c0-0.055,0-0.109,0-0.163c0.04,0,0.079,0,0.118,0c0-0.055,0-0.109,0-0.164
	C2623.535,559.142,2623.456,559.087,2623.377,559.033z M2643.118,578.633c0.04,0.164,0.079,0.327,0.119,0.49c0.04,0,0.079,0,0.118,0
	C2643.255,578.733,2643.308,578.854,2643.118,578.633z"/>
</svg>
