<?xml version="1.0" encoding="utf-8"?>
<!-- Generator: Adobe Illustrator 16.0.0, SVG Export Plug-In . SVG Version: 6.00 Build 0)  -->
<!DOCTYPE svg PUBLIC "-//W3C//DTD SVG 1.1//EN" "http://www.w3.org/Graphics/SVG/1.1/DTD/svg11.dtd">
<svg version="1.1" id="Layer_1" xmlns="http://www.w3.org/2000/svg" xmlns:xlink="http://www.w3.org/1999/xlink" x="0px" y="0px"
	 width="612.697px" height="74.161px" viewBox="0 0 612.697 74.161" enable-background="new 0 0 612.697 74.161"
	 xml:space="preserve">
<path fill="#FFFFFF" d="M438.137,9.688c0,0.218,0,0.438,0,0.654c1.066-0.023,1.623,0.379,2.363,0.651
	c0.514-0.054,1.024-0.107,1.536-0.163c0.271,0.174,0.549,0.962,0.828,1.146c0.274,0,0.552,0,0.827,0
	c0.117,0.271,0.235,0.544,0.354,0.816c0.701-0.186,0.858,0.412,1.418,0.651c0.656,0.282,1.302-0.85,1.892,0
	c0.039,0.272,0.08,0.544,0.118,0.816c0.237,0.241,0.729-0.057,0.945,0.164c0.14,0.14,0.11,0.688,0.236,0.814
	c0.395,0.057,0.788,0.109,1.183,0.164c0.532,0.284,0.981,1.192,1.537,1.47c0.473,0.056,0.946,0.109,1.418,0.163
	c0.52,0.406,0.202,1.152,1.063,1.309c0.855-0.794,2.282,0.458,2.956,0.651c0.189-0.436,0.685-1.001,0.945-0.814
	c0.414,0.395,0.516,1.156,0.945,1.47c0.877-0.879,4.101-0.886,4.255,0.816c1.105,0.169,1.906,0.883,2.72,1.307
	c0.175,0.09,0.271-0.449,0.354-0.49c0.074-0.036,0.438,0.316,0.473,0.326c0.314-0.054,0.63-0.107,0.945-0.163
	c1.313,0.561,0.606,1.246,2.246,0.49c0.815-0.378,1.788,0.878,2.481,0.49c0.039-0.164,0.078-0.327,0.117-0.49
	c0.04,0,0.079,0,0.119,0c0.238-0.175,0.354-0.186,0.59,0c0.435-0.398,0.396-0.971,1.064-1.145c0.322,0.402,0.709,0.998,1.182,1.145
	c0.275-0.305,0.982-0.619,1.184-0.49c0.373,0.166,0.521,0.412,0.709,0.816c0.039,0,0.078,0,0.117,0
	c0.137-0.691,0.272-0.601,0.592-0.98c0.475,0.15,1.018,0.391,1.301,0.816c0.039,0.164,0.079,0.327,0.117,0.489
	c0.275-0.055,0.553-0.107,0.827-0.163c0.283,0.125,0.698,1.189,0.946,0.815c0.186-0.245-0.1-0.265,0.354-0.49
	c0.295-0.229,0.569,0.029,0.945,0.164c0.049,0.584-0.056,0.411,0.236,0.653c0.27-0.342,0.831-0.773,1.064-0.653
	c0.763,0.372,1.121,1.755,1.418,2.776c0.418-0.606,0.468-1.582,1.183-1.796c0.562,0.592,1.675,1.208,2.364,1.47
	c0.394,0.055,0.788,0.109,1.182,0.163c0.354,0.279,0.121,0.634,0.709,0.817c0.194-0.364,0.203-0.491,0.473-0.327
	c0.146,0.249,0.255,0.683,0.355,0.979c0.697,0.077,0.572,0.45,0.945,0.653c0.313-0.055,0.631-0.109,0.944-0.164
	c0.158,0.271,0.315,0.544,0.474,0.816c0.563,0.328,1.275-0.355,1.654-0.49c0.211,0.529,0.245,0.74,0.827,0.816
	c0.618-0.767,1.687,0.315,2.481,0.489c0.66-1.036,1.258-1.552,2.363-1.144c0.086-0.402,0.17-0.571,0.354-0.816
	c0.251,0.545,0.394,0.655,1.063,0.653c0.099,0.53-0.058,0.249,0.237,0.49c0-0.056,0-0.108,0-0.163
	c0.155-0.225,0.25-0.521,0.354-0.817c0.207,0.104,0.114,0.032,0.235,0.164c0.317,0.146,0.306,0.168,0.475,0.49
	c0.387-0.264,0.515-0.452,0.709-0.979c0.129,0.148,0.011-0.013,0.118,0.163c0.439,0.506,0.291,0.814,1.183,0.816
	c0.666,0.382,1.396-1.235,2.127-1.471c0.223,0.291,0.095,0.303,0.354,0.164c0.571-0.194,1.021-0.705,1.301-1.308
	c0.413,0.268,0.917,0.66,1.183,1.144c0.541-0.359,0.714-0.975,1.183-1.308c0.305,0.535,0.442,0.667,1.182,0.654
	c0.297-0.309,1.714-1.23,1.772-1.146c0.259,0.287,0.271,0.598,0.591,0.816c0.196-0.44,0.601-1.236,0.946-1.47
	c0.192,0.362,0.2,0.49,0.472,0.326c0.478-0.17,0.8-0.646,1.183-0.816c0.666-0.297,1.239,0.333,1.537,0.164
	c0.439-0.687,0.291-1.148,1.3-1.146c0.43,0.202,0.676-0.567,1.301,0c0.283-0.254,0.557-0.791,1.063-0.325
	c0.5,0.249,0.479,0.714,0.946,0.979c0-0.055,0-0.108,0-0.164c0.366-0.497,0.714-1.116,1.063-1.633
	c0.591,0.002,1.67,0.396,1.893,0.326c0.069-0.022,0.316-0.476,0.354-0.49c0.489-0.193,0.679,0.612,0.946,0.326
	c0.551-0.606,0.646-0.854,1.772-0.816c0.654-0.563,1.854-0.322,2.602-0.651c0.155-0.069,0.553-0.441,0.709-0.49
	c0.354,0.054,0.709,0.106,1.063,0.163c0.302-0.104,0.659-0.813,1.063-0.653c0.275,0.109,0.389,0.737,0.945,0.653
	c0.988-0.148,2.108-0.313,3.072,0c0.863,0.278,2.354-0.305,2.838,0c0.137,0.191,0.217,0.463,0.354,0.653
	c0.079-0.164,0.157-0.326,0.235-0.489c0.334-0.144,0.32,0.409,0.475,0.489c0.591-0.056,1.184-0.108,1.773-0.164
	c0.107,0.048,0.455,0.445,0.591,0.489c0.444,0.146,0.555-0.322,0.827-0.326c0.131-0.003,0.285,0.301,0.354,0.326
	c0.734,0.285,1.576-0.224,2.011-0.326c0.431-0.104,0.777,0.385,1.063,0.489c0.354-0.055,0.709-0.107,1.063-0.164
	c0.137,0.094,0.074,0.352,0.354,0.49c0.146-0.506,0.044-0.37,0.473-0.49c0.649,0.861,2.296,0.838,3.548,0.816
	c0.174-0.479,0.127-0.526,0.592-0.653c0.103,0.167,2.785,1.188,3.545,1.47c0.693,0.258,1.463-0.18,1.893-0.326
	c0.972-0.334,1.248,0.601,2.127,0.326c1.218-0.378,1.511,1.158,2.602,0.816c0.834-0.261,2.213,0.976,2.482,0.653
	c0.179-0.167,0.232-0.245,0.354-0.49c1.096,0.842,2.851-0.24,3.666,1.96c0.273-0.218,0.552-0.437,0.826-0.653
	c0.039,0.164,0.078,0.327,0.117,0.49c0.182,0.156,0.221-0.155,0.236-0.163c0.772-0.391,0.318,0.229,0.945,0.163
	c0,0,0.153-0.294,0.235-0.326c0.184,0.116,0.402,0.569,0.593,0.653c0.394-0.055,0.787-0.108,1.182-0.163
	c0.352,0.119,0.643,0.577,1.182,0.49c0.04,0,0.079,0,0.118,0c0.919-0.261,2.879-0.739,4.138-0.327
	c2.025,0.663,4.689,1.104,6.62,1.797c0.912,0.328,1.72-0.487,2.481-0.326c1.098,0.231,2.655,0.456,3.9,0.816
	c0.421,0.122,4.347-0.626,4.61-0.816c0.079-0.218,0.157-0.436,0.235-0.653c0.201-0.109,0.488,0.298,0.592,0.326
	c1.135,0.315,2.197-1.816,2.838-2.124c0.387-0.185,0.849,0.539,1.418,0.327c1.314-0.488,0.247-1.192,1.892-0.49
	c0.879,0.375,1.97-0.979,2.246-0.651c0.312,0.327,0.216,0.507,0.709,0.651c0.041-0.218,0.08-0.436,0.119-0.651
	c0.094,0.167,0.042,0.045,0.118,0.327c0.207,0.355,0.144,0.586,0.473,0.815c0-0.055,0-0.107,0-0.164
	c0.205-0.297,0.339-0.752,0.475-1.144c0.765,0.308,0.771,0.54,1.418,0c0,0.108,0,0.218,0,0.327c0.334,0.75,0.116,2.84,0.116,3.92
	c0,3.266,0,6.533,0,9.8c0,12.194,0,24.393,0,36.587c-204.249,0-408.561,0-612.811,0c0-24.008,0-48.022,0-72.03
	c0.534-0.092,1.091-0.351,1.537-0.489C2.068,1.48,2.588,1.918,2.979,2C3.325,2.07,3.497,1.729,3.688,1.673
	c0.766-0.22,0.75,0.702,1.537,0.489c0.248-0.065,0.539-0.436,0.946-0.326c0.134,0.035,0.354,0.382,0.591,0.326
	C6.941,2.122,7.297,1.584,7.471,1.51c0.981-0.424,1.795,0.445,2.364,0.652c0.745,0.271,1.31-0.333,1.773-0.489
	c1.655,0.108,3.31,0.219,4.965,0.327c0.362,0.117,0.993,0.602,1.301,0.652c0.388,0.066,0.523-0.54,1.064-0.327
	c0.405,0.16,0.956,0.796,1.418,0.98c1.112,0.443,2.549-0.256,3.782,0.164c0.557,0.188,1.336,0.629,1.892,0.814
	c0.59,0.2,1.201-0.128,1.655-0.163c0.858-0.064,1.708,0.135,2.246,0.327c0.967,0.347,1.854-0.279,2.719-0.327
	c0.213,0.625,0.27,0.792,0.946,0.817c0.075-0.042,0.011-0.191,0.237-0.164c0.209,0.025,0.657,0.545,1.182,0.327
	c0.281-0.117,0.429-0.636,0.945-0.49c0.039,0,0.08,0,0.117,0c0.189,0.095,0.421,0.697,0.592,0.816c0.533,0.375,0.805-0.281,1.42,0
	c0.039,0.107,0.077,0.218,0.116,0.326c0.663,0.313,2.107-0.014,2.603-0.163c0.865,0.055,1.732,0.107,2.601,0.163
	c0.841-0.39,1.431,0.187,2.246-0.163c0.403-0.172,0.587-0.472,1.3-0.489c0.31,0.578,0.655,0.679,1.418,0.652
	c0.72-1.192,1.748,0.247,2.838-0.163c0.216-0.08,0.461-0.507,0.945-0.326c0.312,0.115,1.616,0.757,2.246,0.326
	c0.039-0.163,0.079-0.326,0.118-0.489c0.201-0.063,1.004,0.559,1.3,0.652c1.037,0.328,2.17,0.078,3.073,0.326
	c0.591-0.107,1.182-0.218,1.772-0.326c0.522,0.164,0.891,0.593,1.654,0.652c0.146-0.294,0.307-0.404,0.475-0.652
	c1.184,0.563,1.258,0.228,2.719,0.164c0.212,0.529,0.246,0.739,0.826,0.815c0.754-0.651,2.188,0.587,2.838,0.817
	c0.275,0.098,0.615-0.143,0.709-0.164c0.576-0.143,0.722,0.463,1.3,0.327c0.502-0.118,1.341-0.586,2.128-0.327
	c0.99,0.325,2.167,0.68,3.311,0.815c0,0.218,0,0.437,0,0.653c1.066-0.022,1.621,0.379,2.364,0.653
	c0.513-0.056,1.024-0.109,1.536-0.163c0.271,0.172,0.548,0.96,0.828,1.143c0.274,0,0.552,0,0.826,0
	c0.117,0.272,0.236,0.544,0.354,0.817c0.702-0.185,0.86,0.413,1.419,0.652c0.656,0.281,1.302-0.851,1.892,0
	c0.039,0.271,0.078,0.544,0.118,0.815c0.237,0.242,0.729-0.055,0.945,0.164c0.14,0.141,0.108,0.689,0.236,0.815
	c0.395,0.055,0.787,0.107,1.183,0.164c0.532,0.283,0.981,1.191,1.537,1.471c0.473,0.054,0.945,0.107,1.418,0.164
	c0.518,0.404,0.202,1.15,1.063,1.307c0.856-0.794,2.282,0.457,2.957,0.653c0.188-0.438,0.684-1.001,0.944-0.816
	c0.414,0.396,0.515,1.156,0.945,1.471c0.876-0.88,4.101-0.887,4.255,0.815c1.104,0.168,1.906,0.884,2.72,1.308
	c0.173,0.091,0.271-0.448,0.354-0.489c0.073-0.035,0.438,0.315,0.473,0.326c0.315-0.056,0.63-0.108,0.945-0.164
	c1.313,0.561,0.606,1.247,2.246,0.489c0.815-0.377,1.788,0.879,2.481,0.49c0.039-0.164,0.078-0.327,0.117-0.49
	c0.04,0,0.079,0,0.118,0c0.238-0.175,0.353-0.185,0.591,0c0.432-0.396,0.396-0.971,1.063-1.144c0.321,0.402,0.709,0.999,1.183,1.144
	c0.274-0.303,0.982-0.618,1.182-0.489c0.375,0.168,0.521,0.413,0.709,0.816c0.041,0,0.08,0,0.118,0
	c0.138-0.691,0.271-0.599,0.593-0.979c0.475,0.148,1.018,0.391,1.3,0.815c0.04,0.164,0.079,0.327,0.118,0.49
	c0.274-0.054,0.552-0.108,0.827-0.163c0.283,0.126,0.697,1.189,0.945,0.816c0.185-0.245-0.101-0.267,0.354-0.49
	c0.295-0.229,0.568,0.028,0.944,0.164c0.05,0.584-0.057,0.411,0.236,0.652c0.269-0.342,0.832-0.773,1.063-0.652
	c0.763,0.372,1.123,1.754,1.418,2.775c0.42-0.606,0.47-1.582,1.185-1.797c0.562,0.592,1.675,1.209,2.363,1.471
	c0.395,0.055,0.788,0.107,1.182,0.163c0.354,0.278,0.121,0.635,0.709,0.816c0.193-0.364,0.202-0.491,0.474-0.327
	c0.146,0.249,0.256,0.684,0.354,0.98c0.697,0.078,0.572,0.449,0.945,0.652c0.314-0.055,0.631-0.107,0.946-0.163
	c0.155,0.271,0.313,0.544,0.473,0.816c0.563,0.328,1.274-0.355,1.654-0.489c0.213,0.53,0.246,0.739,0.827,0.816
	c0.619-0.767,1.687,0.315,2.482,0.49c0.661-1.036,1.257-1.554,2.364-1.145c0.086-0.402,0.17-0.571,0.354-0.816
	c0.251,0.546,0.395,0.654,1.064,0.653c0.098,0.529-0.06,0.25,0.234,0.489c0-0.055,0-0.108,0-0.163
	c0.156-0.224,0.25-0.521,0.354-0.816c0.207,0.104,0.114,0.031,0.235,0.163c0.316,0.146,0.307,0.168,0.474,0.49
	c0.387-0.264,0.515-0.452,0.709-0.979c0.04,0,0.079,0,0.118,0c0,0.055,0,0.108,0,0.164c0.438,0.507,0.291,0.813,1.183,0.815
	c0.667,0.382,1.397-1.234,2.128-1.471c0.223,0.29,0.094,0.303,0.354,0.163c0.571-0.193,1.021-0.704,1.302-1.307
	c0.412,0.268,0.917,0.66,1.182,1.144c0.542-0.36,0.714-0.975,1.185-1.308c0.305,0.535,0.441,0.667,1.182,0.653
	c0.297-0.309,1.714-1.229,1.771-1.144c0.26,0.286,0.271,0.596,0.592,0.815c0.197-0.44,0.6-1.235,0.945-1.471
	c0.193,0.365,0.202,0.492,0.475,0.327c0.478-0.17,0.799-0.646,1.182-0.816c0.666-0.297,1.239,0.333,1.537,0.164
	c0.439-0.686,0.291-1.147,1.3-1.145c0.429,0.202,0.675-0.568,1.302,0c0.282-0.254,0.556-0.792,1.063-0.327
	c0.499,0.249,0.479,0.714,0.946,0.979c0-0.055,0-0.108,0-0.164c0.368-0.497,0.714-1.115,1.063-1.633
	c0.591,0.003,1.67,0.396,1.894,0.327c0.07-0.021,0.315-0.476,0.354-0.49c0.489-0.191,0.68,0.612,0.946,0.327
	c0.55-0.605,0.646-0.854,1.772-0.816c0.655-0.565,1.854-0.323,2.602-0.653c0.155-0.068,0.555-0.441,0.71-0.489
	c0.354,0.054,0.709,0.108,1.063,0.163c0.301-0.104,0.659-0.813,1.063-0.653c0.275,0.107,0.39,0.737,0.945,0.653
	c0.988-0.148,2.109-0.313,3.072,0c0.863,0.278,2.354-0.305,2.838,0c0.136,0.19,0.218,0.463,0.354,0.652
	c0.079-0.164,0.158-0.326,0.237-0.49c0.333-0.143,0.321,0.41,0.473,0.49c0.592-0.055,1.182-0.107,1.772-0.164
	c0.109,0.047,0.457,0.447,0.592,0.49c0.445,0.146,0.555-0.323,0.828-0.327c0.129-0.002,0.285,0.3,0.354,0.327
	c0.734,0.284,1.576-0.224,2.009-0.327c0.431-0.103,0.778,0.384,1.064,0.489c0.354-0.055,0.709-0.108,1.063-0.164
	c0.138,0.094,0.074,0.352,0.354,0.49c0.146-0.506,0.044-0.369,0.473-0.49c0.648,0.861,2.296,0.838,3.548,0.817
	c0.175-0.479,0.127-0.526,0.591-0.653c0.104,0.167,2.787,1.188,3.548,1.471c0.691,0.257,1.462-0.18,1.892-0.327
	c0.973-0.334,1.248,0.601,2.127,0.327c1.219-0.378,1.512,1.157,2.603,0.815c0.834-0.262,2.211,0.977,2.481,0.653
	c0.18-0.167,0.231-0.244,0.354-0.489c1.094,0.842,2.851-0.24,3.664,1.96c0.273-0.218,0.552-0.437,0.827-0.652
	c0.039,0.162,0.078,0.325,0.116,0.489c0.183,0.155,0.222-0.155,0.237-0.164c0.773-0.391,0.318,0.229,0.946,0.164
	c0,0,0.153-0.294,0.235-0.327c0.184,0.116,0.402,0.57,0.592,0.653c0.394-0.056,0.788-0.109,1.183-0.163
	c0.353,0.119,0.644,0.575,1.184,0.489c0.039,0,0.079,0,0.118,0c0.92-0.26,2.879-0.738,4.138-0.326
	c2.023,0.662,4.688,1.104,6.62,1.797c0.913,0.327,1.72-0.487,2.481-0.327c1.099,0.231,2.655,0.456,3.9,0.816
	c0.421,0.122,4.346-0.626,4.608-0.816c0.08-0.218,0.158-0.436,0.236-0.652c0.2-0.111,0.49,0.298,0.592,0.325
	c1.135,0.316,2.196-1.816,2.836-2.122c0.389-0.187,0.85,0.537,1.418,0.326c1.316-0.487,0.248-1.191,1.894-0.489
	c0.879,0.375,1.969-0.979,2.246-0.653c0.311,0.327,0.214,0.508,0.709,0.653c0.04-0.219,0.079-0.437,0.118-0.653
	c0.096,0.167,0.041,0.045,0.117,0.326c0.207,0.357,0.144,0.587,0.475,0.816c0-0.055,0-0.108,0-0.163
	c0.205-0.297,0.339-0.752,0.473-1.145c0.765,0.309,0.771,0.54,1.418,0c0.22,0.679,0.268,0.25,0.591,0.49
	c0.082,0.126,0.155,0.364,0.237,0.489c0.205-0.216,0.189-0.281,0.354-0.162c0.107,0.151,0.156,0.286,0.236,0.489
	c0.434-0.191,0.959-0.606,1.301-0.163c0.18,0.243,0.291,0.575,0.473,0.815c0.101-0.237,0.214-0.468,0.354-0.652
	c0.889,1.073,2.353-0.519,3.073-0.816c0.435,0,0.867,0,1.302,0c0.275-0.19,0.278-0.959,0.592-1.144c0.434,0,0.865,0,1.3,0
	c0.196-0.327,0.395-0.654,0.592-0.979c0.709-0.056,1.418-0.108,2.128-0.164c0.13-0.113,0.188-0.704,0.354-0.815
	c0.513-0.056,1.023-0.108,1.535-0.164c0.414-0.211,0.608-0.992,0.946-1.308c0.459-0.427,1.075-0.402,1.537-0.816
	c0.118-0.217,0.236-0.436,0.354-0.652c0.377-0.214,0.482,0.298,0.591,0.327c0.409,0.109,0.192-0.364,0.354-0.49
	c0.705-0.553,1.857,0.252,2.482,0c0.208-0.084,0.239-0.638,0.473-0.327c0.31,0.273,0.394,0.354,0.473,0.979
	c0.61-0.134,0.577-0.599,0.946-0.815c0.802-0.477,2.164,0.638,2.72,0.815c0.742,0.241,1.009-0.483,1.418-0.652
	c0.853-0.353,0.974,0.889,1.893,0.489c0.194-0.084,0.517-0.565,0.709-0.652c0.749-0.056,1.497-0.108,2.246-0.164
	c0.157-0.271,0.314-0.544,0.473-0.816c0.435-0.107,0.866-0.218,1.3-0.326c0.178-0.129,0.398-0.706,0.592-0.816
	c0.593,0,1.184,0,1.773,0c0.744-0.282,1.766-0.701,2.602-0.979c0.354,0,0.709,0,1.063,0c0.278-0.129,0.566-0.675,0.828-0.815
	c0.748-0.108,1.497-0.218,2.246-0.327c0.641-0.25,1.374-0.915,2.01-1.145c0.561-0.201,1.693,0.259,1.893,0.653
	c0.26-0.115,0.201-0.535,0.354-0.653c0.435,0.055,0.866,0.108,1.301,0.163c0.216-0.091,0.576-0.564,0.827-0.652
	c0.716-0.25,1.083,0.688,1.893,0.325c0.272-0.122,0.569-0.698,0.827-0.815c0.271-0.123,0.623,0.142,0.709,0.163
	c0,0,2.127-0.488,2.127-0.49c0.157-0.271,0.315-0.544,0.475-0.815c0.512,0.055,1.023,0.108,1.537,0.163
	c0.118-0.218,0.235-0.437,0.354-0.652c0.522-0.269,0.578,0.507,1.184,0.327c0.879-0.265,2.028-0.825,2.955-1.145
	c1.023-0.055,2.05-0.108,3.073-0.163c0.226,0.074,1.164,0.714,1.3,0.652c0.559-0.251,0.684-0.773,1.655-0.815
	c0.235,0.271,0.474,0.544,0.709,0.815c0.11-0.628,0.235-0.581,0.593-0.815c0,0.108,0,0.219,0,0.327
	c0.107,0.214-0.043,0.205,0.116,0.489c0.244,0.302,1.27,0.388,1.418,0.327c0.193-0.244,0.414-0.55,0.593-0.816
	c0.621,0.047,0.887,0.349,1.3,0.489c0.61,0.21,0.86-0.222,1.3-0.325c0.199,0.37,0.476,0.654,0.828,0.815
	c0.079-0.074,2.818-1.464,2.837-1.47c0.104-0.183,0.118,0.164,0.118,0.164c0.282,0.254,0.346,0.477,0.709,0.651
	c0.159-0.205,0.207-0.223,0.473-0.326c0,0.164,0,0.326,0,0.489c0.693-0.107,1.447-1.123,2.128-0.652
	c0.461,0.216,0.493,0.52,1.063,0.652c0.269-0.359,0.598-0.563,1.064-0.652c0-0.164,0-0.326,0-0.489
	c0.669,0.055,1.34,0.108,2.009,0.163c0.066,0.262,0.095,0.393,0.119,0.815c0.274,0,0.551,0,0.826,0
	c0.002-0.703,1.93-0.8,2.482-1.307c0,0.164,0,0.327,0,0.49c0.358-0.013,0.324-0.123,0.474,0c0.211,0.2,0.293,0.423,0.474,0.653
	c0-0.056,0-0.108,0-0.164c0.254-0.22,0.424-0.449,0.709-0.652c0-0.163,0-0.327,0-0.49c0.655,0.007,1.474-0.231,1.892-0.653
	c-0.217-0.256-0.164-0.144-0.236-0.651c0.039,0,0.079,0,0.117,0c0.44,0.465,0.785,0.423,1.063,1.143
	c0.742-0.479,1.463-1.238,2.246-1.633c0.328-0.165,0.938,0.084,1.063,0c0.039-0.164,0.08-0.327,0.118-0.49
	c0.513-0.055,1.023-0.107,1.537-0.164c0.591-0.381,1.183-0.762,1.772-1.144c0.59,0.055,1.182,0.108,1.772,0.164
	c0.732-0.269,1.109-0.468,1.892-0.164c0.807-1.662,0.891-0.009,1.893-0.49c0.104-0.05,0.369-0.604,0.473-0.653
	c0.405-0.188,0.473,0.387,0.827,0.326L357.13,1.5c0.828,0.056,1.654,0.108,2.481,0.163c0.253-0.096,0.608-0.553,0.828-0.651
	c1.035-0.476,1.896,0.764,3.072,0.326c0.118-0.044,0.5-0.466,0.592-0.489c0.241-0.066,1.231,0.489,1.892,0.489
	c1.063-0.108,2.127-0.219,3.19-0.326c1.265,0.423,2.858,0.853,4.138,1.307c0.63,0,1.262,0,1.893,0
	c0.815,0.311,2.102,1.012,3.19,0.49c0.231,0.152,0.334,0.694,0.591,0.816c0.158-0.056,0.315-0.108,0.474-0.164
	c0.479,0.188,1.239,0.572,1.893,0.815c0.395,0,0.788,0,1.183,0c1.664,0.552,3.752,1.106,5.438,1.47
	c0.33,0.071,1.138-0.163,1.654-0.163c0.736,0,1.326,0.152,1.772,0.327c0.947,0.37,1.871-0.281,2.72-0.327
	c0.211,0.625,0.27,0.792,0.945,0.816c0.073-0.042,0.012-0.19,0.235-0.164c0.211,0.026,0.659,0.545,1.185,0.327
	c0.28-0.117,0.429-0.637,0.944-0.49c0.04,0,0.079,0,0.117,0c0.188,0.096,0.422,0.698,0.592,0.816c0.533,0.375,0.804-0.281,1.418,0
	c0.039,0.107,0.079,0.218,0.117,0.326c0.664,0.313,2.106-0.014,2.603-0.164c0.866,0.056,1.733,0.108,2.602,0.164
	c0.84-0.391,1.431,0.186,2.246-0.164c0.4-0.172,0.586-0.472,1.301-0.489c0.309,0.578,0.654,0.679,1.418,0.652
	c0.719-1.192,1.747,0.247,2.837-0.163c0.216-0.081,0.462-0.509,0.944-0.327c0.313,0.115,1.617,0.756,2.248,0.327
	c0.039-0.164,0.078-0.327,0.117-0.49c0.201-0.063,1.004,0.559,1.301,0.652c1.037,0.329,2.17,0.079,3.072,0.327
	c0.592-0.108,1.182-0.219,1.772-0.327c0.522,0.164,0.89,0.592,1.654,0.652c0.146-0.293,0.307-0.404,0.474-0.652
	c1.184,0.563,1.259,0.227,2.72,0.163c0.212,0.529,0.246,0.739,0.827,0.816c0.754-0.651,2.188,0.587,2.838,0.815
	c0.276,0.099,0.616-0.142,0.709-0.162c0.577-0.143,0.722,0.463,1.3,0.326c0.502-0.117,1.341-0.585,2.127-0.326
	C435.817,9.197,436.994,9.552,438.137,9.688z M334.112,7.075c-0.121,0.133-0.032,0.06-0.236,0.164c0,0.056,0,0.109,0,0.163
	c0.118,0,0.236,0,0.354,0C334.155,7.115,334.206,7.243,334.112,7.075z M337.303,7.238c0.043,0.339,0.027,0.314,0.116,0.49
	c0-0.055,0-0.109,0-0.163c0.04,0,0.079,0,0.118,0c0-0.055,0-0.107,0-0.164C337.46,7.347,337.382,7.293,337.303,7.238z"/>
</svg>
