<?xml version="1.0" encoding="utf-8"?>
<!-- Generator: Adobe Illustrator 16.0.0, SVG Export Plug-In . SVG Version: 6.00 Build 0)  -->
<!DOCTYPE svg PUBLIC "-//W3C//DTD SVG 1.1//EN" "http://www.w3.org/Graphics/SVG/1.1/DTD/svg11.dtd">
<svg version="1.1" id="Layer_1" xmlns="http://www.w3.org/2000/svg" xmlns:xlink="http://www.w3.org/1999/xlink" x="0px" y="0px"
	 width="466.912px" height="73.345px" viewBox="2308.99 405.961 466.912 73.345"
	 enable-background="new 2308.99 405.961 466.912 73.345" xml:space="preserve">
<path fill="#FFF" d="M2775.903,479.305c-104.837,0-140.963,0-245.8,0c0-12.194,0-13.726,0-25.92c0-3.267,0-6.534,0-9.8
	c0-1.08-0.111-3.17,0.06-3.92c0-0.109,0-0.218,0-0.327c0.332,0.54,0.335,0.308,0.728,0c0.069,0.392,0.139,0.847,0.243,1.144
	c0,0.056,0,0.109,0,0.164c0.169-0.23,0.137-0.46,0.243-0.816c0.039-0.282,0.013-0.16,0.061-0.327c0.02,0.217,0.04,0.435,0.061,0.652
	c0.254-0.146,0.205-0.325,0.364-0.652c0.143-0.327,0.702,1.027,1.153,0.652c0.844-0.702,0.296,0.002,0.971,0.49
	c0.292,0.212,0.529-0.512,0.728-0.327c0.328,0.307,0.874,2.439,1.457,2.124c0.053-0.028,0.2-0.437,0.303-0.326
	c0.041,0.218,0.081,0.436,0.122,0.653c0.135,0.19,2.15,0.938,2.366,0.816c0.639-0.36,1.438-0.585,2.002-0.816
	c0.392-0.161,0.806,0.654,1.274,0.326c0.99-0.693,2.357-1.134,3.397-1.797c0.646-0.412,1.652,0.067,2.124,0.327
	c0.02,0,0.04,0,0.061,0c0.276,0.087,0.426-0.371,0.606-0.49c0.202,0.055,0.404,0.109,0.606,0.163
	c0.098-0.084,0.21-0.537,0.304-0.653c0.042,0.032,0.121,0.326,0.121,0.326c0.322,0.065,0.089-0.554,0.485-0.163
	c0.008,0.008,0.028,0.319,0.121,0.163c0.021-0.163,0.04-0.326,0.061-0.49c0.142,0.218,0.283,0.436,0.425,0.653
	c0.418-2.2,1.319-1.118,1.881-1.96c0.063,0.245,0.091,0.323,0.182,0.49c0.14,0.322,0.847-0.914,1.274-0.653
	c0.561,0.342,0.711-1.194,1.336-0.816c0.451,0.273,0.593-0.66,1.091-0.326c0.221,0.146,0.615,0.584,0.972,0.326
	c0.39-0.281,1.768-1.303,1.819-1.47c0.238,0.127,0.215,0.174,0.304,0.653c0.643,0.021,1.487,0.045,1.821-0.816
	c0.22,0.12,0.168-0.016,0.242,0.49c0.144-0.14,0.112-0.396,0.182-0.49c0.183,0.056,0.364,0.109,0.546,0.164
	c0.147-0.105,0.326-0.593,0.546-0.489c0.224,0.103,0.655,0.611,1.032,0.326c0.035-0.026,0.114-0.329,0.182-0.326
	c0.14,0.004,0.196,0.472,0.425,0.326c0.069-0.044,0.247-0.442,0.303-0.489c0.304,0.055,0.607,0.108,0.911,0.164
	c0.079-0.08,0.072-0.633,0.243-0.49c0.04,0.163,0.081,0.326,0.121,0.49c0.07-0.191,0.112-0.462,0.182-0.654
	c0.249-0.304,1.013,0.279,1.457,0c0.495-0.313,1.07-0.148,1.577,0c0.286,0.084,0.344-0.544,0.485-0.653
	c0.208-0.16,0.391,0.55,0.546,0.653c0.182-0.056,0.364-0.109,0.546-0.163c0.08,0.049,0.284,0.421,0.364,0.49
	c0.384,0.33,0.999,0.088,1.335,0.652c0.579-0.038,0.627,0.21,0.91,0.816c0.138,0.286,0.235-0.52,0.486-0.326
	c0.019,0.016,0.146,0.468,0.182,0.49c0.114,0.069,0.668-0.324,0.971-0.326c0.18,0.517,0.357,1.136,0.546,1.633
	c0,0.056,0,0.109,0,0.164c0.24-0.267,0.229-0.73,0.486-0.979c0.261-0.466,0.4,0.071,0.546,0.325c0.321-0.568,0.447,0.202,0.667,0
	c0.518-0.004,0.441,0.459,0.667,1.145c0.152,0.169,0.447-0.461,0.789-0.164c0.197,0.171,0.362,0.647,0.606,0.817
	c0.14,0.164,0.144,0.036,0.242-0.327c0.178,0.233,0.385,1.029,0.486,1.47c0.165-0.22,0.171-0.529,0.303-0.816
	c0.031-0.086,0.758,0.837,0.91,1.145c0.379,0.013,0.45-0.119,0.606-0.654c0.24,0.333,0.329,0.947,0.607,1.308
	c0.136-0.483,0.395-0.876,0.607-1.144c0.144,0.603,0.374,1.112,0.667,1.308c0.133,0.138,0.068,0.127,0.182-0.164
	c0.375,0.234,0.75,1.852,1.092,1.47c0.457-0.002,0.381-0.311,0.607-0.816c0.055-0.176-0.006-0.015,0.061-0.163
	c0.1,0.527,0.166,0.717,0.364,0.979c0.086-0.322,0.081-0.344,0.243-0.49c0.062-0.132,0.015-0.06,0.121-0.164
	c0.054,0.297,0.103,0.594,0.182,0.817c0,0.055,0,0.108,0,0.163c0.151-0.241,0.072,0.04,0.122-0.49
	c0.344,0.002,0.417-0.108,0.545-0.653c0.095,0.245,0.138,0.414,0.182,0.816c0.568-0.408,0.875,0.107,1.213,1.144
	c0.409-0.174,0.956-1.256,1.274-0.489c0.299-0.077,0.316-0.287,0.424-0.817c0.195,0.135,0.561,0.819,0.85,0.49
	c0.081-0.272,0.162-0.544,0.242-0.816c0.162,0.055,0.324,0.109,0.486,0.164c0.191-0.203,0.127-0.576,0.484-0.653
	c0.052-0.297,0.107-0.73,0.183-0.979c0.139-0.164,0.144-0.037,0.243,0.327c0.301-0.184,0.182-0.538,0.363-0.817
	c0.202-0.054,0.404-0.108,0.607-0.163c0.354-0.262,0.925-0.878,1.213-1.47c0.367,0.214,0.393,1.189,0.607,1.796
	c0.152-1.021,0.336-2.404,0.728-2.776c0.12-0.12,0.407,0.312,0.546,0.653c0.15-0.242,0.097-0.069,0.121-0.653
	c0.193-0.135,0.334-0.394,0.486-0.164c0.232,0.226,0.086,0.245,0.181,0.49c0.128,0.374,0.341-0.69,0.485-0.815
	c0.143,0.055,0.283,0.108,0.426,0.163c0.02-0.163,0.04-0.326,0.061-0.49c0.145-0.426,0.424-0.666,0.666-0.816
	c0.164,0.381,0.234,0.289,0.305,0.98c0.02,0,0.04,0,0.06,0c0.098-0.404,0.173-0.65,0.364-0.816c0.104-0.129,0.466,0.187,0.607,0.49
	c0.242-0.146,0.441-0.741,0.606-1.144c0.343,0.173,0.323,0.745,0.546,1.144c0.122-0.185,0.182-0.175,0.303,0
	c0.021,0,0.041,0,0.062,0c0.021,0.163,0.04,0.326,0.061,0.49c0.356,0.388,0.854-0.868,1.274-0.49c0.841,0.756,0.478,0.07,1.152-0.49
	c0.162,0.056,0.324,0.109,0.485,0.163c0.017-0.01,0.204-0.362,0.243-0.326c0.043,0.041,0.092,0.58,0.182,0.49
	c0.417-0.424,0.828-1.138,1.396-1.307c0.08-1.702,1.733-1.695,2.185-0.816c0.221-0.313,0.272-1.075,0.485-1.47
	c0.134-0.186,0.388,0.38,0.485,0.815c0.346-0.194,1.078-1.446,1.518-0.652c0.441-0.155,0.279-0.901,0.545-1.308
	c0.242-0.054,0.485-0.108,0.729-0.163c0.285-0.277,0.516-1.186,0.789-1.47c0.202-0.055,0.404-0.108,0.606-0.164
	c0.065-0.126,0.05-0.676,0.122-0.815c0.11-0.22,0.363,0.078,0.484-0.164c0.02-0.272,0.041-0.544,0.061-0.816
	c0.303-0.85,0.635,0.282,0.971,0c0.287-0.239,0.369-0.837,0.729-0.652c0.061-0.272,0.121-0.545,0.182-0.816c0.143,0,0.283,0,0.426,0
	c0.143-0.183,0.285-0.972,0.424-1.145c0.264,0.055,0.525,0.109,0.789,0.163c0.381-0.273,0.666-0.676,1.214-0.652
	c0-0.218,0-0.437,0-0.654c0.587-0.136,1.19-0.491,1.71-0.828c0.404-0.258,0.834,0.209,1.092,0.327
	c0.297,0.136,0.371-0.469,0.668-0.327c0.047,0.021,0.221,0.261,0.363,0.163c0.334-0.229,1.07-1.468,1.457-0.816
	c0.299-0.077,0.316-0.287,0.424-0.816c0.75,0.063,0.789,0.399,1.396-0.163c0.086,0.248,0.168,0.359,0.242,0.652
	c0.393-0.062,0.582-0.488,0.85-0.652c0.304,0.108,0.606,0.218,0.91,0.327c0.463-0.248,1.045,0.002,1.577-0.327
	c0.152-0.095,0.564-0.717,0.667-0.653c0.021,0.163,0.041,0.326,0.061,0.49c0.324,0.429,0.994-0.211,1.154-0.327
	c0.248-0.181,0.374,0.246,0.484,0.327c0.56,0.411,1.088-1.029,1.456,0.164c0.392,0.025,0.57-0.075,0.728-0.653
	c0.367,0.019,0.462,0.318,0.668,0.49c0.419,0.349,0.723-0.227,1.153,0.164c0.444-0.056,0.89-0.109,1.335-0.164
	c0.254,0.15,0.994,0.478,1.336,0.164c0.02-0.109,0.039-0.219,0.06-0.327c0.315-0.281,0.454,0.375,0.728,0
	c0.088-0.118,0.207-0.721,0.305-0.816c0.02,0,0.039,0,0.06,0c0.265-0.146,0.341,0.373,0.485,0.49
	c0.27,0.218,0.499-0.301,0.607-0.327c0.115-0.026,0.083,0.122,0.121,0.164c0.348-0.024,0.377-0.191,0.485-0.816
	c0.435,0.046,0.909,0.697,1.396,0.327c0.229-0.175,0.531-0.327,0.91-0.327c0.266,0,0.68,0.234,0.85,0.163
	c0.865-0.363,1.938-0.918,2.791-1.47c0.202,0,0.404,0,0.606,0c0.335-0.243,0.726-0.629,0.972-0.815
	c0.08,0.055,0.161,0.108,0.242,0.164c0.133-0.122,0.185-0.664,0.304-0.817c0.56,0.521,1.219-0.18,1.638-0.49
	c0.324,0,0.648,0,0.971,0c0.656-0.454,1.475-0.884,2.124-1.307c0.546,0.108,1.092,0.218,1.638,0.327c0.339,0,0.848-0.557,0.971-0.49
	c0.047,0.024,0.243,0.446,0.305,0.49c0.604,0.437,1.045-0.802,1.576-0.327c0.113,0.1,0.295,0.557,0.426,0.652
	c0.424-0.055,0.849-0.108,1.273-0.163l0.182,0.326c0.184,0.06,0.217-0.515,0.426-0.326c0.053,0.049,0.189,0.604,0.242,0.653
	c0.514,0.481,0.557-1.172,0.971,0.49c0.401-0.303,0.595-0.104,0.971,0.164c0.304-0.055,0.607-0.109,0.91-0.164
	c0.304,0.382,0.607,0.763,0.91,1.144c0.264,0.056,0.526,0.109,0.789,0.164c0.02,0.163,0.041,0.326,0.061,0.49
	c0.064,0.084,0.378-0.165,0.547,0c0.401,0.395,0.771,1.153,1.152,1.633c0.143-0.72,0.32-0.678,0.546-1.143c0.021,0,0.04,0,0.061,0
	c-0.037,0.509-0.011,0.396-0.122,0.652c0.215,0.422,0.635,0.66,0.971,0.653c0,0.163,0,0.327,0,0.49
	c0.146,0.203,0.234,0.434,0.364,0.653c0,0.055,0,0.108,0,0.164c0.093-0.231,0.134-0.453,0.243-0.654
	c0.076-0.123,0.059-0.012,0.242,0c0-0.163,0-0.326,0-0.49c0.285,0.507,1.273,0.604,1.275,1.307c0.141,0,0.282,0,0.424,0
	c0.013-0.424,0.027-0.555,0.061-0.816c0.344-0.054,0.688-0.108,1.031-0.163c0,0.163,0,0.326,0,0.49
	c0.24,0.09,0.409,0.293,0.547,0.652c0.292-0.134,0.309-0.438,0.545-0.652c0.35-0.471,0.736,0.545,1.093,0.652
	c0-0.163,0-0.325,0-0.489c0.136,0.104,0.16,0.121,0.242,0.326c0.187-0.176,0.22-0.398,0.364-0.652c0,0,0.008-0.346,0.061-0.164
	c0.01,0.006,1.416,1.396,1.456,1.47c0.182-0.161,0.323-0.445,0.425-0.815c0.226,0.104,0.354,0.535,0.668,0.325
	c0.211-0.142,0.348-0.442,0.666-0.489c0.092,0.267,0.205,0.572,0.305,0.816c0.076,0.061,0.602-0.025,0.728-0.327
	c0.082-0.284,0.005-0.275,0.06-0.489c0-0.109,0-0.219,0-0.327c0.184,0.234,0.248,0.188,0.305,0.815
	c0.121-0.271,0.242-0.544,0.364-0.815c0.499,0.042,0.563,0.564,0.85,0.815c0.069,0.062,0.552-0.578,0.667-0.652
	c0.525,0.054,1.052,0.108,1.577,0.163c0.476,0.318,1.065,0.88,1.517,1.144c0.311,0.18,0.34-0.595,0.607-0.327
	c0.061,0.217,0.121,0.436,0.182,0.653c0.264-0.055,0.526-0.109,0.789-0.164c0.081,0.272,0.162,0.545,0.242,0.816
	c0,0.002,1.092,0.49,1.092,0.49c0.045-0.021,0.226-0.286,0.364-0.163c0.132,0.117,0.285,0.693,0.425,0.816
	c0.416,0.363,0.604-0.576,0.971-0.326c0.129,0.088,0.314,0.563,0.426,0.653c0.223-0.055,0.444-0.109,0.667-0.163
	c0.078,0.118,0.049,0.538,0.182,0.653c0.103-0.396,0.684-0.855,0.972-0.653c0.326,0.229,0.703,0.894,1.031,1.144
	c0.385,0.109,0.77,0.219,1.152,0.327c0.135,0.142,0.283,0.688,0.426,0.816c0.182,0,0.364,0,0.546,0
	c0.429,0.278,0.952,0.697,1.335,0.979c0.303,0,0.605,0,0.91,0c0.1,0.11,0.213,0.688,0.304,0.817
	c0.222,0.108,0.444,0.218,0.667,0.326c0.08,0.272,0.162,0.545,0.242,0.816c0.385,0.056,0.77,0.109,1.153,0.164
	c0.099,0.087,0.265,0.569,0.364,0.653c0.471,0.398,0.533-0.842,0.971-0.49c0.211,0.169,0.347,0.895,0.728,0.653
	c0.285-0.179,0.984-1.292,1.396-0.816c0.189,0.218,0.173,0.683,0.486,0.816c0.041-0.626,0.084-0.706,0.242-0.98
	c0.12-0.31,0.137,0.243,0.243,0.327c0.321,0.252,0.912-0.552,1.274,0c0.082,0.126-0.029,0.601,0.182,0.49
	c0.055-0.029,0.109-0.541,0.303-0.327c0.061,0.218,0.121,0.437,0.183,0.653c0.237,0.414,0.554,0.39,0.788,0.816
	c0.174,0.315,0.273,1.097,0.486,1.308c0.263,0.055,0.525,0.108,0.788,0.164c0.085,0.111,0.115,0.702,0.182,0.815
	c0.364,0.056,0.729,0.109,1.093,0.164c0.102,0.326,0.202,0.653,0.303,0.98c0.223,0,0.445,0,0.668,0
	c0.16,0.184,0.162,0.952,0.303,1.143c0.224,0,0.445,0,0.668,0c0.371,0.299,1.123,1.891,1.578,0.817
	c0.072,0.185,0.131,0.415,0.182,0.652c0.093-0.24,0.15-0.572,0.242-0.815c0.176-0.444,0.445-0.029,0.668,0.163
	c0.041-0.203,0.066-0.338,0.121-0.49c0.085-0.119,0.076-0.053,0.182,0.163c0.043-0.125,0.08-0.364,0.122-0.49
	c0.166-0.24,0.19,0.188,0.304-0.49c0.331,0.54,0.335,0.309,0.728,0c0.068,0.393,0.138,0.848,0.243,1.145c0,0.054,0,0.108,0,0.163
	c0.17-0.23,0.137-0.459,0.242-0.817c0.039-0.281,0.012-0.159,0.061-0.326c0.021,0.218,0.041,0.436,0.061,0.653
	c0.254-0.146,0.205-0.326,0.364-0.653c0.143-0.326,0.702,1.028,1.153,0.653c0.844-0.702,0.295,0.002,0.971,0.49
	c0.293,0.211,0.529-0.513,0.729-0.327c0.328,0.306,0.873,2.439,1.455,2.123c0.053-0.028,0.201-0.438,0.305-0.326
	c0.039,0.218,0.08,0.436,0.121,0.653c0.135,0.19,2.149,0.938,2.365,0.816c0.639-0.36,1.439-0.585,2.002-0.816
	c0.392-0.161,0.806,0.654,1.274,0.327c0.991-0.693,2.358-1.135,3.397-1.797c0.646-0.412,1.652,0.066,2.125,0.326
	c0.02,0,0.04,0,0.061,0c0.276,0.086,0.426-0.37,0.606-0.489c0.202,0.054,0.405,0.107,0.606,0.163
	c0.098-0.083,0.21-0.537,0.304-0.653c0.042,0.033,0.122,0.327,0.122,0.327c0.322,0.064,0.088-0.555,0.484-0.164
	c0.009,0.008,0.029,0.319,0.123,0.164c0.02-0.164,0.039-0.327,0.06-0.49c0.142,0.217,0.284,0.436,0.425,0.653
	c0.418-2.2,1.318-1.118,1.881-1.96c0.063,0.245,0.09,0.322,0.182,0.489c0.139,0.322,0.846-0.915,1.273-0.653
	c0.561,0.342,0.711-1.194,1.336-0.816c0.451,0.273,0.593-0.661,1.092-0.327c0.221,0.148,0.615,0.584,0.971,0.327
	c0.391-0.282,1.768-1.303,1.82-1.47c0.238,0.127,0.215,0.174,0.304,0.653c0.643,0.02,1.487,0.044,1.821-0.817
	c0.22,0.121,0.168-0.016,0.242,0.49c0.145-0.14,0.111-0.397,0.182-0.49c0.182,0.055,0.364,0.109,0.546,0.164
	c0.147-0.106,0.325-0.592,0.546-0.49c0.223,0.104,0.654,0.612,1.031,0.327c0.035-0.027,0.115-0.329,0.182-0.327
	c0.141,0.004,0.196,0.473,0.425,0.327c0.069-0.043,0.247-0.443,0.304-0.49c0.304,0.057,0.606,0.11,0.91,0.164
	c0.078-0.08,0.072-0.632,0.242-0.49c0.041,0.164,0.082,0.326,0.122,0.49c0.069-0.189,0.112-0.462,0.182-0.652
	c0.249-0.305,1.013,0.278,1.456,0c0.494-0.313,1.07-0.149,1.577,0c0.286,0.084,0.345-0.546,0.485-0.653
	c0.207-0.16,0.392,0.55,0.546,0.653c0.183-0.055,0.364-0.109,0.546-0.163c0.08,0.048,0.285,0.421,0.364,0.489
	c0.384,0.33,0.999,0.088,1.335,0.653c0.578-0.037,0.628,0.211,0.91,0.817c0.137,0.285,0.234-0.52,0.486-0.327
	c0.019,0.015,0.145,0.468,0.182,0.49c0.113,0.068,0.668-0.324,0.971-0.327c0.18,0.517,0.356,1.136,0.545,1.633
	c0,0.055,0,0.109,0,0.164c0.24-0.267,0.23-0.731,0.486-0.98c0.261-0.465,0.4,0.073,0.546,0.327c0.321-0.568,0.447,0.202,0.667,0
	c0.519-0.004,0.441,0.459,0.668,1.145c0.152,0.169,0.447-0.461,0.789-0.164c0.196,0.171,0.361,0.646,0.605,0.816
	c0.141,0.165,0.145,0.038,0.244-0.327c0.178,0.234,0.384,1.029,0.484,1.471c0.166-0.221,0.172-0.53,0.305-0.816
	c0.029-0.086,0.757,0.835,0.909,1.144c0.38,0.014,0.45-0.118,0.606-0.653c0.241,0.333,0.33,0.946,0.607,1.307
	c0.137-0.482,0.396-0.876,0.607-1.143c0.143,0.602,0.374,1.112,0.667,1.306c0.134,0.14,0.067,0.127,0.183-0.163
	c0.375,0.235,0.749,1.853,1.092,1.471c0.457-0.002,0.381-0.31,0.607-0.816c0-0.055,0-0.109,0-0.164c0.02,0,0.039,0,0.061,0
	c0.1,0.528,0.165,0.717,0.363,0.98c0.086-0.322,0.08-0.345,0.242-0.49c0.063-0.132,0.016-0.061,0.122-0.163
	c0.054,0.297,0.102,0.593,0.182,0.816c0,0.055,0,0.108,0,0.163c0.151-0.239,0.071,0.04,0.121-0.489
	c0.344,0.001,0.417-0.108,0.546-0.653c0.094,0.245,0.138,0.414,0.182,0.816c0.568-0.409,0.874,0.107,1.213,1.144
	c0.41-0.174,0.957-1.256,1.275-0.49c0.298-0.077,0.315-0.286,0.424-0.816 M2673.049,423.175c0.061,0,0.121,0,0.182,0
	c0-0.054,0-0.108,0-0.163c-0.104-0.105-0.059-0.032-0.121-0.164C2673.062,423.015,2673.088,422.887,2673.049,423.175z
	 M2671.352,423.174c0,0.056,0,0.109,0,0.164c0.02,0,0.039,0,0.061,0c0,0.054,0,0.108,0,0.163c0.045-0.176,0.037-0.151,0.06-0.49
	C2671.432,423.065,2671.391,423.12,2671.352,423.174z"/>
<path fill="#FFF" d="M2373.777,432.971c0.286-0.183,0.591,0.148,0.774,0.231c0.21,0.097,0.262-0.332,0.472-0.231
	c0.034,0.015,0.158,0.185,0.259,0.115c0.236-0.162,0.758-1.041,1.032-0.579c0.212-0.055,0.225-0.203,0.302-0.578
	c0.532,0.044,0.56,0.283,0.989-0.116c0.061,0.176,0.119,0.255,0.173,0.463c0.278-0.044,0.411-0.347,0.602-0.463
	c0.216,0.077,0.431,0.154,0.646,0.232c0.329-0.176,0.741,0.001,1.119-0.232c0.107-0.067,0.399-0.508,0.474-0.463
	c0.014,0.115,0.027,0.231,0.042,0.348c0.229,0.304,0.705-0.149,0.818-0.232c0.175-0.128,0.266,0.175,0.344,0.232
	c0.396,0.291,0.771-0.73,1.032,0.116c0.278,0.018,0.404-0.054,0.517-0.464c0.26,0.014,0.327,0.227,0.473,0.348
	c0.298,0.248,0.512-0.16,0.818,0.117c0.315-0.04,0.632-0.078,0.946-0.117c0.181,0.107,0.706,0.339,0.947,0.117
	c0.014-0.078,0.028-0.155,0.043-0.232c0.224-0.199,0.321,0.266,0.517,0c0.061-0.084,0.146-0.511,0.214-0.579
	c0.015,0,0.028,0,0.043,0c0.188-0.103,0.242,0.265,0.345,0.348c0.19,0.154,0.354-0.213,0.431-0.231
	c0.082-0.02,0.059,0.086,0.085,0.116c0.247-0.018,0.268-0.136,0.345-0.579c0.31,0.032,0.645,0.494,0.99,0.231
	c0.162-0.123,0.377-0.231,0.646-0.231c0.188,0,0.481,0.166,0.602,0.115c0.614-0.257,1.374-0.65,1.979-1.042c0.144,0,0.287,0,0.431,0
	c0.237-0.172,0.515-0.446,0.688-0.578c0.058,0.039,0.114,0.077,0.173,0.116c0.093-0.087,0.13-0.471,0.215-0.579
	c0.396,0.369,0.863-0.128,1.161-0.348c0.229,0,0.459,0,0.688,0c0.466-0.322,1.046-0.627,1.506-0.927
	c0.387,0.076,0.774,0.154,1.162,0.231c0.239,0,0.6-0.395,0.688-0.348c0.033,0.018,0.172,0.316,0.214,0.348
	c0.429,0.31,0.742-0.568,1.119-0.231c0.079,0.07,0.21,0.395,0.301,0.462c0.302-0.038,0.603-0.076,0.904-0.115l0.129,0.231
	c0.129,0.042,0.153-0.365,0.301-0.231c0.037,0.034,0.135,0.428,0.172,0.463c0.365,0.342,0.396-0.831,0.689,0.348
	c0.284-0.214,0.421-0.073,0.688,0.117c0.216-0.039,0.431-0.078,0.646-0.117c0.216,0.271,0.431,0.541,0.646,0.812
	c0.188,0.039,0.373,0.077,0.56,0.116c0.015,0.115,0.028,0.231,0.043,0.348c0.047,0.06,0.269-0.117,0.387,0
	c0.286,0.279,0.548,0.817,0.818,1.158c0.101-0.511,0.227-0.481,0.387-0.811c0.015,0,0.029,0,0.043,0
	c-0.026,0.36-0.007,0.281-0.086,0.463c0.152,0.299,0.45,0.468,0.688,0.463c0,0.115,0,0.232,0,0.348
	c0.104,0.144,0.165,0.308,0.258,0.463c0,0.039,0,0.077,0,0.117c0.065-0.165,0.096-0.321,0.173-0.465
	c0.054-0.087,0.041-0.008,0.172,0c0-0.115,0-0.23,0-0.348c0.201,0.359,0.903,0.429,0.903,0.927c0.101,0,0.201,0,0.301,0
	c0.01-0.301,0.02-0.394,0.044-0.579c0.243-0.038,0.487-0.076,0.731-0.115c0,0.115,0,0.231,0,0.348
	c0.17,0.063,0.289,0.208,0.387,0.463c0.207-0.095,0.219-0.311,0.388-0.463c0.247-0.334,0.521,0.387,0.774,0.463
	c0-0.116,0-0.23,0-0.348c0.097,0.074,0.113,0.086,0.171,0.231c0.133-0.124,0.155-0.282,0.259-0.462c0,0,0.005-0.245,0.043-0.117
	c0.006,0.005,1.003,0.99,1.032,1.043c0.129-0.114,0.229-0.316,0.302-0.578c0.159,0.073,0.251,0.379,0.473,0.23
	c0.15-0.101,0.247-0.314,0.474-0.348c0.064,0.189,0.145,0.406,0.215,0.579c0.055,0.043,0.428-0.018,0.517-0.231
	c0.058-0.202,0.003-0.195,0.043-0.348c0-0.077,0-0.154,0-0.231c0.129,0.166,0.174,0.133,0.215,0.578
	c0.086-0.192,0.173-0.386,0.259-0.578c0.353,0.029,0.398,0.4,0.603,0.578c0.049,0.044,0.391-0.41,0.473-0.463
	c0.373,0.038,0.746,0.077,1.118,0.116c0.338,0.226,0.757,0.624,1.076,0.811c0.22,0.128,0.24-0.422,0.431-0.231
	c0.043,0.153,0.085,0.309,0.129,0.463c0.186-0.039,0.373-0.078,0.559-0.116c0.058,0.193,0.115,0.386,0.173,0.579
	c0,0.001,0.774,0.348,0.774,0.348c0.031-0.016,0.159-0.203,0.258-0.116c0.094,0.083,0.202,0.492,0.301,0.579
	c0.295,0.258,0.429-0.408,0.689-0.231c0.091,0.063,0.222,0.399,0.301,0.464c0.158-0.039,0.315-0.078,0.474-0.116
	c0.055,0.084,0.034,0.382,0.128,0.464c0.072-0.281,0.485-0.607,0.688-0.464c0.232,0.162,0.499,0.634,0.732,0.812
	c0.272,0.077,0.545,0.154,0.817,0.231c0.096,0.101,0.2,0.487,0.302,0.579c0.128,0,0.258,0,0.387,0
	c0.304,0.197,0.676,0.494,0.946,0.694c0.215,0,0.431,0,0.646,0c0.069,0.078,0.15,0.488,0.215,0.58
	c0.158,0.076,0.315,0.154,0.473,0.231c0.058,0.192,0.114,0.386,0.173,0.578c0.272,0.04,0.544,0.078,0.817,0.117
	c0.069,0.062,0.187,0.403,0.258,0.463c0.335,0.282,0.378-0.597,0.688-0.348c0.149,0.12,0.246,0.635,0.516,0.463
	c0.202-0.126,0.698-0.916,0.99-0.578c0.135,0.154,0.122,0.483,0.345,0.578c0.029-0.443,0.059-0.5,0.172-0.695
	c0.085-0.219,0.096,0.173,0.172,0.232c0.228,0.179,0.647-0.392,0.903,0c0.06,0.089-0.02,0.426,0.13,0.348
	c0.039-0.021,0.077-0.384,0.214-0.232c0.044,0.154,0.087,0.31,0.13,0.464c0.168,0.293,0.392,0.276,0.56,0.579
	c0.123,0.224,0.194,0.777,0.344,0.927c0.187,0.039,0.373,0.077,0.56,0.116c0.061,0.079,0.081,0.498,0.129,0.578
	c0.259,0.04,0.517,0.078,0.773,0.117c0.072,0.23,0.145,0.463,0.217,0.694c0.157,0,0.314,0,0.473,0
	c0.113,0.131,0.114,0.676,0.216,0.811c0.157,0,0.314,0,0.474,0c0.262,0.212,0.795,1.341,1.118,0.58
	c0.051,0.131,0.092,0.294,0.129,0.462c0.065-0.17,0.106-0.405,0.172-0.578c0.124-0.314,0.316-0.021,0.474,0.116
	c0.028-0.145,0.046-0.24,0.086-0.348c0.06-0.085,0.055-0.038,0.129,0.115c0.029-0.089,0.057-0.258,0.086-0.348
	c0.118-0.17,0.135,0.134,0.215-0.348c0.235,0.383,0.238,0.219,0.517,0c0.049,0.278,0.097,0.602,0.172,0.812c0,0.038,0,0.077,0,0.116
	c0.12-0.164,0.097-0.326,0.173-0.58c0.027-0.199,0.008-0.112,0.043-0.231c0.014,0.154,0.027,0.31,0.043,0.464
	c0.18-0.104,0.145-0.231,0.258-0.464c0.101-0.231,0.497,0.729,0.817,0.464c0.599-0.498,0.21,0.001,0.689,0.348
	c0.206,0.149,0.374-0.364,0.515-0.232c0.233,0.217,0.62,1.73,1.033,1.506c0.036-0.021,0.143-0.311,0.215-0.231
	c0.029,0.154,0.057,0.309,0.086,0.463c0.097,0.136,1.525,0.666,1.678,0.579c0.454-0.256,1.021-0.415,1.42-0.579
	c0.277-0.114,0.571,0.464,0.904,0.232c0.703-0.492,1.673-0.805,2.409-1.274c0.458-0.292,1.171,0.047,1.506,0.231
	c0.015,0,0.029,0,0.043,0c0.196,0.061,0.303-0.263,0.431-0.347c0.145,0.038,0.287,0.076,0.431,0.115
	c0.068-0.059,0.148-0.381,0.215-0.463c0.029,0.023,0.086,0.231,0.086,0.231c0.229,0.046,0.063-0.394,0.345-0.116
	c0.006,0.006,0.021,0.227,0.086,0.116c0.014-0.116,0.028-0.231,0.043-0.348c0.101,0.154,0.201,0.31,0.301,0.464
	c0.296-1.561,0.936-0.793,1.333-1.391c0.046,0.174,0.064,0.229,0.13,0.348c0.099,0.229,0.601-0.649,0.903-0.464
	c0.396,0.243,0.503-0.847,0.947-0.579c0.319,0.194,0.42-0.469,0.774-0.231c0.156,0.105,0.437,0.414,0.688,0.231
	c0.276-0.199,1.255-0.923,1.292-1.042c0.168,0.09,0.151,0.123,0.215,0.464c0.455,0.014,1.056,0.031,1.291-0.58
	c0.156,0.086,0.119-0.011,0.172,0.348c0.102-0.099,0.08-0.282,0.13-0.348c0.128,0.039,0.258,0.078,0.387,0.116
	c0.104-0.075,0.23-0.419,0.388-0.348c0.157,0.074,0.463,0.435,0.73,0.232c0.024-0.02,0.081-0.233,0.129-0.232
	c0.099,0.003,0.139,0.335,0.301,0.232c0.05-0.03,0.176-0.314,0.216-0.348c0.215,0.04,0.43,0.078,0.646,0.116
	c0.055-0.057,0.05-0.448,0.172-0.348c0.028,0.116,0.057,0.231,0.086,0.348c0.05-0.135,0.079-0.327,0.129-0.463
	c0.176-0.216,0.718,0.197,1.032,0c0.351-0.222,0.759-0.105,1.119,0c0.202,0.06,0.243-0.387,0.344-0.463
	c0.146-0.113,0.277,0.39,0.387,0.463c0.129-0.038,0.258-0.077,0.388-0.115c0.056,0.034,0.201,0.298,0.258,0.347
	c0.272,0.234,0.708,0.063,0.947,0.464c0.41-0.026,0.445,0.149,0.646,0.579c0.098,0.202,0.166-0.368,0.344-0.231
	c0.014,0.01,0.104,0.331,0.129,0.347c0.082,0.049,0.474-0.229,0.688-0.231c0.127,0.366,0.253,0.806,0.388,1.158
	c0,0.038,0,0.077,0,0.116c0.17-0.189,0.162-0.519,0.344-0.695c0.186-0.33,0.284,0.052,0.388,0.231c0.228-0.402,0.316,0.144,0.474,0
	c0.367-0.003,0.313,0.326,0.472,0.812c0.109,0.12,0.317-0.326,0.56-0.116c0.141,0.121,0.257,0.459,0.431,0.579
	c0.099,0.117,0.103,0.027,0.172-0.231c0.127,0.166,0.273,0.729,0.345,1.042c0.117-0.156,0.121-0.376,0.215-0.578
	c0.022-0.062,0.537,0.592,0.646,0.811c0.269,0.01,0.319-0.084,0.431-0.463c0.171,0.235,0.232,0.671,0.431,0.926
	c0.096-0.342,0.28-0.621,0.43-0.81c0.103,0.427,0.266,0.788,0.474,0.926c0.095,0.099,0.049,0.09,0.129-0.116
	c0.266,0.167,0.531,1.314,0.774,1.043c0.324-0.001,0.271-0.219,0.431-0.578c0-0.039,0-0.078,0-0.117c0.015,0,0.029,0,0.043,0
	c0.07,0.375,0.117,0.509,0.258,0.695c0.062-0.229,0.058-0.244,0.173-0.348c0.044-0.093,0.01-0.043,0.086-0.115
	c0.037,0.211,0.071,0.42,0.129,0.579c0,0.039,0,0.077,0,0.115c0.106-0.169,0.05,0.028,0.086-0.347
	c0.243,0.001,0.296-0.077,0.388-0.463c0.066,0.174,0.097,0.293,0.128,0.578c0.403-0.29,0.62,0.076,0.86,0.812
	c0.29-0.123,0.679-0.891,0.903-0.348c0.212-0.055,0.225-0.203,0.302-0.579c0.138,0.095,0.397,0.58,0.602,0.347
	c0.058-0.193,0.116-0.386,0.173-0.579c0.115,0.039,0.229,0.077,0.344,0.116c0.136-0.145,0.091-0.408,0.345-0.464
	c0.036-0.211,0.075-0.519,0.129-0.695c0.098-0.116,0.102-0.025,0.172,0.232c0.214-0.13,0.13-0.382,0.259-0.579
	c0.143-0.039,0.286-0.077,0.429-0.115c0.251-0.186,0.657-0.623,0.86-1.043c0.261,0.152,0.278,0.844,0.431,1.274
	c0.108-0.726,0.24-1.705,0.517-1.969c0.085-0.086,0.29,0.221,0.388,0.463c0.107-0.172,0.068-0.049,0.086-0.463
	c0.137-0.096,0.236-0.279,0.344-0.117c0.166,0.16,0.062,0.174,0.129,0.348c0.09,0.266,0.241-0.489,0.344-0.578
	c0.101,0.038,0.202,0.077,0.302,0.115c0.015-0.115,0.029-0.231,0.043-0.348c0.103-0.302,0.301-0.473,0.474-0.579
	c0.116,0.271,0.165,0.204,0.215,0.694c0.015,0,0.029,0,0.043,0c0.069-0.285,0.122-0.46,0.259-0.578
	c0.072-0.092,0.329,0.132,0.43,0.347c0.173-0.103,0.313-0.525,0.431-0.811c0.243,0.122,0.229,0.528,0.387,0.811
	c0.087-0.131,0.128-0.124,0.216,0c0.014,0,0.027,0,0.043,0c0.014,0.115,0.028,0.231,0.042,0.348
	c0.253,0.275,0.606-0.615,0.903-0.348c0.597,0.537,0.34,0.05,0.817-0.347c0.115,0.038,0.229,0.076,0.345,0.116
	c0.013-0.008,0.146-0.257,0.172-0.232c0.03,0.029,0.066,0.411,0.129,0.348c0.296-0.301,0.588-0.808,0.99-0.927
	c0.057-1.207,1.229-1.202,1.549-0.578c0.157-0.224,0.193-0.763,0.345-1.043c0.094-0.131,0.273,0.269,0.343,0.578
	c0.245-0.139,0.765-1.025,1.076-0.463c0.313-0.11,0.2-0.639,0.388-0.927c0.172-0.039,0.344-0.078,0.516-0.116
	c0.202-0.197,0.31,0.154,0.504-0.047c0.145-0.04,0.287-0.078,0.431-0.116c0.047-0.09,0.035-0.479,0.086-0.579
	c0.079-0.155,0.258,0.056,0.344-0.116c0.015-0.192,0.085,0.896,0.099,0.704c0.214,2.296,1.584-0.749,0.688,0
	c0.203-0.171,0.262-0.594,0.517-0.464c0.043-0.193,0.086-0.386,0.129-0.579c0.101,0,0.2,0,0.302,0c0.101-0.13,0.202-0.688,0.3-0.811
	c0.188,0.038,0.374,0.077,0.56,0.115c0.271-0.194,0.473-0.479,0.861-0.463c0-0.154,0-0.309,0-0.463
	c0.416-0.098,0.844-0.348,1.204-0.579c0.287-0.183,0.593,0.148,0.775,0.231c0.21,0.097,0.263-0.332,0.473-0.231
	c0.034,0.016,0.158,0.186,0.258,0.116c0.236-0.163,0.759-1.042,1.033-0.58c0.212-0.054,0.225-0.202,0.301-0.578
	c0.531,0.045,0.559,0.283,0.99-0.116c0.061,0.176,0.119,0.254,0.171,0.463c0.278-0.043,0.413-0.347,0.603-0.463
	c0.217,0.077,0.431,0.154,0.646,0.231c0.329-0.176,0.741,0.001,1.119-0.231c0.107-0.067,0.399-0.508,0.474-0.463
	c0.014,0.115,0.028,0.231,0.043,0.348c0.229,0.305,0.704-0.149,0.817-0.232c0.176-0.127,0.266,0.175,0.344,0.232
	c0.396,0.291,0.771-0.73,1.033,0.115c0.277,0.019,0.403-0.053,0.516-0.463c0.26,0.013,0.326,0.226,0.473,0.348
	c0.298,0.247,0.512,1.379,0.818,1.655c0.315-0.039,0.632-0.077,0.946-0.115c0.181,0.105,0.705,0.338,0.947,0.115
	c0.014-0.077,0.028-0.155,0.043-0.231c0.224-0.2,0.321,0.266,0.517,0c0.062-0.085,0.146,2.248,0.215,2.181c0.014,0,0.028,0,0.043,0
	c0.188-0.103,0.241,0.265,0.344,0.348c0.19,0.154,0.354-0.214,0.431-0.232c0.082-0.02,0.059,0.087,0.086,0.116
	c0.246-0.018,0.268-0.136,0.345-0.579c0.314,0.034,0.637,4.174,0.989,3.928c0.196-0.136,0.505-0.278,0.817-0.231
	c0.166,0.024,0.388,0.258,0.603,0.115c0.203-0.132,0.486-0.444,0.689-0.578c0.448-0.298,0.971,0.199,1.376-0.116
	c0.168-0.131,0.369-0.582,0.516-0.695c0.197-0.151,0.246,0.279,0.388,0.232c0.112-0.037,0.342-0.38,0.474-0.463
	c0.603-0.078,1.205-0.155,1.808-0.232c0.169,0.111,0.374,0.539,0.646,0.348c0.206-0.147,0.503-0.764,0.86-0.464
	c0.063,0.054,0.193,0.435,0.258,0.464c0.086,0.038,0.166-0.207,0.216-0.231c0.147-0.078,0.253,0.184,0.343,0.231
	c0.287,0.15,0.281-0.503,0.56-0.348c0.071,0.039,0.133,0.281,0.259,0.232c0.144-0.059,0.331-0.37,0.559-0.232
	c0.162,0.099,0.364,0.282,0.56,0.348c0,17.024,0,23.78,0,40.805c-74.343,0-148.709,0-223.051,0c0-8.647,0-17.298,0-25.944
	c0-2.316,0-4.634,0-6.949c0-0.767-0.079-2.248,0.042-2.78c0-0.077,0-0.154,0-0.231c0.236,0.383,0.238,0.218,0.517,0
	c0.049,0.277,0.098,0.6,0.172,0.811c0,0.039,0,0.077,0,0.116c0.12-0.163,0.098-0.326,0.173-0.579c0.027-0.2,0.009-0.113,0.043-0.231
	c0.014,0.153,0.028,0.308,0.043,0.462c0.18-0.103,0.146-0.23,0.258-0.462c0.102-0.232,0.498,0.729,0.818,0.462
	c0.598-0.497,0.21,0.002,0.688,0.348c0.207,0.15,0.375-0.362,0.516-0.231c0.232,0.217,0.62,1.729,1.033,1.506
	c0.037-0.02,0.142-0.31,0.215-0.231c0.029,0.154,0.058,0.31,0.086,0.464c0.096,0.135,1.525,0.665,1.679,0.579
	c0.452-0.256,1.02-0.415,1.419-0.579c0.278-0.114,0.571,0.464,0.904,0.231c0.702-0.492,1.672-0.805,2.409-1.274
	c0.458-0.293,1.172,0.048,1.506,0.231c0.014,0,0.028,0,0.043,0c0.196,0.062,0.302-0.263,0.43-0.348
	c0.144,0.039,0.287,0.078,0.431,0.116c0.069-0.06,0.148-0.381,0.215-0.464c0.03,0.023,0.086,0.231,0.086,0.231
	c0.229,0.047,0.063-0.393,0.345-0.115c0.005,0.005,0.02,0.227,0.086,0.115c0.015-0.115,0.028-0.231,0.043-0.348
	c0.1,0.154,0.2,0.309,0.301,0.464c0.297-1.561,0.936-0.793,1.334-1.391c0.044,0.174,0.064,0.229,0.129,0.348
	c0.099,0.229,0.601-0.647,0.903-0.463c0.397,0.242,0.505-0.847,0.947-0.579c0.32,0.194,0.421-0.468,0.773-0.231
	c0.157,0.104,0.437,0.414,0.689,0.231c0.276-0.199,1.253-0.924,1.29-1.042c0.169,0.09,0.152,0.123,0.216,0.463
	c0.455,0.016,1.055,0.032,1.291-0.579c0.156,0.086,0.119-0.011,0.172,0.348c0.102-0.099,0.08-0.28,0.129-0.348
	c0.13,0.04,0.258,0.078,0.387,0.117c0.104-0.075,0.231-0.421,0.388-0.348c0.158,0.073,0.465,0.434,0.731,0.231
	c0.025-0.019,0.081-0.233,0.129-0.231c0.1,0.003,0.14,0.335,0.302,0.231c0.049-0.031,0.175-0.313,0.214-0.347
	c0.216,0.039,0.432,0.077,0.646,0.116c0.056-0.057,0.051-0.448,0.172-0.348c0.029,0.116,0.058,0.231,0.086,0.348
	c0.05-0.136,0.079-0.327,0.129-0.464c0.177-0.216,0.719,0.198,1.033,0c0.351-0.222,0.759-0.105,1.118,0
	c0.203,0.06,0.244-0.386,0.344-0.463c0.147-0.114,0.277,0.39,0.388,0.463c0.13-0.039,0.258-0.077,0.387-0.115
	c0.057,0.034,0.202,0.298,0.258,0.348c0.272,0.233,0.709,0.062,0.947,0.462c0.41-0.026,0.444,0.149,0.646,0.579
	c0.097,0.203,0.166-0.368,0.344-0.231c0.014,0.012,0.104,0.332,0.129,0.348c0.081,0.05,0.474-0.229,0.689-0.231
	c0.127,0.366,0.254,0.806,0.387,1.158c0,0.039,0,0.077,0,0.116c0.17-0.188,0.162-0.518,0.345-0.694
	c0.185-0.33,0.284,0.051,0.387,0.23c0.228-0.403,0.316,0.144,0.474,0c0.367-0.003,0.313,0.325,0.474,0.812
	c0.107,0.12,0.316-0.327,0.56-0.116c0.139,0.121,0.256,0.459,0.429,0.579c0.1,0.117,0.103,0.026,0.172-0.231
	c0.127,0.165,0.273,0.729,0.345,1.042c0.117-0.155,0.121-0.375,0.215-0.579c0.022-0.061,0.537,0.594,0.646,0.812
	c0.269,0.01,0.32-0.084,0.431-0.464c0.17,0.236,0.232,0.672,0.43,0.928c0.097-0.343,0.28-0.621,0.431-0.812
	c0.103,0.428,0.265,0.789,0.474,0.928c0.094,0.098,0.048,0.09,0.129-0.116c0.267,0.166,0.531,1.313,0.773,1.042
	c0.324-0.001,0.271-0.22,0.432-0.579c0.038-0.124-0.005-0.01,0.043-0.115c0.07,0.374,0.117,0.508,0.257,0.694
	c0.062-0.229,0.058-0.244,0.174-0.348c0.043-0.094,0.01-0.042,0.085-0.116c0.038,0.211,0.072,0.421,0.129,0.579
	c0,0.039,0,0.077,0,0.116c0.107-0.171,0.051,0.028,0.086-0.348c0.244,0.001,0.297-0.077,0.388-0.463
	c0.067,0.174,0.098,0.293,0.129,0.578c0.402-0.289,0.62,0.076,0.86,0.812c0.29-0.123,0.679-0.891,0.903-0.348
	c0.212-0.055,0.225-0.203,0.301-0.579c0.138,0.096,0.397,0.581,0.603,0.348c0.058-0.193,0.114-0.386,0.173-0.579
	c0.114,0.039,0.229,0.077,0.344,0.116c0.136-0.144,0.09-0.408,0.345-0.463c0.036-0.211,0.075-0.519,0.129-0.694
	c0.098-0.117,0.101-0.026,0.171,0.231c0.215-0.13,0.131-0.382,0.26-0.579c0.143-0.038,0.286-0.077,0.429-0.116
	c0.252-0.186,0.657-0.622,0.861-1.042c0.26,0.151,0.278,0.844,0.43,1.273c0.108-0.725,0.239-1.705,0.517-1.969
	c0.085-0.085,0.29,0.221,0.388,0.463c0.106-0.171,0.068-0.049,0.086-0.463c0.137-0.096,0.237-0.279,0.344-0.116
	c0.165,0.16,0.061,0.174,0.129,0.348c0.09,0.265,0.241-0.49,0.345-0.578c0.1,0.038,0.201,0.076,0.301,0.115
	c0.015-0.115,0.028-0.231,0.043-0.348c0.104-0.302,0.3-0.473,0.474-0.579c0.116,0.271,0.165,0.205,0.215,0.695
	c0.014,0,0.028,0,0.043,0c0.068-0.286,0.122-0.461,0.258-0.579c0.072-0.091,0.33,0.133,0.431,0.348
	c0.173-0.103,0.313-0.525,0.43-0.811c0.243,0.123,0.23,0.528,0.389,0.811c0.085-0.131,0.127-0.124,0.214,0c0.015,0,0.028,0,0.043,0
	c0.015,0.116,0.028,0.231,0.043,0.348c0.252,0.275,0.607-0.615,0.903-0.348c0.597,0.536,0.339,0.05,0.817-0.348
	c0.115,0.04,0.229,0.078,0.345,0.116c0.013-0.007,0.146-0.257,0.172-0.231c0.03,0.029,0.066,0.411,0.129,0.348
	c0.296-0.301,0.588-0.807,0.99-0.927c0.057-1.207,1.229-1.202,1.548-0.579c0.157-0.222,0.194-0.762,0.346-1.042
	c0.095-0.132,0.273,0.27,0.344,0.578c0.245-0.138,0.764-1.025,1.075-0.462c0.313-0.11,0.199-0.64,0.388-0.928
	c0.172-0.038,0.344-0.077,0.516-0.115c0.203-0.197,0.366-0.841,0.56-1.043c0.144-0.038,0.287-0.076,0.431-0.116
	c0.046-0.089,0.035-0.479,0.086-0.578c0.079-0.155,0.258,0.056,0.344-0.116c0.014-0.193,0.029-0.386,0.044-0.579
	c0.215-0.603,0.448,0.2,0.688,0c0.203-0.17,0.26-0.594,0.516-0.463c0.044-0.192,0.087-0.386,0.129-0.578c0.101,0,0.201,0,0.302,0
	c0.102-0.13,0.202-0.689,0.302-0.812c0.186,0.038,0.372,0.077,0.559,0.115c0.27-0.194,0.472-0.479,0.86-0.463
	c0-0.154,0-0.31,0-0.464C2372.98,433.463,2373.408,433.21,2373.777,432.971z M2410.383,431.937c0.044,0,0.087,0,0.13,0
	c0-0.038,0-0.077,0-0.115c-0.075-0.075-0.043-0.023-0.086-0.116C2410.392,431.824,2410.41,431.734,2410.383,431.937z
	 M2409.179,431.936c0,0.04,0,0.078,0,0.117c0.015,0,0.029,0,0.043,0c0,0.037,0,0.076,0,0.115c0.032-0.125,0.027-0.107,0.043-0.348
	C2409.237,431.86,2409.208,431.898,2409.179,431.936z"/>
</svg>
