<?xml version="1.0" encoding="utf-8"?>
<!-- Generator: Adobe Illustrator 16.0.0, SVG Export Plug-In . SVG Version: 6.00 Build 0)  -->
<!DOCTYPE svg PUBLIC "-//W3C//DTD SVG 1.1//EN" "http://www.w3.org/Graphics/SVG/1.1/DTD/svg11.dtd">
<svg version="1.1" id="Layer_1" xmlns="http://www.w3.org/2000/svg" xmlns:xlink="http://www.w3.org/1999/xlink" x="0px" y="0px"
	 width="466.912px" height="73.346px" viewBox="0 0 466.912 73.346" enable-background="new 0 0 466.912 73.346"
	 xml:space="preserve">
<path fill="#FFFFFF" d="M466.893,73.334c-104.837,0-140.963,0-245.8,0c0-12.194,0-13.727,0-25.92c0-3.268,0-6.534,0-9.8
	c0-1.08-0.111-3.171,0.06-3.921c0-0.108,0-0.218,0-0.326c0.332,0.54,0.336,0.308,0.729,0c0.069,0.392,0.139,0.847,0.243,1.144
	c0,0.056,0,0.109,0,0.164c0.169-0.23,0.137-0.46,0.243-0.816c0.039-0.281,0.013-0.159,0.061-0.326
	c0.02,0.217,0.04,0.435,0.061,0.651c0.254-0.146,0.205-0.325,0.364-0.651c0.144-0.327,0.702,1.026,1.153,0.651
	c0.844-0.702,0.296,0.002,0.971,0.49c0.292,0.212,0.529-0.512,0.729-0.327c0.328,0.307,0.874,2.439,1.457,2.124
	c0.053-0.028,0.199-0.437,0.303-0.326c0.041,0.218,0.081,0.437,0.122,0.653c0.135,0.19,2.149,0.938,2.366,0.816
	c0.639-0.36,1.438-0.585,2.002-0.816c0.392-0.161,0.806,0.654,1.273,0.326c0.99-0.693,2.357-1.134,3.397-1.797
	c0.646-0.412,1.651,0.066,2.124,0.326c0.02,0,0.04,0,0.061,0c0.276,0.088,0.426-0.37,0.606-0.489
	c0.202,0.055,0.403,0.108,0.605,0.163c0.099-0.084,0.21-0.537,0.304-0.653c0.043,0.032,0.121,0.326,0.121,0.326
	c0.322,0.064,0.09-0.554,0.485-0.163c0.009,0.008,0.028,0.319,0.121,0.163c0.021-0.163,0.04-0.326,0.062-0.49
	c0.142,0.218,0.283,0.437,0.425,0.653c0.418-2.2,1.319-1.118,1.881-1.96c0.063,0.245,0.091,0.322,0.183,0.489
	c0.14,0.322,0.847-0.914,1.273-0.652c0.561,0.342,0.711-1.194,1.336-0.816c0.451,0.273,0.593-0.66,1.091-0.326
	c0.222,0.146,0.615,0.584,0.972,0.326c0.391-0.281,1.769-1.303,1.819-1.47c0.238,0.127,0.216,0.174,0.304,0.653
	c0.644,0.021,1.487,0.045,1.821-0.816c0.22,0.12,0.168-0.016,0.242,0.49c0.144-0.141,0.112-0.396,0.182-0.49
	c0.184,0.056,0.364,0.109,0.546,0.164c0.147-0.105,0.326-0.593,0.546-0.489c0.225,0.104,0.655,0.611,1.032,0.326
	c0.035-0.026,0.114-0.329,0.182-0.326c0.141,0.004,0.196,0.472,0.426,0.326c0.068-0.044,0.246-0.442,0.303-0.489
	c0.304,0.056,0.606,0.108,0.91,0.164c0.08-0.08,0.072-0.633,0.243-0.49c0.04,0.163,0.081,0.326,0.121,0.49
	c0.07-0.19,0.112-0.462,0.183-0.654c0.248-0.304,1.013,0.279,1.457,0c0.494-0.313,1.069-0.147,1.576,0
	c0.286,0.084,0.344-0.544,0.485-0.652c0.208-0.16,0.392,0.55,0.546,0.652c0.182-0.056,0.364-0.108,0.546-0.162
	c0.08,0.049,0.284,0.421,0.364,0.489c0.384,0.33,0.999,0.088,1.335,0.652c0.579-0.038,0.627,0.21,0.909,0.816
	c0.139,0.285,0.235-0.521,0.486-0.326c0.02,0.016,0.146,0.468,0.182,0.489c0.114,0.069,0.668-0.323,0.972-0.325
	c0.18,0.517,0.356,1.136,0.546,1.633c0,0.056,0,0.108,0,0.164c0.24-0.268,0.229-0.73,0.486-0.979
	c0.261-0.466,0.399,0.071,0.545,0.325c0.321-0.567,0.447,0.202,0.668,0c0.518-0.004,0.44,0.459,0.666,1.146
	c0.152,0.169,0.447-0.461,0.789-0.164c0.197,0.171,0.362,0.646,0.606,0.816c0.14,0.164,0.144,0.036,0.242-0.327
	c0.178,0.233,0.385,1.029,0.485,1.471c0.166-0.221,0.172-0.529,0.304-0.816c0.03-0.086,0.758,0.837,0.909,1.146
	c0.379,0.013,0.45-0.119,0.606-0.654c0.24,0.333,0.329,0.947,0.606,1.308c0.137-0.482,0.396-0.876,0.607-1.144
	c0.145,0.603,0.374,1.111,0.667,1.308c0.133,0.139,0.068,0.127,0.182-0.164c0.375,0.234,0.75,1.853,1.093,1.471
	c0.457-0.003,0.381-0.312,0.606-0.816c0.055-0.176-0.006-0.015,0.062-0.163c0.1,0.527,0.166,0.717,0.363,0.979
	c0.086-0.322,0.081-0.345,0.243-0.49c0.062-0.132,0.015-0.061,0.121-0.164c0.054,0.297,0.103,0.594,0.182,0.816
	c0,0.056,0,0.108,0,0.163c0.151-0.24,0.072,0.04,0.122-0.489c0.344,0.002,0.417-0.108,0.545-0.653
	c0.096,0.245,0.139,0.414,0.182,0.816c0.568-0.408,0.875,0.106,1.213,1.144c0.409-0.174,0.957-1.256,1.274-0.489
	c0.299-0.077,0.315-0.287,0.424-0.816c0.195,0.135,0.562,0.818,0.851,0.489c0.081-0.271,0.162-0.544,0.242-0.815
	c0.162,0.055,0.323,0.108,0.485,0.164c0.191-0.203,0.127-0.576,0.484-0.653c0.052-0.297,0.106-0.729,0.183-0.979
	c0.139-0.164,0.145-0.037,0.243,0.326c0.301-0.184,0.182-0.538,0.363-0.816c0.202-0.054,0.403-0.108,0.606-0.163
	c0.354-0.262,0.926-0.878,1.213-1.47c0.367,0.214,0.394,1.188,0.607,1.796c0.152-1.021,0.336-2.404,0.728-2.776
	c0.12-0.12,0.407,0.313,0.546,0.653c0.15-0.242,0.098-0.069,0.121-0.653c0.193-0.135,0.334-0.394,0.486-0.164
	c0.232,0.227,0.086,0.245,0.181,0.49c0.128,0.374,0.341-0.69,0.485-0.815c0.143,0.056,0.283,0.108,0.426,0.163
	c0.021-0.163,0.04-0.326,0.062-0.489c0.145-0.427,0.424-0.666,0.666-0.816c0.164,0.381,0.233,0.289,0.305,0.979
	c0.021,0,0.04,0,0.06,0c0.099-0.403,0.174-0.649,0.364-0.815c0.104-0.129,0.466,0.187,0.607,0.49
	c0.241-0.146,0.44-0.741,0.605-1.145c0.343,0.173,0.323,0.745,0.546,1.145c0.122-0.186,0.182-0.176,0.303,0c0.021,0,0.041,0,0.063,0
	c0.021,0.162,0.04,0.325,0.061,0.489c0.356,0.389,0.854-0.868,1.274-0.489c0.841,0.756,0.478,0.069,1.152-0.49
	c0.162,0.056,0.323,0.108,0.485,0.163c0.017-0.011,0.203-0.362,0.242-0.326c0.043,0.041,0.092,0.58,0.182,0.49
	c0.418-0.425,0.828-1.139,1.396-1.308c0.08-1.702,1.732-1.694,2.186-0.815c0.221-0.313,0.271-1.075,0.484-1.471
	c0.135-0.186,0.389,0.381,0.485,0.815c0.346-0.194,1.078-1.446,1.519-0.652c0.44-0.154,0.278-0.9,0.545-1.308
	c0.241-0.054,0.484-0.108,0.729-0.163c0.285-0.277,0.516-1.186,0.789-1.47c0.202-0.056,0.404-0.108,0.605-0.164
	c0.065-0.126,0.051-0.676,0.123-0.815c0.109-0.22,0.362,0.078,0.483-0.164c0.021-0.271,0.041-0.544,0.062-0.815
	c0.303-0.851,0.635,0.282,0.971,0c0.287-0.239,0.369-0.837,0.729-0.652c0.062-0.271,0.121-0.545,0.182-0.816
	c0.144,0,0.283,0,0.427,0c0.143-0.183,0.284-0.972,0.424-1.145c0.264,0.055,0.524,0.109,0.789,0.163
	c0.381-0.273,0.666-0.676,1.214-0.652c0-0.218,0-0.437,0-0.653c0.587-0.137,1.19-0.491,1.71-0.828
	c0.404-0.259,0.834,0.209,1.093,0.327c0.297,0.136,0.371-0.47,0.668-0.327c0.047,0.021,0.221,0.261,0.362,0.163
	c0.334-0.229,1.07-1.469,1.457-0.816c0.3-0.077,0.316-0.287,0.425-0.816c0.75,0.063,0.789,0.399,1.396-0.162
	c0.086,0.247,0.168,0.358,0.242,0.651c0.393-0.062,0.582-0.488,0.85-0.651c0.304,0.107,0.606,0.218,0.91,0.326
	c0.463-0.248,1.045,0.002,1.577-0.326c0.152-0.096,0.563-0.718,0.667-0.653c0.021,0.163,0.041,0.326,0.061,0.49
	c0.324,0.429,0.994-0.212,1.154-0.327c0.248-0.182,0.374,0.246,0.483,0.327c0.561,0.41,1.088-1.029,1.457,0.163
	c0.392,0.025,0.569-0.074,0.728-0.652c0.367,0.019,0.462,0.317,0.668,0.49c0.419,0.349,0.723-0.228,1.153,0.164
	c0.443-0.057,0.89-0.109,1.335-0.164c0.254,0.149,0.993,0.478,1.336,0.164c0.02-0.109,0.039-0.22,0.06-0.327
	c0.315-0.281,0.454,0.375,0.729,0c0.088-0.118,0.207-0.722,0.305-0.816c0.02,0,0.039,0,0.061,0c0.265-0.146,0.341,0.373,0.484,0.49
	c0.271,0.218,0.499-0.301,0.607-0.327c0.115-0.026,0.083,0.122,0.121,0.164c0.348-0.024,0.377-0.191,0.484-0.816
	c0.436,0.046,0.909,0.697,1.396,0.327c0.229-0.175,0.531-0.327,0.91-0.327c0.266,0,0.68,0.234,0.85,0.163
	c0.865-0.362,1.938-0.918,2.791-1.47c0.202,0,0.404,0,0.606,0c0.335-0.243,0.726-0.629,0.972-0.815
	c0.08,0.055,0.161,0.108,0.242,0.164c0.133-0.122,0.185-0.664,0.304-0.817c0.56,0.521,1.219-0.18,1.638-0.489
	c0.324,0,0.648,0,0.971,0c0.656-0.454,1.476-0.884,2.125-1.308c0.545,0.108,1.092,0.219,1.638,0.327c0.339,0,0.848-0.557,0.971-0.49
	c0.047,0.024,0.243,0.446,0.305,0.49c0.604,0.438,1.045-0.802,1.576-0.327c0.113,0.101,0.295,0.558,0.426,0.652
	c0.425-0.055,0.85-0.108,1.273-0.163l0.182,0.326c0.185,0.06,0.217-0.515,0.426-0.326c0.054,0.049,0.189,0.604,0.242,0.653
	c0.514,0.48,0.557-1.172,0.971,0.49c0.401-0.304,0.595-0.104,0.972,0.163c0.304-0.055,0.606-0.108,0.909-0.163
	c0.304,0.382,0.607,0.763,0.91,1.144c0.264,0.056,0.526,0.109,0.789,0.164c0.021,0.163,0.041,0.326,0.062,0.49
	c0.063,0.084,0.377-0.165,0.547,0c0.4,0.395,0.771,1.153,1.152,1.633c0.143-0.72,0.319-0.678,0.545-1.144c0.021,0,0.041,0,0.062,0
	c-0.037,0.51-0.011,0.396-0.122,0.652c0.215,0.422,0.635,0.66,0.971,0.653c0,0.163,0,0.327,0,0.49
	c0.146,0.203,0.234,0.434,0.364,0.652c0,0.056,0,0.108,0,0.164c0.093-0.23,0.134-0.452,0.243-0.653c0.076-0.123,0.059-0.013,0.242,0
	c0-0.163,0-0.326,0-0.49c0.284,0.507,1.272,0.604,1.274,1.307c0.142,0,0.282,0,0.424,0c0.013-0.424,0.027-0.555,0.062-0.815
	c0.344-0.055,0.688-0.108,1.031-0.163c0,0.163,0,0.326,0,0.49c0.239,0.09,0.408,0.293,0.547,0.651
	c0.292-0.134,0.309-0.438,0.545-0.651c0.35-0.472,0.736,0.545,1.093,0.651c0-0.163,0-0.325,0-0.489
	c0.136,0.104,0.16,0.121,0.242,0.326c0.187-0.176,0.22-0.397,0.364-0.651c0,0,0.008-0.347,0.061-0.164
	c0.01,0.006,1.416,1.396,1.456,1.47c0.182-0.161,0.323-0.445,0.425-0.815c0.227,0.104,0.354,0.535,0.668,0.325
	c0.211-0.142,0.348-0.441,0.666-0.488c0.092,0.267,0.205,0.571,0.305,0.815c0.076,0.062,0.603-0.024,0.729-0.327
	c0.082-0.284,0.005-0.274,0.061-0.488c0-0.109,0-0.22,0-0.327c0.184,0.233,0.248,0.188,0.305,0.814
	c0.121-0.271,0.242-0.544,0.363-0.814c0.5,0.042,0.563,0.563,0.851,0.814c0.069,0.063,0.552-0.578,0.667-0.651
	c0.525,0.054,1.052,0.107,1.577,0.162c0.476,0.318,1.064,0.881,1.517,1.145c0.312,0.18,0.34-0.595,0.607-0.327
	c0.061,0.217,0.121,0.437,0.182,0.653c0.264-0.056,0.525-0.109,0.789-0.164c0.081,0.271,0.162,0.545,0.242,0.815
	c0,0.003,1.092,0.49,1.092,0.49c0.045-0.021,0.227-0.286,0.364-0.163c0.132,0.117,0.284,0.693,0.425,0.816
	c0.416,0.363,0.604-0.576,0.971-0.326c0.129,0.088,0.314,0.563,0.426,0.653c0.224-0.056,0.444-0.109,0.668-0.163
	c0.077,0.118,0.049,0.538,0.182,0.653c0.103-0.396,0.684-0.855,0.972-0.653c0.326,0.229,0.703,0.894,1.031,1.144
	c0.385,0.109,0.77,0.22,1.151,0.327c0.136,0.143,0.283,0.688,0.427,0.816c0.182,0,0.364,0,0.546,0
	c0.429,0.277,0.951,0.696,1.335,0.979c0.303,0,0.604,0,0.909,0c0.101,0.11,0.213,0.688,0.305,0.817
	c0.222,0.107,0.443,0.218,0.667,0.326c0.08,0.271,0.162,0.545,0.241,0.815c0.386,0.057,0.771,0.109,1.153,0.164
	c0.1,0.087,0.265,0.569,0.364,0.653c0.471,0.397,0.533-0.842,0.971-0.49c0.211,0.169,0.348,0.896,0.729,0.653
	c0.285-0.179,0.983-1.292,1.396-0.816c0.189,0.218,0.173,0.684,0.486,0.816c0.041-0.626,0.084-0.706,0.242-0.98
	c0.12-0.31,0.137,0.243,0.243,0.327c0.32,0.252,0.912-0.552,1.273,0c0.082,0.126-0.029,0.602,0.182,0.49
	c0.055-0.029,0.109-0.541,0.303-0.327c0.062,0.218,0.121,0.438,0.184,0.653c0.237,0.414,0.554,0.39,0.788,0.815
	c0.174,0.315,0.272,1.098,0.486,1.309c0.263,0.055,0.524,0.107,0.788,0.164c0.085,0.11,0.115,0.701,0.182,0.814
	c0.364,0.057,0.729,0.109,1.093,0.164c0.103,0.326,0.202,0.653,0.304,0.98c0.223,0,0.444,0,0.668,0
	c0.159,0.184,0.162,0.952,0.303,1.143c0.224,0,0.445,0,0.668,0c0.371,0.299,1.123,1.891,1.578,0.817
	c0.071,0.185,0.131,0.415,0.182,0.651c0.093-0.239,0.149-0.571,0.242-0.814c0.176-0.444,0.444-0.029,0.668,0.163
	c0.041-0.203,0.065-0.338,0.121-0.49c0.084-0.119,0.075-0.053,0.182,0.163c0.043-0.125,0.08-0.364,0.122-0.49
	c0.166-0.24,0.189,0.188,0.304-0.49c0.331,0.54,0.335,0.31,0.729,0c0.067,0.394,0.138,0.849,0.242,1.146c0,0.054,0,0.107,0,0.163
	c0.17-0.23,0.137-0.459,0.242-0.817c0.039-0.281,0.012-0.159,0.061-0.326c0.021,0.219,0.041,0.437,0.062,0.653
	c0.254-0.146,0.205-0.326,0.364-0.653c0.143-0.325,0.701,1.028,1.152,0.653c0.845-0.702,0.295,0.002,0.972,0.49
	c0.293,0.211,0.528-0.514,0.729-0.327c0.328,0.306,0.873,2.438,1.455,2.123c0.054-0.028,0.201-0.438,0.306-0.326
	c0.039,0.218,0.08,0.437,0.121,0.653c0.135,0.189,2.148,0.938,2.364,0.815c0.64-0.359,1.439-0.585,2.002-0.815
	c0.393-0.161,0.806,0.653,1.274,0.327c0.99-0.693,2.357-1.136,3.396-1.798c0.646-0.411,1.652,0.066,2.125,0.326
	c0.021,0,0.04,0,0.062,0c0.275,0.086,0.426-0.37,0.605-0.488c0.202,0.054,0.405,0.106,0.606,0.162
	c0.098-0.083,0.21-0.536,0.304-0.652c0.042,0.033,0.122,0.327,0.122,0.327c0.322,0.063,0.088-0.556,0.484-0.164
	c0.009,0.008,0.028,0.318,0.123,0.164c0.02-0.164,0.039-0.327,0.06-0.49c0.142,0.217,0.284,0.436,0.425,0.653
	c0.418-2.2,1.318-1.118,1.881-1.961c0.063,0.245,0.091,0.322,0.183,0.489c0.139,0.322,0.846-0.915,1.272-0.652
	c0.562,0.342,0.711-1.194,1.336-0.816c0.451,0.273,0.594-0.661,1.092-0.327c0.222,0.148,0.615,0.584,0.972,0.327
	c0.391-0.282,1.768-1.303,1.819-1.47c0.238,0.127,0.216,0.174,0.305,0.652c0.643,0.021,1.486,0.044,1.82-0.816
	c0.221,0.121,0.168-0.017,0.242,0.49c0.146-0.141,0.111-0.397,0.182-0.49c0.183,0.055,0.364,0.108,0.547,0.164
	c0.146-0.106,0.324-0.592,0.545-0.49c0.224,0.104,0.654,0.612,1.031,0.327c0.035-0.027,0.115-0.329,0.182-0.327
	c0.142,0.004,0.196,0.473,0.426,0.327c0.068-0.043,0.247-0.443,0.304-0.49c0.304,0.057,0.606,0.11,0.91,0.164
	c0.077-0.08,0.071-0.632,0.241-0.49c0.041,0.164,0.082,0.326,0.123,0.49c0.068-0.189,0.111-0.462,0.182-0.652
	c0.249-0.305,1.013,0.278,1.456,0c0.493-0.313,1.069-0.148,1.577,0c0.285,0.084,0.345-0.546,0.484-0.652
	c0.207-0.16,0.393,0.55,0.546,0.652c0.184-0.055,0.364-0.108,0.546-0.163c0.08,0.049,0.285,0.422,0.364,0.489
	c0.384,0.33,0.999,0.088,1.335,0.653c0.578-0.037,0.628,0.211,0.91,0.816c0.137,0.285,0.233-0.52,0.486-0.326
	c0.019,0.015,0.145,0.468,0.182,0.489c0.113,0.068,0.668-0.323,0.971-0.326c0.18,0.517,0.355,1.136,0.545,1.633
	c0,0.055,0,0.108,0,0.164c0.24-0.268,0.23-0.731,0.486-0.98c0.261-0.465,0.399,0.073,0.546,0.327c0.321-0.568,0.446,0.202,0.667,0
	c0.519-0.004,0.44,0.459,0.668,1.145c0.152,0.17,0.447-0.461,0.789-0.164c0.195,0.172,0.361,0.646,0.604,0.816
	c0.142,0.165,0.146,0.038,0.244-0.327c0.178,0.234,0.384,1.029,0.483,1.472c0.166-0.222,0.173-0.53,0.306-0.816
	c0.028-0.086,0.757,0.835,0.909,1.144c0.379,0.015,0.449-0.117,0.605-0.652c0.241,0.333,0.33,0.945,0.607,1.307
	c0.137-0.481,0.396-0.876,0.606-1.143c0.144,0.602,0.374,1.111,0.667,1.306c0.134,0.14,0.066,0.127,0.184-0.163
	c0.375,0.235,0.748,1.854,1.092,1.471c0.457-0.002,0.381-0.31,0.606-0.815c0-0.055,0-0.109,0-0.164c0.021,0,0.039,0,0.062,0
	c0.1,0.528,0.165,0.717,0.363,0.979c0.086-0.321,0.08-0.345,0.241-0.489c0.063-0.132,0.017-0.062,0.122-0.163
	c0.055,0.297,0.103,0.593,0.182,0.815c0,0.056,0,0.108,0,0.163c0.151-0.238,0.071,0.04,0.121-0.488
	c0.345,0.001,0.418-0.108,0.547-0.653c0.094,0.245,0.138,0.414,0.182,0.815c0.568-0.408,0.874,0.107,1.213,1.145
	c0.41-0.174,0.957-1.256,1.274-0.49c0.298-0.077,0.315-0.286,0.425-0.815 M364.04,17.204c0.061,0,0.121,0,0.182,0
	c0-0.055,0-0.108,0-0.163c-0.104-0.105-0.059-0.032-0.121-0.164C364.052,17.044,364.079,16.916,364.04,17.204z M362.343,17.203
	c0,0.056,0,0.108,0,0.164c0.02,0,0.039,0,0.061,0c0,0.054,0,0.107,0,0.163c0.045-0.177,0.037-0.151,0.061-0.49
	C362.423,17.094,362.382,17.148,362.343,17.203z"/>
<path fill="#FFFFFF" d="M64.767,27c0.286-0.184,0.591,0.147,0.774,0.23c0.21,0.098,0.262-0.332,0.472-0.23
	c0.034,0.015,0.158,0.185,0.259,0.115c0.236-0.162,0.758-1.041,1.032-0.579c0.212-0.056,0.226-0.203,0.302-0.578
	c0.532,0.044,0.561,0.283,0.989-0.116c0.062,0.176,0.119,0.255,0.173,0.463c0.278-0.044,0.411-0.347,0.603-0.463
	c0.216,0.077,0.431,0.154,0.646,0.232c0.329-0.177,0.741,0.001,1.119-0.232c0.107-0.067,0.398-0.508,0.475-0.463
	c0.014,0.115,0.026,0.23,0.041,0.348c0.229,0.304,0.705-0.148,0.818-0.231c0.176-0.128,0.267,0.175,0.344,0.231
	c0.396,0.291,0.771-0.729,1.032,0.116c0.278,0.018,0.404-0.054,0.518-0.464c0.26,0.014,0.327,0.227,0.473,0.348
	c0.298,0.248,0.512-0.16,0.818,0.117c0.314-0.04,0.632-0.078,0.946-0.117c0.181,0.107,0.705,0.339,0.946,0.117
	c0.015-0.078,0.028-0.155,0.043-0.232c0.225-0.198,0.321,0.267,0.518,0c0.061-0.084,0.146-0.511,0.214-0.578
	c0.015,0,0.028,0,0.043,0c0.188-0.104,0.242,0.265,0.345,0.348c0.19,0.154,0.354-0.213,0.431-0.231
	c0.082-0.02,0.06,0.086,0.086,0.116c0.246-0.018,0.268-0.136,0.345-0.579c0.31,0.032,0.645,0.494,0.989,0.231
	c0.162-0.123,0.377-0.231,0.646-0.231c0.188,0,0.48,0.166,0.602,0.115c0.614-0.257,1.375-0.65,1.979-1.042c0.144,0,0.287,0,0.431,0
	c0.237-0.172,0.516-0.446,0.688-0.578c0.058,0.039,0.114,0.077,0.173,0.116c0.093-0.087,0.13-0.471,0.215-0.579
	c0.396,0.369,0.863-0.128,1.161-0.348c0.229,0,0.459,0,0.688,0c0.466-0.322,1.045-0.627,1.506-0.928
	c0.387,0.076,0.773,0.154,1.162,0.231c0.238,0,0.6-0.396,0.688-0.348c0.033,0.018,0.172,0.315,0.215,0.348
	c0.429,0.31,0.741-0.568,1.118-0.231c0.079,0.07,0.21,0.396,0.302,0.462c0.302-0.037,0.603-0.075,0.903-0.114l0.129,0.23
	c0.129,0.042,0.153-0.364,0.302-0.23c0.037,0.034,0.135,0.428,0.172,0.463c0.365,0.342,0.396-0.831,0.688,0.348
	c0.284-0.214,0.421-0.073,0.688,0.117c0.216-0.039,0.431-0.078,0.646-0.117c0.216,0.271,0.431,0.541,0.646,0.813
	c0.188,0.039,0.373,0.077,0.56,0.116c0.016,0.114,0.028,0.23,0.043,0.348c0.047,0.06,0.27-0.117,0.387,0
	c0.286,0.279,0.549,0.816,0.818,1.158c0.102-0.512,0.228-0.481,0.387-0.812c0.016,0,0.029,0,0.043,0
	c-0.025,0.36-0.007,0.281-0.086,0.463c0.152,0.299,0.45,0.468,0.688,0.463c0,0.115,0,0.232,0,0.349
	c0.104,0.144,0.165,0.308,0.258,0.463c0,0.039,0,0.077,0,0.117c0.065-0.165,0.097-0.321,0.173-0.465
	c0.055-0.088,0.041-0.009,0.173,0c0-0.115,0-0.23,0-0.349c0.2,0.359,0.903,0.429,0.903,0.927c0.101,0,0.2,0,0.301,0
	c0.01-0.301,0.02-0.394,0.044-0.578c0.243-0.038,0.487-0.076,0.73-0.115c0,0.115,0,0.23,0,0.348c0.17,0.063,0.289,0.208,0.388,0.463
	c0.207-0.095,0.219-0.311,0.388-0.463c0.247-0.334,0.521,0.387,0.773,0.463c0-0.116,0-0.229,0-0.348
	c0.097,0.074,0.113,0.086,0.171,0.23c0.133-0.124,0.155-0.281,0.26-0.462c0,0,0.004-0.245,0.043-0.116
	c0.006,0.005,1.002,0.989,1.031,1.043c0.129-0.114,0.229-0.316,0.303-0.578c0.158,0.072,0.25,0.379,0.473,0.229
	c0.149-0.101,0.247-0.313,0.474-0.348c0.064,0.188,0.146,0.406,0.216,0.579c0.055,0.043,0.428-0.019,0.517-0.231
	c0.058-0.202,0.003-0.194,0.043-0.348c0-0.077,0-0.154,0-0.231c0.129,0.166,0.174,0.134,0.215,0.578
	c0.086-0.191,0.173-0.386,0.259-0.578c0.354,0.029,0.398,0.4,0.604,0.578c0.049,0.044,0.391-0.41,0.473-0.463
	c0.373,0.038,0.746,0.077,1.118,0.116c0.338,0.226,0.757,0.624,1.076,0.811c0.22,0.128,0.239-0.422,0.431-0.23
	c0.043,0.153,0.085,0.309,0.129,0.463c0.186-0.039,0.373-0.078,0.559-0.116c0.059,0.193,0.115,0.386,0.174,0.579
	c0,0.001,0.773,0.348,0.773,0.348c0.031-0.016,0.159-0.202,0.258-0.115c0.095,0.083,0.202,0.491,0.302,0.579
	c0.295,0.258,0.429-0.408,0.688-0.231c0.092,0.063,0.223,0.399,0.301,0.464c0.158-0.039,0.315-0.078,0.475-0.116
	c0.055,0.084,0.034,0.383,0.128,0.464c0.072-0.28,0.485-0.606,0.688-0.464c0.231,0.162,0.498,0.635,0.731,0.813
	c0.272,0.077,0.545,0.154,0.817,0.23c0.096,0.102,0.199,0.487,0.302,0.579c0.128,0,0.258,0,0.387,0
	c0.304,0.197,0.676,0.494,0.946,0.694c0.215,0,0.431,0,0.646,0c0.069,0.078,0.15,0.488,0.216,0.58
	c0.157,0.076,0.314,0.154,0.473,0.23c0.058,0.192,0.113,0.387,0.173,0.578c0.272,0.04,0.544,0.078,0.817,0.117
	c0.068,0.063,0.187,0.403,0.258,0.463c0.335,0.282,0.378-0.597,0.688-0.348c0.149,0.12,0.246,0.635,0.517,0.463
	c0.202-0.126,0.698-0.916,0.989-0.578c0.136,0.154,0.123,0.483,0.346,0.578c0.029-0.443,0.059-0.5,0.172-0.695
	c0.085-0.219,0.096,0.173,0.172,0.232c0.229,0.179,0.647-0.393,0.903,0c0.06,0.089-0.021,0.426,0.13,0.348
	c0.039-0.021,0.077-0.384,0.214-0.231c0.044,0.153,0.087,0.31,0.13,0.464c0.168,0.293,0.393,0.275,0.561,0.579
	c0.123,0.224,0.193,0.776,0.344,0.927c0.188,0.039,0.373,0.077,0.561,0.116c0.061,0.079,0.08,0.498,0.129,0.578
	c0.259,0.04,0.517,0.077,0.772,0.116c0.072,0.23,0.146,0.464,0.217,0.694c0.157,0,0.314,0,0.474,0
	c0.112,0.131,0.113,0.676,0.216,0.812c0.157,0,0.313,0,0.474,0c0.262,0.212,0.795,1.341,1.118,0.579
	c0.051,0.132,0.092,0.295,0.129,0.463c0.065-0.171,0.106-0.405,0.172-0.578c0.124-0.314,0.316-0.021,0.475,0.115
	c0.028-0.145,0.046-0.239,0.086-0.348c0.06-0.085,0.055-0.038,0.129,0.115c0.028-0.089,0.057-0.258,0.086-0.348
	c0.118-0.171,0.135,0.134,0.215-0.349c0.235,0.383,0.238,0.219,0.517,0c0.05,0.278,0.098,0.603,0.173,0.813c0,0.038,0,0.077,0,0.115
	c0.12-0.163,0.097-0.325,0.173-0.579c0.027-0.199,0.008-0.112,0.043-0.231c0.014,0.154,0.027,0.31,0.043,0.464
	c0.18-0.104,0.145-0.23,0.258-0.464c0.102-0.231,0.497,0.729,0.817,0.464c0.599-0.498,0.21,0.001,0.688,0.348
	c0.206,0.149,0.374-0.363,0.516-0.231c0.232,0.217,0.619,1.729,1.032,1.506c0.036-0.021,0.144-0.311,0.216-0.23
	c0.028,0.153,0.057,0.309,0.086,0.463c0.097,0.136,1.524,0.666,1.678,0.579c0.454-0.257,1.021-0.415,1.42-0.579
	c0.277-0.114,0.57,0.464,0.904,0.231c0.702-0.492,1.673-0.805,2.408-1.273c0.458-0.292,1.171,0.047,1.506,0.23
	c0.016,0,0.029,0,0.043,0c0.196,0.062,0.304-0.263,0.432-0.347c0.145,0.038,0.287,0.076,0.431,0.115
	c0.068-0.06,0.147-0.382,0.215-0.464c0.029,0.023,0.086,0.231,0.086,0.231c0.229,0.046,0.063-0.394,0.345-0.116
	c0.007,0.006,0.021,0.228,0.086,0.116c0.015-0.116,0.028-0.231,0.043-0.348c0.102,0.153,0.201,0.31,0.302,0.464
	c0.296-1.562,0.936-0.793,1.333-1.392c0.046,0.175,0.063,0.229,0.13,0.349c0.099,0.229,0.601-0.649,0.903-0.464
	c0.396,0.243,0.502-0.848,0.946-0.579c0.319,0.193,0.42-0.469,0.774-0.231c0.156,0.105,0.437,0.414,0.688,0.231
	c0.276-0.199,1.255-0.923,1.292-1.042c0.168,0.09,0.151,0.123,0.216,0.464c0.455,0.014,1.056,0.031,1.291-0.58
	c0.155,0.086,0.118-0.011,0.172,0.348c0.102-0.099,0.08-0.281,0.13-0.348c0.128,0.039,0.258,0.078,0.387,0.116
	c0.104-0.075,0.229-0.419,0.388-0.349c0.157,0.074,0.463,0.436,0.73,0.232c0.023-0.02,0.081-0.233,0.129-0.232
	c0.099,0.003,0.139,0.335,0.301,0.232c0.05-0.03,0.176-0.314,0.216-0.348c0.216,0.04,0.431,0.078,0.646,0.115
	c0.055-0.057,0.05-0.447,0.172-0.348c0.028,0.116,0.057,0.231,0.086,0.348c0.05-0.135,0.079-0.326,0.129-0.463
	c0.176-0.216,0.718,0.197,1.032,0c0.351-0.222,0.759-0.104,1.119,0c0.201,0.061,0.242-0.387,0.344-0.463
	c0.146-0.113,0.277,0.391,0.387,0.463c0.129-0.038,0.258-0.077,0.388-0.114c0.056,0.033,0.201,0.298,0.259,0.347
	c0.271,0.233,0.707,0.063,0.946,0.464c0.41-0.026,0.445,0.149,0.646,0.579c0.098,0.202,0.166-0.368,0.344-0.231
	c0.014,0.011,0.104,0.331,0.129,0.348c0.082,0.049,0.474-0.229,0.688-0.231c0.127,0.366,0.252,0.806,0.388,1.158
	c0,0.038,0,0.077,0,0.116c0.17-0.189,0.162-0.52,0.344-0.695c0.187-0.33,0.284,0.052,0.388,0.231c0.229-0.402,0.316,0.144,0.475,0
	c0.367-0.004,0.313,0.325,0.472,0.812c0.108,0.12,0.317-0.326,0.56-0.116c0.142,0.121,0.258,0.459,0.432,0.579
	c0.099,0.117,0.103,0.027,0.172-0.23c0.127,0.166,0.273,0.729,0.345,1.042c0.117-0.156,0.121-0.376,0.216-0.578
	c0.021-0.063,0.537,0.592,0.646,0.811c0.269,0.01,0.319-0.084,0.431-0.463c0.171,0.235,0.232,0.671,0.432,0.926
	c0.096-0.342,0.279-0.621,0.43-0.81c0.103,0.427,0.266,0.788,0.474,0.926c0.095,0.099,0.05,0.09,0.129-0.116
	c0.267,0.167,0.531,1.314,0.774,1.043c0.324-0.001,0.271-0.219,0.431-0.578c0-0.038,0-0.077,0-0.116c0.015,0,0.029,0,0.043,0
	c0.07,0.375,0.117,0.509,0.258,0.694c0.063-0.229,0.059-0.244,0.173-0.348c0.045-0.093,0.011-0.043,0.086-0.115
	c0.037,0.211,0.071,0.42,0.129,0.579c0,0.039,0,0.077,0,0.115c0.106-0.169,0.051,0.028,0.086-0.347
	c0.243,0.001,0.297-0.077,0.389-0.464c0.065,0.175,0.097,0.294,0.128,0.578c0.403-0.29,0.62,0.076,0.86,0.813
	c0.289-0.123,0.679-0.892,0.902-0.349c0.212-0.055,0.226-0.202,0.303-0.578c0.138,0.095,0.396,0.58,0.602,0.347
	c0.059-0.193,0.116-0.386,0.173-0.579c0.115,0.039,0.229,0.077,0.345,0.116c0.136-0.146,0.091-0.408,0.345-0.464
	c0.036-0.211,0.075-0.52,0.129-0.695c0.098-0.116,0.102-0.025,0.172,0.232c0.214-0.131,0.13-0.383,0.259-0.579
	c0.144-0.039,0.286-0.077,0.43-0.115c0.25-0.187,0.656-0.623,0.859-1.043c0.262,0.151,0.278,0.844,0.432,1.273
	c0.107-0.726,0.239-1.704,0.517-1.969c0.085-0.086,0.29,0.221,0.388,0.463c0.107-0.172,0.068-0.049,0.086-0.463
	c0.137-0.096,0.236-0.279,0.344-0.117c0.166,0.16,0.063,0.175,0.129,0.349c0.091,0.266,0.241-0.489,0.345-0.578
	c0.101,0.038,0.202,0.077,0.302,0.115c0.015-0.115,0.029-0.231,0.043-0.349c0.104-0.302,0.301-0.473,0.475-0.579
	c0.115,0.271,0.164,0.204,0.215,0.694c0.015,0,0.029,0,0.043,0c0.068-0.285,0.122-0.46,0.259-0.578
	c0.072-0.092,0.329,0.132,0.43,0.347c0.173-0.103,0.313-0.524,0.431-0.811c0.243,0.122,0.229,0.528,0.388,0.811
	c0.087-0.131,0.128-0.124,0.216,0c0.014,0,0.027,0,0.043,0c0.014,0.115,0.028,0.231,0.042,0.349
	c0.253,0.274,0.606-0.615,0.903-0.349c0.597,0.537,0.34,0.051,0.816-0.347c0.115,0.038,0.229,0.076,0.346,0.116
	c0.013-0.008,0.146-0.257,0.172-0.232c0.029,0.029,0.065,0.411,0.129,0.349c0.296-0.302,0.588-0.809,0.99-0.928
	c0.057-1.207,1.229-1.201,1.549-0.577c0.156-0.225,0.193-0.764,0.345-1.043c0.094-0.132,0.272,0.269,0.343,0.577
	c0.245-0.139,0.766-1.024,1.076-0.463c0.313-0.109,0.2-0.639,0.388-0.927c0.173-0.039,0.345-0.078,0.517-0.116
	c0.201-0.196,0.31,0.154,0.504-0.047c0.145-0.04,0.287-0.078,0.431-0.116c0.047-0.09,0.035-0.479,0.086-0.579
	c0.079-0.154,0.258,0.057,0.344-0.115c0.015-0.192,0.085,0.896,0.1,0.704c0.214,2.296,1.584-0.749,0.688,0
	c0.203-0.172,0.263-0.595,0.518-0.465c0.043-0.192,0.086-0.386,0.129-0.578c0.101,0,0.2,0,0.302,0
	c0.102-0.131,0.202-0.688,0.3-0.812c0.188,0.038,0.374,0.077,0.561,0.115c0.271-0.194,0.473-0.479,0.86-0.463
	c0-0.154,0-0.31,0-0.463c0.416-0.099,0.845-0.349,1.205-0.579c0.287-0.184,0.593,0.147,0.774,0.23
	c0.21,0.097,0.263-0.332,0.473-0.23c0.034,0.016,0.158,0.186,0.259,0.115c0.235-0.162,0.759-1.042,1.032-0.58
	c0.212-0.054,0.226-0.201,0.302-0.577c0.53,0.045,0.559,0.282,0.989-0.116c0.062,0.176,0.119,0.254,0.171,0.463
	c0.278-0.043,0.413-0.347,0.604-0.463c0.217,0.077,0.431,0.154,0.646,0.23c0.329-0.176,0.741,0.001,1.119-0.23
	c0.106-0.067,0.399-0.508,0.474-0.463c0.015,0.114,0.028,0.23,0.043,0.348c0.229,0.305,0.705-0.148,0.817-0.232
	c0.176-0.127,0.267,0.176,0.344,0.232c0.396,0.291,0.771-0.729,1.033,0.115c0.277,0.019,0.403-0.053,0.517-0.463
	c0.26,0.013,0.325,0.226,0.473,0.348c0.298,0.247,0.512,1.379,0.818,1.655c0.314-0.039,0.632-0.077,0.945-0.115
	c0.182,0.105,0.705,0.338,0.947,0.115c0.014-0.077,0.028-0.155,0.043-0.231c0.225-0.2,0.321,0.267,0.518,0
	c0.062-0.085,0.146,2.248,0.215,2.182c0.014,0,0.027,0,0.043,0c0.188-0.104,0.24,0.265,0.344,0.348
	c0.189,0.154,0.354-0.214,0.431-0.232c0.082-0.02,0.06,0.087,0.086,0.116c0.246-0.018,0.269-0.136,0.345-0.579
	c0.314,0.034,0.638,4.174,0.989,3.928c0.196-0.136,0.505-0.277,0.817-0.23c0.166,0.024,0.388,0.258,0.603,0.115
	c0.203-0.132,0.486-0.444,0.689-0.578c0.448-0.298,0.971,0.199,1.376-0.116c0.168-0.131,0.369-0.582,0.516-0.695
	c0.197-0.15,0.246,0.279,0.389,0.232c0.111-0.037,0.342-0.38,0.474-0.463c0.603-0.078,1.205-0.155,1.808-0.232
	c0.17,0.111,0.375,0.539,0.646,0.349c0.206-0.147,0.503-0.765,0.86-0.465c0.063,0.055,0.192,0.436,0.258,0.465
	c0.086,0.037,0.166-0.207,0.216-0.231c0.147-0.078,0.253,0.184,0.344,0.231c0.287,0.149,0.28-0.503,0.56-0.349
	c0.071,0.039,0.133,0.281,0.259,0.232c0.145-0.06,0.331-0.37,0.56-0.232c0.162,0.1,0.364,0.282,0.56,0.349
	c0,17.023,0,23.779,0,40.805c-74.343,0-148.709,0-223.051,0c0-8.647,0-17.298,0-25.944c0-2.315,0-4.634,0-6.949
	c0-0.767-0.079-2.247,0.042-2.779c0-0.077,0-0.154,0-0.231c0.236,0.383,0.238,0.218,0.517,0c0.05,0.277,0.099,0.601,0.173,0.812
	c0,0.039,0,0.077,0,0.115c0.12-0.162,0.098-0.325,0.173-0.578c0.027-0.2,0.009-0.113,0.043-0.231
	c0.014,0.153,0.028,0.308,0.043,0.462c0.18-0.103,0.146-0.229,0.258-0.462c0.103-0.232,0.498,0.729,0.818,0.462
	c0.598-0.497,0.21,0.002,0.688,0.348c0.207,0.15,0.375-0.361,0.517-0.23c0.231,0.217,0.62,1.729,1.033,1.506
	c0.037-0.02,0.142-0.31,0.215-0.23c0.029,0.153,0.058,0.31,0.086,0.464c0.096,0.135,1.524,0.665,1.679,0.579
	c0.452-0.257,1.021-0.415,1.419-0.579c0.278-0.114,0.571,0.464,0.904,0.23c0.702-0.492,1.672-0.805,2.409-1.273
	c0.458-0.293,1.172,0.048,1.506,0.23c0.014,0,0.028,0,0.043,0c0.196,0.063,0.302-0.263,0.43-0.348
	c0.145,0.039,0.287,0.078,0.432,0.116c0.068-0.061,0.147-0.382,0.215-0.464c0.029,0.022,0.086,0.23,0.086,0.23
	c0.229,0.047,0.063-0.393,0.345-0.115c0.005,0.005,0.021,0.228,0.086,0.115c0.015-0.115,0.028-0.23,0.043-0.348
	c0.101,0.153,0.2,0.309,0.301,0.464c0.298-1.562,0.937-0.793,1.334-1.392c0.044,0.175,0.064,0.229,0.129,0.349
	c0.1,0.229,0.602-0.647,0.903-0.463c0.396,0.241,0.505-0.848,0.947-0.579c0.32,0.193,0.421-0.468,0.772-0.231
	c0.157,0.104,0.438,0.414,0.689,0.231c0.275-0.199,1.253-0.924,1.29-1.042c0.169,0.09,0.152,0.123,0.216,0.463
	c0.455,0.016,1.055,0.032,1.291-0.579c0.156,0.086,0.119-0.011,0.172,0.348c0.103-0.099,0.08-0.279,0.129-0.348
	c0.13,0.04,0.259,0.078,0.388,0.117c0.104-0.075,0.23-0.421,0.388-0.349c0.157,0.073,0.465,0.435,0.73,0.231
	c0.025-0.02,0.081-0.233,0.129-0.231c0.101,0.003,0.14,0.335,0.302,0.231c0.05-0.031,0.176-0.313,0.215-0.347
	c0.216,0.039,0.432,0.077,0.646,0.115c0.056-0.057,0.052-0.447,0.173-0.348c0.028,0.116,0.058,0.231,0.086,0.348
	c0.05-0.136,0.078-0.326,0.129-0.464c0.177-0.216,0.719,0.198,1.032,0c0.352-0.222,0.759-0.104,1.118,0
	c0.203,0.061,0.244-0.386,0.344-0.463c0.147-0.114,0.277,0.391,0.389,0.463c0.129-0.039,0.258-0.077,0.387-0.114
	c0.057,0.033,0.201,0.298,0.258,0.348c0.271,0.233,0.709,0.062,0.947,0.462c0.41-0.026,0.443,0.149,0.646,0.579
	c0.097,0.203,0.166-0.368,0.345-0.231c0.014,0.013,0.104,0.332,0.129,0.349c0.08,0.05,0.474-0.229,0.688-0.231
	c0.127,0.366,0.254,0.807,0.387,1.158c0,0.039,0,0.077,0,0.116c0.17-0.188,0.162-0.519,0.345-0.694
	c0.186-0.33,0.284,0.051,0.388,0.23c0.228-0.403,0.315,0.144,0.474,0c0.367-0.003,0.313,0.324,0.475,0.812
	c0.106,0.12,0.315-0.327,0.56-0.116c0.14,0.121,0.257,0.459,0.429,0.579c0.101,0.117,0.104,0.026,0.173-0.23
	c0.127,0.165,0.272,0.729,0.345,1.042c0.117-0.155,0.121-0.375,0.215-0.579c0.022-0.062,0.537,0.594,0.646,0.812
	c0.269,0.011,0.32-0.084,0.431-0.464c0.17,0.236,0.231,0.672,0.43,0.928c0.097-0.343,0.28-0.62,0.431-0.812
	c0.104,0.428,0.266,0.789,0.475,0.928c0.094,0.099,0.048,0.09,0.129-0.116c0.268,0.166,0.531,1.313,0.773,1.042
	c0.323-0.001,0.271-0.22,0.432-0.578c0.038-0.124-0.005-0.011,0.043-0.115c0.07,0.374,0.117,0.508,0.257,0.693
	c0.062-0.229,0.058-0.243,0.174-0.348c0.043-0.094,0.011-0.042,0.085-0.116c0.038,0.211,0.072,0.421,0.129,0.579
	c0,0.039,0,0.077,0,0.116c0.107-0.171,0.051,0.028,0.086-0.348c0.244,0.001,0.297-0.077,0.389-0.463
	c0.066,0.174,0.098,0.293,0.129,0.577c0.401-0.289,0.619,0.076,0.859,0.813c0.29-0.123,0.68-0.891,0.903-0.348
	c0.212-0.056,0.226-0.203,0.301-0.579c0.138,0.096,0.397,0.581,0.604,0.348c0.058-0.193,0.114-0.386,0.173-0.579
	c0.114,0.039,0.229,0.077,0.344,0.116c0.137-0.145,0.09-0.408,0.346-0.463c0.035-0.211,0.074-0.52,0.129-0.694
	c0.098-0.117,0.101-0.025,0.17,0.231c0.216-0.13,0.132-0.382,0.261-0.579c0.143-0.038,0.286-0.077,0.429-0.116
	c0.252-0.187,0.657-0.622,0.861-1.042c0.26,0.151,0.277,0.844,0.43,1.273c0.107-0.726,0.239-1.705,0.518-1.97
	c0.084-0.085,0.289,0.222,0.388,0.463c0.105-0.171,0.067-0.049,0.086-0.463c0.137-0.096,0.237-0.278,0.344-0.116
	c0.165,0.16,0.062,0.175,0.129,0.349c0.09,0.265,0.241-0.49,0.345-0.578c0.101,0.038,0.201,0.076,0.301,0.115
	c0.016-0.115,0.028-0.231,0.043-0.349c0.104-0.302,0.301-0.473,0.475-0.579c0.116,0.271,0.165,0.205,0.215,0.695
	c0.014,0,0.028,0,0.043,0c0.068-0.286,0.122-0.461,0.258-0.579c0.072-0.091,0.33,0.133,0.432,0.349
	c0.173-0.104,0.313-0.525,0.43-0.812c0.243,0.123,0.23,0.528,0.389,0.812c0.085-0.132,0.127-0.124,0.215,0c0.015,0,0.027,0,0.043,0
	c0.015,0.115,0.027,0.23,0.043,0.348c0.252,0.275,0.606-0.615,0.902-0.348c0.598,0.535,0.34,0.05,0.817-0.349
	c0.114,0.04,0.229,0.078,0.345,0.116c0.013-0.007,0.146-0.257,0.172-0.231c0.03,0.029,0.066,0.411,0.129,0.349
	c0.296-0.301,0.588-0.808,0.99-0.927c0.057-1.207,1.229-1.202,1.548-0.579c0.157-0.223,0.194-0.763,0.347-1.042
	c0.095-0.132,0.272,0.27,0.344,0.578c0.245-0.139,0.764-1.025,1.074-0.463c0.313-0.109,0.199-0.64,0.389-0.928
	c0.172-0.038,0.344-0.077,0.516-0.115c0.203-0.196,0.366-0.841,0.561-1.043c0.144-0.037,0.287-0.075,0.431-0.115
	c0.046-0.09,0.035-0.479,0.086-0.578c0.079-0.155,0.258,0.056,0.344-0.116c0.015-0.193,0.029-0.386,0.044-0.579
	c0.215-0.603,0.448,0.2,0.688,0c0.202-0.17,0.26-0.594,0.516-0.463c0.044-0.192,0.087-0.386,0.129-0.578c0.102,0,0.201,0,0.302,0
	c0.103-0.13,0.202-0.688,0.303-0.812c0.186,0.037,0.372,0.076,0.559,0.114c0.271-0.193,0.473-0.479,0.86-0.463
	c0-0.154,0-0.31,0-0.464C63.97,27.492,64.398,27.239,64.767,27z M101.374,25.966c0.044,0,0.087,0,0.13,0c0-0.038,0-0.077,0-0.115
	c-0.075-0.075-0.043-0.022-0.086-0.116C101.383,25.852,101.4,25.762,101.374,25.966z M100.17,25.965c0,0.04,0,0.078,0,0.117
	c0.015,0,0.028,0,0.043,0c0,0.037,0,0.076,0,0.115c0.032-0.125,0.026-0.107,0.043-0.349
	C100.227,25.888,100.198,25.927,100.17,25.965z"/>
</svg>
