<?xml version="1.0" encoding="utf-8"?>
<!-- Generator: Adobe Illustrator 16.0.0, SVG Export Plug-In . SVG Version: 6.00 Build 0)  -->
<!DOCTYPE svg PUBLIC "-//W3C//DTD SVG 1.1//EN" "http://www.w3.org/Graphics/SVG/1.1/DTD/svg11.dtd">
<svg version="1.1" id="Layer_1" xmlns="http://www.w3.org/2000/svg" xmlns:xlink="http://www.w3.org/1999/xlink" x="0px" y="0px"
	 width="466.912px" height="38.841px" viewBox="0 0 466.912 38.841" enable-background="new 0 0 466.912 38.841"
	 xml:space="preserve">
<path fill="#FFFFFF" d="M466.905,38.841c-118.17,0-158.89,0-277.06,0c0-7.592,0-8.546,0-16.137c0-2.035,0-4.068,0-6.101
	c0-0.672-0.125-1.975,0.067-2.441c0-0.067,0-0.136,0-0.204c0.375,0.336,0.379,0.192,0.821,0c0.078,0.244,0.156,0.527,0.274,0.713
	c0,0.034,0,0.067,0,0.102c0.19-0.144,0.154-0.286,0.274-0.508c0.044-0.175,0.014-0.099,0.068-0.203
	c0.022,0.135,0.045,0.271,0.068,0.405c0.286-0.09,0.231-0.202,0.411-0.405c0.162-0.204,0.792,0.639,1.3,0.405
	c0.951-0.438,0.334,0.001,1.094,0.305c0.329,0.132,0.597-0.318,0.821-0.204c0.37,0.191,0.985,1.52,1.642,1.323
	c0.06-0.018,0.225-0.272,0.341-0.203c0.046,0.135,0.091,0.272,0.138,0.407c0.152,0.118,2.423,0.584,2.667,0.509
	c0.72-0.225,1.621-0.365,2.257-0.509c0.441-0.101,0.908,0.408,1.436,0.203c1.116-0.432,2.657-0.706,3.829-1.119
	c0.728-0.257,1.862,0.041,2.395,0.203c0.022,0,0.045,0,0.068,0c0.312,0.055,0.48-0.23,0.684-0.304
	c0.228,0.034,0.455,0.067,0.683,0.102c0.111-0.053,0.237-0.334,0.342-0.407c0.048,0.02,0.137,0.204,0.137,0.204
	c0.363,0.04,0.101-0.345,0.547-0.102c0.01,0.005,0.032,0.198,0.137,0.102c0.024-0.102,0.045-0.204,0.069-0.305
	c0.16,0.135,0.319,0.272,0.479,0.406c0.471-1.369,1.487-0.696,2.12-1.22c0.072,0.152,0.103,0.2,0.206,0.305
	c0.157,0.2,0.954-0.569,1.435-0.407c0.632,0.213,0.802-0.743,1.506-0.508c0.509,0.17,0.668-0.412,1.23-0.204
	c0.25,0.092,0.693,0.364,1.095,0.204c0.44-0.175,1.993-0.811,2.051-0.915c0.269,0.079,0.243,0.108,0.342,0.407
	c0.725,0.013,1.676,0.028,2.053-0.509c0.248,0.075,0.189-0.009,0.273,0.305c0.162-0.087,0.126-0.247,0.205-0.305
	c0.207,0.035,0.411,0.068,0.616,0.103c0.166-0.066,0.367-0.37,0.615-0.304c0.253,0.064,0.738,0.38,1.164,0.203
	c0.04-0.017,0.128-0.205,0.205-0.203c0.158,0.002,0.221,0.293,0.48,0.203c0.077-0.028,0.277-0.275,0.341-0.305
	c0.342,0.035,0.684,0.067,1.026,0.102c0.09-0.049,0.082-0.394,0.274-0.305c0.045,0.101,0.091,0.203,0.137,0.305
	c0.079-0.119,0.126-0.288,0.206-0.407c0.28-0.189,1.142,0.174,1.643,0c0.557-0.194,1.205-0.092,1.776,0
	c0.323,0.052,0.387-0.339,0.547-0.407c0.234-0.099,0.441,0.343,0.615,0.407c0.205-0.034,0.41-0.068,0.615-0.101
	c0.09,0.031,0.32,0.262,0.41,0.304c0.433,0.207,1.127,0.055,1.505,0.407c0.653-0.023,0.707,0.131,1.025,0.508
	c0.156,0.178,0.265-0.323,0.548-0.203c0.022,0.01,0.165,0.292,0.205,0.305c0.129,0.043,0.753-0.201,1.095-0.203
	c0.203,0.322,0.402,0.708,0.615,1.017c0,0.034,0,0.068,0,0.102c0.271-0.166,0.258-0.455,0.549-0.61
	c0.294-0.29,0.45,0.045,0.614,0.203c0.361-0.353,0.504,0.126,0.753,0c0.583-0.002,0.496,0.286,0.75,0.713
	c0.172,0.105,0.505-0.287,0.89-0.103c0.223,0.106,0.408,0.403,0.684,0.509c0.157,0.102,0.162,0.022,0.273-0.204
	c0.2,0.146,0.434,0.641,0.547,0.916c0.187-0.138,0.193-0.33,0.342-0.508c0.034-0.054,0.854,0.521,1.025,0.713
	c0.427,0.008,0.507-0.074,0.684-0.408c0.271,0.208,0.371,0.59,0.684,0.814c0.154-0.3,0.445-0.546,0.685-0.712
	c0.163,0.375,0.421,0.692,0.752,0.814c0.149,0.086,0.077,0.079,0.204-0.103c0.423,0.146,0.846,1.154,1.232,0.916
	c0.515-0.002,0.429-0.194,0.684-0.509c0.062-0.109-0.007-0.009,0.069-0.101c0.112,0.328,0.187,0.446,0.409,0.61
	c0.097-0.201,0.092-0.215,0.274-0.306c0.069-0.082,0.017-0.037,0.136-0.102c0.061,0.185,0.116,0.37,0.205,0.509
	c0,0.034,0,0.067,0,0.101c0.171-0.149,0.081,0.025,0.138-0.305c0.388,0.001,0.47-0.067,0.614-0.406
	c0.107,0.152,0.156,0.258,0.205,0.508c0.641-0.255,0.986,0.065,1.367,0.711c0.461-0.108,1.078-0.782,1.436-0.305
	c0.337-0.047,0.356-0.178,0.479-0.508c0.22,0.084,0.633,0.51,0.958,0.304c0.092-0.168,0.184-0.338,0.273-0.507
	c0.183,0.033,0.364,0.067,0.547,0.102c0.216-0.127,0.144-0.359,0.546-0.407c0.059-0.185,0.12-0.454,0.206-0.609
	c0.156-0.102,0.163-0.022,0.274,0.203c0.339-0.114,0.204-0.335,0.409-0.508c0.228-0.034,0.455-0.067,0.684-0.101
	c0.399-0.164,1.044-0.546,1.367-0.916c0.414,0.134,0.443,0.74,0.685,1.118c0.172-0.636,0.379-1.497,0.82-1.729
	c0.135-0.074,0.459,0.194,0.615,0.407c0.169-0.151,0.11-0.043,0.137-0.407c0.218-0.083,0.376-0.244,0.548-0.102
	c0.262,0.141,0.097,0.153,0.204,0.305c0.144,0.233,0.384-0.43,0.547-0.508c0.16,0.035,0.319,0.067,0.479,0.102
	c0.023-0.102,0.045-0.204,0.069-0.304c0.163-0.267,0.478-0.415,0.751-0.509c0.185,0.237,0.263,0.18,0.344,0.609
	c0.022,0,0.045,0,0.066,0c0.111-0.251,0.196-0.403,0.411-0.507c0.117-0.081,0.524,0.116,0.685,0.305
	c0.271-0.092,0.496-0.461,0.683-0.712c0.386,0.107,0.364,0.463,0.615,0.712c0.138-0.116,0.205-0.109,0.341,0c0.024,0,0.047,0,0.07,0
	c0.024,0.101,0.046,0.202,0.068,0.305c0.402,0.242,0.964-0.541,1.437-0.305c0.948,0.47,0.538,0.043,1.299-0.305
	c0.183,0.034,0.364,0.067,0.548,0.102c0.019-0.007,0.229-0.226,0.272-0.204c0.049,0.026,0.104,0.361,0.205,0.305
	c0.471-0.265,0.934-0.709,1.574-0.814c0.09-1.06,1.952-1.055,2.463-0.507c0.249-0.195,0.307-0.67,0.546-0.916
	c0.152-0.115,0.438,0.237,0.548,0.508c0.39-0.121,1.215-0.901,1.711-0.406c0.497-0.096,0.314-0.561,0.614-0.814
	c0.272-0.033,0.546-0.067,0.821-0.102c0.321-0.173,0.581-0.737,0.89-0.914c0.228-0.036,0.456-0.068,0.683-0.103
	c0.073-0.078,0.057-0.42,0.139-0.507c0.123-0.137,0.408,0.048,0.545-0.103c0.022-0.168,0.046-0.338,0.069-0.507
	c0.341-0.53,0.715,0.176,1.094,0c0.323-0.149,0.416-0.521,0.821-0.406c0.069-0.169,0.137-0.339,0.205-0.508c0.161,0,0.319,0,0.48,0
	c0.161-0.113,0.32-0.605,0.478-0.713c0.298,0.034,0.592,0.068,0.89,0.102c0.43-0.17,0.751-0.421,1.368-0.406
	c0-0.136,0-0.271,0-0.407c0.662-0.085,1.342-0.306,1.928-0.516c0.456-0.161,0.94,0.13,1.231,0.204
	c0.335,0.084,0.419-0.292,0.753-0.204c0.053,0.013,0.249,0.162,0.408,0.102c0.377-0.143,1.207-0.915,1.643-0.508
	c0.338-0.048,0.356-0.179,0.479-0.508c0.845,0.039,0.889,0.249,1.572-0.101c0.097,0.154,0.189,0.223,0.273,0.406
	c0.442-0.038,0.656-0.304,0.957-0.406c0.343,0.067,0.684,0.136,1.026,0.203c0.521-0.154,1.178,0.001,1.777-0.203
	c0.172-0.059,0.636-0.447,0.752-0.407c0.023,0.102,0.047,0.203,0.068,0.305c0.365,0.267,1.121-0.132,1.301-0.203
	c0.28-0.113,0.422,0.153,0.545,0.203c0.632,0.255,1.227-0.641,1.643,0.102c0.441,0.016,0.642-0.046,0.82-0.406
	c0.414,0.012,0.521,0.198,0.753,0.305c0.472,0.217,0.814-0.142,1.3,0.102c0.5-0.035,1.003-0.068,1.505-0.102
	c0.286,0.093,1.119,0.297,1.506,0.102c0.021-0.068,0.044-0.137,0.067-0.203c0.355-0.175,0.512,0.233,0.821,0
	c0.099-0.074,0.232-0.45,0.343-0.508c0.022,0,0.044,0,0.068,0c0.299-0.091,0.384,0.232,0.546,0.305
	c0.305,0.135,0.563-0.188,0.685-0.204c0.13-0.016,0.094,0.076,0.137,0.103c0.392-0.016,0.425-0.12,0.546-0.509
	c0.491,0.029,1.025,0.435,1.574,0.204c0.258-0.109,0.599-0.204,1.025-0.204c0.3,0,0.767,0.146,0.958,0.102
	c0.976-0.226,2.186-0.572,3.146-0.915c0.228,0,0.455,0,0.684,0c0.377-0.151,0.817-0.392,1.095-0.508
	c0.091,0.034,0.182,0.067,0.273,0.102c0.149-0.076,0.208-0.414,0.342-0.509c0.631,0.324,1.374-0.112,1.846-0.305
	c0.366,0,0.731,0,1.095,0c0.739-0.283,1.663-0.55,2.396-0.814c0.614,0.068,1.23,0.137,1.846,0.204c0.382,0,0.955-0.346,1.094-0.305
	c0.053,0.015,0.274,0.278,0.344,0.305c0.682,0.272,1.178-0.499,1.776-0.204c0.128,0.063,0.333,0.348,0.48,0.407
	c0.479-0.034,0.957-0.068,1.436-0.102l0.204,0.203c0.208,0.037,0.244-0.32,0.48-0.203c0.061,0.03,0.213,0.376,0.272,0.407
	c0.579,0.299,0.628-0.729,1.095,0.305c0.452-0.189,0.67-0.065,1.095,0.102c0.343-0.034,0.684-0.067,1.025-0.102
	c0.342,0.237,0.685,0.475,1.025,0.712c0.297,0.034,0.594,0.068,0.89,0.102c0.023,0.101,0.046,0.203,0.069,0.306
	c0.071,0.052,0.425-0.103,0.616,0c0.451,0.245,0.868,0.718,1.299,1.016c0.161-0.448,0.36-0.422,0.614-0.712c0.024,0,0.046,0,0.069,0
	c-0.042,0.317-0.012,0.247-0.138,0.406c0.242,0.263,0.716,0.412,1.095,0.407c0,0.102,0,0.204,0,0.305
	c0.165,0.126,0.264,0.27,0.41,0.406c0,0.035,0,0.067,0,0.102c0.104-0.144,0.151-0.281,0.274-0.407c0.086-0.077,0.065-0.008,0.272,0
	c0-0.102,0-0.203,0-0.305c0.32,0.315,1.435,0.376,1.437,0.813c0.16,0,0.318,0,0.478,0c0.015-0.264,0.031-0.346,0.07-0.508
	c0.387-0.034,0.774-0.067,1.162-0.102c0,0.102,0,0.203,0,0.305c0.27,0.056,0.46,0.183,0.616,0.405
	c0.329-0.083,0.348-0.271,0.614-0.405c0.395-0.293,0.83,0.339,1.231,0.405c0-0.101,0-0.202,0-0.304
	c0.153,0.065,0.181,0.076,0.273,0.203c0.21-0.109,0.247-0.248,0.41-0.405c0,0,0.009-0.216,0.068-0.103
	c0.011,0.004,1.597,0.869,1.642,0.916c0.204-0.101,0.364-0.278,0.479-0.508c0.256,0.064,0.399,0.333,0.753,0.202
	c0.238-0.088,0.392-0.275,0.751-0.304c0.104,0.167,0.231,0.356,0.344,0.508c0.085,0.039,0.679-0.015,0.82-0.204
	c0.093-0.177,0.006-0.171,0.068-0.304c0-0.068,0-0.137,0-0.203c0.207,0.145,0.28,0.116,0.344,0.506
	c0.137-0.168,0.272-0.338,0.409-0.506c0.563,0.026,0.636,0.351,0.959,0.506c0.078,0.04,0.622-0.359,0.752-0.405
	c0.592,0.033,1.186,0.067,1.777,0.101c0.536,0.198,1.2,0.548,1.71,0.712c0.351,0.112,0.383-0.37,0.685-0.204
	c0.068,0.135,0.137,0.272,0.205,0.407c0.297-0.035,0.592-0.068,0.889-0.102c0.092,0.169,0.183,0.339,0.273,0.508
	c0,0.002,1.23,0.305,1.23,0.305c0.051-0.013,0.256-0.178,0.41-0.102c0.149,0.073,0.32,0.432,0.479,0.508
	c0.469,0.226,0.68-0.359,1.094-0.204c0.146,0.056,0.354,0.351,0.48,0.407c0.252-0.035,0.5-0.068,0.753-0.102
	c0.087,0.074,0.055,0.335,0.204,0.407c0.116-0.247,0.771-0.533,1.096-0.407c0.367,0.142,0.792,0.557,1.162,0.712
	c0.434,0.068,0.867,0.137,1.298,0.204c0.153,0.089,0.319,0.429,0.481,0.508c0.204,0,0.41,0,0.615,0
	c0.483,0.173,1.072,0.434,1.505,0.609c0.341,0,0.681,0,1.024,0c0.113,0.069,0.24,0.429,0.344,0.509
	c0.25,0.068,0.499,0.136,0.752,0.204c0.09,0.169,0.183,0.339,0.271,0.507c0.435,0.036,0.868,0.068,1.3,0.103
	c0.112,0.054,0.299,0.354,0.411,0.406c0.53,0.248,0.601-0.524,1.094-0.306c0.237,0.106,0.392,0.558,0.821,0.407
	c0.321-0.111,1.108-0.804,1.573-0.508c0.213,0.135,0.194,0.425,0.548,0.508c0.046-0.39,0.095-0.439,0.272-0.611
	c0.136-0.193,0.154,0.152,0.274,0.204c0.361,0.158,1.028-0.343,1.436,0c0.093,0.079-0.033,0.375,0.205,0.306
	c0.062-0.019,0.123-0.336,0.341-0.204c0.069,0.136,0.137,0.273,0.207,0.407c0.268,0.258,0.624,0.243,0.889,0.507
	c0.195,0.197,0.307,0.684,0.548,0.815c0.296,0.034,0.591,0.067,0.889,0.102c0.096,0.069,0.13,0.437,0.204,0.507
	c0.411,0.035,0.821,0.068,1.232,0.102c0.115,0.203,0.228,0.407,0.342,0.61c0.251,0,0.501,0,0.753,0
	c0.18,0.114,0.183,0.593,0.341,0.712c0.253,0,0.502,0,0.754,0c0.418,0.186,1.266,1.177,1.778,0.509
	c0.08,0.114,0.147,0.258,0.205,0.405c0.104-0.149,0.168-0.356,0.272-0.507c0.198-0.277,0.501-0.019,0.753,0.102
	c0.047-0.127,0.074-0.21,0.137-0.305c0.095-0.074,0.085-0.033,0.205,0.102c0.048-0.078,0.09-0.227,0.138-0.305
	c0.187-0.15,0.213,0.117,0.342-0.306c0.373,0.336,0.378,0.193,0.821,0c0.076,0.246,0.155,0.528,0.272,0.713c0,0.034,0,0.067,0,0.101
	c0.192-0.144,0.154-0.285,0.273-0.509c0.044-0.175,0.014-0.099,0.068-0.203c0.024,0.136,0.046,0.271,0.069,0.407
	c0.286-0.091,0.231-0.204,0.41-0.407c0.161-0.203,0.791,0.64,1.299,0.407c0.952-0.438,0.333,0,1.096,0.304
	c0.33,0.132,0.596-0.319,0.821-0.204c0.37,0.19,0.984,1.519,1.64,1.322c0.061-0.018,0.228-0.273,0.345-0.204
	c0.044,0.136,0.091,0.272,0.137,0.407c0.151,0.118,2.422,0.583,2.665,0.507c0.721-0.224,1.622-0.364,2.257-0.507
	c0.442-0.1,0.907,0.407,1.436,0.204c1.116-0.431,2.658-0.708,3.829-1.12c0.729-0.256,1.862,0.042,2.396,0.204
	c0.022,0,0.045,0,0.069,0c0.31,0.054,0.479-0.231,0.682-0.305c0.229,0.034,0.457,0.067,0.684,0.101
	c0.11-0.052,0.237-0.333,0.343-0.406c0.047,0.021,0.138,0.204,0.138,0.204c0.363,0.04,0.099-0.346,0.546-0.103
	c0.01,0.005,0.032,0.199,0.139,0.103c0.021-0.103,0.044-0.204,0.067-0.305c0.159,0.135,0.32,0.271,0.479,0.406
	c0.471-1.37,1.486-0.696,2.12-1.221c0.071,0.153,0.103,0.201,0.206,0.305c0.156,0.201,0.953-0.57,1.434-0.406
	c0.634,0.213,0.802-0.743,1.506-0.508c0.509,0.17,0.67-0.411,1.231-0.203c0.25,0.092,0.693,0.363,1.095,0.203
	c0.44-0.176,1.992-0.811,2.051-0.915c0.269,0.08,0.243,0.108,0.344,0.407c0.724,0.012,1.675,0.027,2.052-0.508
	c0.249,0.075,0.189-0.011,0.272,0.305c0.164-0.088,0.126-0.248,0.205-0.305c0.206,0.034,0.41,0.067,0.616,0.102
	c0.165-0.066,0.365-0.368,0.614-0.305c0.252,0.065,0.737,0.381,1.163,0.204c0.039-0.017,0.129-0.205,0.204-0.204
	c0.16,0.002,0.222,0.294,0.48,0.204c0.077-0.027,0.278-0.276,0.342-0.305c0.343,0.035,0.684,0.068,1.026,0.102
	c0.087-0.05,0.08-0.393,0.271-0.306c0.046,0.103,0.093,0.204,0.139,0.306c0.077-0.118,0.126-0.288,0.205-0.407
	c0.28-0.189,1.142,0.174,1.641,0c0.557-0.194,1.206-0.092,1.778,0c0.321,0.053,0.389-0.339,0.546-0.406
	c0.233-0.099,0.442,0.343,0.615,0.406c0.207-0.034,0.41-0.067,0.615-0.101c0.09,0.03,0.321,0.262,0.41,0.304
	c0.434,0.206,1.127,0.054,1.505,0.406c0.652-0.022,0.708,0.132,1.026,0.509c0.154,0.177,0.263-0.324,0.548-0.204
	c0.021,0.009,0.163,0.291,0.205,0.305c0.128,0.042,0.753-0.201,1.094-0.203c0.203,0.321,0.401,0.707,0.614,1.016
	c0,0.034,0,0.068,0,0.103c0.271-0.167,0.26-0.456,0.549-0.611c0.294-0.29,0.45,0.046,0.615,0.204c0.361-0.354,0.503,0.126,0.752,0
	c0.584-0.002,0.496,0.286,0.753,0.712c0.171,0.106,0.504-0.287,0.889-0.102c0.221,0.106,0.407,0.402,0.682,0.508
	c0.159,0.103,0.164,0.023,0.275-0.204c0.2,0.146,0.433,0.641,0.545,0.916c0.187-0.138,0.194-0.331,0.345-0.508
	c0.031-0.054,0.853,0.52,1.024,0.711c0.427,0.009,0.507-0.073,0.683-0.405c0.271,0.207,0.372,0.588,0.685,0.813
	c0.154-0.3,0.445-0.545,0.684-0.711c0.162,0.375,0.422,0.692,0.752,0.813c0.15,0.087,0.074,0.08,0.207-0.101
	c0.423,0.146,0.843,1.154,1.23,0.916c0.515,0,0.429-0.193,0.684-0.507c0-0.034,0-0.068,0-0.103c0.022,0,0.044,0,0.069,0
	c0.112,0.329,0.186,0.446,0.409,0.61c0.097-0.2,0.091-0.214,0.272-0.305c0.071-0.082,0.019-0.038,0.137-0.102
	c0.063,0.185,0.116,0.37,0.205,0.508c0,0.034,0,0.067,0,0.102c0.171-0.148,0.08,0.024,0.137-0.305
	c0.389,0.001,0.471-0.067,0.616-0.406c0.105,0.152,0.155,0.258,0.205,0.507c0.641-0.254,0.985,0.067,1.367,0.712
	c0.462-0.108,1.078-0.782,1.437-0.305c0.336-0.048,0.355-0.178,0.479-0.507 M350.971,3.894c0.068,0,0.136,0,0.204,0
	c0-0.034,0-0.067,0-0.101c-0.116-0.066-0.065-0.02-0.136-0.102C350.985,3.795,351.015,3.715,350.971,3.894z M349.058,3.894
	c0,0.035,0,0.068,0,0.103c0.021,0,0.044,0,0.068,0c0,0.033,0,0.066,0,0.101c0.05-0.11,0.041-0.094,0.067-0.305
	C349.148,3.825,349.102,3.86,349.058,3.894z"/>
<path fill="#FFFFFF" d="M13.638,9.993c0.323-0.114,0.666,0.092,0.873,0.144c0.236,0.061,0.295-0.207,0.532-0.144
	c0.039,0.009,0.178,0.114,0.292,0.072c0.267-0.102,0.854-0.648,1.164-0.361c0.239-0.035,0.254-0.126,0.34-0.36
	c0.6,0.028,0.632,0.177,1.115-0.073c0.069,0.11,0.134,0.16,0.195,0.289c0.314-0.028,0.463-0.216,0.679-0.289
	c0.243,0.048,0.485,0.097,0.728,0.146c0.371-0.11,0.835,0.001,1.262-0.146c0.121-0.042,0.449-0.316,0.535-0.288
	c0.016,0.072,0.03,0.144,0.046,0.216c0.259,0.189,0.795-0.092,0.922-0.144c0.198-0.08,0.301,0.108,0.388,0.144
	c0.447,0.182,0.87-0.454,1.164,0.072c0.313,0.011,0.456-0.033,0.583-0.289c0.293,0.008,0.369,0.141,0.533,0.216
	c0.336,0.155,0.577-0.1,0.923,0.073c0.354-0.025,0.712-0.048,1.066-0.073c0.204,0.067,0.795,0.211,1.067,0.073
	c0.016-0.048,0.032-0.097,0.048-0.145c0.253-0.123,0.362,0.166,0.583,0c0.068-0.052,0.164-0.318,0.241-0.36c0.017,0,0.032,0,0.048,0
	c0.211-0.064,0.273,0.166,0.389,0.216c0.215,0.097,0.4-0.132,0.485-0.144c0.093-0.013,0.067,0.053,0.097,0.072
	c0.277-0.011,0.301-0.084,0.389-0.36c0.349,0.02,0.726,0.308,1.115,0.144c0.183-0.077,0.425-0.144,0.729-0.144
	c0.211,0,0.542,0.104,0.678,0.071c0.692-0.159,1.55-0.404,2.231-0.648c0.162,0,0.324,0,0.485,0c0.268-0.107,0.581-0.278,0.776-0.36
	c0.065,0.024,0.129,0.048,0.195,0.072c0.105-0.054,0.146-0.293,0.242-0.361c0.447,0.23,0.973-0.08,1.309-0.216
	c0.259,0,0.517,0,0.776,0c0.525-0.201,1.178-0.391,1.697-0.578c0.436,0.047,0.872,0.096,1.31,0.144c0.269,0,0.676-0.247,0.775-0.216
	c0.038,0.011,0.194,0.196,0.242,0.216c0.483,0.193,0.835-0.354,1.26-0.144c0.089,0.043,0.237,0.246,0.34,0.288
	c0.34-0.023,0.679-0.047,1.018-0.071l0.146,0.144c0.145,0.026,0.173-0.227,0.34-0.144c0.042,0.021,0.152,0.267,0.194,0.288
	c0.412,0.213,0.446-0.517,0.776,0.217c0.32-0.133,0.475-0.045,0.776,0.073c0.243-0.024,0.485-0.049,0.728-0.073
	c0.243,0.169,0.485,0.336,0.729,0.506c0.211,0.024,0.42,0.048,0.631,0.072c0.018,0.071,0.032,0.143,0.048,0.217
	c0.053,0.036,0.304-0.074,0.436,0c0.322,0.173,0.619,0.508,0.922,0.721c0.115-0.319,0.256-0.3,0.436-0.505c0.018,0,0.033,0,0.048,0
	c-0.029,0.224-0.008,0.174-0.097,0.288c0.171,0.186,0.507,0.291,0.776,0.288c0,0.072,0,0.145,0,0.218
	c0.118,0.089,0.186,0.191,0.291,0.288c0,0.024,0,0.048,0,0.074c0.074-0.104,0.109-0.2,0.195-0.29c0.062-0.055,0.046-0.005,0.195,0
	c0-0.071,0-0.143,0-0.217C53.297,9.137,54.09,9.18,54.09,9.49c0.114,0,0.226,0,0.339,0c0.011-0.187,0.022-0.245,0.049-0.36
	c0.274-0.024,0.549-0.047,0.823-0.071c0,0.071,0,0.143,0,0.216c0.192,0.04,0.326,0.129,0.437,0.288
	c0.233-0.059,0.247-0.193,0.437-0.288c0.279-0.208,0.587,0.241,0.872,0.288c0-0.072,0-0.143,0-0.216
	c0.109,0.046,0.127,0.054,0.192,0.144c0.15-0.078,0.175-0.175,0.293-0.288c0,0,0.004-0.152,0.048-0.072
	c0.007,0.003,1.129,0.616,1.163,0.649c0.145-0.071,0.259-0.197,0.341-0.359c0.178,0.044,0.282,0.235,0.533,0.143
	c0.168-0.063,0.278-0.195,0.534-0.217c0.073,0.118,0.164,0.254,0.243,0.361c0.062,0.027,0.482-0.011,0.583-0.144
	c0.065-0.126,0.003-0.121,0.048-0.217c0-0.047,0-0.096,0-0.144c0.146,0.104,0.196,0.083,0.242,0.36
	c0.097-0.12,0.195-0.24,0.292-0.36c0.398,0.019,0.449,0.249,0.681,0.36c0.055,0.028,0.44-0.255,0.533-0.288
	c0.42,0.023,0.841,0.047,1.26,0.071c0.381,0.141,0.853,0.389,1.213,0.505c0.248,0.08,0.27-0.263,0.485-0.144
	c0.049,0.096,0.096,0.193,0.146,0.289c0.209-0.024,0.42-0.049,0.629-0.073c0.066,0.12,0.13,0.24,0.196,0.36
	c0,0,0.872,0.217,0.872,0.217c0.035-0.01,0.18-0.126,0.291-0.072c0.107,0.051,0.228,0.306,0.34,0.36
	c0.333,0.161,0.483-0.254,0.776-0.144c0.104,0.039,0.251,0.249,0.339,0.289c0.178-0.024,0.355-0.048,0.535-0.072
	c0.062,0.052,0.039,0.238,0.145,0.289c0.081-0.175,0.547-0.377,0.776-0.289c0.261,0.101,0.562,0.396,0.824,0.506
	c0.307,0.047,0.614,0.096,0.921,0.143c0.108,0.063,0.225,0.303,0.34,0.361c0.144,0,0.291,0,0.436,0
	c0.342,0.123,0.762,0.308,1.066,0.432c0.242,0,0.485,0,0.728,0c0.078,0.049,0.169,0.304,0.243,0.361
	c0.177,0.048,0.354,0.096,0.533,0.144c0.065,0.12,0.128,0.241,0.195,0.36c0.307,0.025,0.613,0.049,0.921,0.073
	c0.077,0.039,0.21,0.251,0.291,0.288c0.377,0.176,0.426-0.371,0.775-0.216c0.168,0.074,0.277,0.395,0.582,0.288
	c0.228-0.079,0.787-0.57,1.115-0.36c0.153,0.096,0.139,0.301,0.39,0.36c0.033-0.276,0.066-0.311,0.194-0.433
	c0.096-0.136,0.108,0.107,0.193,0.145c0.258,0.111,0.73-0.245,1.019,0c0.067,0.055-0.023,0.265,0.146,0.216
	c0.044-0.013,0.087-0.239,0.241-0.145c0.05,0.096,0.098,0.193,0.146,0.29c0.189,0.182,0.442,0.171,0.632,0.36
	c0.139,0.14,0.218,0.483,0.388,0.577c0.211,0.025,0.42,0.048,0.632,0.072c0.068,0.049,0.09,0.311,0.145,0.361
	c0.292,0.024,0.583,0.047,0.871,0.072c0.082,0.144,0.164,0.289,0.245,0.432c0.177,0,0.354,0,0.534,0
	c0.126,0.082,0.128,0.421,0.243,0.505c0.177,0,0.354,0,0.534,0c0.295,0.132,0.896,0.835,1.26,0.36
	c0.057,0.083,0.104,0.184,0.146,0.289c0.074-0.107,0.12-0.253,0.193-0.361c0.14-0.195,0.357-0.013,0.535,0.072
	c0.032-0.09,0.052-0.148,0.097-0.216c0.067-0.054,0.062-0.024,0.146,0.072c0.032-0.056,0.064-0.161,0.097-0.217
	c0.133-0.106,0.152,0.083,0.242-0.217c0.266,0.239,0.269,0.136,0.583,0c0.056,0.174,0.11,0.375,0.195,0.506c0,0.024,0,0.048,0,0.072
	c0.135-0.101,0.109-0.202,0.195-0.361c0.031-0.123,0.009-0.07,0.048-0.144c0.016,0.096,0.031,0.193,0.048,0.289
	c0.203-0.065,0.163-0.144,0.291-0.289c0.115-0.144,0.561,0.454,0.921,0.289c0.675-0.311,0.237,0,0.776,0.216
	c0.232,0.094,0.421-0.226,0.581-0.144c0.262,0.135,0.698,1.077,1.164,0.938c0.041-0.012,0.162-0.193,0.243-0.144
	c0.032,0.096,0.064,0.192,0.097,0.289c0.109,0.084,1.718,0.415,1.891,0.361c0.512-0.16,1.15-0.259,1.601-0.361
	c0.313-0.071,0.643,0.289,1.02,0.144c0.792-0.306,1.885-0.5,2.714-0.792c0.516-0.182,1.32,0.029,1.697,0.144
	c0.018,0,0.033,0,0.048,0c0.221,0.039,0.342-0.164,0.487-0.216c0.163,0.024,0.324,0.047,0.485,0.072
	c0.077-0.037,0.166-0.238,0.242-0.289c0.033,0.015,0.097,0.145,0.097,0.145c0.259,0.028,0.072-0.246,0.389-0.073
	c0.008,0.003,0.024,0.142,0.097,0.073c0.017-0.073,0.032-0.145,0.049-0.217c0.114,0.096,0.227,0.192,0.34,0.29
	c0.333-0.973,1.055-0.494,1.502-0.867c0.052,0.109,0.072,0.143,0.146,0.217c0.111,0.143,0.677-0.404,1.019-0.289
	c0.446,0.152,0.565-0.527,1.066-0.36c0.36,0.12,0.473-0.292,0.873-0.144c0.176,0.066,0.492,0.258,0.775,0.144
	c0.312-0.124,1.415-0.575,1.456-0.649c0.189,0.056,0.171,0.077,0.243,0.29c0.513,0.008,1.19,0.019,1.456-0.361
	c0.175,0.053,0.133-0.007,0.194,0.216c0.114-0.062,0.09-0.175,0.146-0.216c0.145,0.024,0.291,0.048,0.436,0.072
	c0.118-0.047,0.259-0.26,0.437-0.217c0.177,0.047,0.522,0.271,0.823,0.146c0.026-0.013,0.091-0.146,0.146-0.146
	c0.111,0.002,0.156,0.209,0.339,0.146c0.056-0.02,0.198-0.196,0.243-0.217c0.244,0.025,0.486,0.049,0.729,0.071
	c0.062-0.035,0.056-0.278,0.194-0.216c0.032,0.072,0.063,0.144,0.097,0.216c0.056-0.083,0.089-0.203,0.146-0.288
	c0.198-0.134,0.809,0.123,1.163,0c0.396-0.139,0.855-0.065,1.262,0c0.227,0.038,0.273-0.241,0.387-0.289
	c0.164-0.07,0.313,0.244,0.436,0.289c0.146-0.024,0.291-0.048,0.437-0.072c0.063,0.021,0.227,0.186,0.292,0.216
	c0.306,0.145,0.797,0.039,1.066,0.289c0.462-0.016,0.502,0.093,0.729,0.361c0.11,0.125,0.188-0.229,0.388-0.145
	c0.016,0.007,0.118,0.206,0.146,0.216c0.092,0.031,0.534-0.143,0.776-0.144c0.143,0.228,0.284,0.501,0.437,0.721
	c0,0.023,0,0.047,0,0.073c0.191-0.119,0.183-0.324,0.387-0.433c0.21-0.206,0.32,0.032,0.437,0.144c0.258-0.25,0.357,0.09,0.535,0
	c0.414-0.002,0.352,0.203,0.532,0.505c0.122,0.075,0.357-0.203,0.63-0.073c0.16,0.076,0.291,0.287,0.487,0.361
	c0.111,0.073,0.116,0.018,0.194-0.144c0.143,0.104,0.308,0.454,0.389,0.649c0.132-0.098,0.136-0.234,0.243-0.36
	c0.024-0.039,0.605,0.368,0.728,0.504c0.303,0.006,0.36-0.052,0.485-0.288c0.192,0.147,0.262,0.418,0.486,0.577
	c0.108-0.213,0.315-0.387,0.484-0.504c0.116,0.265,0.3,0.491,0.534,0.577c0.106,0.061,0.056,0.056,0.145-0.073
	c0.301,0.104,0.599,0.818,0.873,0.649c0.365,0,0.305-0.136,0.485-0.359c0-0.024,0-0.048,0-0.073c0.017,0,0.033,0,0.048,0
	c0.08,0.234,0.132,0.317,0.291,0.432c0.07-0.142,0.066-0.152,0.194-0.216c0.051-0.058,0.012-0.027,0.097-0.072
	c0.042,0.131,0.081,0.261,0.145,0.36c0,0.024,0,0.048,0,0.072c0.12-0.105,0.058,0.018,0.097-0.216
	c0.274,0.001,0.334-0.047,0.438-0.289c0.074,0.109,0.109,0.183,0.144,0.36c0.455-0.181,0.699,0.047,0.97,0.506
	c0.326-0.077,0.765-0.556,1.017-0.217c0.239-0.034,0.254-0.126,0.341-0.361c0.155,0.06,0.447,0.361,0.678,0.216
	c0.066-0.12,0.131-0.24,0.195-0.36c0.13,0.024,0.259,0.047,0.389,0.072c0.153-0.091,0.102-0.254,0.389-0.29
	c0.041-0.131,0.084-0.323,0.145-0.433c0.11-0.072,0.115-0.015,0.194,0.145c0.241-0.082,0.146-0.239,0.292-0.36
	c0.162-0.024,0.323-0.048,0.484-0.072c0.282-0.116,0.74-0.388,0.969-0.65c0.295,0.094,0.314,0.526,0.487,0.793
	c0.121-0.452,0.27-1.062,0.582-1.226c0.096-0.054,0.327,0.137,0.437,0.288c0.121-0.107,0.077-0.03,0.097-0.288
	c0.154-0.06,0.267-0.174,0.388-0.073c0.187,0.1,0.07,0.109,0.146,0.217c0.102,0.166,0.271-0.305,0.388-0.36
	c0.114,0.023,0.228,0.048,0.34,0.072c0.017-0.072,0.033-0.145,0.048-0.217c0.117-0.188,0.339-0.294,0.535-0.36
	c0.13,0.168,0.185,0.127,0.242,0.432c0.017,0,0.033,0,0.048,0c0.077-0.178,0.138-0.287,0.292-0.36
	c0.082-0.057,0.371,0.083,0.484,0.216c0.195-0.064,0.354-0.326,0.485-0.504c0.274,0.076,0.259,0.329,0.437,0.504
	c0.098-0.082,0.145-0.078,0.244,0c0.015,0,0.031,0,0.048,0c0.015,0.072,0.032,0.145,0.047,0.217
	c0.285,0.171,0.684-0.383,1.018-0.217c0.672,0.334,0.383,0.032,0.92-0.216c0.13,0.024,0.258,0.047,0.39,0.073
	c0.014-0.005,0.164-0.16,0.194-0.145c0.033,0.018,0.073,0.255,0.145,0.217c0.333-0.188,0.663-0.504,1.116-0.578
	c0.064-0.751,1.385-0.748,1.746-0.358c0.176-0.141,0.218-0.476,0.389-0.65c0.106-0.082,0.307,0.168,0.386,0.359
	c0.276-0.085,0.863-0.637,1.213-0.288c0.352-0.068,0.226-0.398,0.437-0.577c0.195-0.024,0.388-0.048,0.582-0.073
	c0.227-0.122,0.349,0.096,0.568-0.029c0.163-0.025,0.324-0.049,0.486-0.072c0.053-0.056,0.04-0.298,0.097-0.361
	c0.089-0.096,0.291,0.036,0.388-0.071c0.016-0.12,0.096,0.558,0.112,0.438c0.241,1.429,1.785-0.466,0.775,0
	c0.229-0.106,0.296-0.37,0.583-0.29c0.049-0.12,0.097-0.24,0.146-0.359c0.113,0,0.226,0,0.34,0c0.114-0.082,0.228-0.429,0.338-0.505
	c0.212,0.023,0.421,0.048,0.632,0.072c0.305-0.121,0.533-0.299,0.97-0.288c0-0.097,0-0.192,0-0.289
	c0.469-0.061,0.952-0.217,1.358-0.36c0.323-0.114,0.668,0.092,0.873,0.144c0.237,0.06,0.296-0.207,0.533-0.144
	c0.039,0.01,0.179,0.115,0.292,0.072c0.265-0.101,0.855-0.649,1.164-0.361c0.239-0.034,0.254-0.125,0.34-0.36
	c0.598,0.029,0.63,0.176,1.115-0.071c0.069,0.109,0.134,0.157,0.192,0.288c0.314-0.027,0.466-0.216,0.681-0.288
	c0.244,0.047,0.485,0.096,0.728,0.143c0.371-0.11,0.835,0,1.261-0.143c0.12-0.043,0.45-0.317,0.534-0.289
	c0.016,0.072,0.032,0.144,0.048,0.217c0.259,0.189,0.795-0.093,0.921-0.146c0.198-0.078,0.3,0.109,0.387,0.146
	c0.447,0.181,0.87-0.455,1.165,0.072c0.313,0.011,0.455-0.034,0.583-0.289c0.293,0.008,0.367,0.141,0.533,0.217
	c0.336,0.153,0.577,0.858,0.922,1.03c0.354-0.024,0.712-0.049,1.065-0.072c0.205,0.066,0.795,0.211,1.068,0.072
	c0.016-0.049,0.032-0.097,0.048-0.145c0.253-0.124,0.362,0.166,0.583,0c0.069-0.052,0.164,1.4,0.242,1.358c0.016,0,0.031,0,0.048,0
	c0.211-0.064,0.271,0.165,0.388,0.217c0.213,0.096,0.398-0.133,0.485-0.145c0.092-0.012,0.067,0.054,0.097,0.072
	c0.277-0.011,0.303-0.084,0.389-0.36c0.354,0.021,0.719,2.599,1.115,2.445c0.221-0.084,0.569-0.172,0.921-0.143
	c0.187,0.015,0.437,0.16,0.679,0.072c0.229-0.082,0.548-0.277,0.777-0.361c0.505-0.185,1.094,0.124,1.551-0.072
	c0.189-0.082,0.416-0.363,0.581-0.433c0.222-0.093,0.277,0.174,0.438,0.145c0.125-0.022,0.385-0.236,0.534-0.288
	c0.679-0.048,1.358-0.097,2.038-0.145c0.192,0.07,0.423,0.336,0.729,0.217c0.232-0.091,0.567-0.476,0.97-0.29
	c0.07,0.035,0.217,0.271,0.291,0.29c0.097,0.023,0.187-0.129,0.243-0.144c0.167-0.049,0.285,0.114,0.388,0.144
	c0.323,0.093,0.316-0.313,0.63-0.217c0.081,0.024,0.15,0.175,0.292,0.145c0.163-0.038,0.373-0.23,0.631-0.145
	c0.183,0.062,0.41,0.176,0.63,0.217c0,10.599,0,14.805,0,25.405c-83.797,0-167.621,0-251.417,0c0-5.384,0-10.77,0-16.153
	c0-1.442,0-2.885,0-4.327c0-0.478-0.089-1.399,0.047-1.73c0-0.048,0-0.096,0-0.145c0.266,0.239,0.269,0.136,0.582,0
	c0.056,0.173,0.111,0.375,0.195,0.505c0,0.024,0,0.049,0,0.072c0.135-0.101,0.11-0.203,0.195-0.359
	c0.031-0.125,0.01-0.071,0.048-0.145c0.016,0.095,0.032,0.192,0.049,0.288c0.202-0.064,0.165-0.144,0.291-0.288
	c0.115-0.144,0.561,0.454,0.922,0.288c0.674-0.31,0.237,0.001,0.775,0.216c0.233,0.094,0.423-0.225,0.583-0.144
	c0.261,0.135,0.699,1.077,1.165,0.938c0.042-0.013,0.16-0.193,0.242-0.144c0.033,0.095,0.065,0.193,0.097,0.289
	c0.108,0.084,1.718,0.414,1.892,0.36c0.51-0.159,1.15-0.258,1.6-0.36c0.313-0.071,0.644,0.289,1.019,0.144
	c0.792-0.306,1.885-0.5,2.716-0.792c0.516-0.183,1.321,0.029,1.697,0.144c0.016,0,0.032,0,0.048,0
	c0.221,0.039,0.34-0.164,0.484-0.217c0.163,0.024,0.324,0.049,0.487,0.072c0.077-0.038,0.166-0.237,0.242-0.289
	c0.033,0.014,0.097,0.144,0.097,0.144c0.257,0.029,0.07-0.244,0.389-0.072c0.005,0.002,0.023,0.142,0.097,0.072
	c0.017-0.072,0.032-0.144,0.048-0.217c0.113,0.096,0.226,0.193,0.339,0.29c0.335-0.973,1.056-0.494,1.503-0.867
	c0.049,0.109,0.073,0.143,0.146,0.217c0.112,0.143,0.678-0.403,1.018-0.288c0.447,0.15,0.569-0.528,1.068-0.36
	c0.361,0.12,0.474-0.291,0.871-0.145c0.177,0.065,0.493,0.258,0.777,0.145c0.311-0.124,1.413-0.576,1.454-0.649
	c0.19,0.056,0.172,0.077,0.244,0.289c0.513,0.009,1.188,0.02,1.455-0.361c0.176,0.054,0.134-0.007,0.194,0.217
	c0.115-0.062,0.09-0.174,0.145-0.217c0.146,0.025,0.292,0.049,0.437,0.073c0.117-0.046,0.26-0.262,0.437-0.217
	s0.524,0.271,0.823,0.144c0.029-0.012,0.092-0.145,0.146-0.144c0.113,0.001,0.157,0.208,0.34,0.144
	c0.056-0.019,0.198-0.195,0.242-0.215c0.243,0.024,0.486,0.048,0.728,0.072c0.063-0.036,0.058-0.278,0.195-0.217
	c0.032,0.072,0.065,0.145,0.097,0.217c0.056-0.085,0.088-0.204,0.146-0.29c0.199-0.134,0.81,0.124,1.164,0
	c0.396-0.138,0.855-0.065,1.26,0c0.229,0.039,0.275-0.239,0.387-0.288c0.167-0.071,0.313,0.243,0.438,0.288
	c0.145-0.024,0.291-0.047,0.436-0.071c0.064,0.021,0.227,0.185,0.291,0.217c0.306,0.145,0.799,0.039,1.068,0.287
	c0.462-0.016,0.5,0.093,0.728,0.361c0.109,0.126,0.187-0.229,0.389-0.145c0.016,0.008,0.117,0.207,0.146,0.217
	c0.09,0.031,0.534-0.143,0.776-0.145c0.143,0.229,0.286,0.502,0.436,0.722c0,0.024,0,0.047,0,0.072
	c0.191-0.117,0.183-0.323,0.388-0.432c0.209-0.205,0.32,0.032,0.437,0.143c0.257-0.251,0.356,0.09,0.534,0
	c0.414-0.001,0.353,0.202,0.535,0.506c0.12,0.074,0.356-0.203,0.631-0.072c0.158,0.075,0.29,0.285,0.483,0.36
	c0.113,0.073,0.117,0.017,0.195-0.144c0.143,0.103,0.307,0.454,0.389,0.649c0.132-0.097,0.136-0.233,0.242-0.36
	c0.025-0.039,0.605,0.37,0.729,0.505c0.303,0.006,0.361-0.053,0.485-0.289c0.191,0.146,0.261,0.417,0.484,0.577
	c0.109-0.213,0.316-0.385,0.485-0.505c0.117,0.266,0.299,0.492,0.535,0.577c0.105,0.062,0.054,0.056,0.145-0.072
	c0.302,0.104,0.599,0.818,0.872,0.649c0.364-0.001,0.305-0.137,0.486-0.361c0.043-0.077-0.005-0.007,0.048-0.071
	c0.08,0.232,0.132,0.315,0.29,0.432c0.069-0.143,0.065-0.152,0.196-0.217c0.048-0.058,0.012-0.026,0.096-0.072
	c0.043,0.131,0.082,0.262,0.145,0.36c0,0.024,0,0.048,0,0.073c0.121-0.107,0.058,0.018,0.097-0.217
	c0.275,0.001,0.334-0.047,0.438-0.288c0.075,0.107,0.11,0.182,0.146,0.359c0.452-0.18,0.698,0.047,0.968,0.506
	c0.327-0.077,0.766-0.555,1.019-0.217c0.239-0.034,0.254-0.126,0.339-0.361c0.155,0.061,0.448,0.362,0.68,0.217
	c0.065-0.121,0.129-0.24,0.195-0.361c0.129,0.025,0.258,0.048,0.388,0.073c0.154-0.09,0.101-0.254,0.39-0.288
	c0.04-0.132,0.083-0.324,0.145-0.432c0.11-0.073,0.114-0.016,0.192,0.144c0.243-0.081,0.148-0.238,0.293-0.36
	c0.161-0.023,0.323-0.048,0.483-0.073c0.284-0.116,0.741-0.387,0.971-0.648c0.293,0.095,0.313,0.526,0.484,0.793
	c0.121-0.452,0.27-1.062,0.583-1.227c0.095-0.052,0.326,0.139,0.437,0.289c0.119-0.107,0.076-0.031,0.097-0.289
	c0.154-0.059,0.267-0.173,0.387-0.072c0.186,0.1,0.069,0.108,0.146,0.217c0.101,0.165,0.272-0.305,0.389-0.36
	c0.113,0.024,0.227,0.047,0.339,0.072c0.018-0.072,0.032-0.144,0.048-0.217c0.118-0.188,0.339-0.294,0.535-0.36
	c0.131,0.169,0.186,0.127,0.242,0.433c0.015,0,0.032,0,0.048,0c0.077-0.179,0.138-0.288,0.291-0.361
	c0.082-0.057,0.372,0.083,0.486,0.217c0.195-0.064,0.353-0.327,0.484-0.505c0.274,0.077,0.26,0.329,0.438,0.505
	c0.096-0.082,0.144-0.077,0.242,0c0.017,0,0.031,0,0.049,0c0.016,0.072,0.031,0.144,0.048,0.216
	c0.284,0.172,0.684-0.383,1.017-0.216c0.674,0.333,0.383,0.031,0.921-0.217c0.129,0.025,0.257,0.049,0.389,0.072
	c0.014-0.004,0.165-0.159,0.193-0.144c0.034,0.019,0.075,0.255,0.146,0.217c0.333-0.188,0.663-0.503,1.116-0.578
	c0.064-0.75,1.385-0.749,1.745-0.36c0.177-0.138,0.219-0.475,0.391-0.648c0.107-0.083,0.307,0.167,0.388,0.359
	c0.276-0.087,0.861-0.638,1.211-0.288c0.353-0.069,0.224-0.399,0.438-0.579c0.194-0.023,0.387-0.047,0.581-0.072
	c0.229-0.122,0.413-0.523,0.632-0.649c0.162-0.023,0.324-0.047,0.485-0.072c0.052-0.056,0.04-0.299,0.097-0.36
	c0.089-0.096,0.291,0.035,0.387-0.072c0.017-0.121,0.033-0.24,0.05-0.36c0.242-0.375,0.505,0.124,0.776,0
	c0.228-0.106,0.293-0.37,0.581-0.289c0.05-0.119,0.098-0.24,0.146-0.36c0.114,0,0.227,0,0.34,0c0.116-0.081,0.228-0.429,0.341-0.505
	c0.209,0.023,0.419,0.047,0.63,0.071c0.305-0.12,0.533-0.298,0.97-0.288c0-0.096,0-0.193,0-0.289
	C12.74,10.3,13.222,10.142,13.638,9.993z M54.9,9.349c0.049,0,0.098,0,0.146,0c0-0.023,0-0.048,0-0.072
	c-0.084-0.046-0.048-0.014-0.097-0.072C54.91,9.279,54.929,9.223,54.9,9.349z M53.543,9.349c0,0.025,0,0.049,0,0.073
	c0.017,0,0.032,0,0.048,0c0,0.022,0,0.047,0,0.072c0.037-0.079,0.03-0.067,0.048-0.217C53.608,9.301,53.574,9.325,53.543,9.349z"/>
</svg>
