<?xml version="1.0" encoding="utf-8"?>
<!-- Generator: Adobe Illustrator 16.0.0, SVG Export Plug-In . SVG Version: 6.00 Build 0)  -->
<!DOCTYPE svg PUBLIC "-//W3C//DTD SVG 1.1//EN" "http://www.w3.org/Graphics/SVG/1.1/DTD/svg11.dtd">
<svg version="1.1" id="Layer_1" xmlns="http://www.w3.org/2000/svg" xmlns:xlink="http://www.w3.org/1999/xlink" x="0px" y="0px"
	 width="990.975px" height="53.21px" viewBox="-276.825 0 990.975 53.21" enable-background="new -276.825 0 990.975 53.21"
	 xml:space="preserve">
<path fill="#FFFFFF" d="M714.149,10.033c-0.203-0.895-0.236-1.25-0.797-1.38c-0.596,1.297-1.621-0.534-2.389-0.829
	c-0.637,1.757-1.211,2.63-2.277,1.938c-0.082,0.68-0.166,0.967-0.34,1.379c-0.244-0.921-0.381-1.107-1.027-1.104
	c-0.094-0.896,0.059-0.424-0.227-0.828c0,0.093,0,0.183,0,0.276c-0.148,0.376-0.238,0.877-0.342,1.382
	c-0.197-0.172-0.109-0.055-0.229-0.276c-0.301-0.245-0.291-0.285-0.453-0.829c-0.371,0.446-0.494,0.764-0.68,1.658
	c-0.043,0-0.078,0-0.117,0c0-0.093,0-0.186,0-0.279c-0.424-0.854-0.279-1.376-1.137-1.379c-0.646-0.648-1.344,2.093-2.049,2.49
	c-0.221-0.491-0.094-0.51-0.346-0.275c-0.547,0.329-0.98,1.191-1.25,2.21c-0.398-0.452-0.881-1.119-1.139-1.935
	c-0.52,0.612-0.688,1.65-1.139,2.212c-0.293-0.905-0.426-1.128-1.137-1.103c-0.285,0.522-1.652,2.08-1.705,1.936
	c-0.25-0.483-0.264-1.008-0.574-1.382c-0.188,0.748-0.572,2.094-0.906,2.492c-0.186-0.618-0.193-0.833-0.459-0.554
	c-0.455,0.288-0.768,1.091-1.135,1.382c-0.639,0.505-1.193-0.564-1.479-0.276c-0.428,1.159-0.281,1.945-1.254,1.938
	c-0.414-0.341-0.65,0.963-1.25,0c-0.275,0.429-0.537,1.343-1.025,0.554c-0.48-0.421-0.461-1.207-0.914-1.661
	c0,0.095,0,0.187,0,0.279c-0.354,0.842-0.684,1.891-1.021,2.765c-0.568-0.005-1.609-0.668-1.822-0.553
	c-0.068,0.037-0.303,0.804-0.34,0.829c-0.475,0.327-0.654-1.035-0.912-0.554c-0.529,1.025-0.623,1.445-1.709,1.385
	c-0.629,0.958-1.781,0.546-2.504,1.104c-0.148,0.117-0.533,0.747-0.682,0.829c-0.342-0.09-0.68-0.181-1.025-0.273
	c-0.289,0.172-0.635,1.375-1.023,1.104c-0.262-0.182-0.375-1.248-0.908-1.104c-0.953,0.248-2.035,0.527-2.961,0
	c-0.83-0.474-2.264,0.515-2.73,0c-0.133-0.323-0.213-0.787-0.342-1.106c-0.076,0.276-0.156,0.55-0.23,0.83
	c-0.32,0.239-0.309-0.694-0.453-0.83c-0.57,0.09-1.137,0.181-1.709,0.276c-0.105-0.079-0.439-0.756-0.568-0.831
	c-0.43-0.245-0.531,0.549-0.799,0.556c-0.125,0.003-0.275-0.509-0.34-0.556c-0.709-0.48-1.518,0.379-1.936,0.556
	c-0.414,0.171-0.748-0.651-1.023-0.831c-0.342,0.093-0.682,0.184-1.025,0.276c-0.131-0.155-0.068-0.592-0.342-0.829
	c-0.139,0.86-0.037,0.626-0.453,0.829c-0.627-1.457-2.211-1.416-3.414-1.382c-0.168,0.811-0.127,0.89-0.574,1.105
	c-0.096-0.283-2.68-2.011-3.412-2.49c-0.668-0.434-1.406,0.302-1.822,0.554c-0.936,0.565-1.203-1.017-2.049-0.554
	c-1.174,0.64-1.453-1.96-2.508-1.382c-0.799,0.446-2.127-1.653-2.387-1.105c-0.172,0.285-0.223,0.415-0.342,0.829
	c-1.055-1.427-2.746,0.406-3.529-3.321c-0.264,0.368-0.531,0.737-0.797,1.105c-0.039-0.275-0.076-0.551-0.111-0.831
	c-0.178-0.261-0.217,0.265-0.232,0.279c-0.744,0.663-0.303-0.387-0.906-0.279c0,0-0.152,0.499-0.23,0.556
	c-0.176-0.198-0.387-0.965-0.572-1.105c-0.375,0.093-0.756,0.183-1.137,0.275c-0.336-0.199-0.619-0.975-1.135-0.828
	c-0.041,0-0.076,0-0.115,0c-0.887,0.44-2.775,1.25-3.988,0.553c-1.947-1.121-4.514-1.873-6.371-3.046
	c-0.881-0.552-1.654,0.826-2.391,0.554c-1.057-0.391-2.557-0.771-3.756-1.381c-0.406-0.206-4.186,1.061-4.438,1.381
	c-0.076,0.368-0.154,0.737-0.227,1.107c-0.195,0.191-0.475-0.505-0.574-0.553c-1.092-0.533-2.113,3.08-2.729,3.598
	c-0.377,0.314-0.818-0.913-1.367-0.554c-1.27,0.826-0.238,2.018-1.824,0.829c-0.846-0.635-1.893,1.658-2.162,1.107
	c-0.297-0.554-0.207-0.86-0.684-1.107c-0.037,0.367-0.074,0.737-0.113,1.107c-0.092-0.284-0.041-0.078-0.115-0.551
	c-0.199-0.609-0.135-0.994-0.455-1.385c0,0.093,0,0.183,0,0.275c-0.195,0.503-0.328,1.273-0.453,1.94
	c-0.738-0.525-0.746-0.916-1.367,0c-0.215-1.149-0.258-0.422-0.568-0.831c-0.08-0.214-0.15-0.618-0.23-0.831
	c-0.199,0.365-0.184,0.478-0.34,0.276c-0.105-0.258-0.15-0.485-0.229-0.831c-0.42,0.327-0.924,1.031-1.254,0.276
	c-0.172-0.411-0.277-0.973-0.453-1.379c-0.096,0.402-0.207,0.792-0.342,1.103c-0.854-1.818-2.264,0.878-2.959,1.385
	c-0.42,0-0.834,0-1.256,0c-0.264,0.321-0.268,1.625-0.566,1.936c-0.418,0-0.836,0-1.254,0c-0.189,0.554-0.377,1.107-0.568,1.661
	c-0.686,0.092-1.367,0.182-2.051,0.278c-0.125,0.192-0.182,1.19-0.34,1.379c-0.496,0.096-0.988,0.184-1.48,0.276
	c-0.4,0.358-0.586,1.683-0.912,2.218c-0.439,0.719-1.033,0.678-1.479,1.38c-0.117,0.364-0.229,0.736-0.344,1.107
	c-0.363,0.361-0.467-0.503-0.568-0.554c-0.396-0.189-0.188,0.618-0.34,0.832c-0.68,0.932-1.789-0.43-2.391,0
	c-0.201,0.14-0.23,1.078-0.457,0.553c-0.297-0.465-0.377-0.601-0.453-1.661c-0.59,0.224-0.559,1.016-0.912,1.382
	c-0.773,0.807-2.084-1.081-2.619-1.382c-0.715-0.412-0.973,0.819-1.367,1.108c-0.82,0.594-0.938-1.506-1.82-0.832
	c-0.186,0.141-0.496,0.959-0.684,1.106c-0.719,0.093-1.439,0.182-2.164,0.279c-0.148,0.458-0.303,0.922-0.451,1.379
	c-0.422,0.185-0.836,0.371-1.252,0.556c-0.172,0.217-0.383,1.196-0.572,1.383c-0.572,0-1.139,0-1.705,0
	c-0.721,0.477-1.701,1.188-2.506,1.656c-0.342,0-0.684,0-1.023,0c-0.27,0.217-0.545,1.141-0.801,1.383
	c-0.719,0.182-1.439,0.369-2.16,0.555c-0.617,0.422-1.322,1.549-1.936,1.938c-0.541,0.342-1.629-0.438-1.822-1.107
	c-0.25,0.193-0.197,0.906-0.34,1.107c-0.422-0.092-0.836-0.184-1.254-0.277c-0.211,0.152-0.557,0.957-0.801,1.107
	c-0.689,0.423-1.039-1.168-1.82-0.553c-0.264,0.209-0.549,1.185-0.797,1.382c-0.258,0.209-0.598-0.24-0.684-0.277
	c0,0-2.049,0.826-2.049,0.832c-0.15,0.457-0.301,0.92-0.453,1.381c-0.496-0.094-0.986-0.184-1.48-0.277
	c-0.113,0.367-0.229,0.738-0.342,1.105c-0.502,0.453-0.555-0.857-1.139-0.553c-0.848,0.445-1.953,1.398-2.846,1.938
	c-0.986,0.094-1.973,0.184-2.959,0.275c-0.217-0.127-1.121-1.211-1.252-1.104c-0.537,0.424-0.658,1.307-1.596,1.377
	c-0.229-0.455-0.453-0.92-0.682-1.377c-0.105,1.063-0.227,0.982-0.572,1.377c0-0.18,0-0.367,0-0.553
	c-0.104-0.361,0.041-0.346-0.113-0.826c-0.236-0.512-1.225-0.66-1.365-0.555c-0.188,0.414-0.4,0.93-0.572,1.381
	c-0.598-0.078-0.854-0.588-1.252-0.826c-0.588-0.355-0.826,0.375-1.252,0.551c-0.189-0.627-0.457-1.109-0.797-1.383
	c-0.074,0.127-2.713,2.48-2.732,2.49c-0.098,0.311-0.113-0.279-0.113-0.279c-0.271-0.428-0.334-0.803-0.684-1.102
	c-0.152,0.348-0.199,0.377-0.453,0.553c0-0.277,0-0.553,0-0.828c-0.668,0.18-1.395,1.902-2.051,1.104
	c-0.443-0.363-0.475-0.877-1.021-1.104c-0.262,0.605-0.578,0.951-1.027,1.104c0,0.277,0,0.553,0,0.83
	c-0.645-0.094-1.291-0.184-1.934-0.277c-0.064-0.441-0.092-0.662-0.117-1.381c-0.266,0-0.529,0-0.795,0
	c-0.002,1.189-1.859,1.355-2.391,2.213c0-0.279,0-0.553,0-0.832c-0.346,0.023-0.311,0.211-0.453,0
	c-0.207-0.34-0.283-0.715-0.457-1.105c0,0.096,0,0.184,0,0.279c-0.244,0.371-0.41,0.762-0.684,1.105c0,0.273,0,0.553,0,0.83
	c-0.631-0.014-1.42,0.393-1.822,1.107c0.209,0.432,0.158,0.24,0.23,1.104c-0.041,0-0.076,0-0.117,0
	c-0.422-0.789-0.754-0.717-1.021-1.938c-0.717,0.813-1.41,2.098-2.162,2.766c-0.318,0.279-0.906-0.143-1.025,0
	c-0.039,0.277-0.076,0.555-0.115,0.83c-0.494,0.094-0.986,0.186-1.48,0.281c-0.568,0.643-1.139,1.289-1.707,1.934
	c-0.568-0.092-1.137-0.184-1.707-0.275c-0.707,0.453-1.07,0.793-1.822,0.275c-0.777,2.814-0.857,0.018-1.822,0.832
	c-0.1,0.082-0.354,1.023-0.453,1.105c-0.395,0.318-0.455-0.65-0.799-0.553l-0.34,0.553c-0.797-0.092-1.594-0.184-2.391-0.275
	c-0.246,0.16-0.588,0.936-0.801,1.105c-0.996,0.803-1.82-1.295-2.957-0.557c-0.115,0.076-0.482,0.791-0.57,0.832
	c-0.23,0.113-1.186-0.832-1.822-0.832c-1.023,0.188-2.049,0.373-3.07,0.557c-1.221-0.719-2.758-1.447-3.988-2.215
	c-0.605,0-1.213,0-1.822,0c-0.785-0.523-2.021-1.711-3.072-0.828c-0.223-0.26-0.32-1.18-0.568-1.385
	c-0.154,0.092-0.305,0.186-0.455,0.279c-0.461-0.318-1.195-0.973-1.822-1.385c-0.381,0-0.76,0-1.139,0
	c-1.598-0.934-3.613-1.875-5.236-2.49c-0.318-0.119-1.096,0.279-1.596,0.279c-0.711,0-1.277-0.26-1.705-0.557
	c-0.914-0.625-1.805,0.477-2.623,0.557c-0.199-1.061-0.256-1.342-0.906-1.385c-0.072,0.072-0.012,0.322-0.229,0.279
	c-0.203-0.045-0.633-0.924-1.139-0.555c-0.271,0.199-0.412,1.078-0.91,0.828c-0.041,0-0.076,0-0.113,0
	c-0.184-0.158-0.406-1.182-0.57-1.381c-0.514-0.635-0.775,0.477-1.367,0c-0.039-0.182-0.076-0.369-0.111-0.553
	c-0.645-0.531-2.031,0.021-2.508,0.275c-0.834-0.092-1.672-0.182-2.504-0.275c-0.809,0.662-1.379-0.313-2.164,0.275
	c-0.387,0.295-0.564,0.799-1.254,0.832c-0.297-0.98-0.629-1.146-1.365-1.105c-0.691,2.02-1.682-0.418-2.732,0.277
	c-0.205,0.137-0.441,0.859-0.908,0.553c-0.299-0.195-1.557-1.281-2.166-0.553c-0.035,0.275-0.074,0.553-0.113,0.828
	c-0.193,0.111-0.965-0.943-1.252-1.105c-0.998-0.555-2.09-0.133-2.957-0.553c-0.572,0.184-1.139,0.369-1.709,0.553
	c-0.502-0.275-0.857-1-1.592-1.104c-0.141,0.498-0.295,0.686-0.457,1.104c-1.137-0.951-1.211-0.381-2.617-0.273
	c-0.203-0.896-0.234-1.254-0.797-1.385c-0.725,1.105-2.107-0.994-2.734-1.381c-0.266-0.166-0.592,0.238-0.68,0.275
	c-0.557,0.242-0.695-0.783-1.252-0.555c-0.486,0.199-1.293,0.992-2.051,0.555c-0.977-0.57-2.107-1.172-3.209-1.402
	c0-0.369,0-0.738,0-1.107c-1.027,0.039-1.563-0.643-2.277-1.105c-0.496,0.092-0.984,0.184-1.48,0.277
	c-0.262-0.293-0.527-1.631-0.795-1.939c-0.268,0-0.531,0-0.799,0c-0.115-0.459-0.229-0.924-0.344-1.383
	c-0.674,0.314-0.828-0.698-1.365-1.104c-0.631-0.479-1.254,1.44-1.82,0c-0.041-0.46-0.078-0.923-0.117-1.38
	c-0.227-0.411-0.701,0.092-0.906-0.279c-0.137-0.236-0.109-1.167-0.23-1.381c-0.377-0.096-0.758-0.183-1.137-0.279
	c-0.514-0.481-0.945-2.017-1.48-2.488c-0.459-0.093-0.914-0.186-1.367-0.276c-0.5-0.691-0.195-1.954-1.021-2.215
	c-0.826,1.347-2.201-0.777-2.85-1.105c-0.182,0.738-0.658,1.696-0.91,1.383c-0.4-0.671-0.496-1.963-0.91-2.493
	c-0.85,1.489-3.949,1.503-4.1-1.379c-1.066-0.288-1.836-1.496-2.619-2.217c-0.17-0.152-0.262,0.762-0.342,0.832
	c-0.072,0.061-0.422-0.536-0.453-0.554c-0.307,0.093-0.609,0.183-0.912,0.276c-1.268-0.949-0.584-2.111-2.162-0.831
	c-0.787,0.643-1.721-1.486-2.391-0.829c-0.039,0.279-0.074,0.556-0.115,0.829c-0.039,0-0.076,0-0.115,0
	c-0.227,0.297-0.34,0.316-0.568,0c-0.418,0.677-0.381,1.646-1.025,1.938c-0.309-0.683-0.684-1.688-1.135-1.938
	c-0.266,0.516-0.945,1.049-1.139,0.831c-0.359-0.281-0.5-0.697-0.686-1.38c-0.035,0-0.074,0-0.109,0
	c-0.137,1.17-0.266,1.012-0.572,1.66c-0.457-0.255-0.98-0.66-1.25-1.383c-0.041-0.276-0.076-0.553-0.115-0.829
	c-0.268,0.093-0.533,0.18-0.799,0.276c-0.271-0.212-0.672-2.015-0.91-1.382c-0.178,0.414,0.096,0.447-0.34,0.83
	c-0.287,0.388-0.549-0.049-0.912-0.276c-0.043-0.99,0.055-0.698-0.229-1.107c-0.26,0.578-0.799,1.309-1.023,1.107
	c-0.734-0.63-1.078-2.974-1.365-4.703c-0.402,1.028-0.449,2.678-1.139,3.041c-0.539-1.003-1.611-2.045-2.275-2.489
	c-0.381-0.093-0.76-0.185-1.139-0.275c-0.342-0.471-0.117-1.073-0.682-1.385c-0.184,0.615-0.195,0.832-0.457,0.554
	c-0.143-0.421-0.244-1.155-0.342-1.657c-0.67-0.131-0.551-0.762-0.91-1.107c-0.303,0.094-0.605,0.186-0.91,0.276
	c-0.148-0.458-0.301-0.921-0.455-1.381c-0.541-0.558-1.229,0.601-1.594,0.83c-0.203-0.897-0.236-1.252-0.797-1.382
	c-0.594,1.297-1.623-0.536-2.389-0.829c-0.635,1.757-1.211,2.628-2.277,1.937c-0.08,0.681-0.162,0.967-0.34,1.383
	c-0.242-0.922-0.377-1.111-1.023-1.105c-0.094-0.896,0.055-0.423-0.229-0.829c0,0.09,0,0.182,0,0.275
	c-0.148,0.376-0.24,0.881-0.342,1.383c-0.197-0.176-0.109-0.053-0.227-0.277c-0.303-0.246-0.295-0.284-0.457-0.831
	c-0.369,0.444-0.492,0.768-0.68,1.659c-0.127-0.25-0.014,0.022-0.117-0.274c-0.422-0.857-0.279-1.379-1.135-1.385
	c-0.645-0.647-1.35,2.094-2.053,2.492c-0.211-0.492-0.092-0.514-0.34-0.279c-0.551,0.334-0.98,1.196-1.252,2.215
	c-0.398-0.451-0.883-1.12-1.139-1.936c-0.521,0.61-0.688,1.649-1.139,2.215c-0.293-0.908-0.428-1.131-1.139-1.109
	c-0.283,0.523-1.648,2.085-1.705,1.94c-0.248-0.487-0.258-1.008-0.568-1.384c-0.189,0.748-0.578,2.096-0.912,2.491
	c-0.184-0.615-0.193-0.831-0.455-0.553c-0.459,0.288-0.768,1.095-1.139,1.385c-0.639,0.501-1.193-0.566-1.48-0.279
	c-0.422,1.162-0.277,1.946-1.248,1.94c-0.414-0.344-0.65,0.959-1.252,0c-0.273,0.429-0.533,1.338-1.023,0.55
	c-0.484-0.42-0.461-1.207-0.914-1.659c0,0.093,0,0.184,0,0.277c-0.354,0.843-0.686,1.891-1.023,2.767
	c-0.568-0.003-1.607-0.668-1.822-0.55c-0.066,0.036-0.305,0.801-0.34,0.828c-0.473,0.329-0.652-1.035-0.914-0.552
	c-0.529,1.025-0.619,1.446-1.705,1.382c-0.629,0.956-1.785,0.544-2.506,1.105c-0.15,0.116-0.533,0.745-0.684,0.829
	c-0.34-0.092-0.682-0.183-1.023-0.276c-0.289,0.173-0.635,1.376-1.023,1.105c-0.266-0.183-0.373-1.248-0.91-1.105
	c-0.953,0.251-2.031,0.53-2.957,0c-0.836-0.474-2.27,0.513-2.734,0c-0.131-0.326-0.211-0.784-0.344-1.107
	c-0.074,0.278-0.152,0.554-0.227,0.828c-0.32,0.244-0.307-0.694-0.455-0.828c-0.57,0.093-1.139,0.182-1.707,0.278
	c-0.107-0.081-0.441-0.754-0.568-0.829c-0.432-0.249-0.537,0.544-0.801,0.551c-0.127,0.004-0.275-0.506-0.34-0.551
	c-0.707-0.484-1.516,0.376-1.938,0.551c-0.412,0.176-0.746-0.649-1.023-0.828c-0.342,0.093-0.68,0.183-1.025,0.279
	c-0.129-0.159-0.072-0.592-0.34-0.832c-0.139,0.857-0.043,0.627-0.455,0.832c-0.627-1.461-2.209-1.418-3.416-1.385
	c-0.166,0.813-0.123,0.892-0.57,1.107c-0.096-0.284-2.682-2.013-3.412-2.489c-0.67-0.437-1.41,0.303-1.824,0.553
	c-0.936,0.565-1.199-1.017-2.047-0.553c-1.172,0.64-1.455-1.961-2.508-1.382c-0.799,0.441-2.127-1.651-2.387-1.105
	c-0.174,0.282-0.225,0.412-0.344,0.828c-1.055-1.425-2.744,0.406-3.529-3.318c-0.266,0.365-0.531,0.737-0.797,1.105
	c-0.041-0.276-0.076-0.554-0.115-0.832c-0.174-0.262-0.211,0.265-0.227,0.278c-0.744,0.662-0.307-0.385-0.912-0.278
	c0,0-0.146,0.5-0.227,0.556c-0.176-0.197-0.385-0.964-0.568-1.108c-0.381,0.093-0.758,0.184-1.137,0.276
	c-0.34-0.202-0.619-0.979-1.139-0.828c-0.039,0-0.076,0-0.113,0c-0.887,0.44-2.773,1.25-3.986,0.551
	c-1.949-1.124-4.516-1.868-6.373-3.043c-0.877-0.557-1.654,0.826-2.389,0.553c-1.061-0.392-2.559-0.773-3.758-1.385
	c-0.406-0.203-4.186,1.063-4.438,1.385c-0.078,0.367-0.152,0.739-0.229,1.105c-0.195,0.189-0.471-0.503-0.568-0.551
	c-1.096-0.536-2.119,3.078-2.734,3.597c-0.375,0.313-0.818-0.912-1.367-0.553c-1.266,0.825-0.238,2.02-1.822,0.829
	c-0.846-0.635-1.895,1.658-2.162,1.103c-0.299-0.553-0.207-0.857-0.684-1.103c-0.039,0.367-0.078,0.736-0.115,1.103
	c-0.088-0.282-0.039-0.076-0.111-0.553c-0.201-0.604-0.141-0.993-0.457-1.382c0,0.093,0,0.184,0,0.276
	c-0.197,0.505-0.326,1.275-0.457,1.938c-0.736-0.521-0.742-0.914-1.367,0c0-0.183,0-0.369,0-0.553
	c-0.32-1.269-0.111-4.812-0.111-6.642c0-5.531,0-11.061,0-16.597c0-20.651,0-23.246,0-43.9c196.695,0,264.477,0,461.17,0
	 M521.278,42.684c0.117-0.223,0.033-0.098,0.227-0.275c0-0.094,0-0.186,0-0.277c-0.113,0-0.227,0-0.34,0
	C521.237,42.62,521.186,42.403,521.278,42.684z M518.206,42.411c-0.043-0.574-0.027-0.531-0.111-0.832c0,0.096,0,0.186,0,0.277
	c-0.041,0-0.078,0-0.113,0c0,0.094,0,0.184,0,0.277C518.053,42.227,518.13,42.319,518.206,42.411z"/>
<path fill="#FFFFFF" d="M-124.152,24.268c0-0.259,0-0.524,0-0.784c-0.931,0.026-1.417-0.457-2.065-0.784
	c-0.448,0.065-0.896,0.13-1.342,0.193c-0.242-0.209-0.48-1.155-0.728-1.375c-0.24,0-0.48,0-0.723,0
	c-0.101-0.324-0.204-0.654-0.31-0.979c-0.614,0.22-0.752-0.497-1.238-0.786c-0.577-0.337-1.137,1.022-1.652,0
	c-0.036-0.326-0.071-0.651-0.107-0.98c-0.206-0.291-0.635,0.065-0.825-0.195c-0.123-0.169-0.096-0.829-0.206-0.981
	c-0.345-0.067-0.69-0.131-1.034-0.194c-0.468-0.344-0.858-1.436-1.346-1.766c-0.412-0.066-0.825-0.132-1.238-0.196
	c-0.455-0.488-0.18-1.386-0.933-1.572c-0.745,0.953-1.99-0.547-2.579-0.784c-0.172,0.521-0.598,1.204-0.826,0.979
	c-0.365-0.472-0.454-1.388-0.833-1.763c-0.766,1.055-3.58,1.061-3.716-0.981c-0.965-0.202-1.667-1.061-2.377-1.571
	c-0.15-0.104-0.237,0.542-0.31,0.591c-0.061,0.043-0.382-0.379-0.413-0.391c-0.28,0.063-0.553,0.127-0.828,0.195
	c-1.147-0.674-0.527-1.495-1.962-0.59c-0.711,0.454-1.563-1.055-2.168-0.588c-0.037,0.197-0.068,0.394-0.103,0.588
	c-0.037,0-0.068,0-0.104,0c-0.21,0.212-0.311,0.225-0.516,0c-0.379,0.481-0.349,1.167-0.933,1.376
	c-0.28-0.486-0.617-1.202-1.032-1.376c-0.244,0.365-0.862,0.745-1.035,0.59c-0.326-0.199-0.455-0.494-0.619-0.98
	c-0.035,0-0.071,0-0.103,0c-0.12,0.831-0.237,0.718-0.516,1.178c-0.419-0.179-0.89-0.47-1.141-0.98
	c-0.035-0.199-0.065-0.395-0.103-0.591c-0.239,0.067-0.48,0.129-0.722,0.196c-0.248-0.149-0.612-1.428-0.828-0.98
	c-0.162,0.295,0.086,0.319-0.31,0.589c-0.256,0.275-0.498-0.034-0.825-0.194c-0.044-0.702,0.047-0.495-0.207-0.786
	c-0.236,0.408-0.729,0.928-0.931,0.786c-0.668-0.45-0.985-2.11-1.242-3.336c-0.366,0.726-0.408,1.899-1.032,2.156
	c-0.49-0.71-1.463-1.448-2.068-1.764c-0.342-0.068-0.686-0.134-1.029-0.198c-0.309-0.333-0.107-0.76-0.625-0.98
	c-0.166,0.433-0.173,0.591-0.409,0.391c-0.131-0.296-0.225-0.818-0.309-1.176c-0.614-0.093-0.502-0.539-0.831-0.784
	c-0.275,0.067-0.551,0.13-0.825,0.199c-0.141-0.329-0.277-0.654-0.415-0.983c-0.496-0.395-1.118,0.426-1.449,0.589
	c-0.181-0.637-0.213-0.887-0.722-0.98c-0.538,0.919-1.473-0.382-2.169-0.591c-0.576,1.25-1.1,1.867-2.062,1.379
	c-0.076,0.479-0.151,0.682-0.311,0.976c-0.221-0.654-0.347-0.787-0.933-0.784c-0.084-0.637,0.051-0.299-0.207-0.589
	c0,0.068,0,0.131,0,0.197c-0.136,0.268-0.217,0.624-0.309,0.98c-0.179-0.125-0.101-0.038-0.203-0.195
	c-0.281-0.178-0.271-0.202-0.419-0.591c-0.335,0.316-0.447,0.542-0.616,1.173c-0.115-0.175-0.012,0.017-0.104-0.192
	c-0.386-0.609-0.26-0.979-1.036-0.981c-0.581-0.459-1.215,1.485-1.857,1.766c-0.195-0.35-0.085-0.364-0.31-0.198
	c-0.502,0.234-0.892,0.848-1.14,1.571c-0.36-0.325-0.802-0.794-1.034-1.374c-0.476,0.434-0.624,1.172-1.032,1.571
	c-0.264-0.642-0.389-0.804-1.033-0.784c-0.264,0.367-1.499,1.477-1.552,1.372c-0.226-0.345-0.235-0.718-0.516-0.98
	c-0.173,0.53-0.523,1.486-0.828,1.766c-0.166-0.436-0.173-0.589-0.414-0.391c-0.413,0.205-0.694,0.777-1.03,0.98
	c-0.586,0.357-1.087-0.399-1.344-0.197c-0.387,0.826-0.258,1.38-1.139,1.376c-0.38-0.242-0.591,0.683-1.138,0
	c-0.249,0.305-0.485,0.948-0.931,0.389c-0.438-0.296-0.42-0.857-0.827-1.174c0,0.066,0,0.128,0,0.196
	c-0.319,0.595-0.624,1.34-0.929,1.963c-0.516-0.005-1.461-0.477-1.653-0.394c-0.061,0.027-0.275,0.57-0.309,0.591
	c-0.429,0.231-0.596-0.736-0.828-0.394c-0.485,0.729-0.565,1.025-1.55,0.983c-0.572,0.677-1.622,0.386-2.274,0.781
	c-0.136,0.086-0.483,0.533-0.619,0.59c-0.308-0.063-0.619-0.127-0.927-0.192c-0.268,0.12-0.579,0.976-0.934,0.783
	c-0.24-0.131-0.337-0.887-0.826-0.783c-0.862,0.176-1.84,0.374-2.684,0c-0.752-0.337-2.054,0.364-2.479,0
	c-0.123-0.234-0.19-0.557-0.309-0.788c-0.068,0.197-0.14,0.393-0.207,0.591c-0.291,0.166-0.282-0.494-0.415-0.591
	c-0.515,0.066-1.032,0.128-1.55,0.196c-0.095-0.055-0.396-0.534-0.516-0.586c-0.39-0.178-0.484,0.386-0.725,0.391
	c-0.115,0.004-0.249-0.36-0.311-0.391c-0.637-0.344-1.376,0.268-1.753,0.391c-0.378,0.123-0.682-0.464-0.931-0.591
	c-0.309,0.066-0.619,0.133-0.931,0.201c-0.118-0.116-0.063-0.422-0.309-0.589c-0.127,0.607-0.037,0.444-0.413,0.589
	c-0.567-1.038-2.006-1.007-3.1-0.983c-0.152,0.577-0.113,0.633-0.519,0.785c-0.088-0.2-2.436-1.427-3.098-1.765
	c-0.604-0.309-1.276,0.215-1.654,0.392c-0.844,0.401-1.085-0.719-1.854-0.392c-1.063,0.457-1.323-1.389-2.274-0.981
	c-0.726,0.313-1.93-1.17-2.17-0.783c-0.154,0.202-0.205,0.293-0.309,0.591c-0.954-1.016-2.488,0.288-3.203-2.358
	c-0.242,0.262-0.481,0.526-0.724,0.787c-0.035-0.201-0.066-0.395-0.102-0.589c-0.158-0.192-0.194,0.188-0.207,0.194
	c-0.677,0.47-0.279-0.275-0.827-0.194c0,0-0.136,0.351-0.208,0.389c-0.161-0.138-0.351-0.682-0.514-0.784
	c-0.348,0.062-0.69,0.131-1.038,0.197c-0.306-0.146-0.56-0.695-1.031-0.591c-0.035,0-0.069,0-0.103,0
	c-0.802,0.312-2.517,0.887-3.616,0.391c-1.77-0.795-4.099-1.323-5.785-2.156c-0.798-0.396-1.502,0.583-2.17,0.391
	c-0.958-0.278-2.322-0.547-3.408-0.981c-0.37-0.145-3.8,0.752-4.03,0.981c-0.068,0.26-0.136,0.526-0.206,0.784
	c-0.176,0.135-0.427-0.355-0.516-0.389c-0.992-0.378-1.924,2.183-2.48,2.551c-0.34,0.222-0.744-0.645-1.241-0.391
	c-1.146,0.585-0.216,1.43-1.651,0.588c-0.77-0.453-1.719,1.174-1.964,0.782c-0.268-0.392-0.189-0.607-0.619-0.782
	c-0.035,0.261-0.071,0.523-0.104,0.782c-0.081-0.2-0.038-0.052-0.103-0.392c-0.18-0.427-0.127-0.705-0.415-0.979
	c0,0.063,0,0.13,0,0.195c-0.177,0.357-0.296,0.905-0.415,1.376c-0.668-0.37-0.673-0.649-1.24,0c0-0.133,0-0.264,0-0.394
	c-0.292-0.901-0.102-3.408-0.102-4.707c0-3.922,0-7.849,0-11.771c0-14.646,0-29.297,0-43.942c178.496,0,357.05,0,535.548,0
	c0,28.835,0,40.279,0,69.11c-0.469,0.113-0.955,0.423-1.342,0.592c-0.549,0.231-1-0.293-1.344-0.395
	c-0.303-0.082-0.451,0.327-0.623,0.395c-0.67,0.262-0.654-0.843-1.342-0.592c-0.221,0.082-0.473,0.524-0.828,0.392
	c-0.119-0.04-0.309-0.454-0.518-0.392c-0.156,0.051-0.467,0.694-0.617,0.787c-0.859,0.509-1.572-0.538-2.066-0.787
	c-0.652-0.321-1.145,0.402-1.553,0.592c-1.447-0.131-2.895-0.262-4.342-0.395c-0.314-0.141-0.869-0.722-1.137-0.782
	c-0.34-0.081-0.459,0.647-0.932,0.394c-0.354-0.192-0.836-0.957-1.238-1.179c-0.975-0.533-2.227,0.309-3.305-0.194
	c-0.486-0.229-1.166-0.759-1.654-0.982c-0.518-0.239-1.049,0.155-1.447,0.195c-0.751,0.081-1.492-0.161-1.96-0.389
	c-0.846-0.417-1.623,6.595-2.375,6.653c-0.186-0.753-0.238-0.952-0.83-0.981c-0.063,0.051-0.008,0.229-0.205,0.198
	c-0.188-0.031-0.58-0.656-1.035-0.395c-0.25,0.141-0.375,0.764-0.824,0.589c-0.037,0-0.07,0-0.105,0
	c-0.164-0.113-0.367,3.838-0.514,3.696c-0.473-0.453-0.703,0.337-1.242,0c-0.035-0.13-0.07-0.261-0.104-0.394
	c-0.582-0.376-1.84,0.017-2.277,0.196c-0.75-0.063-1.512-0.129-2.266-0.196c-0.738,0.468-1.25,2.386-1.967,2.803
	c-0.353,0.206-0.511,0.567-1.133,0.589c-0.272-0.694-0.575-0.816-1.242-0.784c-0.627,1.433-1.527-0.297-2.481,0.195
	c-0.186,0.099-0.403,0.609-0.823,0.395c-0.27-0.143-1.412-0.91-1.964-0.395c-0.035,0.2-0.067,0.395-0.103,0.589
	c-0.18,0.076-0.883-0.668-1.138-0.784c-0.907-0.391-1.896-0.09-2.687-0.391c-0.518,0.128-1.03,0.261-1.55,0.391
	c-0.457-0.194-0.78-0.71-1.449-0.784c-0.123,0.355-0.263,0.486-0.41,0.784c-1.035-0.674-1.103-0.273-2.375-0.194
	c-0.185-0.639-0.217-0.889-0.725-0.979c-0.657,0.782-1.914-0.708-2.479-0.984c-0.24-0.117-0.54,0.169-0.622,0.196
	c-0.503,0.174-0.63-0.554-1.135-0.391c-0.435,0.141-1.17,0.703-1.857,0.391c-0.867-0.391-1.895-0.815-2.895-0.98
	c0-0.262,0-0.521,0-0.785c-0.93,0.029-1.417-0.454-2.064-0.783c-0.449,0.062-0.895,0.131-1.347,0.194
	c-0.235-0.208-0.476-1.153-0.72-1.376c-0.245,0-0.482,0-0.726,0c-0.103-0.325-0.205-0.652-0.31-0.978
	c-0.612,0.22-0.755-0.498-1.242-0.788c2.152,1.269-1.138-3.886-1.649,0c-0.035-0.324-0.205,1.519-0.24,1.193
	c-0.205-0.291-0.635,0.068-0.825-0.194c-0.122-0.172-0.095-0.829-0.204-0.981c-0.348-0.065-0.688-0.127-1.035-0.196
	c-0.468-0.34-0.728,0.252-1.212-0.079c-0.413-0.066-0.825-0.131-1.24-0.197c-0.45-0.488-0.18-1.385-0.93-1.571
	c-0.745,0.952-1.997-0.548-2.585-0.783c-0.17,0.522-0.597,1.2-0.822,0.979c-0.362-0.475-0.452-1.387-0.829-1.768
	c-0.768,1.058-3.582,1.066-3.717-0.976c-0.968-0.203-1.667-1.063-2.38-1.573c-0.152-0.104-0.237,0.542-0.308,0.589
	c-0.064,0.043-0.382-0.378-0.412-0.392c-0.28,0.067-0.555,0.132-0.83,0.197c-1.145-0.674-0.529-1.498-1.962-0.586
	c-0.712,0.451-1.56-1.056-2.167-0.591c-0.035,0.197-0.069,0.395-0.103,0.591c-0.037,0-0.069,0-0.103,0
	c-0.21,0.21-0.31,0.221-0.517,0c-0.381,0.478-0.348,1.165-0.933,1.372c-0.28-0.485-0.62-1.197-1.035-1.372
	c-0.239,0.362-0.857,0.742-1.029,0.586c-0.328-0.2-0.458-0.496-0.623-0.98c-0.032,0-0.067,0-0.103,0
	c-0.122,0.831-0.239,0.718-0.515,1.175c-0.417-0.178-0.892-0.467-1.142-0.979c-0.03-0.197-0.068-0.395-0.103-0.591
	c-0.237,0.066-0.482,0.131-0.726,0.196c-0.247-0.151-0.609-1.43-0.827-0.979c-0.16,0.292,0.09,0.317-0.31,0.589
	c-0.258,0.275-0.495-0.037-0.825-0.2c-0.042-0.701,0.053-0.492-0.207-0.783c-0.232,0.41-0.725,0.931-0.93,0.783
	c-0.665-0.446-0.982-2.104-1.24-3.333c-0.367,0.728-0.407,1.902-1.037,2.157c-0.487-0.71-1.462-1.452-2.062-1.767
	c-0.346-0.063-0.688-0.13-1.033-0.196c-0.31-0.33-0.107-0.757-0.619-0.98c-0.17,0.436-0.181,0.591-0.415,0.395
	c-0.128-0.299-0.223-0.822-0.308-1.178c-0.612-0.096-0.502-0.54-0.83-0.787c-0.274,0.067-0.55,0.129-0.827,0.197
	c-0.138-0.327-0.274-0.654-0.415-0.981c-0.492-0.395-1.114,0.426-1.444,0.588c-0.185-0.639-0.218-0.887-0.725-0.98
	c-0.538,0.921-1.475-0.382-2.167-0.591c-0.578,1.248-1.1,1.869-2.067,1.375c-0.075,0.485-0.15,0.684-0.308,0.981
	c-0.22-0.657-0.348-0.787-0.932-0.786c-0.086-0.636,0.047-0.302-0.208-0.588c0,0.063,0,0.13,0,0.195
	c-0.138,0.271-0.22,0.625-0.31,0.981c-0.181-0.123-0.098-0.04-0.205-0.195c-0.275-0.175-0.265-0.203-0.415-0.589
	c-0.338,0.313-0.45,0.542-0.62,1.176c-0.032,0-0.067,0-0.103,0c0-0.064,0-0.131,0-0.197c-0.385-0.608-0.257-0.979-1.034-0.979
	c-0.583-0.46-1.218,1.483-1.86,1.767c-0.189-0.35-0.082-0.364-0.307-0.199c-0.5,0.234-0.893,0.848-1.138,1.57
	c-0.362-0.317-0.803-0.793-1.032-1.371c-0.478,0.43-0.627,1.169-1.037,1.568c-0.268-0.642-0.388-0.801-1.035-0.783
	c-0.257,0.37-1.497,1.478-1.547,1.371c-0.229-0.341-0.237-0.713-0.52-0.979c-0.173,0.53-0.522,1.483-0.828,1.766
	c-0.165-0.438-0.175-0.59-0.412-0.39c-0.417,0.201-0.697,0.773-1.037,0.98c-0.582,0.354-1.082-0.402-1.342-0.198
	c-0.383,0.824-0.253,1.381-1.133,1.375c-0.38-0.245-0.592,0.681-1.143,0c-0.247,0.305-0.482,0.951-0.93,0.391
	c-0.435-0.297-0.417-0.856-0.824-1.177c0,0.067,0,0.132,0,0.197c-0.328,0.597-0.628,1.341-0.93,1.96
	c-0.518-0.003-1.458-0.474-1.655-0.389c-0.058,0.027-0.274,0.57-0.31,0.586c-0.425,0.231-0.59-0.733-0.825-0.392
	c-0.482,0.728-0.567,1.026-1.552,0.982c-0.575,0.679-1.62,0.391-2.271,0.786c-0.139,0.082-0.487,0.53-0.622,0.586
	c-0.312-0.062-0.621-0.128-0.93-0.194c-0.263,0.123-0.58,0.976-0.931,0.786c-0.242-0.13-0.342-0.887-0.824-0.786
	c-0.865,0.178-1.845,0.378-2.688,0c-0.753-0.333-2.056,0.365-2.477,0c-0.12-0.231-0.191-0.556-0.312-0.783
	c-0.069,0.198-0.137,0.392-0.205,0.588c-0.293,0.169-0.282-0.494-0.413-0.588c-0.519,0.061-1.033,0.127-1.553,0.195
	c-0.096-0.057-0.398-0.538-0.519-0.59c-0.389-0.173-0.484,0.391-0.722,0.395c-0.115,0.001-0.253-0.361-0.31-0.395
	c-0.641-0.342-1.376,0.267-1.754,0.395c-0.379,0.117-0.68-0.464-0.93-0.591c-0.311,0.065-0.622,0.13-0.93,0.196
	c-0.119-0.111-0.067-0.42-0.312-0.588c-0.128,0.606-0.039,0.443-0.412,0.588c-0.565-1.035-2.008-1.005-3.101-0.982
	c-0.154,0.578-0.114,0.634-0.518,0.787c-0.089-0.202-2.438-1.427-3.102-1.766c-0.604-0.309-1.276,0.214-1.651,0.392
	c-0.852,0.403-1.094-0.719-1.859-0.392c-1.067,0.454-1.321-1.393-2.272-0.98c-0.727,0.313-1.932-1.174-2.169-0.785
	c-0.159,0.202-0.201,0.293-0.312,0.589c-0.954-1.014-2.49,0.289-3.2-2.358c-0.242,0.264-0.481,0.527-0.725,0.787
	c-0.035-0.198-0.069-0.392-0.104-0.59c-0.152-0.188-0.189,0.189-0.205,0.198c-0.675,0.471-0.277-0.274-0.829-0.198
	c0,0-0.135,0.353-0.205,0.392c-0.163-0.138-0.352-0.685-0.517-0.784c-0.344,0.064-0.688,0.129-1.034,0.194
	c-0.307-0.144-0.565-0.692-1.036-0.588c-0.032,0-0.065,0-0.103,0c-0.805,0.312-2.516,0.886-3.615,0.391
	c-1.767-0.794-4.096-1.323-5.782-2.156c-0.803-0.395-1.506,0.585-2.172,0.391c-0.959-0.276-2.318-0.544-3.409-0.981
	c-0.367-0.146-3.796,0.753-4.028,0.981c-0.069,0.262-0.139,0.524-0.206,0.786c-0.174,0.137-0.433-0.357-0.518-0.391
	C48.447,5.27,47.518,7.832,46.961,8.2c-0.341,0.223-0.743-0.647-1.238-0.394c-1.149,0.589-0.217,1.433-1.653,0.589
	c-0.77-0.45-1.719,1.178-1.963,0.784c-0.271-0.395-0.187-0.607-0.619-0.784c-0.037,0.26-0.069,0.523-0.103,0.784
	c-0.084-0.2-0.037-0.054-0.104-0.389c-0.183-0.432-0.127-0.707-0.415-0.981c0,0.063,0,0.13,0,0.195
	c-0.181,0.355-0.295,0.904-0.414,1.376c-0.669-0.369-0.676-0.648-1.241,0c-0.192-0.818-0.232-0.302-0.517-0.589
	c-0.069-0.152-0.138-0.438-0.205-0.591c-0.178,0.261-0.167,0.34-0.311,0.196c-0.096-0.185-0.139-0.344-0.206-0.589
	c-0.38,0.233-0.841,0.728-1.14,0.196c-0.156-0.292-0.255-0.689-0.412-0.98c-0.089,0.285-0.188,0.56-0.31,0.784
	c-0.775-1.29-2.057,0.624-2.685,0.981c-0.385,0-0.76,0-1.139,0c-0.245,0.229-0.248,1.154-0.518,1.375c-0.381,0-0.759,0-1.137,0
	c-0.171,0.391-0.348,0.786-0.521,1.176c-0.613,0.066-1.232,0.129-1.854,0.196c-0.118,0.135-0.165,0.846-0.31,0.98
	c-0.449,0.066-0.896,0.128-1.345,0.197c-0.363,0.254-0.531,1.189-0.827,1.568c-0.402,0.515-0.941,0.486-1.346,0.98
	c-0.102,0.264-0.205,0.527-0.312,0.788c-0.327,0.255-0.42-0.359-0.513-0.393c-0.363-0.131-0.17,0.438-0.313,0.588
	c-0.615,0.666-1.619-0.302-2.17,0c-0.182,0.103-0.207,0.766-0.41,0.395c-0.273-0.332-0.344-0.427-0.414-1.178
	c-0.533,0.158-0.504,0.716-0.83,0.979c-0.699,0.571-1.89-0.766-2.376-0.979c-0.648-0.291-0.88,0.581-1.239,0.783
	c-0.744,0.422-0.846-1.067-1.65-0.588c-0.171,0.1-0.456,0.68-0.62,0.784c-0.657,0.065-1.309,0.131-1.961,0.199
	c-0.144,0.326-0.277,0.654-0.416,0.979c-0.38,0.128-0.758,0.261-1.135,0.391c-0.158,0.156-0.353,0.852-0.518,0.983
	c-0.516,0-1.034,0-1.55,0c-0.648,0.337-1.542,0.842-2.271,1.174c-0.311,0-0.622,0-0.93,0c-0.246,0.158-0.494,0.811-0.724,0.981
	c-0.654,0.13-1.309,0.261-1.962,0.389c-0.56,0.302-1.2,1.104-1.756,1.379c-0.488,0.24-1.48-0.312-1.653-0.789
	c-0.226,0.139-0.177,0.645-0.308,0.789c-0.381-0.066-0.759-0.133-1.139-0.198c-0.188,0.109-0.502,0.679-0.723,0.784
	c-0.623,0.3-0.944-0.828-1.653-0.392c-0.24,0.15-0.498,0.842-0.725,0.981c-0.237,0.147-0.544-0.169-0.619-0.196
	c0,0-1.857,0.588-1.857,0.591c-0.141,0.326-0.277,0.653-0.417,0.979c-0.446-0.062-0.896-0.129-1.341-0.197
	c-0.106,0.262-0.206,0.524-0.311,0.787c-0.458,0.324-0.506-0.609-1.034-0.391c-0.766,0.314-1.772,0.988-2.583,1.372
	c-0.893,0.066-1.789,0.132-2.684,0.196c-0.198-0.089-1.019-0.859-1.135-0.783c-0.493,0.302-0.601,0.928-1.45,0.979
	c-0.206-0.326-0.416-0.654-0.621-0.979c-0.098,0.753-0.206,0.697-0.516,0.979c0-0.129,0-0.262,0-0.392
	c-0.096-0.26,0.036-0.247-0.103-0.59c-0.213-0.361-1.109-0.465-1.241-0.391c-0.168,0.291-0.362,0.662-0.518,0.98
	c-0.544-0.06-0.778-0.419-1.136-0.59c-0.535-0.251-0.756,0.268-1.136,0.388c-0.175-0.441-0.417-0.785-0.726-0.977
	c-0.071,0.09-2.462,1.758-2.477,1.766c-0.094,0.22-0.104-0.195-0.104-0.195c-0.25-0.307-0.305-0.572-0.624-0.784
	c-0.138,0.245-0.177,0.265-0.409,0.391c0-0.201,0-0.394,0-0.588c-0.607,0.127-1.264,1.348-1.858,0.784
	c-0.405-0.259-0.434-0.626-0.93-0.784c-0.236,0.432-0.522,0.677-0.931,0.784c0,0.197,0,0.392,0,0.586
	c-0.584-0.065-1.17-0.129-1.754-0.194c-0.058-0.312-0.083-0.471-0.105-0.979c-0.243,0-0.481,0-0.723,0
	c0,0.844-1.688,0.96-2.169,1.571c0-0.203,0-0.398,0-0.592c-0.315,0.016-0.283,0.149-0.415,0c-0.182-0.243-0.257-0.506-0.414-0.789
	c0,0.069,0,0.134,0,0.201c-0.223,0.264-0.369,0.54-0.619,0.782c0,0.198,0,0.398,0,0.592c-0.572-0.008-1.288,0.276-1.653,0.784
	c0.189,0.308,0.145,0.172,0.206,0.783c-0.033,0-0.065,0-0.103,0c-0.382-0.559-0.684-0.507-0.929-1.374
	c-0.646,0.58-1.278,1.489-1.965,1.962c-0.282,0.199-0.817-0.101-0.929,0c-0.035,0.199-0.065,0.395-0.103,0.589
	c-0.449,0.065-0.895,0.13-1.345,0.194c-0.518,0.463-1.033,0.918-1.552,1.378c-0.515-0.066-1.031-0.131-1.549-0.198
	c-0.643,0.321-0.972,0.561-1.654,0.198c-0.703,1.995-0.776,0.01-1.652,0.588c-0.089,0.06-0.323,0.728-0.413,0.784
	c-0.355,0.229-0.415-0.461-0.725-0.389l-0.31,0.389c-0.722-0.064-1.445-0.13-2.169-0.193c-0.221,0.114-0.534,0.664-0.725,0.783
	c-0.905,0.571-1.655-0.917-2.684-0.393c-0.103,0.054-0.436,0.559-0.516,0.59c-0.211,0.082-1.079-0.59-1.651-0.59
	c-0.933,0.132-1.862,0.263-2.791,0.393c-1.106-0.51-2.498-1.026-3.615-1.571c-0.551,0-1.102,0-1.653,0
	c-0.716-0.372-1.835-1.216-2.788-0.589c-0.204-0.184-0.292-0.834-0.517-0.982c-0.14,0.068-0.276,0.132-0.415,0.198
	c-0.415-0.224-1.083-0.688-1.653-0.979c-0.344,0-0.689,0-1.033,0c-1.453-0.662-3.278-1.331-4.753-1.764
	c-0.291-0.086-0.994,0.195-1.443,0.195c-0.648,0-1.164-0.183-1.553-0.394c-0.829-0.444-1.632,0.338-2.375,0.394
	c-0.186-0.751-0.237-0.951-0.828-0.98c-0.063,0.049-0.009,0.229-0.207,0.194c-0.183-0.031-0.577-0.653-1.034-0.389
	c-0.246,0.138-0.377,0.762-0.828,0.587c-0.034,0-0.067,0-0.104,0c-0.165-0.113-0.368-0.838-0.512-0.979
	c-0.472-0.451-0.704,0.334-1.242,0c-0.037-0.131-0.069-0.262-0.104-0.395c-0.58-0.374-1.839,0.017-2.272,0.2
	c-0.755-0.068-1.517-0.131-2.272-0.2c-0.737,0.471-1.25-0.222-1.965,0.2c-0.349,0.205-0.511,0.565-1.135,0.588
	c-0.272-0.695-0.574-0.815-1.242-0.785c-0.626,1.433-1.527-0.296-2.478,0.197c-0.187,0.096-0.404,0.609-0.827,0.391
	c-0.271-0.141-1.413-0.905-1.965-0.391c-0.035,0.197-0.065,0.392-0.099,0.588c-0.182,0.078-0.881-0.67-1.139-0.783
	c-0.907-0.397-1.896-0.096-2.688-0.395c-0.516,0.131-1.032,0.262-1.55,0.395c-0.459-0.197-0.777-0.71-1.447-0.785
	c-0.128,0.351-0.267,0.486-0.415,0.785c-1.03-0.68-1.098-0.273-2.375-0.197c-0.182-0.636-0.216-0.886-0.725-0.981
	c-0.658,0.784-1.91-0.705-2.479-0.98c-0.241-0.116-0.539,0.17-0.621,0.196c-0.504,0.172-0.629-0.557-1.132-0.392
	c-0.441,0.141-1.172,0.703-1.859,0.392C-122.234,24.87-123.261,24.442-124.152,24.268z M-33.349,27.419
	c0.103-0.158,0.026-0.07,0.206-0.197c0-0.062,0-0.131,0-0.195c-0.103,0-0.206,0-0.311,0C-33.392,27.371-33.434,27.22-33.349,27.419z
	 M-36.14,27.224c-0.04-0.409-0.025-0.376-0.103-0.589c0,0.065,0,0.133,0,0.195c-0.035,0-0.067,0-0.103,0c0,0.065,0,0.132,0,0.2
	C-36.278,27.093-36.208,27.159-36.14,27.224z"/>
</svg>
